# Blender 4.1.0
# www.blender.org
mtllib snake.mtl
o snake.001
v -0.265915 0.399786 -0.063798
v -0.220881 0.479131 -0.087388
v -0.246615 0.408363 -0.121699
v -0.246615 0.444820 -0.058437
v -0.246615 0.408363 -0.003753
v -0.229459 0.461975 -0.029487
v -0.166197 0.422302 0.004825
v -0.174775 0.468409 -0.024125
v -0.166197 0.422302 -0.121699
v -0.174775 0.485564 -0.087388
v -0.251976 0.200349 -0.034848
v -0.251976 0.280767 -0.132422
v -0.251976 0.166038 -0.115266
v -0.251976 0.262539 -0.017692
v -0.177991 0.200349 -0.034848
v -0.170486 0.262539 -0.015548
v -0.177991 0.166038 -0.115266
v -0.170486 0.280767 -0.132422
v -0.240181 0.350463 -0.020909
v -0.172630 0.367618 -0.012331
v -0.251976 0.327946 -0.069159
v -0.240181 0.350463 -0.115266
v -0.172630 0.367618 -0.115266
v 0.229459 0.461975 -0.029487
v 0.265915 0.399786 -0.063798
v 0.246615 0.444820 -0.058437
v 0.246615 0.408363 -0.003753
v 0.174775 0.468409 -0.024125
v 0.166197 0.422302 0.004825
v 0.174775 0.485564 -0.087388
v 0.166197 0.422302 -0.121699
v 0.220881 0.479131 -0.087388
v 0.246615 0.408363 -0.121699
v 0.248759 0.166038 -0.115266
v 0.251976 0.262539 -0.017692
v 0.248759 0.200349 -0.034848
v 0.251976 0.280767 -0.132422
v 0.174775 0.166038 -0.115266
v 0.170486 0.280767 -0.132422
v 0.174775 0.200349 -0.034848
v 0.170486 0.262539 -0.015548
v 0.240181 0.350463 -0.020909
v 0.172630 0.367618 -0.012331
v 0.251976 0.327946 -0.070232
v 0.240181 0.350463 -0.115266
v 0.172630 0.367618 -0.115266
v -0.250904 0.083476 -0.024125
v -0.241254 -0.096660 -0.029487
v -0.177992 -0.096660 -0.029487
v -0.241254 -0.096660 -0.106688
v -0.250904 0.107065 -0.121699
v -0.177992 -0.096660 -0.106688
v -0.171558 0.081331 -0.121699
v -0.171558 0.057742 -0.024125
v -0.251976 0.166038 -0.115266
v -0.177992 0.166038 -0.115266
v -0.177992 0.200350 -0.034848
v -0.251976 0.200350 -0.034848
v 0.169414 0.057742 -0.024125
v 0.177992 -0.096660 -0.029487
v 0.241254 -0.096660 -0.029487
v 0.177992 -0.096660 -0.106688
v 0.169414 0.081331 -0.121699
v 0.241254 -0.096660 -0.106688
v 0.247687 0.107065 -0.121699
v 0.247687 0.083476 -0.024125
v 0.248759 0.166038 -0.115266
v 0.248759 0.200350 -0.034848
v 0.174775 0.166038 -0.115266
v 0.174775 0.200350 -0.034848
v -0.137246 -0.479449 0.040209
v -0.166197 -0.303602 -0.093821
v -0.150113 -0.423693 -0.072376
v -0.165125 -0.226401 0.076665
v -0.046106 -0.524483 0.047715
v -0.008578 -0.268218 0.101326
v -0.010722 -0.317541 -0.122771
v -0.027878 -0.469799 -0.101327
v -0.006433 -0.180295 -0.121699
v -0.167269 -0.094516 -0.084171
v -0.154402 0.003058 -0.075593
v -0.149041 -0.019459 0.062726
v -0.008578 -0.156706 0.102399
v -0.007506 -0.134189 -0.115266
v -0.167269 -0.094516 -0.084171
v -0.007506 -0.134189 -0.115266
v -0.006433 -0.180295 -0.121699
v -0.154402 0.003058 -0.075593
v 0.007506 -0.134189 -0.115266
v 0.167269 -0.094516 -0.084171
v 0.006433 -0.180295 -0.121699
v 0.154402 0.003058 -0.075593
v -0.131885 -0.845082 0.004825
v -0.072912 -1.012352 -0.000536
v -0.061118 -0.845082 0.010186
v -0.117946 -1.012352 -0.000536
v -0.145824 -0.848299 -0.084171
v -0.137246 -0.949090 -0.080954
v -0.046106 -0.848299 -0.104543
v -0.051467 -0.949090 -0.098110
v -0.143680 -0.776459 0.026270
v -0.039673 -0.776459 0.033775
v -0.017156 -0.776459 -0.140999
v -0.162980 -0.776459 -0.118482
v -0.046106 -0.558795 0.042353
v -0.027878 -0.584529 -0.109904
v -0.151186 -0.584529 -0.080954
v -0.135102 -0.564156 0.033775
v -0.137246 -0.479449 0.040209
v -0.046106 -0.524483 0.047715
v -0.027878 -0.469799 -0.101327
v -0.150113 -0.423693 -0.072376
v 0.143680 -0.776459 0.026270
v 0.162980 -0.776459 -0.118482
v 0.135102 -0.564156 0.033775
v 0.131885 -0.845082 0.004825
v 0.039673 -0.776459 0.033775
v 0.061118 -0.845082 0.010186
v 0.046106 -0.848299 -0.104543
v 0.072912 -1.012352 -0.000536
v 0.051467 -0.949090 -0.098110
v 0.017156 -0.776459 -0.140999
v 0.027878 -0.584529 -0.109904
v 0.145824 -0.848299 -0.084171
v 0.137246 -0.949090 -0.080954
v 0.117946 -1.012352 -0.000536
v 0.151186 -0.584529 -0.080954
v 0.046106 -0.558795 0.042353
v 0.046106 -0.524483 0.047715
v 0.137246 -0.479449 0.040209
v 0.150113 -0.423693 -0.072376
v 0.027878 -0.469799 -0.101327
v -0.149041 -1.166754 -0.098110
v -0.051467 -1.091697 -0.109904
v -0.051467 -1.166754 -0.109904
v -0.143680 -1.091697 -0.098110
v -0.137246 -0.949090 -0.080954
v -0.114729 -1.069180 0.016620
v -0.117946 -1.012352 -0.000536
v -0.051467 -0.949090 -0.098110
v -0.072912 -1.012352 -0.000536
v -0.075057 -1.069180 0.016620
v -0.128669 -1.135659 0.177455
v -0.132957 -1.124937 0.107760
v -0.138319 -1.166754 0.103471
v -0.122235 -1.102420 0.097038
v -0.071840 -1.135659 0.177455
v -0.072912 -1.102420 0.097038
v -0.066479 -1.124937 0.105615
v -0.062190 -1.166754 0.101326
v -0.135102 -1.166754 0.171022
v -0.066479 -1.166754 0.171022
v 0.051467 -1.166754 -0.109904
v 0.149041 -1.091697 -0.098110
v 0.149041 -1.166754 -0.098110
v 0.051467 -1.091697 -0.109904
v 0.137246 -0.949090 -0.080954
v 0.051467 -0.949090 -0.098110
v 0.117946 -1.012352 -0.000536
v 0.114729 -1.069180 0.016620
v 0.072912 -1.012352 -0.000536
v 0.075057 -1.069180 0.016620
v 0.128669 -1.135659 0.177455
v 0.122235 -1.102420 0.097038
v 0.072912 -1.102420 0.097038
v 0.134030 -1.124937 0.107760
v 0.135102 -1.166754 0.171022
v 0.138319 -1.166754 0.103471
v 0.066479 -1.166754 0.171022
v 0.062190 -1.166754 0.101326
v 0.071840 -1.135659 0.177455
v 0.066479 -1.124937 0.105615
v 0.010722 -0.317541 -0.122771
v 0.046106 -0.524483 0.047715
v 0.008578 -0.268218 0.101326
v 0.027878 -0.469799 -0.101327
v 0.166197 -0.303602 -0.093821
v 0.150113 -0.423693 -0.072376
v 0.165125 -0.226401 0.076665
v 0.137246 -0.479449 0.040209
v 0.167269 -0.094516 -0.084171
v 0.006433 -0.180295 -0.121699
v 0.008578 -0.156706 0.102399
v 0.007506 -0.134189 -0.115266
v 0.149041 -0.019459 0.062726
v 0.154402 0.003058 -0.075593
v 0.060045 0.622811 0.008042
v 0.040745 0.593861 0.050931
v 0.050395 0.585283 -0.000536
v 0.049323 0.621739 0.053076
v 0.072912 0.675351 -0.006970
v 0.055756 0.646401 0.049859
v 0.057901 0.672134 0.047714
v 0.063262 0.766491 0.052003
v 0.060045 0.728963 0.053076
v 0.079346 0.775069 -0.018764
v 0.039673 0.680712 -0.104543
v 0.046106 0.769708 -0.112049
v -0.079346 0.775069 -0.018764
v -0.060045 0.728963 0.053076
v -0.061118 0.766491 0.052003
v -0.072912 0.675351 -0.006970
v -0.046106 0.769708 -0.112049
v -0.039673 0.680712 -0.104543
v -0.055756 0.679640 0.059509
v -0.057901 0.672134 0.047714
v -0.054684 0.646401 0.049859
v -0.060045 0.622811 0.008042
v -0.049323 0.621739 0.053076
v -0.040745 0.593861 0.050931
v -0.050395 0.585283 -0.000536
v 0.055756 0.679640 0.059509
v 0.034312 0.629245 -0.087388
v -0.034312 0.629245 -0.087388
v 0.013939 0.557404 0.067015
v -0.010722 0.584210 0.065942
v -0.013939 0.557404 0.067015
v 0.010722 0.584210 0.065942
v 0.040745 0.593861 0.050931
v 0.012867 0.599222 0.071304
v 0.049323 0.621739 0.053076
v 0.020373 0.628172 0.072376
v 0.055756 0.646400 0.049859
v 0.016084 0.644256 0.072376
v 0.010722 0.668917 0.069159
v -0.012867 0.599222 0.071304
v 0.000000 0.616377 0.076665
v 0.005361 0.628172 0.092748
v -0.020373 0.628172 0.072376
v -0.005361 0.628172 0.092748
v -0.005361 0.668917 0.078809
v 0.005361 0.668917 0.078809
v -0.049323 0.621739 0.053076
v -0.016084 0.644256 0.072376
v -0.040745 0.593861 0.050931
v 0.006433 0.679640 0.086315
v -0.006433 0.679640 0.086315
v 0.000000 0.724674 0.084171
v -0.055756 0.679640 0.059509
v -0.060045 0.728963 0.053076
v 0.000000 0.793297 0.084171
v -0.061118 0.766491 0.052003
v 0.060045 0.728963 0.053076
v 0.055756 0.679640 0.059509
v 0.057901 0.672134 0.047714
v -0.054684 0.646400 0.049859
v -0.057901 0.672134 0.047714
v -0.010722 0.668917 0.069159
v -0.017156 0.553115 0.038064
v 0.017156 0.553115 0.038064
v 0.050395 0.585283 -0.000536
v -0.050395 0.585283 -0.000536
v 0.063262 0.766491 0.052003
v -0.034312 0.629244 -0.087388
v 0.034312 0.629244 -0.087388
v -0.072912 0.675351 -0.006970
v 0.039673 0.680712 -0.104543
v -0.039673 0.680712 -0.104543
v 0.046106 0.769708 -0.112049
v -0.046106 0.769708 -0.112049
v 0.072912 0.675351 -0.006970
v -0.032167 0.809381 -0.036992
v -0.079346 0.775069 -0.018764
v -0.061118 0.766491 0.052003
v -0.046106 0.769708 -0.112049
v 0.033239 0.809381 -0.036992
v 0.046106 0.769708 -0.112049
v 0.079346 0.775069 -0.018764
v 0.000000 0.793297 0.084171
v 0.063262 0.766491 0.052003
v -0.087923 0.677495 -0.026270
v -0.062190 0.630317 -0.002681
v -0.070768 0.675351 0.000536
v -0.077201 0.636750 -0.020909
v 0.070768 0.675351 0.000536
v 0.077201 0.636750 -0.020909
v 0.087924 0.677495 -0.026270
v 0.062190 0.630317 -0.002681
v -0.061118 0.629244 -0.027342
v -0.087923 0.677495 -0.026270
v -0.071840 0.678567 -0.033776
v -0.077201 0.636750 -0.020909
v -0.062190 0.630317 -0.002681
v 0.077201 0.636750 -0.020909
v 0.071840 0.678567 -0.033776
v 0.087924 0.677495 -0.026270
v 0.061118 0.629244 -0.027342
v 0.062190 0.630317 -0.002681
v -0.075057 0.687145 -0.019837
v -0.070768 0.675351 0.000536
v 0.075057 0.687145 -0.019837
v 0.070768 0.675351 0.000536
v -0.049323 0.514515 -0.034848
v -0.085779 0.605655 -0.017692
v -0.028950 0.495215 0.011258
v -0.069695 0.626028 -0.103471
v -0.046106 0.554188 -0.080954
v 0.069695 0.626028 -0.103471
v 0.046106 0.554188 -0.080954
v 0.085779 0.605655 -0.017692
v 0.049323 0.514515 -0.034848
v 0.047178 0.556332 0.039137
v 0.051467 0.496287 0.039137
v 0.027878 0.495215 0.011258
v -0.051467 0.496287 0.039137
v 0.145824 0.257178 0.054148
v 0.000000 0.327946 0.119554
v 0.000000 0.248600 0.116338
v 0.171558 0.345102 0.050931
v -0.047178 0.556332 0.039137
v 0.120091 0.170327 0.056292
v 0.000000 0.170327 0.114193
v -0.145824 0.257178 0.054148
v -0.120091 0.170327 0.056292
v -0.236965 0.483420 -0.024125
v -0.182280 0.519876 -0.108832
v -0.239109 0.496287 -0.104543
v -0.182280 0.505937 -0.024125
v -0.226242 0.413725 0.039137
v -0.160836 0.444820 0.039137
v -0.171558 0.345102 0.050931
v -0.051467 0.497359 0.039137
v -0.092212 0.542393 -0.024125
v -0.085779 0.559549 -0.115266
v 0.236965 0.483420 -0.024125
v 0.160836 0.443747 0.039137
v 0.226242 0.412652 0.039137
v 0.182280 0.505937 -0.024125
v 0.239109 0.496287 -0.104543
v 0.182280 0.519876 -0.108832
v 0.051467 0.497359 0.039137
v 0.092212 0.542393 -0.024125
v 0.085779 0.559549 -0.115266
v -0.172630 0.229300 -0.095965
v -0.120091 0.170327 0.056292
v -0.145824 0.257178 0.054148
v -0.137246 0.117787 -0.063798
v 0.145824 0.257178 0.054148
v 0.137246 0.117787 -0.063798
v 0.172630 0.229300 -0.095965
v 0.120091 0.170327 0.056292
v -0.236965 0.483420 -0.024125
v -0.171558 0.345102 0.050931
v -0.226242 0.413725 0.039137
v -0.203725 0.413725 -0.060582
v -0.239109 0.496287 -0.104543
v -0.224098 0.413725 -0.149577
v -0.206942 0.339740 -0.128133
v 0.239109 0.496287 -0.104543
v 0.206942 0.339740 -0.128133
v 0.224098 0.413725 -0.149577
v 0.203725 0.412653 -0.060582
v 0.236965 0.483420 -0.024125
v 0.171558 0.345102 0.050931
v 0.226242 0.412653 0.039137
v -0.085779 0.559549 -0.115266
v 0.085779 0.559549 -0.115266
v 0.000000 0.413725 -0.177455
v 0.000000 0.265756 -0.140999
v -0.137246 0.117787 -0.063798
v -0.172630 0.229300 -0.095965
v 0.000000 0.117787 -0.104543
v 0.172630 0.229300 -0.095965
v 0.137246 0.117787 -0.063798
v -0.171558 0.425520 -0.163516
v -0.239109 0.496287 -0.104543
v -0.182280 0.519876 -0.108832
v -0.224098 0.413725 -0.149577
v -0.206942 0.339741 -0.128133
v 0.182280 0.519876 -0.108832
v 0.224098 0.413725 -0.149577
v 0.171558 0.425520 -0.163516
v 0.239109 0.496287 -0.104543
v 0.206942 0.339741 -0.128133
v -0.229459 -0.251063 -0.004825
v -0.229459 -0.246774 -0.091676
v -0.190858 -0.266074 -0.009114
v -0.241254 -0.209246 -0.098110
v -0.241254 -0.209246 -0.000536
v -0.190858 -0.259641 -0.079882
v 0.234820 -0.244629 -0.091676
v 0.234820 -0.248918 -0.004825
v 0.206942 -0.283230 -0.079882
v 0.241254 -0.209246 -0.000536
v 0.241254 -0.209246 -0.098110
v 0.206942 -0.288591 -0.009114
v -0.183353 -0.252135 -0.079882
v -0.182280 -0.258568 -0.009114
v -0.190858 -0.266074 -0.009114
v -0.211231 -0.242485 -0.004825
v -0.212303 -0.237123 -0.091676
v -0.212303 -0.206029 -0.000536
v -0.212303 -0.206029 -0.098110
v -0.190858 -0.259641 -0.079882
v 0.195147 -0.283230 -0.009114
v 0.195147 -0.277869 -0.079882
v 0.206942 -0.283230 -0.079882
v 0.212303 -0.244629 -0.091676
v 0.212303 -0.248918 -0.004825
v 0.212303 -0.209245 -0.098110
v 0.212303 -0.209245 -0.000536
v 0.206942 -0.288591 -0.009114
v -0.159763 -0.206029 -0.017692
v -0.209086 -0.159923 -0.017692
v -0.209086 -0.159923 -0.046642
v -0.159763 -0.206029 0.004825
v -0.150113 -0.197451 -0.017692
v -0.150113 -0.197451 0.004825
v -0.195147 -0.128828 -0.052004
v -0.195147 -0.128828 -0.029487
v -0.229459 -0.246774 -0.091676
v -0.212303 -0.237124 -0.091676
v -0.190858 -0.259641 -0.079882
v -0.212303 -0.206029 -0.098110
v -0.241254 -0.209246 -0.098110
v -0.211231 -0.242485 -0.004825
v -0.229459 -0.251063 -0.004825
v -0.182280 -0.258569 -0.009114
v -0.241254 -0.209246 -0.000536
v -0.212303 -0.206029 -0.000536
v -0.183353 -0.252135 -0.079882
v -0.190858 -0.266074 -0.009114
v 0.177992 -0.214607 0.004825
v 0.212303 -0.156706 -0.046642
v 0.212303 -0.156706 -0.017692
v 0.177992 -0.214607 -0.017692
v 0.166197 -0.209246 0.004825
v 0.166197 -0.209246 -0.017692
v 0.189786 -0.128828 -0.029487
v 0.189786 -0.128828 -0.052004
v 0.212303 -0.244629 -0.091676
v 0.234820 -0.244629 -0.091676
v 0.195147 -0.277869 -0.079882
v 0.241254 -0.209246 -0.098110
v 0.212303 -0.209246 -0.098110
v 0.234820 -0.248918 -0.004825
v 0.212303 -0.248918 -0.004825
v 0.206942 -0.288591 -0.009114
v 0.212303 -0.209246 -0.000536
v 0.241254 -0.209246 -0.000536
v 0.206942 -0.283230 -0.079882
v 0.195147 -0.283230 -0.009114
v -0.183353 -0.128828 -0.092749
v -0.212303 -0.206029 -0.000536
v -0.212303 -0.206029 -0.098110
v -0.183353 -0.128828 -0.026270
v -0.177991 -0.096661 -0.106688
v -0.177991 -0.096661 -0.029487
v 0.212303 -0.209246 -0.098110
v 0.183353 -0.128828 -0.026270
v 0.183353 -0.128828 -0.092749
v 0.212303 -0.209246 -0.000536
v 0.177992 -0.096661 -0.029487
v 0.177992 -0.096661 -0.106688
v -0.229459 -0.128828 -0.092749
v -0.212303 -0.206029 -0.098110
v -0.241254 -0.209246 -0.098110
v -0.183353 -0.128828 -0.092749
v -0.229459 -0.128828 -0.026270
v -0.241254 -0.209246 -0.000536
v -0.183353 -0.128828 -0.026270
v -0.212303 -0.206029 -0.000536
v -0.177991 -0.096661 -0.029487
v -0.241254 -0.096661 -0.029487
v -0.241254 -0.096661 -0.106688
v -0.177991 -0.096661 -0.106688
v 0.241254 -0.209246 -0.098110
v 0.183353 -0.128828 -0.092749
v 0.229459 -0.128828 -0.092749
v 0.212303 -0.209246 -0.098110
v 0.241254 -0.209246 -0.000536
v 0.229459 -0.128828 -0.026270
v 0.212303 -0.209246 -0.000536
v 0.183353 -0.128828 -0.026270
v 0.241254 -0.096661 -0.029487
v 0.177992 -0.096661 -0.029487
v 0.177992 -0.096661 -0.106688
v 0.241254 -0.096661 -0.106688
v 0.027878 0.495215 0.011258
v 0.061118 0.533815 0.052003
v 0.047178 0.556332 0.039137
v 0.051467 0.496287 0.039137
v -0.028950 0.495215 0.011258
v -0.061118 0.533815 0.052003
v -0.051467 0.496287 0.039137
v -0.047178 0.556332 0.039137
v 0.109368 0.588499 -0.017692
v 0.085779 0.605655 -0.017692
v 0.095429 0.603511 -0.129205
v 0.069695 0.626028 -0.103471
v -0.085779 0.605655 -0.017692
v -0.109368 0.588499 -0.017692
v -0.069695 0.626028 -0.103471
v -0.095429 0.603511 -0.129205
v -0.109368 0.588500 -0.017692
v -0.051467 0.496287 0.039137
v -0.061118 0.533815 0.052003
v -0.092212 0.542393 -0.024125
v -0.095429 0.603511 -0.129205
v -0.085779 0.559549 -0.115266
v 0.085779 0.559549 -0.115266
v 0.092212 0.542393 -0.024125
v 0.061118 0.533815 0.052003
v 0.051467 0.496287 0.039137
v 0.109368 0.588500 -0.017692
v 0.095429 0.603511 -0.129205
v -0.069695 0.626028 -0.103471
v 0.069695 0.626028 -0.103471
v 0.004289 0.006274 0.107760
v 0.149041 -0.019459 0.062726
v 0.135102 0.074898 0.059509
v 0.008578 -0.156706 0.102399
v -0.004289 0.006274 0.107760
v -0.008578 -0.156706 0.102399
v -0.007506 -0.134189 -0.115266
v 0.007506 -0.134189 -0.115266
v -0.135102 0.074898 0.059509
v -0.149041 -0.019459 0.062726
v -0.120091 0.170327 0.056292
v 0.000000 0.170327 0.114193
v 0.120091 0.170327 0.056292
v -0.003217 -0.007665 -0.109905
v -0.155474 0.003058 -0.075593
v -0.145824 0.060959 -0.070232
v -0.007506 -0.134189 -0.115266
v 0.003217 -0.007665 -0.109905
v 0.007506 -0.134189 -0.115266
v 0.145824 0.060959 -0.070232
v 0.155475 0.003058 -0.075593
v 0.137246 0.117787 -0.063798
v 0.145824 0.060959 -0.069159
v 0.000000 0.117787 -0.104543
v -0.145824 0.060959 -0.069159
v -0.137246 0.117787 -0.063798
v -0.145824 0.060959 -0.070232
v -0.149041 -0.019459 0.062726
v -0.135102 0.074898 0.059509
v -0.155474 0.003058 -0.075593
v 0.135102 0.074898 0.059509
v 0.155475 0.003058 -0.075593
v 0.145824 0.060959 -0.070232
v 0.149041 -0.019459 0.062726
v 0.145824 0.060959 -0.069159
v 0.120091 0.170327 0.056292
v 0.137246 0.117787 -0.063798
v -0.137246 0.117787 -0.063798
v -0.145824 0.060959 -0.069159
v -0.120091 0.170327 0.056292
v -0.039673 0.669990 -0.026270
v 0.022517 0.594933 0.016620
v 0.039673 0.669990 -0.026270
v -0.022517 0.594933 0.016620
v 0.049323 0.514515 -0.034848
v 0.027878 0.495215 0.011258
v -0.028950 0.495215 0.011258
v -0.049323 0.514515 -0.034848
v 0.050395 0.585283 -0.000536
v -0.050395 0.585283 -0.000536
v 0.072912 0.675351 -0.006970
v -0.017156 0.553116 0.038064
v 0.017156 0.553116 0.038064
v -0.072912 0.675351 -0.006970
v 0.039673 0.669990 -0.026270
v -0.028950 0.646400 -0.070232
v -0.039673 0.669990 -0.026270
v 0.028950 0.646400 -0.070232
v 0.046106 0.554188 -0.080954
v 0.049323 0.514515 -0.034848
v -0.046106 0.554188 -0.080954
v -0.049323 0.514515 -0.034848
vn -0.9966 0.0827 -0.0051
vn -0.4284 0.8253 -0.3679
vn -0.5957 0.1701 -0.7850
vn -0.8825 0.4704 0.0016
vn -0.6140 0.0848 0.7847
vn -0.4957 0.7121 0.4973
vn 0.6117 0.1258 0.7810
vn 0.5052 0.7116 0.4882
vn 0.6622 0.1610 -0.7318
vn 0.4950 0.8104 -0.3134
vn -0.7354 -0.0443 0.6762
vn -0.6749 0.0518 -0.7361
vn -0.7271 -0.0346 -0.6856
vn -0.6842 -0.0696 0.7259
vn 0.7037 -0.0889 0.7050
vn 0.6728 -0.1262 0.7290
vn 0.7089 -0.0401 -0.7041
vn 0.6796 0.0065 -0.7336
vn -0.6158 -0.1104 0.7801
vn 0.6899 -0.1753 0.7023
vn -0.9991 -0.0417 -0.0006
vn -0.6211 0.0662 -0.7810
vn 0.7303 -0.0193 -0.6829
vn 0.4989 0.7034 0.5063
vn 0.9965 0.0836 0.0059
vn 0.8858 0.4618 0.0452
vn 0.6168 0.0929 0.7816
vn -0.4755 0.7167 0.5100
vn -0.6056 0.1273 0.7855
vn -0.4854 0.8149 -0.3169
vn -0.6606 0.1536 -0.7349
vn 0.4281 0.8272 -0.3639
vn 0.5916 0.1671 -0.7887
vn 0.7286 -0.0445 -0.6835
vn 0.6971 -0.0884 0.7115
vn 0.7230 -0.0770 0.6865
vn 0.6735 0.0521 -0.7374
vn -0.7120 -0.0164 -0.7020
vn -0.6750 0.0205 -0.7375
vn -0.7246 -0.0629 0.6863
vn -0.6810 -0.1294 0.7207
vn 0.6389 -0.0875 0.7643
vn -0.6970 -0.1626 0.6984
vn 0.9991 -0.0425 -0.0033
vn 0.6034 0.0538 -0.7956
vn -0.7256 -0.0253 -0.6877
vn -0.6979 0.0023 0.7162
vn -0.6849 -0.1372 0.7156
vn 0.7039 -0.0473 0.7087
vn -0.6648 -0.3646 -0.6519
vn -0.6831 0.0044 -0.7303
vn 0.6997 -0.2637 -0.6640
vn 0.7009 0.0076 -0.7133
vn 0.7077 0.0071 0.7065
vn -0.7272 -0.0346 -0.6856
vn 0.7090 -0.0401 -0.7041
vn 0.7036 -0.0888 0.7050
vn -0.7354 -0.0442 0.6762
vn -0.7067 0.0011 0.7075
vn -0.7023 -0.0535 0.7099
vn 0.6874 -0.1332 0.7140
vn -0.6975 -0.2706 -0.6635
vn -0.6990 -0.0066 -0.7151
vn 0.6681 -0.3619 -0.6501
vn 0.6886 0.0045 -0.7251
vn 0.6938 0.0146 0.7200
vn 0.7229 -0.0769 0.6866
vn -0.7245 -0.0628 0.6864
vn -0.7297 -0.1269 0.6718
vn -0.7707 -0.0983 -0.6296
vn -0.8136 -0.0751 -0.5766
vn -0.7425 -0.0261 0.6694
vn 0.5963 -0.1826 0.7817
vn 0.6256 -0.1020 0.7735
vn 0.6245 -0.1077 -0.7736
vn 0.6432 -0.0749 -0.7620
vn 0.5128 0.0780 -0.8549
vn -0.6758 0.1196 -0.7273
vn -0.7808 0.1395 -0.6090
vn -0.8109 0.1169 0.5734
vn 0.1730 -0.3260 0.9294
vn 0.3254 -0.3589 -0.8748
vn 0.5129 0.0779 -0.8549
vn -0.3241 -0.3388 -0.8833
vn 0.6756 0.1173 -0.7279
vn -0.3739 0.0787 -0.9241
vn 0.7808 0.1395 -0.6090
vn -0.6836 -0.2134 0.6980
vn 0.6416 0.0371 0.7661
vn 0.5973 -0.2788 0.7520
vn -0.6177 0.0444 0.7852
vn -0.8310 -0.2574 -0.4931
vn -0.8201 0.0127 -0.5721
vn 0.6476 -0.3686 -0.6669
vn 0.6852 -0.0010 -0.7284
vn -0.6765 -0.1546 0.7201
vn 0.6296 -0.1994 0.7509
vn 0.6624 -0.1865 -0.7256
vn -0.7623 -0.1412 -0.6317
vn 0.6295 -0.0550 0.7750
vn 0.6737 0.1247 -0.7284
vn -0.8310 0.1016 -0.5469
vn -0.6909 -0.0324 0.7222
vn -0.7298 -0.1269 0.6717
vn 0.5962 -0.1826 0.7818
vn 0.6431 -0.0749 -0.7621
vn -0.8136 -0.0750 -0.5766
vn 0.6771 -0.1570 0.7189
vn 0.7627 -0.1226 -0.6350
vn 0.6910 -0.0433 0.7215
vn 0.6854 -0.2065 0.6983
vn -0.6316 -0.1999 0.7490
vn -0.6015 -0.2783 0.7489
vn -0.6542 -0.3898 -0.6482
vn -0.6357 0.0432 0.7707
vn -0.7569 0.0201 -0.6532
vn -0.6638 -0.1661 -0.7293
vn -0.6718 0.1016 -0.7338
vn 0.8341 -0.2630 -0.4849
vn 0.8114 0.0097 -0.5844
vn 0.6155 0.0398 0.7871
vn 0.8271 0.0836 -0.5557
vn -0.6409 -0.0649 0.7648
vn -0.6167 -0.1658 0.7696
vn 0.7297 -0.1196 0.6732
vn 0.8247 -0.0798 -0.5600
vn -0.6657 -0.0681 -0.7431
vn -0.6478 -0.5600 -0.5165
vn 0.6942 0.0678 -0.7166
vn 0.5610 -0.5689 -0.6014
vn -0.7792 0.1089 -0.6173
vn -0.6362 0.5793 0.5095
vn -0.6177 0.0444 0.7851
vn 0.6851 -0.0009 -0.7284
vn 0.6995 0.5140 0.4964
vn -0.5235 0.4268 0.7375
vn -0.9491 0.2995 0.0977
vn -0.7496 -0.6603 0.0461
vn -0.5065 0.8111 0.2924
vn 0.5190 0.4200 0.7445
vn 0.5812 0.7567 0.2993
vn 0.9731 0.2095 0.0962
vn 0.7356 -0.6754 0.0515
vn -0.6376 -0.5674 0.5210
vn 0.6128 -0.5851 0.5311
vn -0.5665 -0.5676 -0.5974
vn 0.7867 0.1134 -0.6069
vn 0.6232 -0.5809 -0.5235
vn -0.6925 0.0710 -0.7179
vn 0.8114 0.0098 -0.5845
vn -0.7569 0.0201 -0.6533
vn 0.6156 0.0398 0.7871
vn 0.6126 0.5919 0.5239
vn -0.6357 0.0433 0.7707
vn -0.6964 0.5133 0.5015
vn 0.5099 0.4295 0.7453
vn 0.4888 0.8209 0.2953
vn -0.5777 0.7577 0.3035
vn 0.9417 0.3174 0.1113
vn 0.6223 -0.5760 0.5301
vn 0.7341 -0.6773 0.0479
vn -0.6225 -0.5799 0.5255
vn -0.7422 -0.6685 0.0482
vn -0.5265 0.4174 0.7407
vn -0.9752 0.2001 0.0940
vn -0.6343 -0.1003 -0.7666
vn -0.6292 -0.1034 0.7703
vn 0.7750 -0.0808 -0.6267
vn 0.8247 -0.0799 -0.5599
vn 0.7433 -0.0241 0.6685
vn 0.7297 -0.1196 0.6733
vn -0.1753 -0.3292 0.9278
vn 0.8270 0.1022 0.5529
vn 0.9640 -0.2374 0.1195
vn 0.8469 -0.3416 0.4074
vn 0.8082 -0.5333 -0.2497
vn 0.8036 -0.1998 0.5606
vn 0.6493 -0.6896 -0.3206
vn 0.7977 -0.0645 0.5997
vn 0.7544 -0.2524 0.6060
vn 0.7728 0.3124 0.5525
vn 0.7763 -0.0175 0.6301
vn 0.9062 0.4220 -0.0259
vn 0.5686 -0.2061 -0.7964
vn 0.5208 0.3160 -0.7931
vn -0.9033 0.4287 -0.0159
vn -0.7827 0.0031 0.6224
vn -0.7702 0.3267 0.5478
vn -0.6505 -0.6891 -0.3195
vn -0.5218 0.3162 -0.7923
vn -0.5692 -0.2056 -0.7961
vn -0.7656 -0.2849 0.5768
vn -0.7660 -0.2517 0.5915
vn -0.7976 -0.0792 0.5980
vn -0.9639 -0.2384 0.1185
vn -0.7986 -0.1763 0.5754
vn -0.8469 -0.3416 0.4074
vn -0.8082 -0.5333 -0.2497
vn 0.7683 -0.2867 0.5723
vn 0.5762 -0.7303 -0.3669
vn -0.5762 -0.7303 -0.3669
vn 0.5232 -0.6127 0.5923
vn -0.2311 -0.1341 0.9636
vn -0.5232 -0.6128 0.5923
vn 0.2311 -0.1341 0.9636
vn 0.8469 -0.3417 0.4074
vn 0.2916 -0.2743 0.9164
vn 0.8036 -0.1997 0.5607
vn 0.5855 -0.0893 0.8058
vn 0.6614 0.1967 0.7238
vn 0.6456 -0.2552 0.7198
vn -0.2916 -0.2743 0.9164
vn -0.0000 -0.4937 0.8696
vn 0.4054 -0.2798 0.8702
vn -0.6083 -0.0665 0.7909
vn -0.4074 -0.2768 0.8703
vn -0.5654 -0.1636 0.8084
vn 0.5554 -0.1430 0.8192
vn -0.6475 0.1835 0.7397
vn -0.8469 -0.3416 0.4075
vn -0.8469 -0.3417 0.4074
vn 0.2739 -0.2932 0.9160
vn -0.2792 -0.2891 0.9157
vn -0.0048 0.0576 0.9983
vn -0.7655 -0.2849 0.5769
vn -0.7827 0.0031 0.6225
vn -0.0056 0.6141 0.7892
vn 0.7543 -0.2524 0.6060
vn -0.7660 -0.2517 0.5916
vn -0.6218 -0.2577 0.7396
vn -0.3230 -0.9406 -0.1047
vn 0.3230 -0.9406 -0.1047
vn 0.7262 -0.3709 0.5788
vn -0.8082 -0.5334 -0.2497
vn -0.7262 -0.3709 0.5788
vn -0.5763 -0.7303 -0.3669
vn 0.5763 -0.7303 -0.3669
vn -0.6504 -0.6891 -0.3195
vn 0.5687 -0.2062 -0.7963
vn -0.5692 -0.2055 -0.7961
vn 0.5208 0.3160 -0.7930
vn -0.5218 0.3163 -0.7922
vn 0.6494 -0.6897 -0.3205
vn -0.3033 0.9441 -0.1289
vn -0.5219 0.3162 -0.7923
vn 0.3082 0.9422 -0.1312
vn 0.9062 0.4220 -0.0258
vn -0.0057 0.6140 0.7893
vn 0.7727 0.3124 0.5526
vn -0.9848 0.1620 -0.0634
vn -0.7090 -0.6182 0.3393
vn -0.8166 0.2062 0.5391
vn -0.8849 -0.4649 -0.0295
vn 0.8056 0.2214 0.5495
vn 0.8743 -0.4809 -0.0660
vn 0.9817 0.1729 -0.0797
vn 0.6924 -0.6326 0.3470
vn -0.5145 -0.7117 -0.4782
vn -0.9848 0.1620 -0.0632
vn -0.4250 0.2066 -0.8813
vn -0.8849 -0.4648 -0.0294
vn -0.7090 -0.6182 0.3394
vn 0.8743 -0.4808 -0.0660
vn 0.4325 0.1964 -0.8800
vn 0.9817 0.1729 -0.0796
vn 0.5212 -0.7065 -0.4788
vn -0.6266 0.7738 0.0926
vn -0.8166 0.2063 0.5391
vn 0.6266 0.7738 0.0926
vn 0.8056 0.2215 0.5495
vn -0.8294 0.4800 0.2860
vn 0.3229 0.8630 0.3886
vn 0.5555 0.6707 0.4915
vn -0.0775 0.9943 0.0726
vn -0.4157 0.8428 0.3417
vn 0.0909 0.9929 0.0764
vn 0.3490 0.9127 0.2124
vn -0.2977 0.8680 0.3974
vn 0.8536 0.4076 0.3243
vn -0.7551 0.4924 0.4329
vn 0.5556 0.6707 0.4915
vn 0.0502 0.5577 0.8285
vn -0.5536 0.6681 0.4972
vn -0.0417 0.5601 0.8274
vn 0.7434 -0.1901 0.6413
vn 0.0025 0.2642 0.9645
vn 0.0112 -0.0442 0.9990
vn 0.7615 -0.1531 0.6298
vn 0.7720 0.4788 0.4182
vn 0.0025 0.2643 0.9644
vn 0.7913 -0.0266 0.6108
vn -0.0048 -0.0222 0.9997
vn -0.7543 -0.1926 0.6277
vn -0.7893 -0.0518 0.6118
vn -0.9179 0.2671 0.2933
vn -0.3724 0.8284 -0.4184
vn -0.8005 0.5138 -0.3086
vn -0.3390 0.8211 0.4592
vn -0.8899 -0.2048 0.4075
vn -0.2563 0.4475 0.8568
vn -0.7643 -0.1555 0.6258
vn -0.2532 0.5271 0.8112
vn -0.8674 0.3190 0.3820
vn -0.5453 0.4718 -0.6928
vn 0.9197 0.2659 0.2889
vn 0.2552 0.4357 0.8632
vn 0.8892 -0.2196 0.4013
vn 0.3436 0.8222 0.4537
vn 0.7920 0.5203 -0.3194
vn 0.3773 0.8237 -0.4234
vn 0.2415 0.5234 0.8171
vn 0.8616 0.3259 0.3892
vn 0.5370 0.4676 -0.7021
vn -0.7751 -0.3804 -0.5045
vn -0.8360 -0.0805 -0.5428
vn 0.7435 -0.1901 0.6412
vn 0.8362 -0.1233 -0.5343
vn 0.7848 -0.3756 -0.4931
vn -0.9179 0.2672 0.2934
vn -0.7643 -0.1555 0.6259
vn -0.8899 -0.2050 0.4075
vn -0.9505 -0.2888 0.1150
vn -0.8005 0.5138 -0.3085
vn -0.8477 -0.1150 -0.5179
vn -0.7721 -0.3629 -0.5217
vn 0.7920 0.5204 -0.3193
vn 0.7735 -0.3544 -0.5254
vn 0.7919 -0.1005 -0.6023
vn 0.9465 -0.2897 0.1420
vn 0.9197 0.2660 0.2890
vn 0.7615 -0.1532 0.6298
vn 0.8893 -0.2196 0.4012
vn -0.5452 0.4718 -0.6929
vn 0.5371 0.4675 -0.7021
vn -0.0032 0.0369 -0.9993
vn -0.0202 -0.2562 -0.9664
vn -0.8360 -0.0805 -0.5427
vn -0.7752 -0.3803 -0.5044
vn -0.0074 -0.1022 -0.9947
vn 0.7848 -0.3755 -0.4930
vn 0.8363 -0.1234 -0.5342
vn -0.1816 0.0774 -0.9803
vn -0.8005 0.5139 -0.3085
vn -0.3725 0.8284 -0.4183
vn -0.8477 -0.1151 -0.5179
vn -0.7722 -0.3628 -0.5216
vn 0.3773 0.8237 -0.4233
vn 0.7920 -0.1006 -0.6022
vn 0.1886 -0.0148 -0.9819
vn 0.7920 0.5203 -0.3193
vn 0.7920 -0.1005 -0.6022
vn 0.7736 -0.3544 -0.5254
vn 0.2258 0.0568 -0.9725
vn -0.4951 -0.5375 0.6827
vn -0.4432 -0.5867 -0.6778
vn 0.1952 -0.8822 0.4285
vn -0.6973 -0.0471 -0.7152
vn -0.7104 0.0784 0.6994
vn 0.2817 -0.8357 -0.4713
vn 0.6277 -0.3953 -0.6706
vn 0.6507 -0.3360 0.6810
vn 0.1449 -0.8392 -0.5242
vn 0.7105 0.1059 0.6957
vn 0.7052 -0.0178 -0.7088
vn 0.2017 -0.8555 0.4769
vn 0.7881 0.0494 -0.6135
vn 0.7342 0.0057 0.6789
vn 0.1952 -0.8823 0.4284
vn 0.6440 0.2653 0.7176
vn 0.7465 0.1107 -0.6561
vn 0.7034 -0.0426 0.7095
vn 0.6967 -0.1611 -0.6991
vn 0.2816 -0.8358 -0.4714
vn -0.6850 -0.2960 0.6657
vn -0.6983 -0.3016 -0.6491
vn -0.7171 -0.0556 -0.6948
vn -0.6958 0.0798 0.7138
vn -0.6906 -0.1605 -0.7052
vn 0.7105 0.1058 0.6957
vn 0.2018 -0.8555 0.4769
vn 0.0374 -0.8976 -0.4393
vn -0.6045 -0.2831 0.7446
vn -0.1184 -0.6133 -0.7809
vn -0.1086 -0.5910 0.7993
vn 0.8823 -0.1667 -0.4403
vn 0.6096 0.0327 0.7920
vn 0.7874 0.2309 -0.5716
vn 0.4945 0.6116 0.6176
vn -0.4433 -0.5867 -0.6777
vn 0.7466 0.1107 -0.6560
vn 0.2817 -0.8358 -0.4713
vn 0.6967 -0.1611 -0.6990
vn -0.6974 -0.0471 -0.7151
vn -0.4951 -0.5375 0.6826
vn 0.7343 0.0057 0.6788
vn -0.7105 0.0785 0.6993
vn 0.7035 -0.0425 0.7095
vn 0.7881 0.0495 -0.6135
vn 0.1952 -0.8822 0.4284
vn 0.2732 -0.5658 0.7780
vn 0.2668 -0.5528 -0.7895
vn 0.6842 -0.0990 0.7225
vn 0.2218 -0.8682 -0.4438
vn -0.6137 -0.1700 0.7710
vn -0.7927 -0.4164 -0.4453
vn -0.6428 0.4523 0.6182
vn -0.8327 0.0045 -0.5537
vn -0.7171 -0.0555 -0.6947
vn 0.6278 -0.3954 -0.6705
vn -0.6984 -0.3016 -0.6491
vn 0.7053 -0.0177 -0.7087
vn -0.6907 -0.1605 -0.7051
vn 0.6508 -0.3360 0.6809
vn -0.6958 0.0799 0.7138
vn 0.2018 -0.8555 0.4768
vn -0.7052 -0.0514 0.7072
vn 0.7106 0.1058 0.6956
vn 0.1448 -0.8392 -0.5242
vn 0.6673 -0.3175 -0.6738
vn 0.7034 -0.0425 0.7095
vn 0.6967 -0.1612 -0.6990
vn 0.6976 -0.0599 0.7140
vn 0.7039 -0.0472 0.7088
vn -0.6995 -0.0556 0.7124
vn 0.6936 -0.2149 -0.6875
vn -0.7051 -0.0514 0.7072
vn -0.7022 -0.0535 0.7099
vn -0.6940 -0.2141 -0.6874
vn -0.6974 -0.0471 -0.7152
vn 0.6673 -0.3175 -0.6737
vn -0.7103 0.0888 0.6983
vn 0.7039 -0.0472 0.7087
vn -0.6648 -0.3648 -0.6519
vn 0.7052 -0.0178 -0.7087
vn -0.6688 -0.3135 -0.6741
vn 0.6937 -0.2149 -0.6875
vn 0.7103 0.0888 0.6982
vn -0.7052 -0.0513 0.7072
vn -0.6996 -0.0557 0.7124
vn 0.6874 -0.1332 0.7139
vn -0.7023 -0.0534 0.7099
vn -0.6976 -0.2706 -0.6634
vn 0.6681 -0.3620 -0.6501
vn -0.5535 0.6682 0.4972
vn 0.1610 0.1718 0.9719
vn 0.0502 0.5577 0.8286
vn 0.5555 0.6708 0.4914
vn -0.1515 0.1585 0.9757
vn -0.0417 0.5600 0.8274
vn 0.7720 0.4788 0.4181
vn 0.8112 0.4638 0.3562
vn -0.2559 0.3452 0.9030
vn 0.8112 0.4638 0.3561
vn -0.2978 0.8680 0.3974
vn -0.2558 0.3451 0.9030
vn 0.6130 0.6004 -0.5136
vn 0.5440 0.7254 0.4218
vn 0.8112 0.4637 0.3562
vn 0.0908 0.9929 0.0763
vn -0.1516 0.1585 0.9757
vn 0.3230 0.8629 0.3887
vn -0.8231 0.4467 0.3507
vn 0.2824 0.3382 0.8977
vn 0.3229 0.8629 0.3887
vn -0.8231 0.4468 0.3506
vn -0.0776 0.9943 0.0726
vn -0.6143 0.5890 -0.5252
vn -0.5233 0.7351 0.4309
vn -0.8231 0.4468 0.3507
vn -0.8673 0.3191 0.3820
vn -0.6143 0.5889 -0.5251
vn -0.5452 0.4719 -0.6928
vn -0.8673 0.3190 0.3820
vn 0.5371 0.4676 -0.7021
vn 0.8615 0.3260 0.3893
vn 0.1611 0.1718 0.9719
vn 0.0501 0.5577 0.8285
vn 0.3597 0.2515 -0.8985
vn -0.0776 0.9943 0.0727
vn 0.3597 0.2516 -0.8985
vn -0.3639 0.2450 -0.8986
vn 0.1625 -0.0206 0.9865
vn 0.8270 0.1021 0.5529
vn 0.7973 0.1202 0.5915
vn -0.1752 -0.3292 0.9279
vn -0.1867 -0.0219 0.9822
vn -0.7763 0.1263 0.6175
vn -0.8109 0.1169 0.5733
vn -0.7893 -0.0519 0.6118
vn 0.7913 -0.0266 0.6109
vn -0.1150 0.0502 -0.9921
vn -0.7874 0.1704 -0.5924
vn -0.7853 0.1831 -0.5915
vn 0.1275 0.0497 -0.9906
vn 0.7790 0.1649 -0.6049
vn 0.7672 0.1822 -0.6150
vn 0.7893 0.1789 -0.5874
vn -0.0073 -0.1021 -0.9947
vn -0.8063 0.1535 -0.5713
vn -0.8361 -0.0805 -0.5427
vn -0.7852 0.1831 -0.5915
vn -0.7763 0.1263 0.6176
vn -0.7873 0.1705 -0.5925
vn 0.7671 0.1822 -0.6151
vn 0.7790 0.1648 -0.6050
vn 0.8269 0.1021 0.5529
vn 0.9858 0.1540 0.0668
vn 0.8363 -0.1234 -0.5343
vn -0.9862 0.1508 0.0681
vn -0.8360 -0.0806 -0.5428
vn -0.8062 0.1534 -0.5713
vn -0.7516 0.6547 -0.0804
vn 0.3552 0.2710 0.8947
vn 0.7322 0.6796 -0.0447
vn -0.3533 0.2722 0.8950
vn 0.3552 0.2709 0.8947
vn 0.5454 0.3184 0.7753
vn -0.5454 0.3193 0.7750
vn -0.8294 0.4799 0.2860
vn 0.8081 -0.5334 -0.2498
vn -0.8082 -0.5334 -0.2498
vn 0.6494 -0.6896 -0.3206
vn 0.3231 -0.9406 -0.1047
vn -0.6505 -0.6890 -0.3195
vn 0.7322 0.6796 -0.0448
vn -0.3970 0.5930 -0.7005
vn 0.3456 0.6170 -0.7071
vn 0.3491 0.9127 0.2123
vn -0.4159 0.8428 0.3417
vn -0.8294 0.4799 0.2861
vt 0.505310 0.732422
vt 0.683533 0.982117
vt 0.929504 0.756592
vt 0.469055 0.875977
vt 0.061890 0.762115
vt 0.258392 0.931061
vt 0.000000 0.807312
vt 0.216705 0.949249
vt 0.931091 0.801361
vt 0.684174 1.000000
vt 0.271545 0.111298
vt 0.999969 0.357452
vt 0.860229 0.000061
vt 0.151581 0.309113
vt 0.130432 0.309265
vt 0.999939 0.357452
vt 0.182465 0.582214
vt 0.120911 0.636353
vt 0.539673 0.508270
vt 0.880798 0.577759
vt 0.882721 0.631500
vt 0.259003 0.931274
vt 0.505707 0.732544
vt 0.468811 0.876099
vt 0.061829 0.762451
vt 0.217316 0.949463
vt 0.000000 0.807648
vt 0.685455 1.000000
vt 0.932159 0.801270
vt 0.684784 0.982117
vt 0.930450 0.756500
vt 0.859131 0.000061
vt 0.150452 0.309418
vt 0.270050 0.111542
vt 0.999939 0.357361
vt 0.999969 0.357361
vt 0.129272 0.309570
vt 0.182098 0.582458
vt 0.120605 0.636627
vt 0.539520 0.508362
vt 0.881226 0.577698
vt 0.883270 0.631439
vt 0.001434 0.609497
vt 0.049988 0.001465
vt 0.841949 0.000061
vt 0.999969 0.684906
vt 0.998505 0.598053
vt 0.000000 0.522644
vt 0.944580 0.882751
vt 0.125244 1.000000
vt 0.003876 0.521393
vt 0.085968 0.000031
vt 0.879730 0.003876
vt 0.999969 0.603485
vt 0.996063 0.690399
vt 0.000000 0.608307
vt 0.928436 0.888062
vt 0.100098 1.000000
vt 0.284149 0.084381
vt 0.872620 0.419739
vt 0.781342 0.191559
vt 0.116180 0.563934
vt 0.251648 0.000031
vt 0.009735 0.483521
vt 0.999969 0.394287
vt 0.909515 0.105133
vt 0.989105 0.653381
vt 0.821686 0.815674
vt 0.780609 1.000000
vt 0.173065 0.954773
vt 0.000000 0.693787
vt 0.962341 0.740112
vt 0.769958 0.000031
vt 0.128662 0.875549
vt 0.000000 0.453186
vt 0.999969 1.000000
vt 0.128662 0.875641
vt 0.769958 0.000061
vt 0.000000 0.453278
vt 0.227844 0.282959
vt 0.258118 0.000031
vt 0.197571 0.282959
vt 0.697174 0.278076
vt 0.682037 0.107361
vt 0.803131 0.278076
vt 0.772858 0.107361
vt 0.116974 0.400269
vt 0.076447 0.399780
vt 0.999969 0.400024
vt 0.878845 0.400024
vt 0.030273 0.770752
vt 0.833405 0.726868
vt 0.682037 0.726868
vt 0.077209 0.760986
vt 0.040527 0.905029
vt 0.000000 0.829285
vt 0.787994 0.921967
vt 0.636597 1.000000
vt 0.833435 0.726868
vt 0.682007 0.107361
vt 0.959961 0.009949
vt 0.999969 0.348663
vt 0.999969 0.009949
vt 0.959961 0.348663
vt 0.899963 1.000000
vt 0.559967 0.452881
vt 0.619965 0.713409
vt 0.959961 1.000000
vt 0.000000 0.150635
vt 0.239990 0.200134
vt 0.254974 0.009949
vt 0.279968 0.301758
vt 0.249969 0.200134
vt 0.264984 0.009949
vt 0.019989 0.009949
vt 0.999939 0.348663
vt 0.999939 0.394409
vt 0.251984 0.000061
vt 0.009583 0.483551
vt 0.909698 0.105194
vt 0.872620 0.419769
vt 0.781494 0.191620
vt 0.116241 0.563873
vt 0.284454 0.084381
vt 0.821472 0.815674
vt 0.988953 0.653442
vt 0.000000 0.693726
vt 0.962128 0.740173
vt 0.172882 0.954712
vt 0.780273 1.000000
vt 0.411438 0.260864
vt 0.201721 0.152191
vt 0.453369 0.119598
vt 0.195190 0.259064
vt 0.486938 0.462555
vt 0.210693 0.352417
vt 0.221863 0.449524
vt 0.198822 0.807953
vt 0.195374 0.663818
vt 0.542847 0.839447
vt 0.959503 0.480377
vt 0.999969 0.817719
vt 0.160126 0.478210
vt 0.875610 0.284760
vt 0.579071 0.014404
vt 0.440491 0.116119
vt 0.420654 0.014404
vt 0.559296 0.116119
vt 0.730225 0.152191
vt 0.572235 0.174347
vt 0.779144 0.259064
vt 0.614655 0.273407
vt 0.819794 0.352417
vt 0.593536 0.342926
vt 0.559906 0.445129
vt 0.427612 0.174347
vt 0.499969 0.227875
vt 0.531097 0.274872
vt 0.385071 0.273407
vt 0.468658 0.274872
vt 0.465302 0.445129
vt 0.528748 0.445129
vt 0.220520 0.259064
vt 0.406250 0.342926
vt 0.269714 0.152191
vt 0.536194 0.486847
vt 0.457794 0.486847
vt 0.499969 0.647736
vt 0.183044 0.478210
vt 0.155609 0.663818
vt 0.499969 0.908997
vt 0.150879 0.807953
vt 0.844299 0.663818
vt 0.816895 0.478210
vt 0.827362 0.447357
vt 0.187988 0.352417
vt 0.172363 0.447357
vt 0.434082 0.445129
vt 0.404297 0.000031
vt 0.595428 0.000061
vt 0.778442 0.023041
vt 0.987000 0.128235
vt 0.929596 0.160858
vt 0.794800 0.008698
vt 0.221283 0.023041
vt 0.012939 0.128235
vt 0.204926 0.008698
vt 0.070343 0.160858
vt 0.859863 0.807953
vt 0.696259 0.284760
vt 0.303680 0.284760
vt 0.915466 0.462555
vt 0.270966 0.480377
vt 0.728973 0.480377
vt 0.238220 0.817719
vt 0.761719 0.817719
vt 0.084473 0.462555
vt 0.296234 0.614960
vt 0.000000 0.523834
vt 0.113373 0.165436
vt 0.210114 1.000000
vt 0.708191 0.614960
vt 0.789825 1.000000
vt 0.999939 0.523834
vt 0.499969 0.000031
vt 0.898499 0.165436
vt 0.116699 0.000061
vt 0.000000 0.956970
vt 0.805420 0.134155
vt 0.999939 0.000061
vt 0.000000 0.879517
vt 0.896362 0.845154
vt 0.191132 0.176514
vt 0.958557 0.028961
vt 0.813934 1.000000
vt 0.899567 0.797913
vt 0.397675 0.778809
vt 0.332123 0.959381
vt 0.440033 0.742676
vt 0.341705 1.000000
vt 0.415619 0.812653
vt 0.658234 1.000000
vt 0.584320 0.812653
vt 0.667816 0.959381
vt 0.602264 0.778809
vt 0.597504 0.850616
vt 0.441467 0.766022
vt 0.590240 0.729187
vt 0.542053 0.766022
vt 0.391174 0.729187
vt 0.805420 0.273743
vt 0.499969 0.411987
vt 0.499969 0.256805
vt 0.859070 0.445862
vt 0.402435 0.850616
vt 0.558380 0.742676
vt 0.607635 0.744934
vt 0.392303 0.744934
vt 0.751740 0.101624
vt 0.499969 0.101624
vt 0.194519 0.273743
vt 0.248199 0.101624
vt 0.016388 0.739807
vt 0.120026 0.790802
vt 0.016174 0.766968
vt 0.118561 0.762573
vt 0.028198 0.581299
vt 0.164734 0.642670
vt 0.140869 0.445862
vt 0.308136 0.835236
vt 0.320129 0.869080
vt 0.983551 0.739807
vt 0.835205 0.641266
vt 0.971741 0.579041
vt 0.881378 0.762573
vt 0.983765 0.766968
vt 0.879913 0.790802
vt 0.691803 0.835236
vt 0.679810 0.869080
vt 0.739532 0.293091
vt 0.000000 0.136627
vt 0.013885 0.368011
vt 0.583313 0.000061
vt 0.583313 0.000031
vt 0.444427 0.966644
vt 0.027771 0.599426
vt 0.138855 0.781494
vt 0.569427 0.781494
vt 0.777740 1.000000
vt 0.999969 0.781494
vt 0.895782 0.586151
vt 0.569397 0.779999
vt 0.138855 0.778473
vt 0.499969 0.581482
vt 0.499969 0.290771
vt 0.212219 0.000061
vt 0.139893 0.218018
vt 0.499969 0.000061
vt 0.860046 0.218018
vt 0.787720 0.000031
vt 0.141357 0.603973
vt 0.018494 0.743805
vt 0.031311 0.581299
vt 0.067535 0.435974
vt 0.973267 0.581299
vt 0.858582 0.603973
vt 0.983765 0.743805
vt 0.932404 0.435974
vt 0.968628 0.581299
vt 0.001434 0.298615
vt 0.999664 0.375671
vt 0.000000 0.000061
vt 0.999939 1.000000
vt 0.002594 1.000000
vt 0.999207 0.093109
vt 0.999664 0.559784
vt 0.001434 0.500031
vt 0.999207 0.071472
vt 0.001617 0.000031
vt 0.999207 0.209839
vt 0.001617 0.116791
vt 0.001617 0.000061
vt 0.001434 0.419647
vt 0.999664 0.496704
vt 0.001617 0.071472
vt 0.999207 0.145508
vt 0.996613 0.074066
vt 0.999664 0.557159
vt 0.001434 0.497437
vt 0.454315 0.000061
vt 0.624969 0.090576
vt 0.374969 0.006073
vt 0.459991 0.124878
vt 0.459717 0.125031
vt 0.188843 0.010834
vt 0.493408 0.015900
vt 0.856384 0.003235
vt 0.489838 0.033386
vt 0.000000 0.031769
vt 0.501282 0.013367
vt 0.196716 0.008270
vt 0.999939 0.004517
vt 0.338898 1.000000
vt 0.317352 0.000061
vt 0.000000 0.048187
vt 0.999939 0.724182
vt 0.990112 0.007690
vt 0.866211 0.000031
vt 0.834625 0.564941
vt 0.896790 0.664612
vt 0.736450 0.565796
vt 0.646790 0.689941
vt 0.374969 0.018616
vt 0.874969 0.018616
vt 0.000000 0.004822
vt 0.999939 0.033386
vt 0.374969 0.033386
vt 0.874969 0.016724
vt 0.374969 0.016724
vt 0.249969 0.000031
vt 0.358643 0.006927
vt 0.999939 0.797455
vt 0.000000 1.000000
vt 0.751373 0.000061
vt 0.249969 0.002441
vt 0.000000 0.002441
vt 0.864227 0.715973
vt 0.078094 0.082855
vt 0.991058 0.082855
vt 0.246643 0.718903
vt 0.999969 0.996582
vt 0.274963 1.000000
vt 0.989197 0.083374
vt 0.243225 0.717987
vt 0.864838 0.717987
vt 0.070282 0.083374
vt 0.270233 1.000000
vt 0.947540 0.715973
vt 0.996277 0.025574
vt 0.996277 0.000061
vt 0.186737 0.716309
vt 0.931152 0.000061
vt 0.000000 0.000031
vt 0.882446 0.715973
vt 0.000000 0.025574
vt 0.215088 0.997406
vt 0.997009 0.000031
vt 0.942932 0.717987
vt 0.997009 0.000061
vt 0.875244 0.717987
vt 0.180725 0.717987
vt 0.929291 0.000031
vt 0.207764 1.000000
vt 0.174194 0.000061
vt 0.771057 0.736542
vt 0.145935 1.000000
vt 0.853729 0.132080
vt 0.291412 0.000031
vt 0.864532 0.746582
vt 0.999725 0.140900
vt 0.162872 1.000000
vt 0.213440 0.082642
vt 0.851807 0.000061
vt 0.050079 0.979187
vt 0.927765 0.836578
vt 0.000000 0.229858
vt 0.999969 0.213165
vt 0.151093 0.701996
vt 0.795258 0.000031
vt 0.050781 0.984497
vt 0.162354 0.086090
vt 0.999969 0.213226
vt 0.151093 0.702057
vt 0.934418 0.836517
vt 0.000000 0.229889
vt 0.000000 0.375885
vt 0.263672 0.074921
vt 0.221039 0.197174
vt 0.078918 0.225403
vt 0.062256 0.424774
vt 0.105255 0.281830
vt 0.894684 0.281830
vt 0.921021 0.225403
vt 0.778900 0.197174
vt 0.736267 0.074921
vt 0.999969 0.375885
vt 0.936798 0.424774
vt 0.937256 0.619537
vt 0.153046 0.946655
vt 0.847778 0.946655
vt 0.062683 0.619537
vt 0.513855 0.500031
vt 0.981232 0.421082
vt 0.934967 0.710541
vt 0.527740 0.000031
vt 0.486084 0.500031
vt 0.472198 0.000031
vt 0.476837 0.070221
vt 0.523102 0.070221
vt 0.064972 0.710541
vt 0.018707 0.421082
vt 0.111267 1.000000
vt 0.499969 1.000000
vt 0.888672 1.000000
vt 0.488403 0.456177
vt 0.000000 0.491272
vt 0.027863 0.666687
vt 0.511536 0.456177
vt 0.972076 0.666687
vt 0.999969 0.491272
vt 0.944214 0.842133
vt 0.499969 0.842133
vt 0.055725 0.842133
vt 0.958282 0.424286
vt 0.020813 0.500031
vt 0.999969 0.121246
vt 0.999939 0.121246
vt 0.041656 1.000000
vt 0.916626 0.727295
vt 0.089752 1.000000
vt 0.727264 0.569336
vt 0.910187 1.000000
vt 0.272675 0.569336
vt 0.727264 0.616211
vt 0.999969 0.030762
vt 0.785461 0.000031
vt 0.272675 0.616211
vt 0.206970 0.000031
vt 0.000000 0.030762
vt 0.527618 0.422577
vt 0.474243 0.422577
vt 0.528809 0.995148
vt 0.474304 0.353058
vt 0.527954 0.350861
vt 0.474915 0.994537
vt 0.792969 0.867523
vt 0.206970 0.867523
vt 0.891937 0.196106
vt 0.727173 0.783142
vt 0.029083 0.196106
vt 0.206970 0.783142
s 1
usemtl Upper_Arms.001
f 1/1/1 2/2/2 3/3/3
f 1/1/1 4/4/4 2/2/2
f 5/5/5 4/4/4 1/1/1
f 5/5/5 6/6/6 4/4/4
f 7/7/7 6/6/6 5/5/5
f 7/7/7 8/8/8 6/6/6
f 9/9/9 8/8/8 7/7/7
f 9/9/9 10/10/10 8/8/8
f 3/3/3 10/10/10 9/9/9
f 3/3/3 2/2/2 10/10/10
f 11/11/11 12/12/12 13/13/13
f 11/11/11 14/14/14 12/12/12
f 15/11/15 14/14/14 11/11/11
f 15/11/15 16/15/16 14/14/14
f 17/13/17 16/15/16 15/11/15
f 17/13/17 18/16/18 16/15/16
f 19/17/19 16/15/16 20/18/20
f 19/17/19 14/14/14 16/15/16
f 21/19/21 14/14/14 19/17/19
f 21/19/21 12/12/12 14/14/14
f 22/20/22 12/12/12 21/19/21
f 22/20/22 23/21/23 12/12/12
f 21/19/21 3/3/3 22/20/22
f 21/19/21 1/1/1 3/3/3
f 19/17/19 1/1/1 21/19/21
f 19/17/19 5/5/5 1/1/1
f 6/6/6 2/2/2 4/4/4
f 6/6/6 10/10/10 2/2/2
f 8/8/8 10/10/10 6/6/6
f 20/18/20 7/7/7 5/5/5
f 20/18/20 23/21/23 7/7/7
f 18/16/18 23/21/23 20/18/20
f 13/13/13 18/16/18 17/13/17
f 13/13/13 12/12/12 18/16/18
f 22/20/22 9/9/9 23/21/23
f 22/20/22 3/3/3 9/9/9
f 9/9/9 7/7/7 23/21/23
f 12/12/12 23/21/23 18/16/18
f 16/15/16 18/16/18 20/18/20
f 20/18/20 5/5/5 19/17/19
f 24/22/24 25/23/25 26/24/26
f 24/22/24 27/25/27 25/23/25
f 28/26/28 27/25/27 24/22/24
f 28/26/28 29/27/29 27/25/27
f 30/28/30 29/27/29 28/26/28
f 30/28/30 31/29/31 29/27/29
f 32/30/32 31/29/31 30/28/30
f 32/30/32 33/31/33 31/29/31
f 26/24/26 33/31/33 32/30/32
f 34/32/34 35/33/35 36/34/36
f 34/32/34 37/35/37 35/33/35
f 38/32/38 37/35/37 34/32/34
f 38/32/38 39/36/39 37/35/37
f 40/34/40 39/36/39 38/32/38
f 40/34/40 41/37/41 39/36/39
f 35/33/35 42/38/42 43/39/43
f 35/33/35 44/40/44 42/38/42
f 37/35/37 44/40/44 35/33/35
f 37/35/37 45/41/45 44/40/44
f 39/36/39 45/41/45 37/35/37
f 39/36/39 46/42/46 45/41/45
f 32/30/32 24/22/24 26/24/26
f 32/30/32 28/26/28 24/22/24
f 30/28/30 28/26/28 32/30/32
f 46/42/46 31/29/31 33/31/33
f 46/42/46 43/39/43 31/29/31
f 41/37/41 43/39/43 46/42/46
f 33/31/33 45/41/45 46/42/46
f 33/31/33 25/23/25 45/41/45
f 26/24/26 25/23/25 33/31/33
f 44/40/44 27/25/27 42/38/42
f 44/40/44 25/23/25 27/25/27
f 36/34/36 41/37/41 40/34/40
f 36/34/36 35/33/35 41/37/41
f 42/38/42 29/27/29 43/39/43
f 42/38/42 27/25/27 29/27/29
f 29/27/29 31/29/31 43/39/43
f 35/33/35 43/39/43 41/37/41
f 39/36/39 41/37/41 46/42/46
f 45/41/45 25/23/25 44/40/44
usemtl Lower_Arms.001
f 47/43/47 48/44/48 49/44/49
f 47/43/47 50/45/50 48/44/48
f 51/46/51 50/45/50 47/43/47
f 51/46/51 52/45/52 50/45/50
f 53/47/53 52/45/52 51/46/51
f 53/47/53 49/44/49 52/45/52
f 54/48/54 49/44/49 53/47/53
f 54/48/54 47/43/47 49/44/49
f 55/49/55 51/46/51 47/43/47
f 55/49/55 53/47/53 51/46/51
f 56/49/56 53/47/53 55/49/55
f 56/49/56 54/48/54 53/47/53
f 57/50/57 54/48/54 56/49/56
f 57/50/57 47/43/47 54/48/54
f 57/50/57 58/50/58 47/43/47
f 58/50/58 55/49/55 47/43/47
f 59/51/59 60/52/60 61/52/61
f 59/51/59 62/53/62 60/52/60
f 63/54/63 62/53/62 59/51/59
f 63/54/63 64/53/64 62/53/62
f 65/55/65 64/53/64 63/54/63
f 65/55/65 61/52/61 64/53/64
f 66/56/66 61/52/61 65/55/65
f 66/56/66 59/51/59 61/52/61
f 65/55/65 67/57/34 68/58/67
f 65/55/65 69/57/38 67/57/34
f 63/54/63 69/57/38 65/55/65
f 63/54/63 70/58/68 69/57/38
f 59/51/59 70/58/68 63/54/63
f 59/51/59 68/58/67 70/58/68
f 59/51/59 66/56/66 68/58/67
f 65/55/65 68/58/67 66/56/66
usemtl Upper_Holster_Leg.001
f 71/59/69 72/60/70 73/61/71
f 71/59/69 74/62/72 72/60/70
f 75/63/73 74/62/72 71/59/69
f 75/63/73 76/64/74 74/62/72
f 77/65/75 73/61/71 72/60/70
f 77/65/75 78/66/76 73/61/71
f 76/64/74 78/66/76 77/65/75
f 76/64/74 75/63/73 78/66/76
f 72/60/70 79/67/77 77/65/75
f 72/60/70 80/68/78 79/67/77
f 74/62/72 80/68/78 72/60/70
f 74/62/72 81/69/79 80/68/78
f 74/62/72 82/70/80 81/69/79
f 76/64/74 82/70/80 74/62/72
f 76/64/74 83/71/81 82/70/80
f 77/65/75 83/71/81 76/64/74
f 77/65/75 84/72/82 83/71/81
f 79/67/77 84/72/82 77/65/75
usemtl Backside.001
f 85/73/78 86/74/82 87/75/83
f 85/73/78 88/76/79 86/74/82
f 89/77/84 90/78/85 91/79/86
f 89/77/84 92/76/87 90/78/85
usemtl Lower_Legs.001
f 93/80/88 94/81/89 95/82/90
f 93/80/88 96/81/91 94/81/89
f 97/83/92 96/81/91 93/80/88
f 97/83/92 98/84/93 96/81/91
f 99/85/94 98/84/93 97/83/92
f 99/85/94 100/86/95 98/84/93
f 95/82/90 100/86/95 99/85/94
f 95/82/90 94/81/89 100/86/95
f 95/82/90 101/87/96 93/80/88
f 95/82/90 102/88/97 101/87/96
f 99/85/94 102/88/97 95/82/90
f 99/85/94 103/89/98 102/88/97
f 97/83/92 103/89/98 99/85/94
f 97/83/92 104/90/99 103/89/98
f 93/80/88 104/90/99 97/83/92
f 93/80/88 101/87/96 104/90/99
f 103/89/98 105/91/100 102/88/97
f 103/89/98 106/92/101 105/91/100
f 104/90/99 106/92/101 103/89/98
f 104/90/99 107/93/102 106/92/101
f 101/87/96 107/93/102 104/90/99
f 108/94/103 102/88/97 105/91/100
f 108/94/103 101/87/96 102/88/97
f 107/93/102 101/87/96 108/94/103
f 105/91/100 109/95/104 108/94/103
f 105/91/100 110/96/105 109/95/104
f 106/92/101 110/96/105 105/91/100
f 106/92/101 111/97/106 110/96/105
f 107/93/102 111/97/106 106/92/101
f 107/93/102 112/98/107 111/97/106
f 108/94/103 112/98/107 107/93/102
f 108/94/103 109/95/104 112/98/107
f 113/87/108 114/90/109 115/94/110
f 113/87/108 116/80/111 114/90/109
f 117/88/112 116/80/111 113/87/108
f 117/88/112 118/82/113 116/80/111
f 119/85/114 118/82/113 117/88/112
f 119/85/114 120/81/115 118/82/113
f 121/86/116 120/81/115 119/85/114
f 122/89/117 117/88/112 123/99/118
f 122/89/117 119/85/114 117/88/112
f 114/90/109 119/85/114 122/89/117
f 114/90/109 124/83/119 119/85/114
f 116/80/111 124/83/119 114/90/109
f 116/80/111 125/100/120 124/83/119
f 126/81/121 125/100/120 116/80/111
f 118/82/113 126/81/121 116/80/111
f 118/82/113 120/81/115 126/81/121
f 127/93/122 122/89/117 123/99/118
f 127/93/122 114/90/109 122/89/117
f 128/91/123 113/87/108 115/94/110
f 128/91/123 117/88/112 113/87/108
f 121/86/116 124/83/119 125/100/120
f 121/86/116 119/85/114 124/83/119
f 123/99/118 117/88/112 128/91/123
f 115/94/110 114/90/109 127/93/122
f 115/94/110 129/96/124 128/91/123
f 115/94/110 130/95/125 129/96/124
f 127/93/122 130/95/125 115/94/110
f 127/93/122 131/98/126 130/95/125
f 123/99/118 131/98/126 127/93/122
f 123/99/118 132/97/127 131/98/126
f 128/91/123 132/97/127 123/99/118
f 128/91/123 129/96/124 132/97/127
usemtl Feet.001
f 133/101/128 134/102/129 135/103/130
f 133/101/128 136/104/131 134/102/129
f 137/105/93 138/106/132 139/107/133
f 137/105/93 136/104/131 138/106/132
f 140/108/134 136/104/131 137/105/93
f 140/108/134 134/102/129 136/104/131
f 141/107/89 134/102/129 140/108/134
f 141/107/89 142/106/135 134/102/129
f 142/106/135 139/107/133 138/106/132
f 142/106/135 141/107/89 139/107/133
f 143/109/136 144/110/137 145/111/138
f 143/109/136 146/112/139 144/110/137
f 147/109/140 146/112/139 143/109/136
f 147/109/140 148/112/141 146/112/139
f 149/113/142 148/112/141 147/109/140
f 150/114/143 151/115/144 145/111/138
f 150/114/143 152/115/145 151/115/144
f 149/113/142 152/115/145 150/114/143
f 149/113/142 147/109/140 152/115/145
f 143/109/136 152/115/145 147/109/140
f 143/109/136 151/115/144 152/115/145
f 145/111/138 151/115/144 143/109/136
f 150/114/143 134/102/129 149/113/142
f 150/114/143 135/103/130 134/102/129
f 145/111/138 135/103/130 150/114/143
f 145/111/138 133/101/128 135/103/130
f 144/110/137 133/101/128 145/111/138
f 144/110/137 136/104/131 133/101/128
f 146/112/139 136/104/131 144/110/137
f 146/112/139 138/106/132 136/104/131
f 148/112/141 138/106/132 146/112/139
f 148/112/141 142/106/135 138/106/132
f 149/113/142 142/106/135 148/112/141
f 149/113/142 134/102/129 142/106/135
f 153/103/146 154/104/147 155/101/148
f 153/103/146 156/116/149 154/104/147
f 157/105/150 156/116/149 158/108/151
f 157/105/150 154/104/147 156/116/149
f 159/107/152 154/104/147 157/105/150
f 159/107/152 160/106/153 154/104/147
f 161/107/154 160/106/153 159/107/152
f 161/107/154 162/106/155 160/106/153
f 158/108/151 162/106/155 161/107/154
f 158/108/151 156/116/149 162/106/155
f 163/109/156 164/112/157 165/112/158
f 163/109/156 166/110/159 164/112/157
f 167/115/160 166/110/159 163/109/156
f 167/115/160 168/111/161 166/110/159
f 169/115/162 168/111/161 167/115/160
f 169/115/162 170/114/163 168/111/161
f 171/109/164 170/114/163 169/115/162
f 171/109/164 172/113/165 170/114/163
f 165/112/158 172/113/165 171/109/164
f 171/109/164 163/109/156 165/112/158
f 171/109/164 167/115/160 163/109/156
f 169/115/162 167/115/160 171/109/164
f 168/111/161 154/104/147 166/110/159
f 168/111/161 155/101/148 154/104/147
f 170/114/163 155/101/148 168/111/161
f 170/114/163 153/103/146 155/101/148
f 172/113/165 153/103/146 170/114/163
f 172/113/165 156/116/149 153/103/146
f 165/112/158 156/116/149 172/113/165
f 165/112/158 162/106/155 156/116/149
f 164/112/157 162/106/155 165/112/158
f 164/112/157 160/106/153 162/106/155
f 166/110/159 160/106/153 164/112/157
f 166/110/159 154/104/147 160/106/153
usemtl Upper_Leg.001
f 173/117/166 174/118/124 175/119/167
f 173/117/166 176/120/127 174/118/124
f 177/121/168 176/120/127 173/117/166
f 177/121/168 178/122/169 176/120/127
f 179/123/170 178/122/169 177/121/168
f 179/123/170 180/124/171 178/122/169
f 175/119/167 180/124/171 179/123/170
f 175/119/167 174/118/124 180/124/171
f 181/125/85 173/117/166 182/126/86
f 181/125/85 177/121/168 173/117/166
f 179/123/170 177/121/168 181/125/85
f 183/127/172 173/117/166 175/119/167
f 183/127/172 182/126/86 173/117/166
f 184/128/84 182/126/86 183/127/172
f 185/129/173 175/119/167 179/123/170
f 185/129/173 183/127/172 175/119/167
f 179/123/170 186/130/87 185/129/173
f 179/123/170 181/125/85 186/130/87
usemtl Head_Sides.001
f 187/131/174 188/132/175 189/133/176
f 187/131/174 190/134/177 188/132/175
f 191/135/178 190/134/177 187/131/174
f 191/135/178 192/136/179 190/134/177
f 193/137/180 192/136/179 191/135/178
f 191/135/178 194/138/181 195/139/182
f 191/135/178 196/140/183 194/138/181
f 197/141/184 196/140/183 191/135/178
f 197/141/184 198/142/185 196/140/183
f 199/140/186 200/139/187 201/138/188
f 199/140/186 202/135/189 200/139/187
f 203/142/190 202/135/189 199/140/186
f 203/142/190 204/141/191 202/135/189
f 202/135/189 205/143/192 200/139/187
f 202/135/189 206/137/193 205/143/192
f 207/136/194 206/137/193 202/135/189
f 208/131/195 209/134/196 207/136/194
f 208/131/195 210/132/197 209/134/196
f 211/133/198 210/132/197 208/131/195
f 191/135/178 212/143/199 193/137/180
f 191/135/178 195/139/182 212/143/199
f 202/135/189 208/131/195 207/136/194
f 202/135/189 211/133/198 208/131/195
f 187/131/174 189/133/176 191/135/178
f 213/144/200 197/141/184 191/135/178
f 202/135/189 204/141/191 214/144/201
usemtl Head_Front.001
f 215/145/202 216/146/203 217/147/204
f 215/145/202 218/148/205 216/146/203
f 219/149/206 218/148/205 215/145/202
f 219/149/206 220/150/207 218/148/205
f 221/151/208 220/150/207 219/149/206
f 221/151/208 222/152/209 220/150/207
f 223/153/179 222/152/209 221/151/208
f 223/153/179 224/154/210 222/152/209
f 225/155/211 224/154/210 223/153/179
f 220/150/207 226/156/212 218/148/205
f 220/150/207 227/157/213 226/156/212
f 222/152/209 227/157/213 220/150/207
f 222/152/209 228/158/214 227/157/213
f 224/154/210 228/158/214 222/152/209
f 227/157/213 229/159/215 226/156/212
f 227/157/213 230/160/216 229/159/215
f 228/158/214 230/160/216 227/157/213
f 228/158/214 231/161/217 230/160/216
f 232/162/218 231/161/217 228/158/214
f 233/163/196 229/159/215 234/164/219
f 233/163/196 226/156/212 229/159/215
f 235/165/220 226/156/212 233/163/196
f 235/165/221 216/146/203 226/156/212
f 217/147/204 216/146/203 235/165/221
f 236/166/222 232/162/218 225/155/211
f 236/166/222 237/167/223 232/162/218
f 238/168/224 237/167/223 236/166/222
f 238/168/224 239/169/225 237/167/223
f 240/170/226 239/169/225 238/168/224
f 238/168/224 241/171/227 242/172/188
f 238/168/224 243/173/182 241/171/227
f 236/166/222 243/173/182 238/168/224
f 236/166/222 244/174/199 243/173/182
f 225/155/211 244/174/199 236/166/222
f 225/155/211 245/175/228 244/174/199
f 223/153/179 245/175/228 225/155/211
f 234/164/219 246/176/194 233/163/196
f 234/164/219 247/177/229 246/176/194
f 248/178/230 247/177/229 234/164/219
f 249/179/231 215/145/202 217/147/204
f 249/179/231 250/180/232 215/145/202
f 224/154/210 232/162/218 228/158/214
f 224/154/210 225/155/211 232/162/218
f 237/167/223 231/161/217 232/162/218
f 237/167/223 248/178/230 231/161/217
f 230/160/216 248/178/230 234/164/219
f 230/160/216 231/161/217 248/178/230
f 237/167/223 247/177/229 248/178/230
f 237/167/223 239/169/225 247/177/229
f 215/181/202 251/182/176 219/183/233
f 215/181/202 250/184/232 251/182/176
f 217/185/204 252/186/234 249/187/231
f 217/185/204 235/188/235 252/186/234
f 216/146/203 218/148/205 226/156/212
f 234/164/219 229/159/215 230/160/216
f 240/170/226 238/168/224 242/172/188
f 241/171/227 243/173/182 253/189/181
usemtl Head_Back.001
f 254/190/236 255/191/237 256/192/238
f 254/190/236 257/193/239 255/191/237
f 258/194/240 257/193/239 254/190/236
f 258/194/240 259/195/241 257/193/239
f 260/196/242 259/195/241 258/194/240
f 256/192/238 255/191/237 261/197/243
usemtl Head.001
f 262/198/244 263/199/186 264/200/188
f 262/198/244 265/201/245 263/199/186
f 266/202/246 265/201/245 262/198/244
f 266/202/246 267/203/241 265/201/245
f 268/204/247 267/203/241 266/202/246
f 269/205/248 262/198/244 264/200/188
f 269/205/248 266/202/246 262/198/244
f 270/206/249 266/202/246 269/205/248
f 270/206/249 268/204/247 266/202/246
usemtl Ear_Fronts.001
f 271/76/250 272/207/251 273/208/252
f 271/76/250 274/209/253 272/207/251
f 275/208/254 276/209/255 277/76/256
f 275/208/254 278/207/257 276/209/255
usemtl Ear_Sides.001
f 279/210/258 280/211/259 281/212/260
f 279/210/258 282/213/261 280/211/259
f 283/214/262 282/213/261 279/210/258
f 284/213/263 285/212/264 286/211/265
f 284/213/263 287/210/266 285/212/264
f 288/214/257 287/210/266 284/213/263
f 280/211/259 289/215/267 281/212/260
f 280/211/259 290/216/268 289/215/267
f 291/215/269 286/211/265 285/212/264
f 291/215/269 292/216/270 286/211/265
usemtl Chest.001
f 293/217/271 294/218/272 295/219/273
f 293/217/271 296/220/274 294/218/272
f 297/221/275 296/220/274 293/217/271
f 297/221/275 298/222/276 296/220/274
f 299/223/277 298/222/276 297/221/275
f 300/224/278 301/225/279 302/226/280
f 300/224/278 299/223/277 301/225/279
f 298/222/276 299/223/277 300/224/278
f 295/227/281 303/228/282 304/229/283
f 295/227/281 305/230/284 303/228/282
f 306/231/285 307/232/286 308/233/287
f 306/231/285 309/234/288 307/232/286
f 294/218/272 310/235/289 295/219/273
f 302/226/280 301/225/279 304/236/283
f 303/237/282 305/238/284 307/232/290
f 308/233/287 311/239/291 306/231/285
f 308/233/287 312/240/292 311/239/291
f 313/241/293 312/240/292 308/233/287
f 313/241/293 314/242/294 312/240/292
f 315/243/295 316/244/296 317/245/297
f 315/243/295 318/246/298 316/244/296
f 319/247/299 318/246/298 315/243/295
f 319/247/299 320/248/300 318/246/298
f 321/249/301 320/248/300 319/247/299
f 320/248/300 322/238/302 323/250/303
f 320/248/300 307/232/286 322/238/302
f 321/249/301 307/232/286 320/248/300
f 321/249/301 308/233/287 307/232/286
f 313/241/293 308/233/287 321/249/301
f 318/246/298 324/251/304 316/244/296
f 318/246/298 323/250/303 324/251/304
f 320/248/300 323/250/303 318/246/298
f 325/252/305 326/253/306 327/254/307
f 325/252/305 328/255/308 326/253/306
f 329/256/309 328/255/308 325/252/305
f 329/256/309 330/257/310 328/255/308
f 326/253/306 307/232/286 309/234/288
f 326/253/306 331/237/311 307/232/286
f 328/255/308 331/237/311 326/253/306
f 328/255/308 332/258/312 331/237/311
f 330/257/310 332/258/312 328/255/308
f 330/257/310 333/259/313 332/258/312
f 309/234/288 327/254/307 326/253/306
usemtl Chest_Sides.001
f 334/260/314 335/261/294 336/262/293
f 334/260/314 337/263/315 335/261/294
f 338/262/316 339/264/317 340/260/318
f 338/262/316 341/261/291 339/264/317
f 342/265/319 343/266/320 344/267/321
f 342/265/319 345/268/322 343/266/320
f 346/269/323 345/268/322 342/265/319
f 346/269/323 347/270/324 345/268/322
f 348/271/325 345/268/322 347/270/324
f 348/271/325 343/266/320 345/268/322
f 336/262/293 348/271/325 334/260/314
f 336/262/293 343/266/320 348/271/325
f 349/269/326 350/271/327 351/270/328
f 349/269/326 352/272/329 350/271/327
f 353/265/330 352/272/329 349/269/326
f 354/266/331 350/271/327 352/272/329
f 354/266/331 340/260/318 350/271/327
f 338/262/316 340/260/318 354/266/331
f 353/265/330 354/266/331 352/272/329
f 353/265/330 355/273/332 354/266/331
usemtl Back.001
f 356/251/333 357/259/334 358/274/335
f 359/275/336 360/276/337 361/277/338
f 359/275/336 362/278/339 360/276/337
f 363/279/340 362/278/339 359/275/336
f 363/279/340 364/280/341 362/278/339
f 365/281/342 366/282/343 367/244/344
f 365/281/342 368/283/345 366/282/343
f 369/284/346 368/283/345 365/281/342
f 358/274/335 365/281/342 356/251/333
f 358/274/335 369/284/346 365/281/342
f 361/277/338 369/284/346 358/274/335
f 361/277/338 358/274/335 359/275/336
f 367/244/344 356/251/333 365/281/342
f 370/257/347 371/285/348 372/286/349
f 370/257/347 373/287/350 371/285/351
f 358/274/335 374/288/352 359/275/336
f 358/274/335 371/289/353 374/288/352
f 372/286/349 371/289/353 358/274/335
f 357/259/334 372/286/349 358/274/335
f 357/259/334 370/257/347 372/286/349
f 359/275/336 374/288/352 363/279/340
usemtl Finger_Fronts.001
f 375/290/354 376/291/355 377/292/356
f 375/290/354 378/293/357 376/291/355
f 379/294/358 378/293/357 375/290/354
f 380/295/359 377/292/356 376/291/355
f 381/296/360 382/297/361 383/298/362
f 381/296/360 384/294/363 382/297/361
f 385/76/364 384/294/363 381/296/360
f 386/299/365 383/298/362 382/297/361
usemtl Finger_Backs.001
f 387/300/366 388/301/367 389/302/368
f 387/300/366 390/303/369 388/301/367
f 391/304/370 390/303/369 387/300/366
f 391/304/370 392/294/371 390/303/369
f 393/293/372 392/294/371 391/304/370
f 387/300/366 389/302/368 394/295/373
f 395/305/374 396/306/375 397/307/362
f 395/305/374 398/308/376 396/306/375
f 399/309/377 398/308/376 395/305/374
f 399/309/377 400/76/378 398/308/376
f 401/294/379 400/76/378 399/309/377
f 402/299/380 395/305/374 397/307/362
usemtl Finger_Sides.001
f 403/310/381 404/311/382 405/311/383
f 403/310/381 406/310/384 404/311/382
f 407/312/385 406/310/384 403/310/381
f 407/312/385 408/312/386 406/310/384
f 409/313/387 408/312/386 407/312/385
f 409/313/387 410/314/388 408/312/386
f 411/315/389 412/316/390 413/317/391
f 411/315/389 414/318/392 412/316/390
f 415/319/393 414/318/392 411/315/389
f 416/320/369 417/321/394 418/322/395
f 416/320/369 419/319/396 417/321/394
f 420/318/397 419/319/396 416/320/369
f 405/311/383 407/312/385 403/310/381
f 405/311/383 409/313/387 407/312/385
f 410/323/388 406/324/384 408/325/386
f 410/323/388 404/326/382 406/324/384
f 421/327/398 413/317/391 412/316/390
f 422/328/399 418/322/395 417/321/394
f 423/329/400 424/330/401 425/330/402
f 423/329/400 426/329/403 424/330/401
f 427/331/404 426/329/403 423/329/400
f 427/331/404 428/331/405 426/329/403
f 429/332/406 428/331/405 427/331/404
f 429/332/406 430/332/407 428/331/405
f 431/333/408 432/334/409 433/335/410
f 431/333/408 434/336/411 432/334/409
f 435/337/412 434/336/411 431/333/408
f 436/338/413 437/339/414 438/340/415
f 436/338/413 439/337/416 437/339/414
f 440/336/417 439/337/416 436/338/413
f 426/329/403 430/332/407 424/330/401
f 426/329/403 428/331/405 430/332/407
f 427/341/404 425/342/402 429/343/406
f 427/341/404 423/344/400 425/342/402
f 441/345/418 433/335/410 432/334/409
f 442/346/374 438/340/415 437/339/414
usemtl Hand_Palms.001
f 443/347/419 444/348/420 445/349/421
f 443/347/419 446/350/422 444/348/420
f 447/351/52 446/350/422 443/347/419
f 447/351/52 448/352/423 446/350/422
f 449/353/378 450/354/424 451/355/425
f 449/353/378 452/356/426 450/354/424
f 451/355/425 453/357/427 454/76/62
f 451/355/425 450/354/424 453/357/427
usemtl Hand_Fronts.001
f 455/358/428 456/359/392 457/360/429
f 455/358/428 458/358/430 456/359/392
f 459/361/431 457/362/429 460/363/396
f 459/361/431 455/364/428 457/362/429
f 461/350/422 460/363/396 462/365/397
f 461/350/422 459/350/431 460/363/396
f 463/352/432 459/350/431 461/350/422
f 463/352/432 464/352/48 459/350/431
f 465/351/433 458/358/430 455/358/428
f 465/351/433 466/351/52 458/358/430
f 464/366/48 455/364/428 459/361/431
f 464/366/48 465/351/433 455/364/428
f 467/367/434 468/368/435 469/368/436
f 467/367/434 470/369/412 468/368/435
f 471/292/363 469/370/436 472/371/437
f 471/292/363 467/372/434 469/370/436
f 473/292/438 472/354/437 474/354/439
f 473/292/438 471/292/363 472/354/437
f 474/354/439 475/357/440 476/357/441
f 474/354/439 472/354/437 475/357/440
f 469/368/436 477/76/442 478/76/443
f 469/368/436 468/368/435 477/76/442
f 472/371/437 478/76/443 475/373/440
f 472/371/437 469/370/436 478/76/443
usemtl Collar_Top.001
f 479/374/444 480/375/445 481/376/280
f 479/374/444 482/377/446 480/375/445
f 483/378/447 484/379/448 485/380/449
f 483/378/447 486/381/450 484/379/448
f 487/76/451 481/382/452 480/383/445
f 487/76/453 488/384/454 481/382/455
f 489/385/456 488/386/457 487/387/458
f 489/385/456 490/388/459 488/386/457
f 484/389/460 491/390/461 492/76/462
f 484/389/448 486/391/463 491/390/464
f 492/392/465 493/393/466 494/394/467
f 492/392/465 491/395/468 493/393/466
usemtl Collar_Sides.001
f 495/396/469 496/397/284 497/398/460
f 495/396/469 498/399/470 496/397/284
f 499/400/471 498/399/470 495/396/469
f 499/400/471 500/401/472 498/399/473
f 501/402/474 500/401/472 499/400/471
f 502/403/475 503/404/476 504/405/477
f 502/403/475 505/406/451 503/404/476
f 501/402/474 505/406/451 502/403/475
f 501/402/474 506/407/456 505/406/451
f 499/400/471 506/407/456 501/402/474
f 506/408/478 507/409/479 508/410/276
f 506/408/480 499/411/481 507/409/479
usemtl Waist.001
f 509/412/482 510/413/483 511/414/484
f 509/412/482 512/415/485 510/413/483
f 513/416/486 512/415/485 509/412/482
f 513/416/486 514/417/81 512/415/485
f 512/415/485 515/418/82 516/419/84
f 512/415/485 514/417/81 515/418/82
f 517/420/487 514/417/81 513/416/486
f 517/420/487 518/421/488 514/417/81
f 513/416/486 519/422/489 517/420/487
f 513/416/486 520/423/292 519/422/489
f 509/412/482 520/423/292 513/416/486
f 509/412/482 511/414/484 520/423/292
f 521/424/490 520/423/292 511/414/484
usemtl Waist_Back.001
f 522/425/491 523/426/492 524/427/493
f 522/425/491 525/418/82 523/426/492
f 526/428/494 525/418/82 522/425/491
f 526/428/494 527/419/84 525/418/82
f 528/429/495 527/419/84 526/428/494
f 528/429/495 529/430/496 527/419/84
f 526/428/494 530/431/341 531/429/497
f 526/428/494 532/432/498 530/431/341
f 522/425/491 532/432/498 526/428/494
f 522/425/491 533/427/499 532/432/498
f 534/433/500 532/432/498 533/427/499
usemtl Waist_Sides.001
f 535/434/501 536/363/80 537/435/502
f 535/434/501 538/436/503 536/363/80
f 539/435/484 540/437/504 541/434/505
f 539/435/484 542/363/506 540/437/504
f 543/434/497 544/438/291 539/435/507
f 543/434/497 545/439/508 544/438/291
f 537/435/509 546/439/510 547/434/511
f 537/435/509 548/438/489 546/439/510
usemtl Neck_Front.001
f 549/440/512 550/441/513 551/442/514
f 549/440/512 552/443/515 550/441/516
f 550/444/516 553/445/279 551/442/517
f 550/444/516 554/446/283 553/445/279
f 552/447/515 554/446/283 550/444/516
f 552/447/515 555/448/447 554/446/283
f 549/440/518 555/448/447 552/447/515
f 549/440/518 556/449/519 555/448/447
f 557/450/520 558/451/521 559/452/522
f 557/450/520 560/453/231 558/451/521
f 561/454/523 560/453/231 557/450/520
f 559/452/522 558/451/521 562/455/524
usemtl Neck_Back.001
f 563/440/525 564/456/526 565/442/512
f 563/440/525 566/457/527 564/456/526
f 567/458/528 563/442/525 568/445/279
f 567/458/528 566/459/527 563/442/525
f 569/460/529 566/459/527 567/458/528
f 569/460/529 564/461/526 566/459/527
f 570/449/530 564/461/526 569/460/529
f 570/449/530 565/440/512 564/461/526
