# Blender 4.1.0
# www.blender.org
mtllib Box.mtl
o Crate_Lower
v 17.149559 0.014622 -10.345411
v 17.149559 5.779538 -10.345411
v 17.149559 0.014622 -19.432331
v 17.149559 5.779538 -19.432331
v 26.611160 0.014622 -10.345411
v 26.611160 5.779538 -10.345411
v 26.611160 0.014622 -19.432331
v 26.611160 5.779538 -19.432331
vn -1.0000 -0.0000 -0.0000
vn -0.0000 -0.0000 -1.0000
vn 1.0000 -0.0000 -0.0000
vn -0.0000 -0.0000 1.0000
vn -0.0000 -1.0000 -0.0000
vn -0.0000 1.0000 -0.0000
vt 0.400351 0.255050
vt 0.244950 0.500000
vt 0.244950 0.255050
vt 0.400351 0.500000
vt 0.244950 0.755050
vt 0.400351 0.755050
vt 0.244950 1.000000
vt 0.400351 0.000000
vt 0.244950 0.000000
vt -0.000000 0.500000
vt 0.645301 0.755050
vt 0.400351 1.000000
vt -0.000000 0.755050
vt 0.645301 0.500000
s 0
usemtl Material.005
f 2/1/1 3/2/1 1/3/1
f 4/4/2 7/5/2 3/2/2
f 8/6/3 5/7/3 7/5/3
f 6/8/4 1/3/4 5/9/4
f 7/5/5 1/10/5 3/2/5
f 4/4/6 6/11/6 8/6/6
f 2/1/1 4/4/1 3/2/1
f 4/4/2 8/6/2 7/5/2
f 8/6/3 6/12/3 5/7/3
f 6/8/4 2/1/4 1/3/4
f 7/5/5 5/13/5 1/10/5
f 4/4/6 2/14/6 6/11/6
