# Blender 4.1.0
# www.blender.org
mtllib Famas.mtl
o Famas
v 5.610402 7.762567 26.867132
v 8.151066 8.848413 28.127823
v 5.529295 7.983506 26.833990
v 8.209480 9.167061 28.164972
v 6.685202 8.201096 27.399874
v 6.466386 8.397321 27.299351
v 6.124503 8.246346 27.129572
v 6.341387 8.021502 27.228363
v 5.541311 8.133075 26.806263
v 5.965258 8.320287 27.016794
v 5.707854 7.514049 26.907421
v 5.930567 7.612397 27.018021
v 6.833694 7.650641 27.403704
v 6.603860 7.451963 27.286867
v 6.414401 7.968055 27.209454
v 6.700372 8.013814 27.349228
v 8.258367 9.033893 28.184946
v 8.314793 9.171247 28.160479
v 8.342235 9.096493 28.171692
v 8.597375 9.296034 28.300808
v 8.624817 9.221280 28.312021
v 8.590118 9.315801 28.297844
v 8.632073 9.201513 28.314987
v 8.814900 9.415063 28.409470
v 8.856855 9.300776 28.426613
v 7.176226 8.417929 27.643717
v 7.051668 8.362925 27.581861
v 7.211245 8.169218 27.653765
v 7.036335 8.164951 27.568932
v 7.215034 8.009840 27.651169
v 7.045572 7.963558 27.567808
v 7.252087 7.870128 27.665230
v 7.077352 7.861552 27.580364
v 6.838281 8.642534 27.486284
v 6.614111 8.462555 27.372711
v 6.801232 8.810103 27.418146
v 6.670269 8.866765 27.356293
v 7.967978 9.328518 27.997641
v 8.063037 9.478618 28.047853
v 8.011146 9.190309 28.069559
v 8.118152 9.276909 28.123793
v 7.975386 9.144672 28.050972
v 8.166615 9.148131 28.143684
v 7.384657 8.883810 27.757616
v 7.467097 8.920216 27.798555
v 5.694165 7.767375 26.694183
v 8.234828 8.853220 27.954874
v 5.613058 7.988314 26.661043
v 8.293242 9.171868 27.992023
v 6.768965 8.205903 27.226927
v 6.550149 8.402128 27.126404
v 6.208266 8.251154 26.956623
v 6.425149 8.026309 27.055416
v 5.595509 8.136185 26.694359
v 6.019455 8.323397 26.904892
v 5.791617 7.518856 26.734474
v 6.014330 7.617205 26.845074
v 6.876066 7.653073 27.316217
v 6.646233 7.454395 27.199381
v 6.456773 7.970487 27.121967
v 6.742743 8.016246 27.261742
v 8.342129 9.038700 28.011999
v 8.354947 9.173552 28.077570
v 8.382389 9.098798 28.088783
v 8.637529 9.298338 28.217901
v 8.664971 9.223584 28.229115
v 8.630273 9.318105 28.214935
v 8.672228 9.203818 28.232079
v 8.855055 9.417367 28.326563
v 8.897010 9.303081 28.343706
v 7.259989 8.422736 27.470770
v 7.135431 8.367732 27.408913
v 7.295008 8.174026 27.480816
v 7.120098 8.169760 27.395985
v 7.298796 8.014648 27.478220
v 7.129334 7.968366 27.394859
v 7.335850 7.874935 27.492283
v 7.161115 7.866360 27.407415
v 6.922044 8.647342 27.313337
v 6.697874 8.467362 27.199764
v 6.841949 8.812440 27.334076
v 6.710986 8.869102 27.272223
v 8.008694 9.330854 27.913572
v 8.103754 9.480954 27.963783
v 8.094908 9.195116 27.896612
v 8.201914 9.281716 27.950844
v 8.059149 9.149480 27.878023
v 8.250377 9.152939 27.970737
v 7.468420 8.888618 27.584667
v 7.550859 8.925023 27.625607
v 7.416090 8.885614 27.692715
v 7.498529 8.922019 27.733654
v 7.384630 8.955023 27.679407
v 7.423842 8.972339 27.698879
v 7.408279 9.049025 27.679823
v 7.421029 9.054655 27.686155
v 7.436783 8.886802 27.649988
v 7.519223 8.923207 27.690929
v 7.405323 8.956210 27.636681
v 7.444535 8.973526 27.656155
v 7.418338 9.049602 27.659054
v 7.431088 9.055232 27.665386
v 7.367830 8.502541 27.738867
v 7.451592 8.507348 27.565920
v 7.191802 8.305453 27.648134
v 7.275565 8.310261 27.475187
v 7.387441 8.391846 27.745289
v 7.471204 8.396653 27.572342
vn -0.4358 -0.0250 0.8997
vn 0.4358 0.0250 -0.8997
vn 0.8996 -0.0446 0.4345
vn 0.8631 0.2718 0.4256
vn -0.3413 0.9296 -0.1394
vn 0.8329 0.3678 0.4136
vn -0.6820 0.6615 -0.3119
vn -0.6123 -0.7244 -0.3167
vn -0.3412 0.9296 -0.1394
vn 0.3412 -0.9296 0.1394
vn 0.8298 0.3760 0.4124
vn 0.7589 -0.5476 0.3524
vn 0.8377 0.3542 0.4156
vn 0.3413 -0.9296 0.1394
vn -0.8960 0.1070 -0.4310
vn 0.6029 -0.7503 0.2711
vn 0.3094 0.9345 0.1758
vn -0.8968 0.0976 -0.4316
vn 0.8713 0.1634 0.4629
vn -0.0393 0.9992 0.0087
vn 0.3430 -0.9288 0.1403
vn -0.8999 -0.0085 -0.4361
vn 0.8889 0.1448 0.4346
vn -0.3398 0.9302 -0.1387
vn -0.4357 -0.0251 -0.8997
vn -0.9984 -0.0573 -0.0000
vn -0.4357 -0.0250 0.8997
vn -0.8329 -0.3678 -0.4136
vn -0.8245 -0.3898 -0.4102
vn -0.8989 -0.0388 -0.4364
vn -0.7960 -0.4558 -0.3982
vn 0.6053 -0.7479 0.2724
vn 0.8998 0.0143 0.4362
vn 0.8279 0.3811 0.4115
vn 0.5582 -0.7917 0.2483
vn 0.0506 -0.9987 -0.0033
vn -0.8502 -0.3167 -0.4206
vn -0.4829 0.1176 0.8677
vn 0.3792 0.1653 -0.9105
vn 0.4600 0.8530 0.2465
vn -0.8030 -0.4409 -0.4011
vn 0.8946 0.0980 0.4360
vn -0.8797 0.2232 -0.4199
vn 0.3423 0.2450 -0.9071
vn -0.5043 0.1964 0.8409
vn 0.4011 0.0880 -0.9118
vn -0.4680 0.0380 0.8829
vn 0.4398 0.0113 -0.8980
vn -0.4316 -0.0387 0.9012
vn 0.7920 0.2045 -0.5753
vn 0.0357 0.1610 0.9863
vn 0.8896 0.1403 0.4347
vn -0.8831 -0.1816 -0.4327
vn 0.7590 -0.5476 0.3524
vn 0.9751 0.2133 -0.0609
vn 0.4075 -0.0249 0.9129
vn -0.0156 -0.0279 0.9995
vn -0.4075 0.0249 -0.9129
vn 0.8279 0.3811 0.4116
vn 0.4011 0.0881 -0.9118
vn 0.4012 0.0880 -0.9118
vn 0.4010 0.0881 -0.9118
vn -0.4681 0.0381 0.8829
vn -0.4681 0.0381 0.8828
vn -0.4680 0.0381 0.8829
vn 0.4398 0.0112 -0.8980
vn -0.4316 -0.0388 0.9012
vn -0.4316 -0.0387 0.9013
vn -0.4315 -0.0386 0.9013
vt 0.775654 0.431588
vt 0.762005 0.438491
vt 0.811915 0.457464
vt 0.935211 0.214012
vt 0.935003 0.234423
vt 1.003448 0.240518
vt 0.810185 0.241127
vt 0.759513 0.259641
vt 0.773212 0.266793
vt 0.738703 0.763525
vt 0.754621 0.764016
vt 0.755121 0.747802
vt 0.630073 0.760173
vt 0.642322 0.760551
vt 0.642823 0.744337
vt 0.121113 0.744471
vt 0.136075 0.744933
vt 0.136575 0.728719
vt 0.406734 0.749059
vt 0.417105 0.749379
vt 0.417344 0.741606
vt 0.251388 0.282280
vt 0.250504 0.279033
vt 0.250883 0.263304
vt 0.861862 0.767324
vt 0.868551 0.767530
vt 0.869051 0.751316
vt 0.253442 0.430359
vt 0.242239 0.361488
vt 0.224455 0.365788
vt 0.439870 0.750081
vt 0.440110 0.742308
vt 0.329524 0.750901
vt 0.341251 0.751263
vt 0.341751 0.735049
vt 0.787576 0.765032
vt 0.788076 0.748818
vt 0.086488 0.743403
vt 0.121614 0.728257
vt 0.383969 0.748356
vt 0.406974 0.741286
vt 0.245462 0.350899
vt 0.237499 0.273289
vt 0.477986 0.755482
vt 0.496692 0.756059
vt 0.497192 0.739845
vt 0.247258 0.442219
vt 0.271756 0.435020
vt 0.701588 0.762380
vt 0.739203 0.747311
vt 0.170273 0.745988
vt 0.170773 0.729774
vt 0.026185 0.741543
vt 0.069121 0.742867
vt 0.069621 0.726653
vt 0.478486 0.739267
vt 0.470522 0.743246
vt 0.086989 0.727189
vt 0.702088 0.746166
vt 0.685304 0.745648
vt 0.226735 0.350790
vt 0.233474 0.353013
vt 0.237013 0.353040
vt 0.345592 0.751397
vt 0.353556 0.747418
vt 0.353796 0.739645
vt 0.259480 0.281570
vt 0.261782 0.428439
vt 0.026685 0.725328
vt 0.014136 0.724941
vt 0.606101 0.759434
vt 0.616624 0.759759
vt 0.617124 0.743544
vt 0.311227 0.750337
vt 0.311727 0.734122
vt 0.920574 0.769135
vt 0.943130 0.769831
vt 0.943630 0.753617
vt 0.239311 0.359730
vt 0.236539 0.361379
vt 0.965902 0.770533
vt 0.985950 0.771152
vt 0.986450 0.754938
vt 0.441664 0.750136
vt 0.470283 0.751019
vt 0.966402 0.754319
vt 0.684804 0.761862
vt 0.668298 0.745123
vt 0.575973 0.758505
vt 0.595421 0.759104
vt 0.595921 0.742890
vt 0.382175 0.748301
vt 0.382415 0.740528
vt 0.271756 0.274498
vt 0.921075 0.752921
vt 0.630573 0.743959
vt 0.330024 0.734687
vt 0.815031 0.765879
vt 0.815531 0.749665
vt 0.658724 0.761057
vt 0.659224 0.744843
vt 0.441903 0.742363
vt 0.862362 0.751110
vt 0.667798 0.761337
vt 0.384209 0.740584
vt 0.346093 0.735183
vt 0.236995 0.357672
vt 0.237131 0.357795
vt 0.237401 0.358305
vt 0.237227 0.358423
vt 0.237196 0.357550
vt 0.237162 0.357780
vt 0.237131 0.357761
vt 0.237137 0.357752
vt 0.935354 0.465702
vt 0.935297 0.485904
vt 1.003082 0.491435
vt 0.232514 0.141640
vt 0.312101 0.123529
vt 0.313111 0.024369
vt 0.317203 0.665591
vt 0.317478 0.567445
vt 0.238947 0.548499
vt 0.148913 0.269624
vt 0.187871 0.234788
vt 0.006487 0.232941
vt 0.016434 0.455240
vt 0.195964 0.455742
vt 0.157857 0.420767
vt 0.769042 0.305647
vt 0.384027 0.327879
vt 0.808161 0.331451
vt 0.772026 0.393083
vt 0.391284 0.366135
vt 0.419802 0.392840
vt 0.475091 0.143450
vt 0.442925 0.168574
vt 0.480883 0.168960
vt 0.230624 0.530398
vt 0.299084 0.456030
vt 0.823248 0.241260
vt 0.848889 0.233546
vt 0.849097 0.213135
vt 0.824844 0.457499
vt 0.824744 0.493488
vt 0.850064 0.485665
vt 0.823619 0.204900
vt 0.604614 0.743158
vt 0.576559 0.742293
vt 0.811704 0.422539
vt 1.003766 0.209313
vt 0.935266 0.208615
vt 0.934948 0.239820
vt 0.809515 0.276408
vt 0.013636 0.741155
vt 0.850120 0.465463
vt 1.003168 0.460549
vt 0.935369 0.460360
vt 0.935283 0.491245
vt 0.233949 0.000727
vt 0.238557 0.687971
vt 0.019720 0.268308
vt 0.029984 0.420409
vt 0.413189 0.301273
vt 0.337075 0.236308
vt 0.412991 0.256111
vt 0.343642 0.456155
vt 0.419026 0.437532
vt 0.811071 0.368049
vt 0.292057 0.235850
vt 0.223867 0.159818
vt 0.007102 0.172616
vt 0.077300 0.104824
vt 0.009430 0.104133
vt 0.331248 0.167436
vt 0.579494 0.257807
vt 0.420304 0.123416
vt 0.452792 0.068757
vt 0.403831 0.074967
vt 0.604617 0.258063
vt 0.539144 0.169554
vt 0.777956 0.171986
vt 0.466756 0.106742
vt 0.402622 0.047689
vt 0.449433 0.032049
vt 0.336991 0.524239
vt 0.084868 0.582940
vt 0.016267 0.514948
vt 0.017692 0.582752
vt 0.407633 0.616682
vt 0.456008 0.623457
vt 0.424559 0.568947
vt 0.477650 0.555578
vt 0.447526 0.524547
vt 0.470315 0.586045
vt 0.406087 0.643663
vt 0.452212 0.659742
vt 0.779131 0.525474
vt 0.608692 0.438062
vt 0.543015 0.524814
vt 0.583826 0.437993
vt 0.485095 0.524653
s 0
usemtl Famas
f 40/1/1 42/2/1 43/3/1
f 66/4/2 65/5/2 69/6/2
f 88/7/2 87/8/2 85/9/2
f 5/10/3 16/11/3 61/12/3
f 30/13/4 32/14/4 77/15/4
f 6/16/5 35/17/5 80/18/5
f 24/19/6 25/20/6 70/21/6
f 42/22/7 40/23/7 85/24/7
f 15/25/8 8/26/8 53/27/8
f 34/28/9 44/29/9 89/30/9
f 25/20/10 23/31/10 68/32/10
f 41/33/11 43/34/11 88/35/11
f 16/11/6 13/36/6 58/37/6
f 7/38/5 6/16/5 51/39/5
f 22/40/9 24/19/9 69/41/9
f 45/42/5 42/22/5 87/43/5
f 17/44/12 2/45/12 47/46/12
f 34/28/13 79/47/13 81/48/13
f 27/49/14 5/10/14 50/50/14
f 35/17/15 37/51/15 82/52/15
f 9/53/9 10/54/9 55/55/9
f 17/44/16 62/56/16 64/57/16
f 7/38/17 52/58/17 55/55/17
f 27/49/18 72/59/18 74/60/18
f 90/61/19 98/62/19 92/63/19
f 4/64/20 18/65/20 63/66/20
f 38/67/21 36/68/21 81/48/21
f 9/53/22 54/69/22 48/70/22
f 105/71/23 28/72/23 73/73/23
f 44/29/5 45/42/5 92/63/5
f 37/51/24 39/74/24 84/75/24
f 12/76/10 11/77/10 56/78/10
f 44/29/25 91/79/26 97/80/27
f 1/81/28 3/82/28 48/83/28
f 21/84/10 19/85/10 64/57/10
f 1/81/29 46/86/29 56/78/29
f 29/87/30 74/60/30 76/88/30
f 90/61/5 89/30/5 97/80/5
f 103/89/14 26/90/14 71/91/14
f 18/65/5 20/92/5 65/93/5
f 40/23/31 38/67/31 83/94/31
f 8/26/32 12/76/32 57/95/32
f 28/72/33 30/13/33 75/96/33
f 41/33/34 86/97/34 84/75/34
f 13/36/35 14/98/35 59/99/35
f 32/14/36 33/100/36 78/101/36
f 23/31/28 21/84/28 66/102/28
f 14/98/28 15/25/28 60/103/28
f 33/100/37 31/104/37 76/88/37
f 20/92/28 22/40/28 67/105/28
f 43/34/5 4/64/5 49/106/5
f 91/79/1 92/63/1 94/107/1
f 95/108/38 93/109/38 94/107/38
f 97/80/2 99/110/2 100/111/2
f 100/111/39 99/110/39 101/112/39
f 94/107/40 92/63/40 98/62/40
f 91/79/41 93/109/41 99/110/41
f 95/108/5 96/113/5 102/114/5
f 96/113/42 94/107/42 100/111/42
f 95/108/43 101/112/43 99/110/43
f 20/115/1 21/116/1 25/117/1
f 60/118/2 61/119/2 58/120/2
f 13/121/1 16/122/1 15/123/1
f 55/124/44 52/125/44 48/126/44
f 3/127/45 7/128/45 10/129/45
f 83/130/46 82/131/46 84/132/46
f 38/133/47 37/134/47 36/135/47
f 106/136/48 72/137/48 71/138/48
f 7/128/49 8/139/49 6/140/49
f 49/141/50 63/142/50 64/143/50
f 4/144/51 17/145/51 19/146/51
f 62/147/2 88/7/2 49/141/2
f 43/3/1 17/145/1 4/144/1
f 106/148/5 105/71/5 107/71/5
f 103/89/14 104/149/14 47/46/14
f 106/148/52 71/91/52 26/90/52
f 108/148/53 107/71/53 103/89/53
f 40/1/1 43/3/1 41/150/1
f 65/5/2 64/143/2 63/142/2
f 66/4/2 70/151/2 68/152/2
f 65/5/2 66/4/2 64/143/2
f 69/6/2 65/5/2 67/153/2
f 66/4/2 69/6/2 70/151/2
f 88/7/2 85/9/2 86/154/2
f 5/10/3 61/12/3 50/50/3
f 30/13/4 77/15/4 75/96/4
f 6/16/9 80/18/9 51/39/9
f 24/19/6 70/21/6 69/41/6
f 42/22/7 85/24/7 87/43/7
f 15/25/8 53/27/8 60/103/8
f 34/28/5 89/30/5 79/47/5
f 25/20/14 68/32/14 70/21/14
f 41/33/11 88/35/11 86/97/11
f 16/11/6 58/37/6 61/12/6
f 7/38/5 51/39/5 52/58/5
f 22/40/5 69/41/5 67/105/5
f 45/42/5 87/43/5 90/61/5
f 17/44/54 47/46/54 62/56/54
f 34/28/13 81/48/13 36/68/13
f 27/49/10 50/50/10 72/59/10
f 35/17/15 82/52/15 80/18/15
f 9/53/5 55/55/5 54/69/5
f 17/44/16 64/57/16 19/85/16
f 7/38/17 55/55/17 10/54/17
f 27/49/18 74/60/18 29/87/18
f 90/61/55 92/63/55 45/42/55
f 4/64/20 63/66/20 49/106/20
f 38/67/21 81/48/21 83/94/21
f 9/53/22 48/70/22 3/155/22
f 105/71/23 73/73/23 106/148/23
f 44/29/9 92/63/9 91/79/9
f 37/51/24 84/75/24 82/52/24
f 12/76/10 56/78/10 57/95/10
f 44/29/56 97/80/57 89/30/58
f 1/81/28 48/83/28 46/86/28
f 21/84/10 64/57/10 66/102/10
f 1/81/29 56/78/29 11/77/29
f 29/87/30 76/88/30 31/104/30
f 90/61/5 97/80/5 98/62/5
f 103/89/10 71/91/10 104/149/10
f 18/65/5 65/93/5 63/66/5
f 40/23/31 83/94/31 85/24/31
f 8/26/32 57/95/32 53/27/32
f 28/72/33 75/96/33 73/73/33
f 41/33/59 84/75/59 39/74/59
f 13/36/35 59/99/35 58/37/35
f 32/14/36 78/101/36 77/15/36
f 23/31/28 66/102/28 68/32/28
f 14/98/28 60/103/28 59/99/28
f 33/100/37 76/88/37 78/101/37
f 20/92/28 67/105/28 65/93/28
f 43/34/9 49/106/9 88/35/9
f 91/79/1 94/107/1 93/109/1
f 95/108/38 94/107/38 96/113/38
f 97/80/2 100/111/2 98/62/2
f 100/111/39 101/112/39 102/114/39
f 94/107/40 98/62/40 100/111/40
f 91/79/41 99/110/41 97/80/41
f 95/108/9 102/114/9 101/112/9
f 96/113/42 100/111/42 102/114/42
f 95/108/43 99/110/43 93/109/43
f 21/116/1 18/156/1 19/146/1
f 20/115/1 24/157/1 22/158/1
f 21/116/1 20/115/1 18/156/1
f 25/117/1 21/116/1 23/159/1
f 20/115/1 25/117/1 24/157/1
f 60/118/2 58/120/2 59/160/2
f 13/121/1 15/123/1 14/161/1
f 55/124/44 48/126/44 54/162/44
f 3/127/45 10/129/45 9/163/45
f 82/131/60 81/164/61 80/165/60
f 80/165/62 81/164/62 79/166/62
f 85/9/62 83/130/62 86/154/62
f 86/154/62 83/130/62 84/132/62
f 82/131/46 83/130/46 81/164/46
f 36/135/63 35/167/63 34/168/63
f 39/169/64 38/133/64 41/150/64
f 41/150/63 38/133/64 40/1/63
f 36/135/65 37/134/65 35/167/65
f 39/169/47 37/134/47 38/133/47
f 51/170/48 53/171/48 52/125/48
f 52/125/48 46/172/48 48/126/48
f 53/171/48 57/173/48 52/125/48
f 46/172/48 57/173/48 56/174/48
f 53/171/48 50/175/48 60/118/48
f 60/118/66 50/175/66 61/119/66
f 46/172/48 52/125/48 57/173/48
f 51/170/48 50/175/48 53/171/48
f 89/176/48 71/138/48 79/166/48
f 79/166/48 72/137/48 80/165/48
f 80/165/48 50/175/48 51/170/48
f 72/137/48 106/136/48 74/177/48
f 74/177/48 75/178/48 76/179/48
f 80/165/48 72/137/48 50/175/48
f 90/180/48 104/181/48 89/176/48
f 79/166/48 71/138/48 72/137/48
f 47/182/48 90/180/48 87/8/48
f 104/181/48 90/180/48 47/182/48
f 74/177/48 73/183/48 75/178/48
f 76/179/48 75/178/48 78/184/48
f 78/184/48 75/178/48 77/185/48
f 73/183/48 74/177/48 106/136/48
f 71/138/48 89/176/48 104/181/48
f 5/186/67 15/123/67 16/122/67
f 8/139/49 7/128/49 12/187/49
f 12/187/49 1/188/49 11/189/49
f 5/186/68 8/139/49 15/123/49
f 31/190/49 30/191/49 29/192/49
f 29/192/49 105/193/49 27/194/49
f 30/191/49 28/195/49 29/192/49
f 33/196/69 30/191/49 31/190/69
f 30/191/49 33/196/49 32/197/49
f 105/193/49 29/192/49 28/195/49
f 2/198/49 45/199/49 103/200/49
f 103/200/49 44/201/49 26/202/49
f 45/199/49 44/201/49 103/200/49
f 26/202/49 27/194/49 105/193/49
f 42/2/49 45/199/49 2/198/49
f 34/168/49 26/202/49 44/201/49
f 26/202/49 34/168/49 27/194/49
f 27/194/49 35/167/49 5/186/49
f 12/187/49 7/128/49 1/188/49
f 27/194/49 34/168/49 35/167/49
f 5/186/49 6/140/49 8/139/49
f 5/186/49 35/167/49 6/140/49
f 1/188/49 7/128/49 3/127/49
f 49/141/50 64/143/50 62/147/50
f 4/144/51 19/146/51 18/156/51
f 88/7/2 47/182/2 87/8/2
f 47/182/2 88/7/2 62/147/2
f 17/145/1 43/3/1 2/198/1
f 2/198/1 43/3/1 42/2/1
f 106/148/9 107/71/9 108/148/9
f 103/89/14 47/46/14 2/45/14
f 106/148/52 26/90/52 105/71/52
f 108/148/53 103/89/53 104/149/53
