# Blender 4.1.0
# www.blender.org
mtllib HiddenWall.mtl
o Left_Wall_Two
v -8.111538 -0.752020 -35.593651
v -8.111538 37.464294 -35.593651
v -8.111536 -0.752020 -19.068449
v -8.111536 37.464294 -19.068449
v -32.323784 -0.752020 -35.593651
v -32.323784 37.464294 -35.593651
v -32.323780 -0.752020 -19.068445
v -32.323780 37.464294 -19.068445
v -24.191261 -0.752020 -19.068447
v -24.191261 37.464294 -19.068447
v -24.191263 -0.752020 -35.593651
v -24.191263 37.464294 -35.593651
v -16.151400 -0.752020 -19.068447
v -16.151402 37.464294 -35.593651
v -16.151400 37.464294 -19.068447
v -16.151402 -0.752020 -35.593651
v -16.151405 -0.752020 -115.141617
v -24.191269 -0.752020 -115.141617
v -24.191269 37.464294 -115.141617
v -16.151405 37.464294 -115.141617
vn 1.0000 -0.0000 -0.0000
vn -0.0000 -0.0000 1.0000
vn -1.0000 -0.0000 -0.0000
vn -0.0000 -0.0000 -1.0000
vn -0.0000 -1.0000 -0.0000
vn -0.0000 1.0000 -0.0000
vt 0.401060 0.137241
vt 0.559259 0.068833
vt 0.559259 0.137241
vt 0.401060 0.998133
vt 0.559259 0.964468
vt 0.559259 0.998133
vt 0.401060 0.964468
vt 0.559259 0.896060
vt 0.401060 0.170522
vt 0.559259 0.170522
vt 0.956962 0.566765
vt 0.888555 0.533100
vt 0.956962 0.533100
vt 0.003357 0.466536
vt 0.071764 0.499818
vt 0.003357 0.499818
vt 0.003357 0.533100
vt 0.071764 0.566765
vt 0.003357 0.566765
vt 0.888555 0.499818
vt 0.956962 0.499818
vt 0.401060 0.896060
vt 0.559259 0.862395
vt 0.401060 0.035552
vt 0.559259 0.002270
vt 0.559259 0.035552
vt 0.401060 0.068833
vt 0.888555 0.466536
vt 0.956962 0.466536
vt 0.071764 0.533100
vt 0.401060 0.499818
vt 0.401060 0.533100
vt 0.559259 0.499818
vt 0.559259 0.533100
vt 0.401060 0.862395
vt 0.888555 0.566765
vt 0.071764 0.466536
vt 0.401060 0.002270
s 0
usemtl Material.002
f 2/1/1 3/2/1 1/3/1
f 10/4/2 7/5/2 9/6/2
f 8/7/3 5/8/3 7/5/3
f 14/9/4 1/3/4 16/10/4
f 7/11/5 11/12/5 9/13/5
f 4/14/6 14/15/6 15/16/6
f 10/17/6 6/18/6 8/19/6
f 9/13/5 16/20/5 13/21/5
f 6/22/4 11/23/4 5/8/4
f 15/24/2 9/25/2 13/26/2
f 4/27/2 13/26/2 3/2/2
f 13/21/5 1/28/5 3/29/5
f 15/16/6 12/30/6 10/17/6
f 16/10/1 20/31/1 14/9/1
f 19/32/4 17/33/4 18/34/4
f 11/12/5 17/33/5 16/20/5
f 12/30/6 20/31/6 19/32/6
f 12/35/3 18/34/3 11/23/3
f 2/1/1 4/27/1 3/2/1
f 10/4/2 8/7/2 7/5/2
f 8/7/3 6/22/3 5/8/3
f 14/9/4 2/1/4 1/3/4
f 7/11/5 5/36/5 11/12/5
f 4/14/6 2/37/6 14/15/6
f 10/17/6 12/30/6 6/18/6
f 9/13/5 11/12/5 16/20/5
f 6/22/4 12/35/4 11/23/4
f 15/24/2 10/38/2 9/25/2
f 4/27/2 15/24/2 13/26/2
f 13/21/5 16/20/5 1/28/5
f 15/16/6 14/15/6 12/30/6
f 16/10/1 17/33/1 20/31/1
f 19/32/4 20/31/4 17/33/4
f 11/12/5 18/34/5 17/33/5
f 12/30/6 14/15/6 20/31/6
f 12/35/3 19/32/3 18/34/3
