# Blender 4.1.0
# www.blender.org
mtllib SecondFloorRailing.mtl
o Railing_Right
v 110.260101 25.109457 -41.058186
v 110.260101 25.790775 -41.058186
v 110.260101 25.109457 -41.394695
v 110.260101 25.790775 -41.394695
v 96.159660 25.109457 -41.058186
v 96.159660 25.790775 -41.058186
v 96.159660 25.109457 -41.394695
v 96.159660 25.790775 -41.394695
v 96.490906 25.109457 -41.394695
v 96.490906 25.790775 -41.394695
v 96.490906 25.109457 -41.058186
v 96.490906 25.790775 -41.058186
v 96.490906 25.790775 -93.095360
v 96.159660 25.790775 -93.095360
v 96.159660 25.109457 -93.095360
v 96.490906 25.109457 -93.095360
v 96.159660 25.790775 -92.789513
v 96.490906 25.790775 -92.789513
v 96.490906 25.109457 -92.789513
v 96.159660 25.109457 -92.789513
v 54.192780 25.790775 -93.095360
v 54.192780 25.109457 -93.095360
v 54.192780 25.790775 -92.789513
v 54.192780 25.109457 -92.789513
v 54.510693 25.790775 -92.789513
v 54.510693 25.790775 -93.095360
v 54.510693 25.109457 -93.095360
v 54.510693 25.109457 -92.789513
v 54.192780 25.109457 -90.245941
v 54.192780 25.790775 -90.245941
v 54.510693 25.790775 -90.245941
v 54.510693 25.109457 -90.245941
v 54.510693 25.790775 -90.586037
v 54.192780 25.790775 -90.586037
v 54.192780 25.109457 -90.586037
v 54.510693 25.109457 -90.586037
v 51.485268 25.109457 -90.245941
v 51.485268 25.790775 -90.245941
v 51.485268 25.109457 -90.586037
v 51.485268 25.790775 -90.586037
v 97.047424 25.109457 -41.394695
v 97.047424 25.790775 -41.058186
v 97.047424 25.790775 -41.394695
v 97.047424 25.109457 -41.058186
v 97.492020 25.109457 -41.394695
v 97.492020 25.790775 -41.058186
v 97.492020 25.790775 -41.394695
v 97.492020 25.109457 -41.058186
v 97.492020 19.289024 -41.058186
v 97.047424 19.289024 -41.058186
v 97.047424 19.289024 -41.394695
v 97.492020 19.289024 -41.394695
v 98.982689 25.109457 -41.394695
v 98.982689 25.790775 -41.058186
v 98.982689 25.790775 -41.394695
v 98.982689 25.109457 -41.058186
v 99.446449 25.109457 -41.394695
v 99.446449 25.790775 -41.058186
v 99.446449 25.790775 -41.394695
v 99.446449 25.109457 -41.058186
v 99.446449 19.347088 -41.058186
v 98.982689 19.347088 -41.058186
v 98.982689 19.347088 -41.394695
v 99.446449 19.347088 -41.394695
v 96.490906 25.790775 -42.491730
v 96.159660 25.109457 -42.491730
v 96.159660 25.790775 -42.491730
v 96.490906 25.109457 -42.491730
v 96.159660 25.790775 -42.932930
v 96.490906 25.109457 -42.932930
v 96.490906 25.790775 -42.932930
v 96.159660 25.109457 -42.932930
v 96.159660 19.393270 -42.932930
v 96.159660 19.393270 -42.491730
v 96.490906 19.393270 -42.491730
v 96.490906 19.393270 -42.932930
v 96.159660 25.790775 -45.209431
v 96.490906 25.109457 -45.209431
v 96.490906 25.790775 -45.209431
v 96.159660 25.109457 -45.209431
v 96.159660 25.790775 -45.652058
v 96.490906 25.109457 -45.652058
v 96.490906 25.790775 -45.652058
v 96.159660 25.109457 -45.652058
v 96.159660 25.790775 -48.100430
v 96.490906 25.109457 -48.100430
v 96.490906 25.790775 -48.100430
v 96.159660 25.109457 -48.100430
v 96.159660 25.790775 -48.553398
v 96.490906 25.109457 -48.553398
v 96.490906 25.790775 -48.553398
v 96.159660 25.109457 -48.553398
v 96.159660 25.790775 -51.235420
v 96.490906 25.109457 -51.235420
v 96.490906 25.790775 -51.235420
v 96.159660 25.109457 -51.235420
v 96.159660 25.790775 -51.729515
v 96.490906 25.109457 -51.729515
v 96.490906 25.790775 -51.729515
v 96.159660 25.109457 -51.729515
v 96.159660 25.790775 -54.531509
v 96.490906 25.109457 -54.531509
v 96.490906 25.790775 -54.531509
v 96.159660 25.109457 -54.531509
v 96.159660 25.790775 -55.082985
v 96.490906 25.109457 -55.082985
v 96.490906 25.790775 -55.082985
v 96.159660 25.109457 -55.082985
v 96.159660 25.790775 -58.203442
v 96.490906 25.109457 -58.203442
v 96.490906 25.790775 -58.203442
v 96.159660 25.109457 -58.203442
v 96.159660 25.790775 -58.788071
v 96.490906 25.109457 -58.788071
v 96.490906 25.790775 -58.788071
v 96.159660 25.109457 -58.788071
v 96.159660 25.790775 -62.102272
v 96.490906 25.109457 -62.102272
v 96.490906 25.790775 -62.102272
v 96.159660 25.109457 -62.102272
v 96.159660 25.790775 -62.713421
v 96.490906 25.109457 -62.713421
v 96.490906 25.790775 -62.713421
v 96.159660 25.109457 -62.713421
v 96.159660 25.790775 -66.227020
v 96.490906 25.109457 -66.227020
v 96.490906 25.790775 -66.227020
v 96.159660 25.109457 -66.227020
v 96.159660 25.790775 -66.890190
v 96.490906 25.109457 -66.890190
v 96.490906 25.790775 -66.890190
v 96.159660 25.109457 -66.890190
v 96.159660 25.790775 -70.203445
v 96.490906 25.109457 -70.203445
v 96.490906 25.790775 -70.203445
v 96.159660 25.109457 -70.203445
v 96.159660 25.790775 -70.919472
v 96.490906 25.109457 -70.919472
v 96.490906 25.790775 -70.919472
v 96.159660 25.109457 -70.919472
v 96.159660 25.790775 -74.675201
v 96.490906 25.109457 -74.675201
v 96.490906 25.790775 -74.675201
v 96.159660 25.109457 -74.675201
v 96.159660 25.790775 -75.302399
v 96.490906 25.109457 -75.302399
v 96.490906 25.790775 -75.302399
v 96.159660 25.109457 -75.302399
v 96.159660 25.790775 -78.837517
v 96.490906 25.109457 -78.837517
v 96.490906 25.790775 -78.837517
v 96.159660 25.109457 -78.837517
v 96.159660 25.790775 -79.525726
v 96.490906 25.109457 -79.525726
v 96.490906 25.790775 -79.525726
v 96.159660 25.109457 -79.525726
v 96.159660 25.790775 -83.269821
v 96.490906 25.109457 -83.269821
v 96.490906 25.790775 -83.269821
v 96.159660 25.109457 -83.269821
v 96.159660 25.790775 -83.890213
v 96.490906 25.109457 -83.890213
v 96.490906 25.790775 -83.890213
v 96.159660 25.109457 -83.890213
v 96.159660 25.790775 -87.701508
v 96.490906 25.109457 -87.701508
v 96.490906 25.790775 -87.701508
v 96.159660 25.109457 -87.701508
v 96.159660 25.790775 -88.306091
v 96.490906 25.109457 -88.306091
v 96.490906 25.790775 -88.306091
v 96.159660 25.109457 -88.306091
v 94.757042 25.790775 -93.095360
v 94.757042 25.109457 -92.789513
v 94.757042 25.790775 -92.789513
v 94.757042 25.109457 -93.095360
v 94.222832 25.790775 -92.789513
v 94.222832 25.109457 -93.095360
v 94.222832 25.790775 -93.095360
v 94.222832 25.109457 -92.789513
v 91.417648 25.790775 -92.789513
v 91.417648 25.109457 -93.095360
v 91.417648 25.790775 -93.095360
v 91.417648 25.109457 -92.789513
v 90.941269 25.790775 -92.789513
v 90.941269 25.109457 -93.095360
v 90.941269 25.790775 -93.095360
v 90.941269 25.109457 -92.789513
v 88.114670 25.790775 -92.789513
v 88.114670 25.109457 -93.095360
v 88.114670 25.790775 -93.095360
v 88.114670 25.109457 -92.789513
v 87.598335 25.790775 -92.789513
v 87.598335 25.109457 -93.095360
v 87.598335 25.790775 -93.095360
v 87.598335 25.109457 -92.789513
v 84.445053 25.790775 -92.789513
v 84.445053 25.109457 -93.095360
v 84.445053 25.790775 -93.095360
v 84.445053 25.109457 -92.789513
v 83.949173 25.790775 -92.789513
v 83.949173 25.109457 -93.095360
v 83.949173 25.790775 -93.095360
v 83.949173 25.109457 -92.789513
v 80.777908 25.790775 -92.789513
v 80.777908 25.109457 -93.095360
v 80.777908 25.790775 -93.095360
v 80.777908 25.109457 -92.789513
v 80.270752 25.790775 -92.789513
v 80.270752 25.109457 -93.095360
v 80.270752 25.790775 -93.095360
v 80.270752 25.109457 -92.789513
v 76.898361 25.790775 -92.789513
v 76.898361 25.109457 -93.095360
v 76.898361 25.790775 -93.095360
v 76.898361 25.109457 -92.789513
v 76.367020 25.790775 -92.789513
v 76.367020 25.109457 -93.095360
v 76.367020 25.790775 -93.095360
v 76.367020 25.109457 -92.789513
v 73.190231 25.790775 -92.789513
v 73.190231 25.109457 -93.095360
v 73.190231 25.790775 -93.095360
v 73.190231 25.109457 -92.789513
v 72.697998 25.790775 -92.789513
v 72.697998 25.109457 -93.095360
v 72.697998 25.790775 -93.095360
v 72.697998 25.109457 -92.789513
v 69.091644 25.790775 -92.789513
v 69.091644 25.109457 -93.095360
v 69.091644 25.790775 -93.095360
v 69.091644 25.109457 -92.789513
v 68.633942 25.790775 -92.789513
v 68.633942 25.109457 -93.095360
v 68.633942 25.790775 -93.095360
v 68.633942 25.109457 -92.789513
v 64.946671 25.790775 -92.789513
v 64.946671 25.109457 -93.095360
v 64.946671 25.790775 -93.095360
v 64.946671 25.109457 -92.789513
v 64.477264 25.790775 -92.789513
v 64.477264 25.109457 -93.095360
v 64.477264 25.790775 -93.095360
v 64.477264 25.109457 -92.789513
v 60.741497 25.790775 -92.789513
v 60.741497 25.109457 -93.095360
v 60.741497 25.790775 -93.095360
v 60.741497 25.109457 -92.789513
v 60.285789 25.790775 -92.789513
v 60.285789 25.109457 -93.095360
v 60.285789 25.790775 -93.095360
v 60.285789 25.109457 -92.789513
v 56.789886 25.790775 -92.789513
v 56.789886 25.109457 -93.095360
v 56.789886 25.790775 -93.095360
v 56.789886 25.109457 -92.789513
v 56.321705 25.790775 -92.789513
v 56.321705 25.109457 -93.095360
v 56.321705 25.790775 -93.095360
v 56.321705 25.109457 -92.789513
v 54.192780 25.790775 -91.880325
v 54.510693 25.109457 -91.880325
v 54.510693 25.790775 -91.880325
v 54.192780 25.109457 -91.880325
v 54.510693 25.790775 -91.470871
v 54.192780 25.109457 -91.470871
v 54.192780 25.790775 -91.470871
v 54.510693 25.109457 -91.470871
v 53.178471 25.109457 -90.586037
v 53.178471 25.109457 -90.245941
v 53.178471 25.790775 -90.586037
v 53.178471 25.790775 -90.245941
v 52.790668 25.109457 -90.586037
v 52.790668 25.790775 -90.586037
v 52.790668 25.109457 -90.245941
v 52.790668 25.790775 -90.245941
v 51.866123 25.109457 -90.586037
v 51.866123 25.790775 -90.586037
v 51.866123 25.109457 -90.245941
v 51.866123 25.790775 -90.245941
v 54.192780 18.939236 -93.095360
v 54.192780 18.939236 -92.789513
v 54.510693 18.939236 -93.095360
v 54.510693 18.939236 -92.789513
v 51.485268 18.939236 -90.586037
v 51.485268 18.939236 -90.245941
v 51.866123 18.939236 -90.586037
v 96.159660 18.939236 -45.652058
v 96.159660 18.939236 -45.209431
v 96.490906 18.939236 -45.209431
v 96.490906 18.939236 -45.652058
v 96.159660 18.939236 -48.553398
v 96.159660 18.939236 -48.100430
v 96.490906 18.939236 -48.100430
v 96.490906 18.939236 -48.553398
v 96.159660 18.939236 -51.729515
v 96.159660 18.939236 -51.235420
v 96.490906 18.939236 -51.235420
v 96.490906 18.939236 -51.729515
v 96.159660 18.939236 -55.082985
v 96.159660 18.939236 -54.531509
v 96.490906 18.939236 -54.531509
v 96.490906 18.939236 -55.082985
v 96.159660 18.939236 -58.788071
v 96.159660 18.939236 -58.203442
v 96.490906 18.939236 -58.203442
v 96.490906 18.939236 -58.788071
v 96.159660 18.939236 -62.713421
v 96.159660 18.939236 -62.102272
v 96.490906 18.939236 -62.102272
v 96.490906 18.939236 -62.713421
v 96.159660 18.939236 -66.890190
v 96.159660 18.939236 -66.227020
v 96.490906 18.939236 -66.227020
v 96.490906 18.939236 -66.890190
v 96.159660 18.939236 -70.919472
v 96.159660 18.939236 -70.203445
v 96.490906 18.939236 -70.203445
v 96.490906 18.939236 -70.919472
v 96.159660 18.939236 -75.302399
v 96.159660 18.939236 -74.675201
v 96.490906 18.939236 -74.675201
v 96.490906 18.939236 -75.302399
v 96.159660 18.939236 -79.525726
v 96.159660 18.939236 -78.837517
v 96.490906 18.939236 -78.837517
v 96.490906 18.939236 -79.525726
v 96.159660 18.939236 -83.890213
v 96.159660 18.939236 -83.269821
v 96.490906 18.939236 -83.269821
v 96.490906 18.939236 -83.890213
v 96.159660 18.939236 -88.306091
v 96.159660 18.939236 -87.701508
v 96.490906 18.939236 -87.701508
v 96.490906 18.939236 -88.306091
v 94.222832 18.939236 -92.789513
v 94.757042 18.939236 -92.789513
v 94.757042 18.939236 -93.095360
v 94.222832 18.939236 -93.095360
v 90.941269 18.939236 -92.789513
v 91.417648 18.939236 -92.789513
v 91.417648 18.939236 -93.095360
v 90.941269 18.939236 -93.095360
v 87.598335 18.939236 -92.789513
v 88.114670 18.939236 -92.789513
v 88.114670 18.939236 -93.095360
v 87.598335 18.939236 -93.095360
v 83.949173 18.939236 -92.789513
v 84.445053 18.939236 -92.789513
v 84.445053 18.939236 -93.095360
v 83.949173 18.939236 -93.095360
v 80.270752 18.939236 -92.789513
v 80.777908 18.939236 -92.789513
v 80.777908 18.939236 -93.095360
v 80.270752 18.939236 -93.095360
v 76.367020 18.939236 -92.789513
v 76.898361 18.939236 -92.789513
v 76.898361 18.939236 -93.095360
v 76.367020 18.939236 -93.095360
v 72.697998 18.939236 -92.789513
v 73.190231 18.939236 -92.789513
v 73.190231 18.939236 -93.095360
v 72.697998 18.939236 -93.095360
v 68.633942 18.939236 -92.789513
v 69.091644 18.939236 -92.789513
v 69.091644 18.939236 -93.095360
v 68.633942 18.939236 -93.095360
v 64.477264 18.939236 -92.789513
v 64.946671 18.939236 -92.789513
v 64.946671 18.939236 -93.095360
v 64.477264 18.939236 -93.095360
v 60.285789 18.939236 -92.789513
v 60.741497 18.939236 -92.789513
v 60.741497 18.939236 -93.095360
v 60.285789 18.939236 -93.095360
v 56.321705 18.939236 -92.789513
v 56.789886 18.939236 -92.789513
v 56.789886 18.939236 -93.095360
v 56.321705 18.939236 -93.095360
v 54.510693 18.939236 -91.470871
v 54.510693 18.939236 -91.880325
v 54.192780 18.939236 -91.880325
v 54.192780 18.939236 -91.470871
v 52.790668 18.939236 -90.245941
v 53.178471 18.939236 -90.245941
v 53.178471 18.939236 -90.586037
v 52.790668 18.939236 -90.586037
v 51.866123 18.939236 -90.245941
vn 1.0000 -0.0000 -0.0000
vn -0.0000 1.0000 -0.0000
vn -1.0000 -0.0000 -0.0000
vn -0.0000 -0.0000 1.0000
vn -0.0000 -1.0000 -0.0000
vn -0.0000 -0.0000 -1.0000
vt 0.254053 0.880795
vt 0.252008 0.876654
vt 0.252008 0.880795
vt 0.012507 0.810994
vt 0.015246 0.810972
vt 0.013756 0.809618
vt 0.230746 0.520648
vt 0.226606 0.522693
vt 0.230746 0.522693
vt 0.314019 0.777692
vt 0.309879 0.843407
vt 0.314019 0.843407
vt 0.277699 0.876468
vt 0.275686 0.878513
vt 0.277699 0.878513
vt 0.211820 0.564830
vt 0.161800 0.522162
vt 0.210445 0.566344
vt 0.226606 0.578259
vt 0.223741 0.578419
vt 0.225231 0.579772
vt 0.281081 0.876468
vt 0.281081 0.878513
vt 0.314019 0.861367
vt 0.309879 0.863380
vt 0.314019 0.863380
vt 0.353530 0.777693
vt 0.349390 0.781074
vt 0.353530 0.781074
vt 0.314019 0.775679
vt 0.309879 0.777692
vt 0.265836 0.864122
vt 0.267849 0.862263
vt 0.265836 0.862263
vt 0.272383 0.520648
vt 0.268243 0.522507
vt 0.272383 0.522507
vt 0.202784 0.983812
vt 0.202604 0.981138
vt 0.201354 0.982513
vt 0.226606 0.835018
vt 0.230746 0.807772
vt 0.226606 0.807772
vt 0.268243 0.549752
vt 0.272383 0.549752
vt 0.267849 0.835018
vt 0.265836 0.835018
vt 0.033564 0.790803
vt 0.032074 0.789450
vt 0.242063 0.835018
vt 0.243922 0.839158
vt 0.243922 0.835018
vt 0.351516 0.726790
vt 0.314019 0.723653
vt 0.314019 0.726790
vt 0.314019 0.520648
vt 0.309879 0.522580
vt 0.314019 0.522580
vt 0.214426 0.970994
vt 0.211607 0.971225
vt 0.213037 0.972524
vt 0.351516 0.773748
vt 0.355656 0.762742
vt 0.351516 0.762742
vt 0.309879 0.533586
vt 0.314019 0.533586
vt 0.242092 0.887660
vt 0.243951 0.876654
vt 0.242092 0.876654
vt 0.194457 0.973738
vt 0.193207 0.975114
vt 0.284696 0.834831
vt 0.286628 0.838972
vt 0.286628 0.834831
vt 0.268242 0.876468
vt 0.270309 0.878400
vt 0.270309 0.876468
vt 0.351457 0.898864
vt 0.353470 0.861367
vt 0.351457 0.861367
vt 0.226606 0.835018
vt 0.228673 0.839158
vt 0.228673 0.835018
vt 0.234050 0.839158
vt 0.234050 0.835018
vt 0.257312 0.839158
vt 0.251935 0.835018
vt 0.251935 0.839158
vt 0.275686 0.878400
vt 0.275686 0.876468
vt 0.207991 0.975206
vt 0.209421 0.976505
vt 0.305148 0.838972
vt 0.303081 0.834831
vt 0.303081 0.838972
vt 0.303081 0.838972
vt 0.300767 0.834831
vt 0.300767 0.838972
vt 0.268243 0.834831
vt 0.270557 0.838972
vt 0.270557 0.834831
vt 0.225216 0.983586
vt 0.224893 0.980500
vt 0.223503 0.982030
vt 0.349390 0.783776
vt 0.353530 0.783776
vt 0.323727 0.898751
vt 0.325772 0.863380
vt 0.323727 0.863380
vt 0.225116 0.576905
vt 0.221237 0.576145
vt 0.314019 0.857985
vt 0.309879 0.861367
vt 0.243951 0.876654
vt 0.245996 0.885713
vt 0.245996 0.876654
vt 0.349390 0.792835
vt 0.353530 0.792835
vt 0.222612 0.574631
vt 0.219237 0.574329
vt 0.314019 0.855284
vt 0.309879 0.857985
vt 0.375086 0.773748
vt 0.377131 0.776449
vt 0.377131 0.773748
vt 0.349390 0.857985
vt 0.325772 0.898751
vt 0.327817 0.863380
vt 0.388901 0.783776
vt 0.349390 0.795653
vt 0.353530 0.795653
vt 0.327817 0.898398
vt 0.329862 0.863380
vt 0.327817 0.863380
vt 0.220612 0.572815
vt 0.212532 0.568238
vt 0.314019 0.846225
vt 0.309879 0.855284
vt 0.388901 0.777692
vt 0.390946 0.843407
vt 0.390946 0.777692
vt 0.349390 0.861367
vt 0.353530 0.861367
vt 0.213907 0.566725
vt 0.309879 0.846225
vt 0.371182 0.773748
vt 0.373227 0.776566
vt 0.373227 0.773748
vt 0.349037 0.846225
vt 0.329862 0.898398
vt 0.331907 0.863380
vt 0.388548 0.795653
vt 0.219259 0.583354
vt 0.275686 0.885180
vt 0.272383 0.828165
vt 0.268243 0.834831
vt 0.272383 0.834831
vt 0.226606 0.529360
vt 0.217456 0.585339
vt 0.220749 0.584707
vt 0.265483 0.532041
vt 0.230746 0.529360
vt 0.230746 0.532041
vt 0.272383 0.825484
vt 0.268243 0.828165
vt 0.226606 0.532041
vt 0.249995 0.886678
vt 0.252008 0.883997
vt 0.249995 0.883997
vt 0.333920 0.898117
vt 0.335933 0.863380
vt 0.333920 0.863380
vt 0.307120 0.828165
vt 0.331907 0.898117
vt 0.331907 0.863380
vt 0.208155 0.595580
vt 0.218946 0.586692
vt 0.240079 0.890488
vt 0.242092 0.876654
vt 0.240079 0.876654
vt 0.272383 0.811649
vt 0.268243 0.825484
vt 0.226606 0.545875
vt 0.206347 0.597571
vt 0.209645 0.596933
vt 0.300767 0.876468
vt 0.272383 0.808960
vt 0.268243 0.811649
vt 0.226606 0.548565
vt 0.230746 0.545875
vt 0.196343 0.608585
vt 0.207837 0.598924
vt 0.238066 0.891533
vt 0.240079 0.876654
vt 0.238066 0.876654
vt 0.272383 0.794081
vt 0.268243 0.808960
vt 0.226606 0.563444
vt 0.230746 0.548565
vt 0.194492 0.610622
vt 0.197833 0.609938
vt 0.353470 0.898864
vt 0.355483 0.861367
vt 0.272383 0.791328
vt 0.268243 0.794081
vt 0.226606 0.566196
vt 0.230746 0.563444
vt 0.183534 0.622687
vt 0.195983 0.611976
vt 0.232336 0.892953
vt 0.234349 0.876654
vt 0.232336 0.876654
vt 0.272383 0.775030
vt 0.268243 0.791328
vt 0.226606 0.582495
vt 0.230746 0.566196
vt 0.181516 0.624910
vt 0.185025 0.624041
vt 0.276175 0.876468
vt 0.278532 0.838972
vt 0.276175 0.838972
vt 0.272383 0.772027
vt 0.268243 0.775030
vt 0.226606 0.585497
vt 0.230746 0.582495
vt 0.170068 0.637515
vt 0.183006 0.626263
vt 0.230323 0.893682
vt 0.230323 0.876654
vt 0.272383 0.754999
vt 0.268243 0.772027
vt 0.226606 0.602525
vt 0.230746 0.585497
vt 0.167814 0.639996
vt 0.171558 0.638868
vt 0.309879 0.794081
vt 0.272383 0.751648
vt 0.268243 0.754999
vt 0.226606 0.605876
vt 0.230746 0.602525
vt 0.155065 0.654033
vt 0.169305 0.641349
vt 0.298581 0.895431
vt 0.300594 0.876468
vt 0.298581 0.876468
vt 0.272383 0.732685
vt 0.268243 0.751648
vt 0.226606 0.624839
vt 0.230746 0.605876
vt 0.152676 0.656663
vt 0.156555 0.655386
vt 0.268242 0.807772
vt 0.230746 0.804098
vt 0.272383 0.729132
vt 0.268243 0.732685
vt 0.226606 0.628392
vt 0.230746 0.624839
vt 0.139136 0.671572
vt 0.154167 0.658016
vt 0.292696 0.896608
vt 0.294709 0.876468
vt 0.292696 0.876468
vt 0.272383 0.708992
vt 0.268243 0.729132
vt 0.226606 0.648532
vt 0.230746 0.628392
vt 0.136639 0.674321
vt 0.140626 0.672925
vt 0.335933 0.900877
vt 0.337791 0.863380
vt 0.272383 0.705278
vt 0.268243 0.708992
vt 0.226606 0.652246
vt 0.230746 0.648532
vt 0.122283 0.690127
vt 0.138129 0.675674
vt 0.285107 0.897820
vt 0.287120 0.876468
vt 0.285107 0.876468
vt 0.272383 0.683926
vt 0.268243 0.705278
vt 0.226606 0.673598
vt 0.230746 0.652246
vt 0.119574 0.693110
vt 0.123773 0.691480
vt 0.351516 0.658629
vt 0.314019 0.655400
vt 0.314019 0.658629
vt 0.272383 0.679896
vt 0.268243 0.683926
vt 0.226606 0.677628
vt 0.230746 0.673598
vt 0.106036 0.708015
vt 0.121064 0.694464
vt 0.294709 0.896602
vt 0.296722 0.876468
vt 0.272383 0.659762
vt 0.268243 0.679896
vt 0.226606 0.697763
vt 0.230746 0.677628
vt 0.103111 0.711236
vt 0.107527 0.709368
vt 0.303081 0.876468
vt 0.272383 0.655410
vt 0.268243 0.659762
vt 0.226606 0.702114
vt 0.230746 0.697763
vt 0.087766 0.728131
vt 0.104601 0.712589
vt 0.307161 0.895151
vt 0.309174 0.872328
vt 0.307161 0.872328
vt 0.272383 0.632587
vt 0.268243 0.655410
vt 0.226606 0.724938
vt 0.230746 0.702114
vt 0.085204 0.730953
vt 0.089256 0.729484
vt 0.337791 0.900877
vt 0.339650 0.863380
vt 0.272383 0.628775
vt 0.268243 0.632587
vt 0.226606 0.728749
vt 0.230746 0.724938
vt 0.070760 0.746855
vt 0.086694 0.732306
vt 0.283094 0.897951
vt 0.285107 0.876468
vt 0.283094 0.876468
vt 0.272383 0.607293
vt 0.268243 0.628775
vt 0.226606 0.750232
vt 0.230746 0.728749
vt 0.067948 0.749951
vt 0.072250 0.748209
vt 0.355483 0.898864
vt 0.357496 0.861367
vt 0.355483 0.861367
vt 0.272383 0.603110
vt 0.268243 0.607293
vt 0.226606 0.754414
vt 0.230746 0.750232
vt 0.052651 0.766794
vt 0.069438 0.751305
vt 0.281081 0.899221
vt 0.272383 0.580358
vt 0.268243 0.603110
vt 0.226606 0.777167
vt 0.230746 0.754414
vt 0.050116 0.769585
vt 0.054141 0.768147
vt 0.309879 0.732685
vt 0.272383 0.576587
vt 0.268243 0.580358
vt 0.226606 0.780937
vt 0.230746 0.777167
vt 0.034544 0.786730
vt 0.051606 0.770938
vt 0.305148 0.895489
vt 0.307161 0.872328
vt 0.305148 0.872328
vt 0.272383 0.553426
vt 0.268243 0.576587
vt 0.226606 0.804098
vt 0.230746 0.780937
vt 0.036034 0.788083
vt 0.393152 0.572675
vt 0.355656 0.569537
vt 0.355656 0.572675
vt 0.268243 0.553426
vt 0.020306 0.818078
vt 0.013997 0.812347
vt 0.257312 0.862263
vt 0.314019 0.767156
vt 0.309879 0.775679
vt 0.351516 0.529172
vt 0.355656 0.520648
vt 0.351516 0.520648
vt 0.022709 0.820261
vt 0.021556 0.816702
vt 0.317931 0.900877
vt 0.319863 0.863380
vt 0.317931 0.863380
vt 0.314019 0.763909
vt 0.309879 0.767156
vt 0.351516 0.532418
vt 0.355656 0.529172
vt 0.035329 0.831722
vt 0.023959 0.818885
vt 0.236208 0.893701
vt 0.236208 0.876654
vt 0.314019 0.746862
vt 0.309879 0.763909
vt 0.351516 0.549465
vt 0.355656 0.532418
vt 0.037472 0.833668
vt 0.036578 0.830346
vt 0.357496 0.898864
vt 0.359509 0.861367
vt 0.314019 0.743968
vt 0.309879 0.746862
vt 0.351516 0.552360
vt 0.355656 0.549465
vt 0.050187 0.845217
vt 0.038721 0.832292
vt 0.234349 0.893831
vt 0.236208 0.876654
vt 0.234349 0.876654
vt 0.309879 0.743968
vt 0.351516 0.569537
vt 0.355656 0.552360
vt 0.052510 0.847327
vt 0.051437 0.843841
vt 0.351516 0.585999
vt 0.314019 0.583147
vt 0.314019 0.585999
vt 0.309879 0.726790
vt 0.351516 0.572675
vt 0.066695 0.860210
vt 0.053759 0.845951
vt 0.228465 0.895817
vt 0.228465 0.876654
vt 0.314019 0.704490
vt 0.309879 0.723653
vt 0.351516 0.591837
vt 0.068925 0.862236
vt 0.067944 0.858834
vt 0.339650 0.900877
vt 0.341509 0.863380
vt 0.314019 0.701477
vt 0.309879 0.704490
vt 0.351516 0.594851
vt 0.355656 0.591837
vt 0.083191 0.875193
vt 0.070175 0.860860
vt 0.226606 0.895926
vt 0.226606 0.876654
vt 0.314019 0.682205
vt 0.309879 0.701477
vt 0.351516 0.614123
vt 0.355656 0.594851
vt 0.085473 0.877265
vt 0.084441 0.873817
vt 0.268243 0.566196
vt 0.314019 0.679123
vt 0.309879 0.682205
vt 0.351516 0.617204
vt 0.355656 0.614123
vt 0.100643 0.891044
vt 0.086722 0.875889
vt 0.300594 0.896962
vt 0.302452 0.876468
vt 0.309879 0.679123
vt 0.351516 0.637698
vt 0.355656 0.617204
vt 0.103034 0.893215
vt 0.101893 0.889668
vt 0.359509 0.898864
vt 0.361522 0.861367
vt 0.309879 0.658629
vt 0.351516 0.640927
vt 0.355656 0.637698
vt 0.117324 0.906194
vt 0.104283 0.891839
vt 0.302452 0.895773
vt 0.304311 0.876468
vt 0.302452 0.876468
vt 0.314019 0.636095
vt 0.309879 0.655400
vt 0.351516 0.660233
vt 0.355656 0.640927
vt 0.119539 0.908205
vt 0.118574 0.904818
vt 0.309879 0.659762
vt 0.314019 0.633104
vt 0.309879 0.636095
vt 0.351516 0.663224
vt 0.355656 0.660233
vt 0.135762 0.922940
vt 0.120788 0.906829
vt 0.290838 0.898384
vt 0.290838 0.876468
vt 0.314019 0.611188
vt 0.309879 0.633104
vt 0.351516 0.685140
vt 0.355656 0.663224
vt 0.137821 0.924810
vt 0.137011 0.921564
vt 0.393152 0.640927
vt 0.314019 0.608407
vt 0.309879 0.611188
vt 0.351516 0.687921
vt 0.355656 0.685140
vt 0.154408 0.939875
vt 0.139070 0.923434
vt 0.288979 0.898875
vt 0.288979 0.876468
vt 0.309879 0.608407
vt 0.351516 0.710328
vt 0.355656 0.687921
vt 0.156520 0.941793
vt 0.155658 0.938499
vt 0.361522 0.898864
vt 0.363535 0.861367
vt 0.361522 0.861367
vt 0.309879 0.585999
vt 0.351516 0.713181
vt 0.355656 0.710328
vt 0.173325 0.957056
vt 0.157769 0.940417
vt 0.287120 0.899170
vt 0.314019 0.560445
vt 0.309879 0.583147
vt 0.351516 0.735883
vt 0.355656 0.713181
vt 0.175375 0.958918
vt 0.174575 0.955680
vt 0.249447 0.876654
vt 0.249447 0.839158
vt 0.314019 0.557675
vt 0.309879 0.560445
vt 0.351516 0.738652
vt 0.355656 0.735883
vt 0.191101 0.973201
vt 0.176625 0.957542
vt 0.296722 0.897712
vt 0.314019 0.536431
vt 0.309879 0.557675
vt 0.351516 0.759897
vt 0.355656 0.738652
vt 0.192351 0.971825
vt 0.341509 0.900877
vt 0.343367 0.863380
vt 0.309879 0.536431
vt 0.355656 0.759897
vt 0.207749 0.978346
vt 0.204034 0.982436
vt 0.249995 0.876654
vt 0.248063 0.882179
vt 0.249995 0.882179
vt 0.236538 0.835018
vt 0.242063 0.839158
vt 0.242063 0.835018
vt 0.206318 0.977048
vt 0.268243 0.628392
vt 0.249447 0.835018
vt 0.236538 0.839158
vt 0.217600 0.976668
vt 0.278532 0.834831
vt 0.284696 0.838972
vt 0.292792 0.838972
vt 0.268242 0.884564
vt 0.268242 0.878400
vt 0.219344 0.978253
vt 0.218989 0.975138
vt 0.276175 0.834831
vt 0.295148 0.838972
vt 0.292792 0.834831
vt 0.343367 0.900877
vt 0.345226 0.863380
vt 0.220734 0.976723
vt 0.295148 0.834831
vt 0.245996 0.882273
vt 0.248063 0.876654
vt 0.245996 0.876654
vt 0.273818 0.886496
vt 0.275677 0.884564
vt 0.273818 0.884564
vt 0.275686 0.887494
vt 0.277753 0.885180
vt 0.254053 0.886540
vt 0.256066 0.883850
vt 0.254053 0.883850
vt 0.245996 0.885025
vt 0.248009 0.882273
vt 0.363594 0.776750
vt 0.365607 0.773748
vt 0.363594 0.773748
vt 0.361581 0.777099
vt 0.361581 0.773748
vt 0.359568 0.777300
vt 0.359568 0.773748
vt 0.355542 0.777461
vt 0.357555 0.773748
vt 0.355542 0.773748
vt 0.252008 0.884825
vt 0.254021 0.880795
vt 0.249995 0.881006
vt 0.249995 0.876654
vt 0.351516 0.777559
vt 0.353529 0.773748
vt 0.254053 0.880837
vt 0.256066 0.876654
vt 0.254053 0.876654
vt 0.353529 0.777518
vt 0.353529 0.773748
vt 0.357555 0.777422
vt 0.365607 0.776994
vt 0.367465 0.773748
vt 0.248063 0.885074
vt 0.249921 0.882179
vt 0.369324 0.776885
vt 0.369324 0.773748
vt 0.255911 0.880836
vt 0.254053 0.880836
vt 0.373227 0.776829
vt 0.367465 0.776976
vt 0.249995 0.883997
vt 0.251853 0.881006
vt 0.270101 0.887345
vt 0.271960 0.884564
vt 0.270101 0.884564
vt 0.377131 0.776600
vt 0.378990 0.773748
vt 0.271960 0.887333
vt 0.273818 0.884564
vt 0.271960 0.884564
vt 0.268243 0.887409
vt 0.270101 0.884564
vt 0.268243 0.884564
vt 0.253940 0.884825
vt 0.252008 0.887313
vt 0.253940 0.887313
vt 0.245996 0.887382
vt 0.248063 0.885025
vt 0.245996 0.885025
vt 0.345226 0.900877
vt 0.347085 0.863380
vt 0.268243 0.728749
vt 0.363535 0.898864
vt 0.365548 0.861367
vt 0.365548 0.898864
vt 0.367561 0.861367
vt 0.393152 0.738652
vt 0.309879 0.553426
vt 0.307215 0.834831
vt 0.305148 0.834831
vt 0.347085 0.900877
vt 0.348943 0.863380
vt 0.268243 0.652246
vt 0.292792 0.876468
vt 0.390946 0.815189
vt 0.392805 0.777692
vt 0.367561 0.898864
vt 0.369574 0.861367
vt 0.367561 0.861367
vt 0.393152 0.663224
vt 0.309879 0.632587
vt 0.369574 0.898864
vt 0.371587 0.861367
vt 0.268243 0.585497
vt 0.390946 0.852685
vt 0.392805 0.815189
vt 0.390946 0.815189
vt 0.351516 0.560445
vt 0.371587 0.898864
vt 0.373600 0.861367
vt 0.393152 0.594851
vt 0.309879 0.708992
vt 0.373600 0.898864
vt 0.375613 0.861367
vt 0.373600 0.861367
vt 0.393152 0.532418
vt 0.307215 0.872328
vt 0.309282 0.834831
vt 0.257312 0.901618
vt 0.259171 0.864122
vt 0.257312 0.864122
vt 0.351516 0.636095
vt 0.259171 0.901618
vt 0.261029 0.864122
vt 0.259171 0.864122
vt 0.309879 0.775030
vt 0.375613 0.898864
vt 0.377626 0.861367
vt 0.268243 0.876468
vt 0.268243 0.838972
vt 0.261029 0.901618
vt 0.262888 0.864122
vt 0.261029 0.864122
vt 0.351516 0.704490
vt 0.262888 0.901618
vt 0.264747 0.864122
vt 0.242063 0.876654
vt 0.268243 0.754414
vt 0.377626 0.898864
vt 0.379639 0.861367
vt 0.379639 0.898864
vt 0.381652 0.861367
vt 0.379639 0.861367
vt 0.393152 0.762742
vt 0.351516 0.767156
vt 0.349390 0.898864
vt 0.351457 0.861367
vt 0.349390 0.861367
vt 0.264747 0.901618
vt 0.266605 0.864122
vt 0.268243 0.677628
vt 0.351516 0.522580
vt 0.391717 0.898864
vt 0.393575 0.861367
vt 0.391717 0.861367
vt 0.381652 0.898864
vt 0.383665 0.861367
vt 0.393152 0.687921
vt 0.309879 0.607293
vt 0.392805 0.815189
vt 0.394663 0.777692
vt 0.392805 0.777692
vt 0.268243 0.605876
vt 0.392805 0.852685
vt 0.394663 0.815189
vt 0.351516 0.536431
vt 0.383665 0.898864
vt 0.385678 0.861367
vt 0.319863 0.900877
vt 0.321795 0.863380
vt 0.393152 0.617204
vt 0.309879 0.683926
vt 0.385678 0.898864
vt 0.387691 0.861367
vt 0.268243 0.548565
vt 0.393152 0.558144
vt 0.395011 0.520648
vt 0.393152 0.520648
vt 0.351516 0.611188
vt 0.393152 0.595641
vt 0.395011 0.558144
vt 0.387691 0.898864
vt 0.389704 0.861367
vt 0.393152 0.633137
vt 0.395011 0.595641
vt 0.393152 0.595641
vt 0.393152 0.552360
vt 0.309879 0.754999
vt 0.389704 0.898864
vt 0.389704 0.861367
vt 0.393152 0.670633
vt 0.395011 0.633137
vt 0.393152 0.633137
vt 0.351516 0.682205
vt 0.393152 0.708129
vt 0.395011 0.670633
vt 0.393152 0.670633
vt 0.268242 0.780937
vt 0.309879 0.811649
vt 0.234050 0.876654
vt 0.309879 0.900877
vt 0.311892 0.863380
vt 0.309879 0.863380
vt 0.311892 0.900877
vt 0.313905 0.863380
vt 0.351516 0.746862
vt 0.393152 0.745625
vt 0.395011 0.708129
vt 0.268243 0.702114
vt 0.313905 0.900877
vt 0.315918 0.863380
vt 0.321795 0.900877
vt 0.323727 0.863380
vt 0.321795 0.863380
vt 0.315918 0.900877
vt 0.393152 0.713181
vt 0.309879 0.580358
vt 0.226606 0.520648
vt 0.163175 0.520648
vt 0.349390 0.777693
vt 0.267849 0.864122
vt 0.268243 0.520648
vt 0.230746 0.835018
vt 0.351516 0.723653
vt 0.309879 0.520648
vt 0.212996 0.969695
vt 0.355656 0.773748
vt 0.243951 0.887660
vt 0.226606 0.839158
vt 0.257312 0.835018
vt 0.305148 0.834831
vt 0.303081 0.834831
vt 0.226606 0.982056
vt 0.243951 0.885713
vt 0.375086 0.776449
vt 0.349390 0.855284
vt 0.327817 0.898751
vt 0.388901 0.781074
vt 0.388901 0.843407
vt 0.371182 0.776566
vt 0.349037 0.843407
vt 0.331907 0.898398
vt 0.388548 0.792835
vt 0.277699 0.885180
vt 0.265483 0.529360
vt 0.252008 0.886678
vt 0.335933 0.898117
vt 0.307120 0.825484
vt 0.242092 0.890488
vt 0.303081 0.876468
vt 0.240079 0.891533
vt 0.234349 0.892953
vt 0.278532 0.876468
vt 0.232336 0.893682
vt 0.309879 0.791328
vt 0.300594 0.895431
vt 0.268242 0.804098
vt 0.294709 0.896608
vt 0.337791 0.900877
vt 0.287120 0.897820
vt 0.351516 0.655400
vt 0.296722 0.896602
vt 0.305148 0.876468
vt 0.309174 0.895151
vt 0.285107 0.897951
vt 0.283094 0.899221
vt 0.309879 0.729132
vt 0.307161 0.895489
vt 0.393152 0.569537
vt 0.257312 0.864122
vt 0.238066 0.893701
vt 0.236208 0.893831
vt 0.351516 0.583147
vt 0.230323 0.895817
vt 0.228465 0.895926
vt 0.268243 0.563444
vt 0.302452 0.896962
vt 0.361522 0.898864
vt 0.304311 0.895773
vt 0.309879 0.655410
vt 0.292696 0.898384
vt 0.393152 0.637698
vt 0.290838 0.898875
vt 0.288979 0.899170
vt 0.251935 0.876654
vt 0.298581 0.897712
vt 0.343367 0.900877
vt 0.268243 0.624839
vt 0.270309 0.884564
vt 0.248063 0.882273
vt 0.275677 0.886496
vt 0.277753 0.887494
vt 0.256066 0.886540
vt 0.248009 0.885025
vt 0.365607 0.776750
vt 0.363594 0.777099
vt 0.361581 0.777300
vt 0.357555 0.777461
vt 0.254021 0.884825
vt 0.252008 0.881006
vt 0.353529 0.777559
vt 0.256066 0.880837
vt 0.355542 0.777518
vt 0.359568 0.777422
vt 0.367465 0.776994
vt 0.249921 0.885074
vt 0.371182 0.776885
vt 0.255911 0.883850
vt 0.375086 0.776829
vt 0.369324 0.776976
vt 0.251853 0.883997
vt 0.271960 0.887345
vt 0.378990 0.776600
vt 0.273818 0.887333
vt 0.270101 0.887409
vt 0.248063 0.887382
vt 0.268243 0.724938
vt 0.367561 0.898864
vt 0.393152 0.735883
vt 0.309879 0.549752
vt 0.348943 0.900877
vt 0.268243 0.648532
vt 0.295148 0.876468
vt 0.392805 0.815189
vt 0.369574 0.898864
vt 0.393152 0.660233
vt 0.309879 0.628775
vt 0.371587 0.898864
vt 0.268243 0.582495
vt 0.351516 0.557675
vt 0.373600 0.898864
vt 0.393152 0.591837
vt 0.309879 0.705278
vt 0.393152 0.529172
vt 0.309282 0.872328
vt 0.259171 0.901618
vt 0.351516 0.633104
vt 0.261029 0.901618
vt 0.309879 0.772027
vt 0.270557 0.876468
vt 0.351516 0.701477
vt 0.243922 0.876654
vt 0.268243 0.750232
vt 0.379639 0.898864
vt 0.393152 0.759897
vt 0.351516 0.763909
vt 0.351457 0.898864
vt 0.266605 0.901618
vt 0.268243 0.673598
vt 0.393575 0.898864
vt 0.393152 0.685140
vt 0.309879 0.603110
vt 0.268243 0.602525
vt 0.394663 0.852685
vt 0.351516 0.533586
vt 0.385678 0.898864
vt 0.321795 0.900877
vt 0.393152 0.614123
vt 0.309879 0.679896
vt 0.387691 0.898864
vt 0.268243 0.545875
vt 0.351516 0.608407
vt 0.389704 0.898864
vt 0.395011 0.633137
vt 0.393152 0.549465
vt 0.309879 0.751648
vt 0.395011 0.670633
vt 0.351516 0.679123
vt 0.268242 0.777167
vt 0.309879 0.808960
vt 0.236538 0.876654
vt 0.351516 0.743968
vt 0.395011 0.745625
vt 0.268243 0.697763
vt 0.323727 0.900877
vt 0.393152 0.710328
vt 0.309879 0.576587
s 0
usemtl Material.012
f 3/1/1 2/2/1 1/3/1
f 13/4/2 17/5/2 18/6/2
f 5/7/3 8/8/3 7/9/3
f 1/10/4 58/11/4 60/12/4
f 11/13/5 7/14/5 9/15/5
f 58/16/2 4/17/2 59/18/2
f 6/19/2 10/20/2 8/21/2
f 44/22/5 9/15/5 41/23/5
f 11/24/4 6/25/4 5/26/4
f 9/27/6 43/28/6 41/29/6
f 15/30/6 13/31/6 16/10/6
f 15/32/5 19/33/5 20/34/5
f 16/35/1 18/36/1 19/37/1
f 21/38/2 25/39/2 26/40/2
f 17/41/3 172/42/3 169/43/3
f 19/37/1 171/44/1 170/45/1
f 20/34/5 170/46/5 172/47/5
f 18/6/2 169/48/2 171/49/2
f 21/50/3 24/51/3 23/52/3
f 346/53/6 194/54/6 190/55/6
f 22/56/6 26/57/6 27/58/6
f 30/59/2 33/60/2 34/61/2
f 25/62/4 260/63/4 257/64/4
f 27/58/6 259/65/6 258/66/6
f 28/67/5 258/68/5 260/69/5
f 26/40/2 257/70/2 259/71/2
f 30/72/4 32/73/4 31/74/4
f 32/75/5 35/76/5 36/77/5
f 333/78/4 166/79/4 168/80/4
f 31/81/1 36/82/1 33/83/1
f 33/83/1 268/84/1 265/85/1
f 35/86/3 267/87/3 266/88/3
f 36/77/5 266/89/5 268/90/5
f 34/61/2 265/91/2 267/92/2
f 37/93/3 40/94/3 39/95/3
f 39/96/6 278/97/6 277/98/6
f 38/99/4 279/100/4 280/101/4
f 40/102/2 280/103/2 278/104/2
f 41/29/6 47/105/6 45/106/6
f 51/107/3 44/108/3 41/109/3
f 12/110/2 43/111/2 10/20/2
f 44/112/4 12/113/4 11/24/4
f 56/114/5 45/115/5 53/116/5
f 45/106/6 55/117/6 53/118/6
f 42/119/2 47/120/2 43/111/2
f 48/121/4 42/122/4 44/112/4
f 49/123/5 51/124/5 52/125/5
f 50/126/4 48/121/4 44/112/4
f 49/127/1 45/128/1 48/108/1
f 52/129/6 41/29/6 45/106/6
f 53/118/6 59/130/6 57/131/6
f 63/132/3 56/133/3 53/134/3
f 46/135/2 55/136/2 47/120/2
f 56/137/4 46/138/4 48/121/4
f 1/139/5 57/140/5 3/141/5
f 57/131/6 4/142/6 3/143/6
f 54/144/2 59/18/2 55/136/2
f 60/12/4 54/145/4 56/137/4
f 61/146/5 63/147/5 64/148/5
f 62/149/4 60/12/4 56/137/4
f 61/150/1 57/151/1 60/133/1
f 64/152/6 53/118/6 57/131/6
f 65/153/2 8/21/2 10/20/2
f 66/154/5 9/15/5 7/14/5
f 68/155/1 10/156/1 9/157/1
f 67/158/3 7/9/3 8/8/3
f 71/159/2 67/160/2 65/153/2
f 73/161/3 66/162/3 72/163/3
f 70/164/1 65/165/1 68/155/1
f 69/166/3 66/162/3 67/158/3
f 73/167/5 75/168/5 74/169/5
f 76/170/6 72/171/6 70/172/6
f 75/173/1 70/164/1 68/155/1
f 74/174/4 68/172/4 66/175/4
f 79/176/2 69/177/2 71/159/2
f 80/178/5 70/179/5 72/180/5
f 78/181/1 71/182/1 70/164/1
f 77/183/3 72/163/3 69/166/3
f 83/184/2 77/185/2 79/176/2
f 287/186/6 39/96/6 277/98/6
f 82/187/1 79/188/1 78/181/1
f 81/189/3 80/190/3 77/183/3
f 87/191/2 81/192/2 83/184/2
f 88/193/5 82/194/5 84/195/5
f 86/196/1 83/197/1 82/187/1
f 85/198/3 84/199/3 81/189/3
f 91/200/2 85/201/2 87/191/2
f 307/202/6 116/203/6 114/79/6
f 90/204/1 87/205/1 86/196/1
f 89/206/3 88/207/3 85/198/3
f 95/208/2 89/209/2 91/200/2
f 96/210/5 90/211/5 92/212/5
f 94/213/1 91/214/1 90/204/1
f 93/215/3 92/216/3 89/206/3
f 99/217/2 93/218/2 95/208/2
f 384/219/4 270/220/4 275/221/4
f 98/222/1 95/223/1 94/213/1
f 97/224/3 96/225/3 93/215/3
f 103/226/2 97/227/2 99/217/2
f 104/228/5 98/212/5 100/229/5
f 102/230/1 99/231/1 98/222/1
f 101/232/3 100/233/3 97/224/3
f 107/234/2 101/235/2 103/226/2
f 294/236/1 90/204/1 86/196/1
f 106/237/1 103/238/1 102/230/1
f 105/239/3 104/240/3 101/232/3
f 111/241/2 105/242/2 107/234/2
f 112/243/5 106/244/5 108/245/5
f 110/246/1 107/247/1 106/237/1
f 109/248/3 108/249/3 105/239/3
f 115/250/2 109/251/2 111/241/2
f 332/252/3 168/253/3 172/42/3
f 114/254/1 111/255/1 110/246/1
f 113/256/3 112/257/3 109/248/3
f 119/258/2 113/259/2 115/250/2
f 120/260/5 114/261/5 116/262/5
f 118/263/1 115/264/1 114/254/1
f 117/265/3 116/266/3 113/256/3
f 123/267/2 117/268/2 119/258/2
f 371/269/3 244/270/3 242/171/3
f 122/271/1 119/272/1 118/263/1
f 121/273/3 120/274/3 117/265/3
f 127/275/2 121/276/2 123/267/2
f 128/277/5 122/278/5 124/279/5
f 126/280/1 123/281/1 122/271/1
f 125/282/3 124/283/3 121/273/3
f 131/284/2 125/285/2 127/275/2
f 358/286/6 218/287/6 214/288/6
f 130/289/1 127/290/1 126/280/1
f 129/291/3 128/292/3 125/282/3
f 135/293/2 129/294/2 131/284/2
f 136/295/5 130/296/5 132/261/5
f 134/297/1 131/298/1 130/289/1
f 133/299/3 132/300/3 129/291/3
f 139/301/2 133/302/2 135/293/2
f 285/303/3 37/93/3 39/95/3
f 138/304/1 135/305/1 134/297/1
f 137/306/3 136/307/3 133/299/3
f 143/308/2 137/309/2 139/301/2
f 144/310/5 138/311/5 140/312/5
f 142/313/1 139/314/1 138/304/1
f 141/315/3 140/316/3 137/306/3
f 147/317/2 141/318/2 143/308/2
f 345/319/1 190/320/1 192/270/1
f 146/321/1 143/322/1 142/313/1
f 145/323/3 144/324/3 141/315/3
f 151/325/2 145/326/2 147/317/2
f 152/327/5 146/328/5 148/329/5
f 150/330/1 147/331/1 146/321/1
f 149/332/3 148/333/3 145/323/3
f 155/334/2 149/335/2 151/325/2
f 319/336/6 140/337/6 138/338/6
f 154/339/1 151/340/1 150/330/1
f 153/341/3 152/342/3 149/332/3
f 159/343/2 153/344/2 155/334/2
f 160/345/5 154/329/5 156/22/5
f 158/346/1 155/347/1 154/339/1
f 157/348/3 156/349/3 153/341/3
f 163/350/2 157/351/2 159/343/2
f 306/352/1 114/254/1 110/246/1
f 162/353/1 159/354/1 158/346/1
f 161/355/3 160/356/3 157/348/3
f 167/357/2 161/358/2 163/350/2
f 168/359/5 162/360/5 164/361/5
f 166/362/1 163/363/1 162/353/1
f 165/364/3 164/365/3 161/355/3
f 171/49/2 165/366/2 167/357/2
f 344/367/4 192/368/4 196/369/4
f 170/45/1 167/370/1 166/362/1
f 169/43/3 168/253/3 165/364/3
f 173/371/2 17/5/2 14/372/2
f 174/373/5 15/32/5 20/34/5
f 176/374/6 14/375/6 15/30/6
f 175/376/4 20/377/4 17/378/4
f 179/379/2 175/380/2 173/371/2
f 383/381/4 268/382/4 266/383/4
f 178/384/6 173/385/6 176/374/6
f 177/386/4 174/387/4 175/376/4
f 183/388/2 177/389/2 179/379/2
f 184/390/5 178/195/5 180/391/5
f 182/392/6 179/393/6 178/384/6
f 181/394/4 180/395/4 177/386/4
f 187/396/2 181/397/2 183/388/2
f 293/398/4 86/399/4 88/337/4
f 186/400/6 183/401/6 182/392/6
f 185/402/4 184/403/4 181/394/4
f 191/404/2 185/405/2 187/396/2
f 192/406/5 186/407/5 188/408/5
f 190/55/6 187/409/6 186/400/6
f 189/410/4 188/411/4 185/402/4
f 195/412/2 189/413/2 191/404/2
f 370/414/6 242/415/6 238/416/6
f 194/54/6 191/417/6 190/55/6
f 193/418/4 192/368/4 189/410/4
f 199/419/2 193/420/2 195/412/2
f 200/421/5 194/229/5 196/422/5
f 198/423/6 195/424/6 194/54/6
f 197/425/4 196/369/4 193/418/4
f 203/426/2 197/427/2 199/419/2
f 357/428/1 214/429/1 216/320/1
f 202/430/6 199/431/6 198/423/6
f 201/432/4 200/433/4 197/425/4
f 207/434/2 201/435/2 203/426/2
f 208/436/5 202/422/5 204/437/5
f 206/438/6 203/439/6 202/430/6
f 205/440/4 204/441/4 201/432/4
f 211/442/2 205/443/2 207/434/2
f 292/444/3 88/207/3 92/216/3
f 210/445/6 207/446/6 206/438/6
f 209/447/4 208/448/4 205/440/4
f 215/449/2 209/450/2 211/442/2
f 216/451/5 210/452/5 212/244/5
f 214/288/6 211/453/6 210/445/6
f 213/454/4 212/455/4 209/447/4
f 219/456/2 213/457/2 215/449/2
f 331/458/6 164/459/6 162/399/6
f 218/287/6 215/460/6 214/288/6
f 217/461/4 216/462/4 213/454/4
f 223/463/2 217/464/2 219/456/2
f 224/465/5 218/466/5 220/467/5
f 222/468/6 219/469/6 218/287/6
f 221/470/4 220/471/4 217/461/4
f 227/472/2 221/473/2 223/463/2
f 318/474/1 138/304/1 134/297/1
f 226/475/6 223/476/6 222/468/6
f 225/477/4 224/478/4 221/470/4
f 231/479/2 225/480/2 227/472/2
f 232/481/5 226/262/5 228/482/5
f 230/483/6 227/484/6 226/475/6
f 229/485/4 228/486/4 225/477/4
f 235/487/2 229/488/2 231/479/2
f 356/489/4 216/462/4 220/471/4
f 234/490/6 231/491/6 230/483/6
f 233/492/4 232/493/4 229/485/4
f 239/494/2 233/495/2 235/487/2
f 240/496/5 234/482/5 236/497/5
f 238/416/6 235/498/6 234/490/6
f 237/499/4 236/500/4 233/492/4
f 243/501/2 237/502/2 239/494/2
f 305/503/4 110/504/4 112/505/4
f 242/415/6 239/506/6 238/416/6
f 241/507/4 240/508/4 237/499/4
f 247/509/2 241/510/2 243/501/2
f 248/511/5 242/497/5 244/278/5
f 246/512/6 243/513/6 242/415/6
f 245/514/4 244/515/4 241/507/4
f 251/516/2 245/517/2 247/509/2
f 382/518/3 266/88/3 264/519/3
f 250/520/6 247/521/6 246/512/6
f 249/522/4 248/523/4 245/514/4
f 255/524/2 249/525/2 251/516/2
f 256/526/5 250/245/5 252/296/5
f 254/527/6 251/528/6 250/520/6
f 253/529/4 252/530/4 249/522/4
f 259/71/2 253/531/2 255/524/2
f 369/532/1 238/533/1 240/429/1
f 258/66/6 255/534/6 254/527/6
f 257/64/4 256/535/4 253/529/4
f 261/536/2 25/39/2 23/537/2
f 262/538/5 24/539/5 28/540/5
f 264/519/3 23/52/3 24/51/3
f 263/541/1 28/542/1 25/543/1
f 267/92/2 263/544/2 261/536/2
f 304/545/3 112/257/3 116/266/3
f 266/88/3 261/546/3 264/519/3
f 265/85/1 262/547/1 263/541/1
f 271/548/2 30/59/2 34/61/2
f 272/549/4 29/550/4 30/72/4
f 269/551/6 34/74/6 35/73/6
f 270/552/5 35/76/5 29/553/5
f 274/554/2 272/555/2 271/548/2
f 276/556/4 270/220/4 272/549/4
f 273/557/6 271/558/6 269/551/6
f 343/559/3 188/560/3 186/533/3
f 278/104/2 276/561/2 274/554/2
f 280/101/4 275/221/4 276/556/4
f 277/98/6 274/562/6 273/557/6
f 279/563/5 273/564/5 275/565/5
f 282/566/5 283/567/5 284/568/5
f 286/569/5 287/570/5 388/154/5
f 288/571/5 290/572/5 289/573/5
f 292/574/5 294/575/5 293/563/5
f 296/576/5 298/577/5 297/578/5
f 300/579/5 302/578/5 301/580/5
f 304/581/5 306/580/5 305/582/5
f 308/583/5 310/584/5 309/585/5
f 312/586/5 314/587/5 313/3/5
f 316/588/5 318/2/5 317/589/5
f 320/590/5 322/591/5 321/62/5
f 324/592/5 326/593/5 325/594/5
f 328/595/5 330/585/5 329/596/5
f 332/597/5 334/582/5 333/584/5
f 336/598/5 338/599/5 337/577/5
f 340/600/5 342/601/5 341/539/5
f 344/602/5 346/146/5 345/603/5
f 348/573/5 350/604/5 349/605/5
f 352/606/5 354/123/5 353/148/5
f 356/607/5 358/603/5 357/599/5
f 360/608/5 362/609/5 361/588/5
f 364/610/5 366/611/5 365/612/5
f 368/613/5 370/614/5 369/125/5
f 372/615/5 374/616/5 373/617/5
f 376/618/5 378/619/5 377/620/5
f 380/621/5 382/622/5 381/623/5
f 384/624/5 386/625/5 385/626/5
f 359/627/3 220/628/3 218/560/3
f 320/629/3 144/324/3 148/333/3
f 295/630/6 92/631/6 90/504/6
f 321/632/4 142/633/4 144/631/4
f 372/634/4 248/523/4 252/530/4
f 334/635/1 170/45/1 166/362/1
f 385/361/1 269/636/1 270/637/1
f 347/638/3 196/639/3 194/628/3
f 308/640/3 120/274/3 124/283/3
f 386/641/6 273/557/6 269/551/6
f 373/642/1 246/643/1 248/141/1
f 309/644/4 118/645/4 120/646/4
f 360/647/4 224/478/4 228/486/4
f 322/648/1 146/321/1 142/313/1
f 335/649/6 172/650/6 170/645/6
f 296/651/3 96/225/3 100/233/3
f 361/652/1 222/653/1 224/654/1
f 374/655/6 250/520/6 246/512/6
f 297/656/4 94/657/4 96/650/4
f 348/658/4 200/433/4 204/441/4
f 310/659/1 122/271/1 118/263/1
f 323/660/6 148/661/6 146/662/6
f 336/663/4 174/387/4 180/395/4
f 387/664/3 275/665/3 273/636/3
f 349/666/1 198/667/1 200/668/1
f 362/669/6 226/475/6 222/468/6
f 375/670/3 252/671/3 250/672/3
f 298/673/1 98/222/1 94/213/1
f 311/674/6 124/675/6 122/661/6
f 286/676/4 279/100/4 37/677/4
f 337/678/1 176/679/1 174/680/1
f 350/681/6 202/430/6 198/423/6
f 363/682/3 228/683/3 226/679/3
f 281/684/3 24/51/3 22/542/3
f 324/685/3 152/342/3 156/349/3
f 299/686/6 100/687/6 98/675/6
f 325/688/4 150/689/4 152/690/4
f 376/691/4 256/535/4 260/63/4
f 338/692/6 178/384/6 176/374/6
f 388/693/1 277/694/1 279/695/1
f 351/696/3 204/697/3 202/683/3
f 312/698/3 128/292/3 132/300/3
f 283/699/6 22/56/6 27/58/6
f 377/700/1 254/701/1 256/702/1
f 313/703/4 126/704/4 128/689/4
f 364/705/4 232/493/4 236/500/4
f 326/706/1 154/339/1 150/330/1
f 339/707/3 180/708/3 178/709/3
f 300/710/3 104/240/3 108/249/3
f 365/711/1 230/712/1 232/653/1
f 378/713/6 258/66/6 254/527/6
f 301/714/4 102/715/4 104/704/4
f 282/716/4 28/717/4 24/382/4
f 352/718/4 208/448/4 212/455/4
f 314/719/1 130/289/1 126/280/1
f 327/720/6 156/721/6 154/715/6
f 288/722/3 80/190/3 84/199/3
f 353/723/1 206/724/1 208/725/1
f 366/726/6 234/490/6 230/483/6
f 284/727/1 27/728/1 28/723/1
f 289/729/4 78/730/4 80/721/4
f 379/731/3 260/732/3 258/733/3
f 340/734/4 184/403/4 188/411/4
f 302/735/1 106/237/1 102/230/1
f 315/736/6 132/702/6 130/737/6
f 341/738/1 182/739/1 184/740/1
f 354/741/6 210/445/6 206/438/6
f 367/742/3 236/743/3 234/744/3
f 328/745/3 160/356/3 164/365/3
f 290/746/1 82/187/1 78/181/1
f 380/747/1 262/547/1 268/84/1
f 303/748/6 108/749/6 106/750/6
f 329/751/4 158/752/4 160/749/4
f 342/753/6 186/400/6 182/392/6
f 355/754/3 212/755/3 210/742/3
f 316/756/3 136/307/3 140/316/3
f 291/757/6 84/758/6 82/752/6
f 381/759/6 264/760/6 262/761/6
f 317/762/4 134/383/4 136/758/4
f 368/763/4 240/508/4 244/515/4
f 330/764/1 162/353/1 158/346/1
f 3/1/1 4/594/1 2/2/1
f 13/4/2 14/372/2 17/5/2
f 5/7/3 6/765/3 8/8/3
f 1/10/4 2/31/4 58/11/4
f 11/13/5 5/90/5 7/14/5
f 58/16/2 2/766/2 4/17/2
f 6/19/2 12/110/2 10/20/2
f 44/22/5 11/13/5 9/15/5
f 11/24/4 12/113/4 6/25/4
f 9/27/6 10/767/6 43/28/6
f 15/30/6 14/375/6 13/31/6
f 15/32/5 16/768/5 19/33/5
f 16/35/1 13/769/1 18/36/1
f 21/38/2 23/537/2 25/39/2
f 17/41/3 20/770/3 172/42/3
f 19/37/1 18/36/1 171/44/1
f 20/34/5 19/33/5 170/46/5
f 18/6/2 17/5/2 169/48/2
f 21/50/3 22/542/3 24/51/3
f 346/53/6 347/771/6 194/54/6
f 22/56/6 21/772/6 26/57/6
f 30/59/2 31/773/2 33/60/2
f 25/62/4 28/774/4 260/63/4
f 27/58/6 26/57/6 259/65/6
f 28/67/5 27/775/5 258/68/5
f 26/40/2 25/39/2 257/70/2
f 30/72/4 29/550/4 32/73/4
f 32/75/5 29/553/5 35/76/5
f 333/78/4 334/202/4 166/79/4
f 31/81/1 32/776/1 36/82/1
f 33/83/1 36/82/1 268/84/1
f 35/86/3 34/777/3 267/87/3
f 36/77/5 35/76/5 266/89/5
f 34/61/2 33/60/2 265/91/2
f 37/93/3 38/778/3 40/94/3
f 39/96/6 40/779/6 278/97/6
f 38/99/4 37/677/4 279/100/4
f 40/102/2 38/780/2 280/103/2
f 41/29/6 43/28/6 47/105/6
f 51/107/3 50/127/3 44/108/3
f 12/110/2 42/119/2 43/111/2
f 44/112/4 42/122/4 12/113/4
f 56/114/5 48/781/5 45/115/5
f 45/106/6 47/105/6 55/117/6
f 42/119/2 46/135/2 47/120/2
f 48/121/4 46/138/4 42/122/4
f 49/123/5 50/782/5 51/124/5
f 50/126/4 49/783/4 48/121/4
f 49/127/1 52/784/1 45/128/1
f 52/129/6 51/785/6 41/29/6
f 53/118/6 55/117/6 59/130/6
f 63/132/3 62/150/3 56/133/3
f 46/135/2 54/144/2 55/136/2
f 56/137/4 54/145/4 46/138/4
f 1/139/5 60/786/5 57/140/5
f 57/131/6 59/130/6 4/142/6
f 54/144/2 58/16/2 59/18/2
f 60/12/4 58/11/4 54/145/4
f 61/146/5 62/787/5 63/147/5
f 62/149/4 61/788/4 60/12/4
f 61/150/1 64/789/1 57/151/1
f 64/152/6 63/790/6 53/118/6
f 65/153/2 67/160/2 8/21/2
f 66/154/5 68/791/5 9/15/5
f 68/155/1 65/165/1 10/156/1
f 67/158/3 66/162/3 7/9/3
f 71/159/2 69/177/2 67/160/2
f 73/161/3 74/792/3 66/162/3
f 70/164/1 71/182/1 65/165/1
f 69/166/3 72/163/3 66/162/3
f 73/167/5 76/793/5 75/168/5
f 76/170/6 73/794/6 72/171/6
f 75/173/1 76/795/1 70/164/1
f 74/174/4 75/170/4 68/172/4
f 79/176/2 77/185/2 69/177/2
f 80/178/5 78/796/5 70/179/5
f 78/181/1 79/188/1 71/182/1
f 77/183/3 80/190/3 72/163/3
f 83/184/2 81/192/2 77/185/2
f 287/186/6 285/797/6 39/96/6
f 82/187/1 83/197/1 79/188/1
f 81/189/3 84/199/3 80/190/3
f 87/191/2 85/201/2 81/192/2
f 88/193/5 86/798/5 82/194/5
f 86/196/1 87/205/1 83/197/1
f 85/198/3 88/207/3 84/199/3
f 91/200/2 89/209/2 85/201/2
f 307/202/6 304/336/6 116/203/6
f 90/204/1 91/214/1 87/205/1
f 89/206/3 92/216/3 88/207/3
f 95/208/2 93/218/2 89/209/2
f 96/210/5 94/799/5 90/211/5
f 94/213/1 95/223/1 91/214/1
f 93/215/3 96/225/3 92/216/3
f 99/217/2 97/227/2 93/218/2
f 384/219/4 385/800/4 270/220/4
f 98/222/1 99/231/1 95/223/1
f 97/224/3 100/233/3 96/225/3
f 103/226/2 101/235/2 97/227/2
f 104/228/5 102/801/5 98/212/5
f 102/230/1 103/238/1 99/231/1
f 101/232/3 104/240/3 100/233/3
f 107/234/2 105/242/2 101/235/2
f 294/236/1 295/802/1 90/204/1
f 106/237/1 107/247/1 103/238/1
f 105/239/3 108/249/3 104/240/3
f 111/241/2 109/251/2 105/242/2
f 112/243/5 110/803/5 106/244/5
f 110/246/1 111/255/1 107/247/1
f 109/248/3 112/257/3 108/249/3
f 115/250/2 113/259/2 109/251/2
f 332/252/3 333/804/3 168/253/3
f 114/254/1 115/264/1 111/255/1
f 113/256/3 116/266/3 112/257/3
f 119/258/2 117/268/2 113/259/2
f 120/260/5 118/805/5 114/261/5
f 118/263/1 119/272/1 115/264/1
f 117/265/3 120/274/3 116/266/3
f 123/267/2 121/276/2 117/268/2
f 371/269/3 368/806/3 244/270/3
f 122/271/1 123/281/1 119/272/1
f 121/273/3 124/283/3 120/274/3
f 127/275/2 125/285/2 121/276/2
f 128/277/5 126/807/5 122/278/5
f 126/280/1 127/290/1 123/281/1
f 125/282/3 128/292/3 124/283/3
f 131/284/2 129/294/2 125/285/2
f 358/286/6 359/808/6 218/287/6
f 130/289/1 131/298/1 127/290/1
f 129/291/3 132/300/3 128/292/3
f 135/293/2 133/302/2 129/294/2
f 136/295/5 134/809/5 130/296/5
f 134/297/1 135/305/1 131/298/1
f 133/299/3 136/307/3 132/300/3
f 139/301/2 137/309/2 133/302/2
f 285/303/3 286/810/3 37/93/3
f 138/304/1 139/314/1 135/305/1
f 137/306/3 140/316/3 136/307/3
f 143/308/2 141/318/2 137/309/2
f 144/310/5 142/811/5 138/311/5
f 142/313/1 143/322/1 139/314/1
f 141/315/3 144/324/3 140/316/3
f 147/317/2 145/326/2 141/318/2
f 345/319/1 346/428/1 190/320/1
f 146/321/1 147/331/1 143/322/1
f 145/323/3 148/333/3 144/324/3
f 151/325/2 149/335/2 145/326/2
f 152/327/5 150/812/5 146/328/5
f 150/330/1 151/340/1 147/331/1
f 149/332/3 152/342/3 148/333/3
f 155/334/2 153/344/2 149/335/2
f 319/336/6 316/398/6 140/337/6
f 154/339/1 155/347/1 151/340/1
f 153/341/3 156/349/3 152/342/3
f 159/343/2 157/351/2 153/344/2
f 160/345/5 158/813/5 154/329/5
f 158/346/1 159/354/1 155/347/1
f 157/348/3 160/356/3 156/349/3
f 163/350/2 161/358/2 157/351/2
f 306/352/1 307/814/1 114/254/1
f 162/353/1 163/363/1 159/354/1
f 161/355/3 164/365/3 160/356/3
f 167/357/2 165/366/2 161/358/2
f 168/359/5 166/815/5 162/360/5
f 166/362/1 167/370/1 163/363/1
f 165/364/3 168/253/3 164/365/3
f 171/49/2 169/48/2 165/366/2
f 344/367/4 345/816/4 192/368/4
f 170/45/1 171/44/1 167/370/1
f 169/43/3 172/42/3 168/253/3
f 173/371/2 175/380/2 17/5/2
f 174/373/5 176/817/5 15/32/5
f 176/374/6 173/385/6 14/375/6
f 175/376/4 174/387/4 20/377/4
f 179/379/2 177/389/2 175/380/2
f 383/381/4 380/716/4 268/382/4
f 178/384/6 179/393/6 173/385/6
f 177/386/4 180/395/4 174/387/4
f 183/388/2 181/397/2 177/389/2
f 184/390/5 182/818/5 178/195/5
f 182/392/6 183/401/6 179/393/6
f 181/394/4 184/403/4 180/395/4
f 187/396/2 185/405/2 181/397/2
f 293/398/4 294/458/4 86/399/4
f 186/400/6 187/409/6 183/401/6
f 185/402/4 188/411/4 184/403/4
f 191/404/2 189/413/2 185/405/2
f 192/406/5 190/819/5 186/407/5
f 190/55/6 191/417/6 187/409/6
f 189/410/4 192/368/4 188/411/4
f 195/412/2 193/420/2 189/413/2
f 370/414/6 371/820/6 242/415/6
f 194/54/6 195/424/6 191/417/6
f 193/418/4 196/369/4 192/368/4
f 199/419/2 197/427/2 193/420/2
f 200/421/5 198/821/5 194/229/5
f 198/423/6 199/431/6 195/424/6
f 197/425/4 200/433/4 196/369/4
f 203/426/2 201/435/2 197/427/2
f 357/428/1 358/532/1 214/429/1
f 202/430/6 203/439/6 199/431/6
f 201/432/4 204/441/4 200/433/4
f 207/434/2 205/443/2 201/435/2
f 208/436/5 206/822/5 202/422/5
f 206/438/6 207/446/6 203/439/6
f 205/440/4 208/448/4 204/441/4
f 211/442/2 209/450/2 205/443/2
f 292/444/3 293/823/3 88/207/3
f 210/445/6 211/453/6 207/446/6
f 209/447/4 212/455/4 208/448/4
f 215/449/2 213/457/2 209/450/2
f 216/451/5 214/824/5 210/452/5
f 214/288/6 215/460/6 211/453/6
f 213/454/4 216/462/4 212/455/4
f 219/456/2 217/464/2 213/457/2
f 331/458/6 328/825/6 164/459/6
f 218/287/6 219/469/6 215/460/6
f 217/461/4 220/471/4 216/462/4
f 223/463/2 221/473/2 217/464/2
f 224/465/5 222/826/5 218/466/5
f 222/468/6 223/476/6 219/469/6
f 221/470/4 224/478/4 220/471/4
f 227/472/2 225/480/2 221/473/2
f 318/474/1 319/827/1 138/304/1
f 226/475/6 227/484/6 223/476/6
f 225/477/4 228/486/4 224/478/4
f 231/479/2 229/488/2 225/480/2
f 232/481/5 230/828/5 226/262/5
f 230/483/6 231/491/6 227/484/6
f 229/485/4 232/493/4 228/486/4
f 235/487/2 233/495/2 229/488/2
f 356/489/4 357/829/4 216/462/4
f 234/490/6 235/498/6 231/491/6
f 233/492/4 236/500/4 232/493/4
f 239/494/2 237/502/2 233/495/2
f 240/496/5 238/830/5 234/482/5
f 238/416/6 239/506/6 235/498/6
f 237/499/4 240/508/4 236/500/4
f 243/501/2 241/510/2 237/502/2
f 305/503/4 306/630/4 110/504/4
f 242/415/6 243/513/6 239/506/6
f 241/507/4 244/515/4 240/508/4
f 247/509/2 245/517/2 241/510/2
f 248/511/5 246/831/5 242/497/5
f 246/512/6 247/521/6 243/513/6
f 245/514/4 248/523/4 244/515/4
f 251/516/2 249/525/2 245/517/2
f 382/518/3 383/832/3 266/88/3
f 250/520/6 251/528/6 247/521/6
f 249/522/4 252/530/4 248/523/4
f 255/524/2 253/531/2 249/525/2
f 256/526/5 254/833/5 250/245/5
f 254/527/6 255/534/6 251/528/6
f 253/529/4 256/535/4 252/530/4
f 259/71/2 257/70/2 253/531/2
f 369/532/1 370/834/1 238/533/1
f 258/66/6 259/65/6 255/534/6
f 257/64/4 260/63/4 256/535/4
f 261/536/2 263/544/2 25/39/2
f 262/538/5 264/564/5 24/539/5
f 264/519/3 261/546/3 23/52/3
f 263/541/1 262/547/1 28/542/1
f 267/92/2 265/91/2 263/544/2
f 304/545/3 305/835/3 112/257/3
f 266/88/3 267/87/3 261/546/3
f 265/85/1 268/84/1 262/547/1
f 271/548/2 272/555/2 30/59/2
f 272/549/4 270/220/4 29/550/4
f 269/551/6 271/558/6 34/74/6
f 270/552/5 269/836/5 35/76/5
f 274/554/2 276/561/2 272/555/2
f 276/556/4 275/221/4 270/220/4
f 273/557/6 274/562/6 271/558/6
f 343/559/3 340/627/3 188/560/3
f 278/104/2 280/103/2 276/561/2
f 280/101/4 279/100/4 275/221/4
f 277/98/6 278/97/6 274/562/6
f 279/563/5 277/837/5 273/564/5
f 282/566/5 281/838/5 283/567/5
f 286/569/5 285/839/5 287/570/5
f 288/571/5 291/840/5 290/572/5
f 292/574/5 295/841/5 294/575/5
f 296/576/5 299/842/5 298/577/5
f 300/579/5 303/843/5 302/578/5
f 304/581/5 307/844/5 306/580/5
f 308/583/5 311/845/5 310/584/5
f 312/586/5 315/846/5 314/587/5
f 316/588/5 319/847/5 318/2/5
f 320/590/5 323/848/5 322/591/5
f 324/592/5 327/849/5 326/593/5
f 328/595/5 331/850/5 330/585/5
f 332/597/5 335/851/5 334/582/5
f 336/598/5 339/852/5 338/599/5
f 340/600/5 343/853/5 342/601/5
f 344/602/5 347/854/5 346/146/5
f 348/573/5 351/855/5 350/604/5
f 352/606/5 355/856/5 354/123/5
f 356/607/5 359/857/5 358/603/5
f 360/608/5 363/858/5 362/609/5
f 364/610/5 367/859/5 366/611/5
f 368/613/5 371/860/5 370/614/5
f 372/615/5 375/861/5 374/616/5
f 376/618/5 379/862/5 378/619/5
f 380/621/5 383/586/5 382/622/5
f 384/624/5 387/863/5 386/625/5
f 359/627/3 356/638/3 220/628/3
f 320/629/3 321/864/3 144/324/3
f 295/630/6 292/632/6 92/631/6
f 321/632/4 322/865/4 142/633/4
f 372/634/4 373/866/4 248/523/4
f 334/635/1 335/867/1 170/45/1
f 385/361/1 386/664/1 269/636/1
f 347/638/3 344/868/3 196/639/3
f 308/640/3 309/869/3 120/274/3
f 386/641/6 387/870/6 273/557/6
f 373/642/1 374/871/1 246/643/1
f 309/644/4 310/872/4 118/645/4
f 360/647/4 361/873/4 224/478/4
f 322/648/1 323/874/1 146/321/1
f 335/649/6 332/875/6 172/650/6
f 296/651/3 297/876/3 96/225/3
f 361/652/1 362/711/1 222/653/1
f 374/655/6 375/877/6 250/520/6
f 297/656/4 298/878/4 94/657/4
f 348/658/4 349/879/4 200/433/4
f 310/659/1 311/880/1 122/271/1
f 323/660/6 320/674/6 148/661/6
f 336/663/4 337/881/4 174/387/4
f 387/664/3 384/882/3 275/665/3
f 349/666/1 350/883/1 198/667/1
f 362/669/6 363/884/6 226/475/6
f 375/670/3 372/885/3 252/671/3
f 298/673/1 299/886/1 98/222/1
f 311/674/6 308/686/6 124/675/6
f 286/676/4 388/887/4 279/100/4
f 337/678/1 338/682/1 176/679/1
f 350/681/6 351/888/6 202/430/6
f 363/682/3 360/696/3 228/683/3
f 281/684/3 282/889/3 24/51/3
f 324/685/3 325/890/3 152/342/3
f 299/686/6 296/891/6 100/687/6
f 325/688/4 326/703/4 150/689/4
f 376/691/4 377/892/4 256/535/4
f 338/692/6 339/893/6 178/384/6
f 388/693/1 287/894/1 277/694/1
f 351/696/3 348/895/3 204/697/3
f 312/698/3 313/896/3 128/292/3
f 283/699/6 281/378/6 22/56/6
f 377/700/1 378/897/1 254/701/1
f 313/703/4 314/714/4 126/704/4
f 364/705/4 365/898/4 232/493/4
f 326/706/1 327/899/1 154/339/1
f 339/707/3 336/712/3 180/708/3
f 300/710/3 301/900/3 104/240/3
f 365/711/1 366/901/1 230/712/1
f 378/713/6 379/902/6 258/66/6
f 301/714/4 302/903/4 102/715/4
f 282/716/4 284/904/4 28/717/4
f 352/718/4 353/905/4 208/448/4
f 314/719/1 315/906/1 130/289/1
f 327/720/6 324/907/6 156/721/6
f 288/722/3 289/908/3 80/190/3
f 353/723/1 354/728/1 206/724/1
f 366/726/6 367/909/6 234/490/6
f 284/727/1 283/732/1 27/728/1
f 289/729/4 290/910/4 78/730/4
f 379/731/3 376/911/3 260/732/3
f 340/734/4 341/912/4 184/403/4
f 302/735/1 303/913/1 106/237/1
f 315/736/6 312/700/6 132/702/6
f 341/738/1 342/914/1 182/739/1
f 354/741/6 355/915/6 210/445/6
f 367/742/3 364/755/3 236/743/3
f 328/745/3 329/916/3 160/356/3
f 290/746/1 291/917/1 82/187/1
f 380/747/1 381/918/1 262/547/1
f 303/748/6 300/751/6 108/749/6
f 329/751/4 330/757/4 158/752/4
f 342/753/6 343/919/6 186/400/6
f 355/754/3 352/920/3 212/755/3
f 316/756/3 317/921/3 136/307/3
f 291/757/6 288/762/6 84/758/6
f 381/759/6 382/922/6 264/760/6
f 317/762/4 318/381/4 134/383/4
f 368/763/4 369/923/4 240/508/4
f 330/764/1 331/924/1 162/353/1
