# Blender 4.1.0
# www.blender.org
mtllib SecondFloorTwo.mtl
o Second_Floor_Ledge
v 91.311989 17.126839 -92.483109
v 91.311989 19.425323 -92.483109
v -1.524300 17.126839 -92.483101
v -1.524300 19.425323 -92.483101
v 91.311989 17.126839 -107.151962
v 91.311989 19.425323 -107.151962
v -1.524300 17.126839 -107.151955
v -1.524300 19.425323 -107.151955
v 39.360893 17.126839 -92.483101
v 39.360893 19.425323 -92.483101
v 39.360893 17.126839 -107.151955
v 39.360893 19.425323 -107.151955
v 54.880943 17.126839 -92.483109
v 54.880943 19.425323 -107.151955
v 54.880943 19.425323 -92.483109
v 54.880943 17.126839 -107.151955
v 54.880943 19.425323 -89.736641
v 39.360893 19.425323 -89.736641
v 39.360893 17.126839 -89.736641
v 54.880943 17.126839 -89.736641
vn -0.0000 -0.0000 1.0000
vn -1.0000 -0.0000 -0.0000
vn -0.0000 -0.0000 -1.0000
vn 1.0000 -0.0000 -0.0000
vn -0.0000 -1.0000 -0.0000
vn -0.0000 1.0000 -0.0000
vt 0.078980 0.904704
vt 0.089404 0.719287
vt 0.089404 0.904704
vt 0.078980 0.719287
vt 0.089404 0.652762
vt 0.078980 0.396960
vt 0.089404 0.231742
vt 0.089404 0.396960
vt 0.078980 0.231742
vt 0.089404 0.165218
vt 0.155928 0.231742
vt 0.155928 0.396960
vt 0.012455 0.396960
vt 0.012455 0.652762
vt 0.078980 0.467345
vt 0.078980 0.652762
vt 0.155928 0.467345
vt 0.155928 0.652762
vt 0.089404 0.467345
vt 0.168384 0.467345
vt 0.078980 0.165218
vt 0.089404 -0.000000
vt 0.078980 0.987545
vt 0.089404 0.917160
vt 0.089404 0.987545
vt 0.078980 0.917160
vt 0.012455 0.467345
vt -0.000000 0.396960
vt 0.078980 1.000000
vt 0.089404 1.000000
vt 0.012455 0.231742
vt 0.168384 0.396960
vt 0.078980 -0.000000
vt -0.000000 0.467345
s 0
usemtl Material
f 10/1/1 3/2/1 9/3/1
f 4/4/2 7/5/2 3/2/2
f 14/6/3 5/7/3 16/8/3
f 6/9/4 1/10/4 5/7/4
f 16/8/5 1/11/5 13/12/5
f 15/13/6 6/9/6 14/6/6
f 4/14/6 12/15/6 8/16/6
f 7/5/5 9/17/5 3/18/5
f 8/16/3 11/19/3 7/5/3
f 13/12/5 19/20/5 9/17/5
f 2/21/1 13/22/1 1/10/1
f 12/15/6 15/13/6 14/6/6
f 9/17/5 16/8/5 13/12/5
f 12/15/3 16/8/3 11/19/3
f 17/23/1 19/24/1 20/25/1
f 9/3/2 18/26/2 10/1/2
f 10/27/6 17/28/6 15/13/6
f 15/29/4 20/25/4 13/30/4
f 10/1/1 4/4/1 3/2/1
f 4/4/2 8/16/2 7/5/2
f 14/6/3 6/9/3 5/7/3
f 6/9/4 2/21/4 1/10/4
f 16/8/5 5/7/5 1/11/5
f 15/13/6 2/31/6 6/9/6
f 4/14/6 10/27/6 12/15/6
f 7/5/5 11/19/5 9/17/5
f 8/16/3 12/15/3 11/19/3
f 13/12/5 20/32/5 19/20/5
f 2/21/1 15/33/1 13/22/1
f 12/15/6 10/27/6 15/13/6
f 9/17/5 11/19/5 16/8/5
f 12/15/3 14/6/3 16/8/3
f 17/23/1 18/26/1 19/24/1
f 9/3/2 19/24/2 18/26/2
f 10/27/6 18/34/6 17/28/6
f 15/29/4 17/23/4 20/25/4
