# Blender 4.1.0
# www.blender.org
mtllib Socom.mtl
o Model001_5_09-Default
v -11.820390 9.271414 37.572784
v -11.820390 9.025571 37.572784
v -11.820390 9.025571 37.421093
v -11.820390 9.271414 37.421093
v -11.820390 9.025571 37.421093
v -11.768084 9.009878 37.572784
v -11.820390 9.025571 37.421093
v -11.768084 9.009878 37.572784
v -11.768084 9.009878 37.421093
v -11.820390 9.271414 37.421093
v -11.820390 9.025571 37.421093
v -11.768084 9.009878 37.421093
v -11.768084 9.287107 37.421093
v -11.820390 9.271414 37.572784
v -11.768084 9.287107 37.572784
v -11.768084 9.009878 37.572784
v -11.820390 9.025571 37.572784
v -11.768084 9.287107 37.421093
v -11.768084 9.009878 37.421093
v -11.768084 9.009878 37.572784
v -11.768084 9.287107 37.572784
v -11.815159 9.025571 37.557095
v -12.254539 9.161569 37.557095
v -12.254539 9.349874 37.557095
v -11.815159 9.208646 37.557095
v -11.815159 9.208646 37.557095
v -12.254539 9.349874 37.557095
v -12.254539 9.349874 37.436787
v -11.815159 9.208646 37.557095
v -12.254539 9.349874 37.436787
v -11.815159 9.208646 37.436787
v -11.815159 9.208646 37.436787
v -12.254539 9.349874 37.436787
v -12.254539 9.161569 37.436787
v -11.815159 9.025571 37.436787
v -12.254539 9.161569 37.557095
v -11.815159 9.025571 37.557095
v -12.191772 10.097862 37.489094
v -12.191772 10.134479 37.489094
v -12.186541 10.134479 37.520477
v -12.186541 10.097862 37.520477
v -12.160386 10.134479 37.541401
v -12.160386 10.097862 37.541401
v -12.129001 10.134479 37.541401
v -12.129001 10.097862 37.541401
v -12.102849 10.134479 37.520477
v -12.102849 10.097862 37.520477
v -12.097618 10.134479 37.489094
v -12.097618 10.097862 37.489094
v -12.113311 10.134479 37.462940
v -12.113311 10.097862 37.462940
v -12.144693 10.134479 37.452480
v -12.144693 10.097862 37.452480
v -12.176079 10.134479 37.462940
v -12.176079 10.097862 37.462940
v -12.191772 10.134479 37.489094
v -12.191772 10.097862 37.489094
v -12.419914 10.194383 37.448650
v -12.390536 10.194383 37.433952
v -12.361158 10.194383 37.448650
v -12.441966 10.194383 37.463345
v -12.339107 10.194383 37.463345
v -12.449328 10.194383 37.500084
v -12.331744 10.194383 37.500084
v -12.441966 10.194383 37.529476
v -12.339107 10.194383 37.529476
v -12.419914 10.194383 37.551517
v -12.361158 10.194383 37.551517
v -12.390536 10.194383 37.558868
v -12.458543 9.642793 37.452480
v -12.468999 9.642793 37.457710
v -12.468999 9.491102 37.457710
v -12.458543 9.491102 37.452480
v -12.353926 9.642793 37.452480
v -12.353926 9.491102 37.452480
v -12.353926 9.491102 37.452480
v -12.458543 9.491102 37.452480
v -12.458543 9.491102 37.541401
v -12.353926 9.491102 37.541401
v -12.458543 9.642793 37.541401
v -12.353926 9.642793 37.541401
v -12.353926 9.491102 37.541401
v -12.458543 9.491102 37.541401
v -12.468999 9.642793 37.536171
v -12.468999 9.491102 37.536171
v -12.468999 9.642793 37.457710
v -12.468999 9.491102 37.457710
v -12.458543 9.491102 37.452480
v -12.322530 9.009878 37.436787
v -12.390536 9.025571 37.436787
v -12.390536 9.025571 37.468170
v -12.265000 8.988955 37.468170
v -12.244077 8.983727 37.421093
v -12.233616 8.978496 37.457710
v -12.265000 8.988955 37.520477
v -12.233616 8.978496 37.536171
v -12.244077 8.983727 37.572784
v -12.322530 9.009878 37.572784
v -12.322530 9.009878 37.557095
v -12.390536 9.025571 37.520477
v -12.390536 9.025571 37.557095
v -12.322530 9.009878 37.421093
v -12.390536 9.088339 37.520477
v -12.265000 9.051725 37.520477
v -12.265000 9.051725 37.468170
v -12.390536 9.088339 37.468170
v -12.390536 9.088339 37.468170
v -12.265000 9.051725 37.468170
v -12.265000 8.988955 37.468170
v -12.390536 9.025571 37.468170
v -12.265000 9.051725 37.520477
v -12.265000 8.988955 37.520477
v -12.390536 9.088339 37.520477
v -12.390536 9.025571 37.520477
v -12.380079 9.025571 37.421093
v -12.400993 9.030802 37.436787
v -12.448086 9.046494 37.468170
v -12.453301 9.051725 37.436787
v -12.474215 9.051725 37.452480
v -12.448086 9.046494 37.520477
v -12.474215 9.051725 37.541401
v -12.453301 9.051725 37.557095
v -12.400993 9.030802 37.557095
v -12.380079 9.025571 37.572784
v -12.390536 9.088339 37.520477
v -12.390536 9.088339 37.468170
v -12.448086 9.104032 37.468170
v -12.448086 9.104032 37.520477
v -12.437604 9.062187 37.572784
v -12.400993 9.051725 37.572784
v -12.400993 9.051725 37.421093
v -12.437604 9.062187 37.421093
v -12.390536 9.088339 37.468170
v -12.390536 9.025571 37.468170
v -12.448086 9.046494 37.468170
v -12.448086 9.104032 37.468170
v -12.390536 9.025571 37.520477
v -12.390536 9.088339 37.520477
v -12.448086 9.104032 37.520477
v -12.448086 9.046494 37.520477
v -12.322530 9.009878 37.436787
v -12.390536 9.025571 37.436787
v -12.390536 9.302796 37.436787
v -12.322530 9.302796 37.436787
v -12.390536 9.025571 37.557095
v -12.322530 9.009878 37.557095
v -12.322530 9.302796 37.557095
v -12.390536 9.302796 37.557095
v -12.197000 9.454489 37.510014
v -12.139462 9.485871 37.510014
v -12.181310 9.438797 37.510014
v -12.197000 9.454489 37.510014
v -12.301614 9.428335 37.510014
v -12.301614 9.464951 37.510014
v -12.139462 9.485871 37.510014
v -12.181310 9.438797 37.483864
v -12.197000 9.454489 37.483864
v -12.139462 9.485871 37.483864
v -12.181310 9.438797 37.483864
v -12.197000 9.454489 37.483864
v -12.301614 9.428335 37.483864
v -12.301614 9.464951 37.483864
v -12.301614 9.464951 37.510014
v -12.197000 9.454489 37.483864
v -12.197000 9.454489 37.510014
v -11.773314 8.973265 37.536171
v -11.773314 9.009878 37.572784
v -11.773314 9.009878 37.421093
v -11.773314 8.973265 37.457710
v -12.191772 9.140648 37.421093
v -11.825621 9.025571 37.421093
v -11.825621 9.271414 37.421093
v -12.113311 9.349874 37.421093
v -12.202230 9.376029 37.421093
v -12.102849 9.407412 37.442017
v -12.123770 9.407412 37.442017
v -12.123770 9.663716 37.442017
v -12.102849 9.663716 37.442017
v -12.113311 9.349874 37.572784
v -11.825621 9.271414 37.572784
v -11.825621 9.025571 37.572784
v -12.191772 9.140648 37.572784
v -12.202230 9.376029 37.572784
v -12.275460 9.391722 37.572784
v -12.123770 9.407412 37.551861
v -12.102849 9.407412 37.551861
v -12.102849 9.663716 37.551861
v -12.123770 9.663716 37.551861
v -12.191772 10.118786 37.572784
v -12.322530 10.113555 37.572784
v -12.322530 10.113555 37.421093
v -12.191772 10.118786 37.421093
v -12.176079 10.103093 37.541401
v -12.176079 10.103093 37.452480
v -12.123770 10.103093 37.452480
v -12.123770 10.103093 37.541401
v -12.108080 10.118786 37.421093
v -12.108080 10.118786 37.572784
v -11.940698 10.118786 37.421093
v -11.940698 10.118786 37.572784
v -11.940698 9.653255 37.421093
v -12.155155 9.689871 37.421093
v -12.123770 9.653255 37.421093
v -11.940698 10.118786 37.421093
v -11.940698 9.653255 37.421093
v -11.940698 9.653255 37.572784
v -11.940698 10.118786 37.572784
v -12.155155 9.689871 37.572784
v -11.940698 9.653255 37.572784
v -12.123770 9.653255 37.572784
v -12.275460 9.689871 37.572784
v -12.275460 9.391722 37.572784
v -12.322530 9.009878 37.572784
v -12.322530 9.689871 37.572784
v -12.322530 10.113555 37.572784
v -12.102849 9.663716 37.442017
v -12.102849 9.663716 37.551861
v -11.940698 9.653255 37.572784
v -11.940698 9.653255 37.421093
v -12.123770 9.653255 37.421093
v -12.123770 9.653255 37.572784
v -12.275460 9.689871 37.421093
v -12.275460 9.391722 37.421093
v -11.773314 8.973265 37.457710
v -11.773314 9.009878 37.421093
v -11.825621 9.025571 37.421093
v -12.186541 9.098801 37.457710
v -12.186541 9.098801 37.536171
v -12.191772 9.140648 37.421093
v -11.773314 8.973265 37.536171
v -12.191772 9.140648 37.572784
v -11.825621 9.025571 37.572784
v -11.773314 9.009878 37.572784
v -11.825621 9.271414 37.572784
v -12.113311 9.349874 37.572784
v -12.202230 9.376029 37.572784
v -12.275460 9.391722 37.572784
v -12.123770 9.407412 37.551861
v -12.275460 9.689871 37.572784
v -12.155155 9.689871 37.572784
v -12.155155 9.689871 37.421093
v -12.275460 9.689871 37.421093
v -12.155155 9.689871 37.572784
v -12.123770 9.653255 37.572784
v -12.123770 9.653255 37.421093
v -12.155155 9.689871 37.421093
v -12.123770 9.407412 37.442017
v -12.123770 9.663716 37.442017
v -12.129001 9.883405 37.572784
v -12.191772 10.061249 37.572784
v -12.102849 10.061249 37.572784
v -12.176079 10.103093 37.541401
v -12.123770 10.103093 37.541401
v -12.108080 10.118786 37.572784
v -11.940698 10.118786 37.572784
v -11.940698 9.653255 37.572784
v -12.155155 9.689871 37.572784
v -12.191772 10.118786 37.572784
v -12.223154 9.104032 37.572784
v -12.212692 9.072646 37.536171
v -12.186541 9.098801 37.536171
v -12.186541 9.098801 37.457710
v -12.244077 8.983727 37.572784
v -12.233616 8.978496 37.536171
v -12.233616 8.978496 37.457710
v -12.212692 9.072646 37.457710
v -12.223154 9.104032 37.421093
v -12.322530 9.009878 37.421093
v -12.244077 8.983727 37.421093
v -12.322530 9.695101 37.421093
v -12.275460 9.391722 37.421093
v -12.322530 10.113555 37.421093
v -12.129001 9.883405 37.421093
v -12.191772 10.061249 37.421093
v -12.102849 10.061249 37.421093
v -12.176079 10.103093 37.452480
v -12.123770 10.103093 37.452480
v -12.108080 10.118786 37.421093
v -11.940698 10.118786 37.421093
v -11.940698 9.653255 37.421093
v -12.155155 9.689871 37.421093
v -12.191772 10.118786 37.421093
v -12.275460 9.245259 37.400173
v -12.296383 9.260952 37.421093
v -12.296383 9.104032 37.421093
v -12.275460 9.109262 37.400173
v -12.259769 9.260952 37.421093
v -12.259769 9.104032 37.421093
v -12.144693 10.134479 37.499554
v -12.113311 10.134479 37.462940
v -12.097618 10.134479 37.489094
v -12.102849 10.134479 37.520477
v -12.129001 10.134479 37.541401
v -12.160386 10.134479 37.541401
v -12.186541 10.134479 37.520477
v -12.191772 10.134479 37.489094
v -12.176079 10.134479 37.462940
v -12.144693 10.134479 37.452480
v -12.411449 10.197247 37.536171
v -12.411449 9.642793 37.530937
v -12.427147 10.197247 37.520477
v -12.390536 9.642793 37.541401
v -12.427147 9.642793 37.520477
v -12.432388 10.197247 37.499554
v -12.432388 9.642793 37.499554
v -12.427147 10.197247 37.473400
v -12.427147 9.642793 37.478634
v -12.411449 10.197247 37.462940
v -12.411449 9.642793 37.462940
v -12.390536 10.197247 37.452480
v -12.390536 9.642793 37.457710
v -12.369623 10.197247 37.462940
v -12.369623 9.642793 37.462940
v -12.353926 10.197247 37.473400
v -12.353926 9.642793 37.478634
v -12.348684 10.197247 37.499554
v -12.348684 9.642793 37.499554
v -12.353926 10.197247 37.520477
v -12.353926 9.642793 37.520477
v -12.369623 10.197247 37.536171
v -12.369623 9.642793 37.530937
v -12.390536 10.197247 37.541401
v -12.489912 9.072646 37.525707
v -12.489912 9.072646 37.504784
v -12.516067 9.072646 37.504784
v -12.516067 9.072646 37.520477
v -12.516067 9.072646 37.489094
v -12.516067 9.098801 37.489094
v -12.489912 9.124955 37.489094
v -12.489912 9.072646 37.489094
v -12.516067 9.072646 37.489094
v -12.489912 9.072646 37.489094
v -12.489912 9.072646 37.468170
v -12.516067 9.072646 37.473400
v -12.516067 9.098801 37.520477
v -12.516067 9.072646 37.520477
v -12.516067 9.072646 37.504784
v -12.516067 9.098801 37.504784
v -12.489912 9.124955 37.525707
v -12.489912 9.124955 37.504784
v -12.516067 9.098801 37.473400
v -12.489912 9.124955 37.468170
v -12.516067 9.072646 37.473400
v -12.489912 9.072646 37.504784
v -12.489912 9.072646 37.525707
v -12.489912 9.072646 37.468170
v -12.489912 9.177261 37.462940
v -12.489912 9.177261 37.530937
v -12.489912 9.056956 37.530937
v -12.489912 9.056956 37.462940
v -12.474215 9.219108 37.462940
v -12.474215 9.219108 37.530937
v -12.474215 9.051725 37.462940
v -12.474215 9.051725 37.530937
v -12.489912 10.071708 37.504784
v -12.489912 10.071708 37.489094
v -12.516067 10.071708 37.489094
v -12.516067 10.071708 37.504784
v -12.516067 10.108324 37.504784
v -12.516067 10.071708 37.504784
v -12.516067 10.071708 37.489094
v -12.516067 10.108324 37.489094
v -12.489912 10.134479 37.489094
v -12.489912 10.134479 37.504784
v -12.489912 10.071708 37.489094
v -12.489912 10.071708 37.504784
v -12.489912 10.061249 37.530937
v -12.489912 10.061249 37.462940
v -12.489912 10.150168 37.462940
v -12.489912 10.150168 37.530937
v -12.474215 10.150168 37.462940
v -12.474215 10.029863 37.462940
v -12.474215 10.029863 37.530937
v -12.474215 10.150168 37.530937
v -12.322530 10.113555 37.562325
v -12.322530 10.113555 37.572784
v -12.322530 10.150168 37.562325
v -12.322530 10.150168 37.431557
v -12.322530 10.113555 37.431557
v -12.322530 10.113555 37.421093
v -12.380079 10.150168 37.431557
v -12.380079 10.150168 37.562325
v -12.442845 10.150168 37.431557
v -12.442845 10.150168 37.562325
v -12.474215 10.150168 37.452480
v -12.474215 10.150168 37.541401
v -12.380079 9.491102 37.431557
v -12.359140 9.491102 37.421093
v -12.359140 10.113555 37.421093
v -12.380079 10.150168 37.431557
v -12.322530 9.491102 37.421093
v -12.322530 10.113555 37.421093
v -12.380079 9.025571 37.421093
v -12.380079 9.449258 37.421093
v -12.400993 9.051725 37.421093
v -12.437604 9.449258 37.421093
v -12.437604 9.062187 37.421093
v -12.322530 10.113555 37.421093
v -12.322530 10.150168 37.431557
v -12.380079 10.150168 37.431557
v -12.359140 10.113555 37.421093
v -12.359140 10.113555 37.572784
v -12.380079 10.150168 37.562325
v -12.322530 10.150168 37.562325
v -12.322530 10.113555 37.572784
v -12.322530 9.491102 37.572784
v -12.380079 9.025571 37.572784
v -12.359140 9.491102 37.572784
v -12.322530 10.113555 37.572784
v -12.380079 10.150168 37.562325
v -12.380079 9.642793 37.567551
v -12.442845 9.642793 37.567551
v -12.442845 10.150168 37.562325
v -12.442845 10.150168 37.562325
v -12.442845 9.642793 37.567551
v -12.474215 9.642793 37.541401
v -12.474215 10.150168 37.541401
v -12.380079 9.491102 37.562325
v -12.380079 9.642793 37.567551
v -12.359140 10.113555 37.572784
v -12.380079 9.412642 37.572784
v -12.400993 9.051725 37.572784
v -12.437604 9.062187 37.572784
v -12.432388 9.412642 37.572784
v -12.437604 9.062187 37.572784
v -12.453301 9.051725 37.557095
v -12.474215 9.051725 37.541401
v -12.437604 9.062187 37.572784
v -12.474215 9.449258 37.541401
v -12.474215 9.491102 37.541401
v -12.458543 9.491102 37.541401
v -12.380079 9.491102 37.541401
v -12.380079 9.412642 37.572784
v -12.432388 9.412642 37.572784
v -12.474215 9.491102 37.541401
v -12.380079 9.412642 37.572784
v -12.442845 10.150168 37.431557
v -12.442845 9.491102 37.431557
v -12.380079 9.491102 37.431557
v -12.442845 10.150168 37.431557
v -12.474215 10.150168 37.452480
v -12.474215 9.642793 37.452480
v -12.458543 9.642793 37.442017
v -12.442845 9.491102 37.431557
v -12.458543 9.491102 37.442017
v -12.474215 9.449258 37.452480
v -12.474215 9.491102 37.452480
v -12.474215 9.491102 37.452480
v -12.474215 9.491102 37.541401
v -12.474215 9.449258 37.541401
v -12.474215 9.449258 37.452480
v -12.474215 9.051725 37.541401
v -12.474215 9.051725 37.452480
v -12.380079 9.449258 37.421093
v -12.453301 9.051725 37.436787
v -12.437604 9.062187 37.421093
v -12.474215 9.051725 37.452480
v -12.437604 9.062187 37.421093
v -12.437604 9.449258 37.421093
v -12.437604 9.449258 37.421093
v -12.380079 9.449258 37.421093
v -12.468999 9.642793 37.457710
v -12.458543 9.642793 37.452480
v -12.458543 9.642793 37.442017
v -12.474215 9.642793 37.452480
v -12.468999 9.642793 37.536171
v -12.458543 9.642793 37.541401
v -12.442845 9.642793 37.567551
v -12.380079 9.642793 37.567551
v -12.380079 9.642793 37.541401
v -12.458543 9.491102 37.452480
v -12.458543 9.491102 37.541401
v -12.474215 9.491102 37.452480
v -12.458543 9.491102 37.442017
v -12.474215 10.150168 37.541401
v -12.474215 9.642793 37.541401
v -12.474215 10.150168 37.452480
v -12.380079 9.642793 37.541401
v -12.380079 9.491102 37.562325
v -12.380079 9.412642 37.572784
v -12.458543 9.491102 37.442017
v -12.437604 9.449258 37.421093
v -12.322530 9.072646 37.473400
v -12.348684 8.957572 37.473400
v -12.322530 8.941879 37.473400
v -12.285921 8.994185 37.473400
v -12.238847 9.077877 37.473400
v -12.296383 8.910497 37.473400
v -12.332987 8.920957 37.473400
v -12.312074 8.894805 37.473400
v -12.327771 8.900036 37.473400
v -12.322530 9.072646 37.520477
v -12.238847 9.077877 37.520477
v -12.285921 8.994185 37.520477
v -12.348684 8.957572 37.520477
v -12.322530 8.941879 37.520477
v -12.296383 8.910497 37.520477
v -12.332987 8.920957 37.520477
v -12.312074 8.894805 37.520477
v -12.327771 8.900036 37.520477
v -12.348684 8.957572 37.473400
v -12.322530 9.072646 37.473400
v -12.322530 9.072646 37.520477
v -12.348684 8.957572 37.520477
v -12.353926 8.947110 37.489094
v -12.353926 8.947110 37.504784
v -12.332987 8.920957 37.473400
v -12.322530 8.941879 37.473400
v -12.327771 8.931418 37.489094
v -12.332987 8.920957 37.520477
v -12.327771 8.900036 37.473400
v -12.327771 8.900036 37.520477
v -12.312074 8.894805 37.520477
v -12.312074 8.894805 37.473400
v -12.327771 8.931418 37.504784
v -12.322530 8.941879 37.520477
v -12.285921 8.994185 37.520477
v -12.238847 9.077877 37.520477
v -12.238847 9.077877 37.473400
v -12.285921 8.994185 37.473400
v -12.296383 8.910497 37.520477
v -12.296383 8.910497 37.473400
v -12.312074 8.894805 37.520477
v -12.312074 8.894805 37.473400
v -12.441966 10.847150 37.529476
v -12.339107 10.847150 37.529476
v -12.419914 10.847150 37.551517
v -12.419914 10.847150 37.448650
v -12.390536 10.847150 37.433952
v -12.361158 10.847150 37.448650
v -12.441966 10.847150 37.463345
v -12.361158 10.847150 37.551517
v -12.390536 10.847150 37.558868
v -12.339107 10.847150 37.463345
v -12.449328 10.847150 37.500084
v -12.331744 10.847150 37.500084
vn 1.0000 -0.0000 -0.0000
vn 0.8023 0.5969 -0.0000
vn -0.2874 -0.9578 -0.0000
vn -0.2306 -0.7685 -0.5969
vn 0.2874 0.9578 -0.0000
vn -0.1853 0.6176 -0.7644
vn -0.0000 -0.0000 -1.0000
vn -0.2228 0.7427 -0.6315
vn -0.1853 0.6176 0.7644
vn -0.0000 -0.0000 1.0000
vn -0.2228 0.7427 0.6315
vn -0.3060 -0.9520 -0.0000
vn 0.3060 0.9520 -0.0000
vn -0.1901 -0.6142 -0.7659
vn -0.2299 -0.7427 -0.6289
vn -0.2957 -0.9553 -0.0000
vn -0.9864 -0.0000 0.1644
vn -0.8625 -0.0000 0.5060
vn -0.8625 -0.0000 0.5061
vn -0.3310 -0.0000 0.9436
vn 0.3310 -0.0000 0.9436
vn 0.8625 -0.0000 0.5060
vn 0.9824 -0.0000 -0.1865
vn 0.9824 -0.0000 -0.1866
vn 0.6257 -0.0000 -0.7800
vn 0.6257 -0.0000 -0.7801
vn -0.6257 -0.0000 -0.7801
vn -0.6257 -0.0000 -0.7800
vn -0.8575 -0.0000 -0.5145
vn -0.3617 -0.6934 -0.6232
vn -0.0000 -0.6189 -0.7855
vn 0.3617 -0.6934 -0.6232
vn -0.6450 -0.6303 -0.4322
vn 0.6450 -0.6303 -0.4322
vn -0.7503 -0.6608 0.0179
vn 0.7503 -0.6608 0.0179
vn -0.6599 -0.6517 0.3739
vn 0.6599 -0.6517 0.3739
vn -0.3737 -0.6517 0.6600
vn 0.3737 -0.6517 0.6601
vn -0.0000 -0.6563 0.7545
vn -0.2299 -0.0000 -0.9732
vn -0.4474 -0.0000 -0.8943
vn -0.2298 -0.0000 -0.9732
vn -0.0000 -1.0000 -0.0000
vn -0.2298 -0.0000 0.9732
vn -0.2161 -0.3404 0.9151
vn -0.8507 -0.0000 0.5257
vn -0.6769 -0.6058 0.4182
vn -1.0000 -0.0000 -0.0000
vn -0.6111 -0.7916 -0.0000
vn -0.2749 -0.9602 -0.0490
vn -0.3034 -0.9523 -0.0337
vn -0.3589 -0.9257 -0.1192
vn -0.3168 -0.9479 -0.0325
vn -0.3243 -0.9453 -0.0357
vn -0.3229 -0.9462 -0.0227
vn -0.3156 -0.9485 0.0270
vn -0.3267 -0.9448 0.0237
vn -0.3226 -0.9459 0.0345
vn -0.2806 -0.9596 0.0195
vn -0.2829 -0.9585 0.0364
vn -0.3102 -0.9500 0.0368
vn -0.3589 -0.9257 0.1192
vn -0.2735 -0.9618 -0.0124
vn -0.2800 -0.9600 -0.0000
vn -0.7735 -0.0000 0.6338
vn -0.6463 -0.0000 0.7631
vn -0.7735 -0.0000 -0.6337
vn -0.6463 -0.0000 -0.7631
vn -0.3864 -0.8641 -0.3225
vn -0.4423 -0.8190 -0.3654
vn -0.2441 -0.9682 -0.0555
vn -0.2563 -0.9107 -0.3241
vn -0.1504 -0.9855 -0.0781
vn -0.2351 -0.9706 0.0519
vn -0.1370 -0.9877 0.0759
vn -0.2474 -0.9189 0.3072
vn -0.4510 -0.8184 0.3561
vn -0.3864 -0.8641 0.3225
vn -0.2631 -0.9648 -0.0000
vn -0.3582 -0.5796 0.7320
vn -0.2026 -0.7090 0.6755
vn -0.3582 -0.5797 -0.7319
vn -0.2026 -0.7091 -0.6754
vn 0.6333 -0.0000 0.7739
vn 0.7693 -0.0000 0.6389
vn 0.7693 -0.0000 -0.6389
vn 0.6333 -0.0000 -0.7739
vn 0.3064 0.7113 0.6326
vn -0.5295 -0.0998 0.8424
vn 0.0630 -0.7242 0.6867
vn -0.4034 -0.8878 0.2216
vn 0.6699 -0.0000 0.7425
vn -0.4763 -0.7940 -0.3777
vn 0.9581 -0.0053 -0.2863
vn 0.7474 -0.6644 -0.0000
vn 0.4815 0.8764 -0.0000
vn 0.6594 0.5241 -0.5389
vn -0.4788 0.8779 -0.0000
vn -0.7099 0.3003 -0.6371
vn 0.1418 -0.6019 -0.7858
vn 0.0065 0.0647 -0.9979
vn 0.0630 -0.7242 -0.6867
vn 0.0726 0.7263 -0.6836
vn 0.7837 0.5947 -0.1792
vn 0.0995 0.9950 -0.0000
vn 0.1175 -0.1069 -0.9873
vn 0.1710 0.6270 -0.7600
vn 0.3395 0.3419 -0.8762
vn -0.0219 0.6297 -0.7765
vn 0.7783 0.0438 -0.6264
vn -0.1345 0.6345 -0.7611
vn 0.2803 0.0635 0.9578
vn 0.1175 -0.1069 0.9873
vn 0.0198 0.0672 0.9975
vn 0.2382 0.6871 0.6864
vn -0.3227 0.2125 0.9224
vn 0.7668 0.0303 0.6411
vn -0.7071 -0.0000 0.7071
vn 0.1827 0.9832 -0.0000
vn -0.0400 0.9992 -0.0000
vn 0.1826 0.9832 -0.0000
vn 0.4697 0.8828 -0.0000
vn -0.4698 0.8828 -0.0000
vn -0.2120 0.9773 -0.0000
vn -0.0000 1.0000 -0.0000
vn -0.0000 0.3161 0.9487
vn 0.3162 -0.9487 -0.0000
vn 0.7272 0.6864 -0.0000
vn 0.6649 0.5187 -0.5375
vn -0.2721 -0.8980 -0.3456
vn -0.2098 -0.6913 -0.6914
vn -0.2075 -0.6917 -0.6917
vn -0.2663 -0.8642 -0.4269
vn -0.2625 -0.8640 0.4297
vn -0.2070 -0.6588 -0.7233
vn -0.2734 -0.8975 0.3459
vn -0.2020 -0.6626 0.7212
vn -0.2166 -0.6959 0.6847
vn -0.2075 -0.6917 0.6917
vn 0.2631 0.9648 -0.0000
vn -0.0592 0.9982 -0.0000
vn -0.8869 0.4210 -0.1900
vn 0.2095 0.9778 -0.0000
vn -0.3714 0.9285 -0.0000
vn -0.7593 -0.6508 -0.0000
vn 0.1018 0.1253 0.9869
vn -0.0977 0.1073 0.9894
vn 0.4416 0.4264 0.7894
vn -0.4162 0.4031 0.8150
vn -0.4533 -0.0412 0.8904
vn 0.4493 -0.0000 0.8934
vn 0.3510 -0.1991 0.9149
vn 0.8743 -0.4046 0.2682
vn 0.6456 -0.6455 0.4081
vn 0.6456 -0.6455 -0.4080
vn 0.6135 -0.1293 0.7790
vn 0.9657 -0.2146 0.1461
vn 0.9675 -0.1972 -0.1583
vn 0.8643 -0.4151 -0.2840
vn 0.3513 -0.2041 -0.9138
vn 0.6300 -0.1096 -0.7688
vn -0.0000 0.3161 -0.9487
vn 0.1019 0.1253 -0.9869
vn -0.0978 0.1073 -0.9894
vn 0.4416 0.4265 -0.7894
vn -0.4162 0.4032 -0.8150
vn -0.4533 -0.0412 -0.8904
vn 0.4494 -0.0000 -0.8933
vn 0.0650 0.2705 -0.9605
vn -0.5724 -0.4505 -0.6851
vn -0.4577 0.4284 -0.7791
vn 0.0607 -0.4572 -0.8873
vn 0.4851 0.4851 -0.7276
vn 0.6191 -0.5148 -0.5930
vn -0.4945 -0.0036 0.8692
vn -0.8690 -0.0034 0.4948
vn -0.5043 -0.0043 0.8635
vn 0.0027 -0.0046 1.0000
vn -0.8172 -0.0000 0.5763
vn -0.9997 -0.0000 0.0238
vn -1.0000 -0.0011 0.0007
vn -0.8293 -0.0043 -0.5587
vn -0.8699 -0.0013 -0.4933
vn -0.5041 -0.0038 -0.8636
vn -0.4952 -0.0046 -0.8688
vn 0.0027 -0.0048 -1.0000
vn 0.0029 -0.0048 -1.0000
vn 0.4996 -0.0041 -0.8662
vn 0.4908 -0.0034 -0.8713
vn 0.8311 -0.0011 -0.5562
vn 0.8713 -0.0035 -0.4908
vn 0.9997 -0.0009 0.0232
vn 0.8700 -0.0000 0.4930
vn 0.8187 -0.0041 0.5743
vn 0.4901 -0.0048 0.8716
vn 0.4998 -0.0041 0.8661
vn 0.0029 -0.0046 1.0000
vn -0.6325 0.6325 0.4472
vn -0.7173 0.2971 0.6303
vn -0.7801 0.2912 0.5538
vn -0.7071 -0.0000 -0.7071
vn -0.7733 -0.0000 0.6340
vn -0.7173 0.2971 -0.6303
vn -0.6747 0.5846 0.4507
vn -0.6324 0.6324 -0.4472
vn -0.7801 0.2912 -0.5538
vn -0.6747 0.5845 -0.4507
vn -0.7733 -0.0000 -0.6340
vn -0.1961 -0.0000 0.9806
vn -0.1961 -0.0000 -0.9806
vn -0.7313 0.1326 -0.6691
vn -0.6513 -0.4695 0.5962
vn -0.7313 0.1326 0.6691
vn -0.6513 -0.4695 -0.5962
vn -0.9128 0.3424 -0.2227
vn -0.9128 0.3424 0.2227
vn -0.2474 -0.7425 -0.6224
vn -0.2474 -0.7426 0.6224
vn -0.6324 0.6324 -0.4473
vn -0.7322 -0.1729 0.6588
vn -0.5774 0.5773 -0.5773
vn -0.7321 -0.1729 -0.6588
vn -0.5774 0.5774 0.5774
vn -0.0000 0.7071 -0.7071
vn -0.8578 -0.4290 -0.2832
vn -0.8578 -0.4290 0.2832
vn -0.0000 0.7071 0.7071
vn 0.7621 0.6474 -0.0000
vn -0.4444 0.1059 -0.8895
vn -0.2847 -0.0000 -0.9586
vn -0.1964 0.0411 -0.9797
vn -0.1687 0.1805 -0.9690
vn -0.0000 0.2747 -0.9615
vn -0.0000 0.2747 0.9615
vn -0.2064 0.0186 0.9783
vn -0.0000 0.1272 0.9919
vn -0.0000 0.0103 0.9999
vn -0.0000 -0.6918 0.7221
vn -0.5594 0.0004 0.8289
vn 0.2711 0.0043 0.9625
vn -0.6403 0.0079 0.7681
vn -0.5549 -0.0000 0.8319
vn -0.2556 -0.0014 0.9668
vn -0.1061 0.0480 0.9932
vn -0.2737 0.0058 0.9618
vn -0.1624 0.1841 0.9694
vn -0.0057 -0.3852 0.9228
vn -0.5747 -0.2873 0.7663
vn -0.5999 -0.0348 0.7993
vn -0.5752 -0.2859 0.7664
vn -0.6467 0.0007 0.7627
vn -0.6009 0.0024 0.7993
vn -0.6186 -0.0000 0.7857
vn -0.7397 -0.1254 0.6612
vn -0.6002 -0.0000 0.7999
vn -0.0000 0.3714 0.9285
vn -0.0000 0.9907 0.1363
vn 0.5847 0.5502 0.5962
vn -0.4437 0.1184 0.8883
vn -0.0000 0.1214 -0.9926
vn -0.0000 0.1173 -0.9931
vn -0.0000 0.1222 -0.9925
vn -0.5549 -0.0000 -0.8319
vn -0.4896 0.4714 -0.7335
vn -0.5548 -0.0000 -0.8320
vn -0.5280 -0.0348 -0.8486
vn -0.5546 -0.0000 -0.8321
vn -0.6321 0.0112 -0.7748
vn -0.5552 0.0005 -0.8317
vn -0.5554 -0.0004 -0.8316
vn -0.4366 0.2184 -0.8728
vn 0.5747 0.2873 0.7663
vn 0.6435 0.0409 0.7644
vn -0.6283 0.0282 -0.7775
vn -0.6508 -0.0000 -0.7592
vn -0.6186 -0.0000 -0.7857
vn -0.0000 0.2425 -0.9701
vn -0.8479 -0.5302 -0.0000
vn 0.5718 -0.8204 0.0030
vn -0.4472 0.8944 -0.0000
vn 0.4614 0.8872 -0.0000
vn -0.8479 0.5302 -0.0000
vn -0.8817 0.4719 -0.0000
vn -0.6992 -0.7142 -0.0320
vn -0.8692 -0.4591 -0.1836
vn -0.7465 -0.6630 0.0562
vn -0.8692 0.4945 -0.0000
vn -0.5816 0.0367 -0.8127
vn -0.5880 0.0627 -0.8064
vn -0.5546 -0.0003 -0.8321
vn -0.6471 0.1077 -0.7548
vn -0.9391 -0.1424 -0.3126
vn -0.9751 0.2216 -0.0000
vn -0.9391 -0.1424 0.3126
vn -0.9138 -0.3296 -0.2374
vn -0.9138 -0.3296 0.2374
vn -0.9940 0.1092 -0.0002
vn -0.9725 -0.1428 -0.1838
vn -0.7832 -0.3638 -0.5042
vn -0.9940 0.1092 0.0002
vn -0.7339 -0.6792 -0.0000
vn -0.3161 -0.9487 -0.0000
vn -0.9725 -0.1428 0.1837
vn -0.7833 -0.3638 0.5041
vn 0.9497 -0.3130 -0.0000
vn 0.8716 -0.4903 -0.0000
vn 0.8983 -0.4393 -0.0000
vn 0.7072 -0.7070 -0.0000
vn -0.3617 0.6934 -0.6232
vn 0.3617 0.6934 -0.6232
vn -0.0000 0.6189 -0.7855
vn -0.6450 0.6303 -0.4322
vn 0.6450 0.6303 -0.4322
vn -0.7503 0.6608 0.0179
vn 0.7503 0.6608 0.0179
vn -0.6599 0.6517 0.3739
vn 0.6599 0.6517 0.3739
vn -0.3737 0.6517 0.6600
vn 0.3737 0.6517 0.6600
vn -0.0000 0.6563 0.7545
vt 0.691000 1.219000
vt 0.669000 1.218000
vt 0.669000 1.159000
vt 0.691000 1.159000
vt 0.658000 1.071000
vt 0.621000 1.019000
vt 0.621000 1.071000
vt 0.658000 1.019000
vt 0.717000 1.075000
vt 0.676000 1.014000
vt 0.676000 1.075000
vt 0.717000 1.014000
vt 0.729000 1.073000
vt 0.652000 1.454000
vt 0.729000 1.454000
vt 0.651000 1.073000
vt 0.615000 1.075000
vt 0.616000 1.457000
vt 0.656000 1.454000
vt 0.655000 1.073000
vt 0.791000 1.458000
vt 0.791000 1.076000
vt 0.901000 1.755000
vt 0.949000 1.667000
vt 0.901000 1.667000
vt 0.949000 1.755000
vt 0.996000 1.667000
vt 0.996000 1.755000
vt 0.852000 1.667000
vt 0.852000 1.755000
vt 0.897000 1.667000
vt 0.897000 1.755000
vt 0.899000 1.667000
vt 0.899000 1.756000
vt 0.850000 1.667000
vt 0.850000 1.756000
vt 0.853000 1.143000
vt 0.856000 1.112000
vt 0.853000 1.080000
vt 0.844000 1.166000
vt 0.844000 1.058000
vt 0.830000 1.174000
vt 0.830000 1.049000
vt 0.817000 1.166000
vt 0.817000 1.058000
vt 0.807000 1.143000
vt 0.807000 1.080000
vt 0.804000 1.112000
vt 0.341000 1.893000
vt 0.266000 1.911000
vt 0.340000 1.910000
vt 0.263000 1.896000
vt 0.342000 1.804000
vt 0.263000 1.804000
vt 0.334000 1.834000
vt 0.272000 1.967000
vt 0.334000 1.967000
vt 0.272000 1.834000
vt 0.339000 1.980000
vt 0.266000 1.977000
vt 0.263000 1.988000
vt 0.957000 1.622000
vt 0.920000 1.591000
vt 0.921000 1.623000
vt 0.990000 1.591000
vt 1.001000 1.649000
vt 1.001000 1.609000
vt 0.990000 1.543000
vt 1.001000 1.536000
vt 1.001000 1.498000
vt 0.957000 1.494000
vt 0.957000 1.525000
vt 0.920000 1.543000
vt 0.921000 1.514000
vt 0.957000 1.646000
vt 0.302000 1.528000
vt 0.335000 1.449000
vt 0.305000 1.449000
vt 0.332000 1.528000
vt 0.325000 1.528000
vt 0.297000 1.449000
vt 0.328000 1.449000
vt 0.294000 1.528000
vt 0.924000 1.646000
vt 0.914000 1.628000
vt 0.884000 1.591000
vt 0.884000 1.628000
vt 0.874000 1.613000
vt 0.884000 1.543000
vt 0.874000 1.525000
vt 0.884000 1.512000
vt 0.914000 1.512000
vt 0.927000 1.494000
vt 0.926000 1.589000
vt 0.897000 1.547000
vt 0.926000 1.547000
vt 0.897000 1.589000
vt 0.901000 1.494000
vt 0.884000 1.494000
vt 0.901000 1.646000
vt 0.884000 1.646000
vt 0.325000 1.486000
vt 0.320000 1.515000
vt 0.319000 1.486000
vt 0.326000 1.515000
vt 0.316000 1.453000
vt 0.347000 1.486000
vt 0.347000 1.453000
vt 0.269000 1.494000
vt 0.244000 1.480000
vt 0.275000 1.438000
vt 0.269000 1.496000
vt 0.251000 1.578000
vt 0.280000 1.578000
vt 0.275000 1.441000
vt 0.258000 1.488000
vt 0.259000 1.490000
vt 0.234000 1.052000
vt 0.214000 1.179000
vt 0.210000 1.013000
vt 0.231000 1.151000
vt 0.058000 1.482000
vt 0.153000 1.038000
vt 0.009000 1.039000
vt 0.192000 1.392000
vt 0.206000 1.493000
vt 0.232000 1.380000
vt 0.232000 1.408000
vt 0.335000 1.409000
vt 0.335000 1.382000
vt 0.217000 1.580000
vt 0.861000 1.483000
vt 0.782000 1.622000
vt 0.861000 1.625000
vt 0.782000 1.477000
vt 0.851000 1.462000
vt 0.794000 1.461000
vt 0.794000 1.404000
vt 0.851000 1.405000
vt 0.782000 1.383000
vt 0.861000 1.387000
vt 0.782000 1.205000
vt 0.861000 1.207000
vt 0.353000 1.163000
vt 0.355000 1.404000
vt 0.365000 1.441000
vt 0.598000 1.027000
vt 0.354000 1.160000
vt 0.352000 1.022000
vt 0.600000 1.165000
vt 0.365000 1.438000
vt 0.355000 1.402000
vt 0.353000 1.160000
vt 0.368000 1.580000
vt 0.018000 1.635000
vt 0.216000 1.580000
vt 0.371000 1.623000
vt 0.586000 1.621000
vt 0.240000 1.380000
vt 0.279000 1.190000
vt 0.358000 1.364000
vt 0.358000 1.190000
vt 0.281000 1.361000
vt 0.997000 1.685000
vt 0.974000 1.667000
vt 0.788000 1.685000
vt 0.788000 1.738000
vt 0.788000 1.667000
vt 0.997000 1.738000
vt 0.787000 1.754000
vt 0.973000 1.754000
vt 0.995000 1.754000
vt 0.214000 1.368000
vt 0.175000 1.038000
vt 0.227000 1.498000
vt 0.248000 1.577000
vt 0.243000 1.436000
vt 0.348000 1.544000
vt 0.385000 1.513000
vt 0.361000 1.500000
vt 0.367000 1.562000
vt 0.284000 1.378000
vt 0.359000 1.365000
vt 0.280000 1.362000
vt 0.358000 1.378000
vt 0.336000 1.434000
vt 0.469000 1.418000
vt 0.566000 1.486000
vt 0.567000 1.390000
vt 0.583000 1.474000
vt 0.584000 1.416000
vt 0.592000 1.397000
vt 0.597000 1.165000
vt 0.352000 1.160000
vt 0.365000 1.443000
vt 0.591000 1.493000
vt 0.059000 1.517000
vt 0.023000 1.499000
vt 0.037000 1.476000
vt 0.009000 1.547000
vt 0.004000 1.506000
vt 0.975000 1.717000
vt 0.790000 1.756000
vt 1.001000 1.755000
vt 0.799000 1.717000
vt 1.000000 1.676000
vt 0.789000 1.677000
vt 0.911000 1.371000
vt 0.903000 1.275000
vt 0.877000 1.307000
vt 0.932000 1.285000
vt 0.950000 1.338000
vt 0.950000 1.406000
vt 0.932000 1.457000
vt 0.903000 1.469000
vt 0.877000 1.435000
vt 0.867000 1.371000
vt 0.618000 1.917000
vt 0.616000 1.970000
vt 0.991000 1.917000
vt 0.991000 1.879000
vt 0.991000 1.971000
vt 0.617000 1.999000
vt 0.992000 2.000000
vt 0.618000 1.878000
vt 0.618000 1.840000
vt 0.991000 1.841000
vt 0.618000 1.811000
vt 0.991000 1.812000
vt 0.618000 1.787000
vt 0.991000 1.787000
vt 0.265000 1.343000
vt 0.221000 1.256000
vt 0.221000 1.343000
vt 0.254000 1.256000
vt 0.554000 1.904000
vt 0.578000 1.919000
vt 0.569000 1.904000
vt 0.545000 1.919000
vt 0.554000 1.888000
vt 0.569000 1.888000
vt 0.578000 1.873000
vt 0.545000 1.873000
vt 0.554000 1.861000
vt 0.587000 1.936000
vt 0.554000 1.931000
vt 0.587000 1.866000
vt 0.535000 1.853000
vt 0.535000 1.939000
vt 0.596000 1.858000
vt 0.596000 1.944000
vt 0.255000 1.346000
vt 0.222000 1.256000
vt 0.223000 1.345000
vt 0.255000 1.256000
vt 0.276000 1.176000
vt 0.276000 1.198000
vt 0.269000 1.190000
vt 0.358000 1.197000
vt 0.360000 1.176000
vt 0.365000 1.195000
vt 0.358000 1.279000
vt 0.277000 1.279000
vt 0.358000 1.370000
vt 0.277000 1.370000
vt 0.347000 1.397000
vt 0.286000 1.397000
vt 0.266000 1.719000
vt 0.585000 1.684000
vt 0.266000 1.681000
vt 0.602000 1.720000
vt 0.266000 1.636000
vt 0.586000 1.640000
vt 0.026000 1.699000
vt 0.244000 1.701000
vt 0.040000 1.725000
vt 0.244000 1.761000
vt 0.047000 1.770000
vt 0.587000 1.640000
vt 0.602000 1.719000
vt 0.602000 1.641000
vt 0.586000 1.683000
vt 0.346000 1.777000
vt 0.346000 1.721000
vt 0.602000 1.786000
vt 0.602000 1.788000
vt 0.348000 1.810000
vt 0.346000 1.786000
vt 0.602000 1.817000
vt 0.346000 1.719000
vt 0.266000 1.720000
vt 0.227000 1.701000
vt 0.227000 1.770000
vt 0.046000 1.766000
vt 0.041000 1.812000
vt 0.039000 1.788000
vt 0.046000 1.771000
vt 0.244000 1.812000
vt 0.264000 1.810000
vt 0.267000 1.777000
vt 0.245000 1.703000
vt 0.266000 1.721000
vt 0.245000 1.767000
vt 0.265000 1.810000
vt 0.245000 1.700000
vt 0.266000 1.777000
vt 0.346000 1.792000
vt 0.266000 1.786000
vt 0.266000 1.792000
vt 0.265000 1.812000
vt 0.244000 1.976000
vt 0.266000 1.976000
vt 0.244000 1.814000
vt 0.041000 1.976000
vt 0.041000 1.813000
vt 0.245000 1.701000
vt 0.244000 1.771000
vt 0.244000 1.767000
vt 0.244000 1.702000
vt 0.344000 1.803000
vt 0.343000 1.795000
vt 0.345000 1.793000
vt 0.344000 1.808000
vt 0.345000 1.803000
vt 0.347000 1.778000
vt 0.346000 1.715000
vt 0.345000 1.716000
vt 0.265000 1.793000
vt 0.267000 1.795000
vt 0.602000 1.981000
vt 0.346000 1.976000
vt 0.602000 1.820000
vt 0.265000 1.791000
vt 0.244000 1.768000
vt 0.879000 1.201000
vt 0.929000 1.204000
vt 0.922000 1.237000
vt 0.909000 1.158000
vt 0.878000 1.105000
vt 0.941000 1.173000
vt 0.938000 1.214000
vt 0.946000 1.190000
vt 0.944000 1.209000
vt 1.000000 1.236000
vt 0.963000 1.000000
vt 1.000000 1.000000
vt 0.963000 1.236000
vt 0.988000 1.255000
vt 0.974000 1.255000
vt 1.000000 1.375000
vt 0.988000 1.351000
vt 1.000000 1.332000
vt 0.963000 1.375000
vt 1.000000 1.426000
vt 0.963000 1.426000
vt 0.963000 1.468000
vt 1.000000 1.468000
vt 0.974000 1.351000
vt 0.963000 1.332000
vt 0.964000 1.332000
vt 1.000000 1.473000
vt 0.964000 1.473000
vt 0.964000 1.121000
vt 1.000000 1.121000
vt 0.964000 1.004000
vt 1.000000 1.004000
s 1
usemtl Model001_Material001
f 1/1/1 2/2/2 3/3/1
f 1/1/1 3/3/1 4/4/1
f 5/1/3 6/3/3 2/2/4
f 7/1/5 8/3/5 9/4/5
f 10/5/6 12/6/7 11/7/7
f 10/5/6 13/8/8 12/6/7
f 14/5/9 16/6/10 15/8/11
f 14/5/9 17/7/10 16/6/10
f 13/8/8 14/5/9 15/8/11
f 13/8/8 10/5/6 14/5/9
f 18/9/1 20/10/1 19/11/1
f 18/9/1 21/12/1 20/10/1
f 22/13/10 24/14/10 23/15/10
f 22/13/10 25/16/10 24/14/10
f 26/17/12 27/18/12 28/19/12
f 29/17/13 31/20/13 30/19/13
f 32/16/7 34/15/14 33/14/7
f 32/16/7 35/13/15 34/15/14
f 35/13/15 36/21/16 34/15/14
f 35/13/15 37/22/16 36/21/16
f 38/23/17 40/24/18 39/25/17
f 38/23/17 41/26/19 40/24/18
f 41/26/19 42/27/20 40/24/18
f 41/26/19 43/28/20 42/27/20
f 43/28/20 44/24/21 42/27/20
f 43/28/20 45/26/21 44/24/21
f 45/26/21 46/25/22 44/24/21
f 45/26/21 47/23/22 46/25/22
f 47/23/22 48/29/23 46/25/22
f 47/23/22 49/30/24 48/29/23
f 49/30/24 50/31/25 48/29/23
f 49/30/24 51/32/26 50/31/25
f 51/32/26 52/24/7 50/31/25
f 51/32/26 53/26/7 52/24/7
f 53/26/7 54/33/27 52/24/7
f 53/26/7 55/34/28 54/33/27
f 55/34/28 56/35/29 54/33/27
f 55/34/28 57/36/29 56/35/29
f 58/37/30 59/38/31 60/39/32
f 58/37/30 60/39/32 61/40/33
f 61/40/33 60/39/32 62/41/34
f 61/40/33 62/41/34 63/42/35
f 63/42/35 62/41/34 64/43/36
f 63/42/35 64/43/36 65/44/37
f 65/44/37 64/43/36 66/45/38
f 65/44/37 66/45/38 67/46/39
f 67/46/39 66/45/38 68/47/40
f 67/46/39 68/47/40 69/48/41
f 70/49/42 72/50/43 71/51/43
f 70/49/42 73/52/44 72/50/43
f 74/53/7 73/52/44 70/49/42
f 74/53/7 75/54/7 73/52/44
f 76/55/45 78/56/45 77/57/45
f 76/55/45 79/58/45 78/56/45
f 80/49/46 82/54/10 81/53/10
f 80/49/46 83/52/47 82/54/10
f 84/51/48 83/52/47 80/49/46
f 84/51/48 85/50/49 83/52/47
f 86/59/50 85/50/49 84/51/48
f 86/59/50 87/60/51 85/50/49
f 88/61/45 85/50/49 87/60/51
f 88/61/45 83/52/47 85/50/49
f 89/62/52 91/63/53 90/64/54
f 89/62/52 92/65/55 91/63/53
f 93/66/56 92/65/55 89/62/52
f 93/66/56 94/67/57 92/65/55
f 94/67/57 95/68/58 92/65/55
f 94/67/57 96/69/59 95/68/58
f 97/70/60 95/68/58 96/69/59
f 97/70/60 98/71/61 95/68/58
f 99/72/62 95/68/58 98/71/61
f 99/72/62 100/73/63 95/68/58
f 101/74/64 100/73/63 99/72/62
f 89/62/52 102/75/65 93/66/56
f 103/76/66 105/77/66 104/78/66
f 103/76/66 106/79/66 105/77/66
f 107/80/10 109/81/67 108/82/68
f 107/80/10 110/83/10 109/81/67
f 108/82/68 112/81/69 111/82/70
f 108/82/68 109/81/67 112/81/69
f 111/82/70 114/83/7 113/80/7
f 111/82/70 112/81/69 114/83/7
f 90/64/54 102/75/65 89/62/52
f 90/64/54 115/84/71 102/75/65
f 116/85/72 115/84/71 90/64/54
f 91/63/53 116/85/72 90/64/54
f 91/63/53 117/86/73 116/85/72
f 117/86/73 118/87/74 116/85/72
f 117/86/73 119/88/75 118/87/74
f 120/89/76 119/88/75 117/86/73
f 120/89/76 121/90/77 119/88/75
f 122/91/78 121/90/77 120/89/76
f 100/73/63 122/91/78 120/89/76
f 100/73/63 123/92/79 122/91/78
f 101/74/64 123/92/79 100/73/63
f 101/74/64 124/93/80 123/92/79
f 98/71/61 124/93/80 101/74/64
f 101/74/64 99/72/62 98/71/61
f 125/94/81 127/95/81 126/96/81
f 125/94/81 128/97/81 127/95/81
f 122/91/78 130/98/82 129/99/83
f 122/91/78 123/92/79 130/98/82
f 124/93/80 130/98/82 123/92/79
f 116/85/72 131/100/84 115/84/71
f 116/85/72 118/87/74 131/100/84
f 132/101/85 131/100/84 118/87/74
f 133/102/10 135/103/86 134/104/10
f 133/102/10 136/105/87 135/103/86
f 137/104/7 139/105/88 138/102/7
f 137/104/7 140/103/89 139/105/88
f 135/103/86 139/105/88 140/103/89
f 135/103/86 136/105/87 139/105/88
f 141/106/7 142/104/7 143/107/7
f 141/106/7 143/107/7 144/108/7
f 145/104/10 146/106/10 147/108/10
f 145/104/10 147/108/10 148/107/10
f 149/109/10 151/110/90 150/111/10
f 152/112/91 153/113/92 151/110/93
f 152/112/91 154/114/94 153/113/92
f 155/115/95 151/110/96 156/109/97
f 152/112/98 158/115/99 157/116/100
f 152/112/98 155/115/101 158/115/99
f 159/110/102 158/115/99 155/115/101
f 159/110/102 160/117/103 158/115/99
f 161/113/104 160/117/103 159/110/102
f 161/113/104 162/114/105 160/117/103
f 154/114/106 160/117/103 162/114/105
f 163/114/107 165/112/107 164/117/107
f 151/110/93 161/113/104 159/110/102
f 151/110/93 153/113/92 161/113/104
f 166/118/1 168/119/1 167/120/1
f 166/118/1 169/121/1 168/119/1
f 170/122/108 172/123/109 171/124/7
f 170/122/108 173/125/110 172/123/109
f 174/126/111 173/125/110 170/122/108
f 174/126/111 175/127/112 173/125/110
f 176/128/113 175/127/112 174/126/111
f 176/128/113 177/129/7 175/127/112
f 178/130/7 175/127/112 177/129/7
f 179/125/114 181/124/10 180/123/10
f 179/125/114 182/122/115 181/124/10
f 183/126/116 182/122/115 179/125/114
f 183/126/116 184/131/117 182/122/115
f 179/125/114 185/128/118 183/126/116
f 179/125/114 186/127/119 185/128/118
f 187/130/10 185/128/118 186/127/119
f 187/130/10 188/129/120 185/128/118
f 189/132/121 191/133/122 190/134/122
f 189/132/121 192/135/123 191/133/122
f 193/136/124 192/135/123 189/132/121
f 193/136/124 194/137/124 192/135/123
f 195/138/125 194/137/124 193/136/124
f 196/139/125 195/138/125 193/136/124
f 196/139/125 197/140/126 195/138/125
f 198/141/126 197/140/126 196/139/125
f 198/141/126 199/142/127 197/140/126
f 200/143/127 199/142/127 198/141/126
f 201/144/7 203/145/7 202/146/7
f 204/147/1 206/148/1 205/149/1
f 204/147/1 207/150/1 206/148/1
f 208/151/10 210/152/10 209/153/10
f 211/154/128 213/155/10 212/156/10
f 211/154/128 214/157/10 213/155/10
f 215/158/10 214/157/10 211/154/128
f 173/125/110 186/127/119 179/125/114
f 173/125/110 175/127/112 186/127/119
f 216/159/1 186/127/119 175/127/112
f 216/159/1 217/159/1 186/127/119
f 218/160/45 220/161/45 219/162/45
f 218/160/45 221/163/45 220/161/45
f 222/154/129 184/131/130 223/131/131
f 222/154/129 211/154/129 184/131/130
f 224/164/132 226/165/133 225/27/134
f 224/164/132 227/166/135 226/165/133
f 228/167/136 227/166/135 224/164/132
f 229/168/137 226/165/133 227/166/135
f 230/169/138 228/167/136 224/164/132
f 230/169/138 231/170/139 228/167/136
f 232/171/140 231/170/139 230/169/138
f 230/169/138 233/172/141 232/171/140
f 172/123/109 235/173/142 234/174/142
f 172/123/109 173/125/110 235/173/142
f 236/175/143 223/131/144 237/176/145
f 236/175/143 174/126/111 223/131/144
f 176/128/113 174/126/111 236/175/143
f 236/175/143 238/177/146 176/128/113
f 239/178/45 241/179/45 240/180/45
f 239/178/45 242/181/45 241/179/45
f 243/182/147 245/183/147 244/184/147
f 243/182/147 246/185/147 245/183/147
f 247/177/50 188/129/120 248/186/50
f 247/177/50 185/128/118 188/129/120
f 249/187/10 215/158/10 211/154/128
f 249/187/10 250/188/148 215/158/10
f 251/189/149 250/188/148 249/187/10
f 251/189/149 252/190/150 250/188/148
f 253/191/151 252/190/150 251/189/149
f 251/189/149 254/192/152 253/191/151
f 251/189/149 255/193/10 254/192/152
f 249/187/10 255/193/10 251/189/149
f 249/187/10 256/194/10 255/193/10
f 257/195/10 256/194/10 249/187/10
f 249/187/10 211/154/128 257/195/10
f 258/196/153 250/188/148 252/190/150
f 258/196/153 215/158/10 250/188/148
f 259/197/154 184/131/117 213/155/10
f 259/197/154 182/122/115 184/131/117
f 260/198/155 182/122/115 259/197/154
f 260/198/155 261/199/156 182/122/115
f 262/199/157 261/199/156 260/198/155
f 263/200/158 259/197/154 213/155/10
f 263/200/158 260/198/155 259/197/154
f 264/201/159 260/198/155 263/200/158
f 264/201/159 265/201/160 260/198/155
f 266/198/161 262/199/157 260/198/155
f 266/198/161 170/122/108 262/199/157
f 267/197/162 170/122/108 266/198/161
f 267/197/162 174/126/111 170/122/108
f 223/131/144 174/126/111 267/197/162
f 267/197/162 268/155/7 223/131/144
f 267/197/162 269/200/163 268/155/7
f 265/201/160 269/200/163 267/197/162
f 266/198/161 265/201/160 267/197/162
f 266/198/161 260/198/155 265/201/160
f 270/157/7 271/156/7 268/155/7
f 270/157/7 222/154/164 271/156/7
f 272/158/7 222/154/164 270/157/7
f 272/158/7 273/187/7 222/154/164
f 274/188/165 273/187/7 272/158/7
f 274/188/165 275/189/166 273/187/7
f 276/190/167 275/189/166 274/188/165
f 276/190/167 277/191/168 275/189/166
f 278/192/169 275/189/166 277/191/168
f 278/192/169 279/193/7 275/189/166
f 279/193/7 273/187/7 275/189/166
f 279/193/7 280/194/7 273/187/7
f 281/195/7 273/187/7 280/194/7
f 281/195/7 222/154/164 273/187/7
f 274/188/165 282/196/170 276/190/167
f 274/188/165 272/158/7 282/196/170
f 283/202/171 285/203/172 284/204/173
f 283/202/171 286/205/174 285/203/172
f 287/206/175 286/205/174 283/202/171
f 287/206/175 288/207/176 286/205/174
f 285/203/172 286/205/174 288/207/176
f 283/202/171 284/204/173 287/206/175
f 289/208/127 291/209/127 290/210/127
f 289/208/127 292/211/127 291/209/127
f 293/212/127 292/211/127 289/208/127
f 289/208/127 294/213/127 293/212/127
f 289/208/127 295/214/127 294/213/127
f 296/215/127 295/214/127 289/208/127
f 289/208/127 297/216/127 296/215/127
f 289/208/127 298/217/127 297/216/127
f 290/210/127 298/217/127 289/208/127
f 299/218/177 301/219/178 300/220/179
f 300/220/179 302/221/180 299/218/177
f 301/219/178 303/222/181 300/220/179
f 301/219/178 304/223/182 303/222/181
f 304/223/182 305/224/183 303/222/181
f 304/223/182 306/219/184 305/224/183
f 306/219/184 307/222/185 305/224/183
f 306/219/184 308/218/186 307/222/185
f 308/218/186 309/220/187 307/222/185
f 308/218/186 310/225/188 309/220/187
f 310/225/188 311/221/189 309/220/187
f 310/225/188 312/226/190 311/221/189
f 312/226/190 313/227/191 311/221/189
f 312/226/190 314/228/192 313/227/191
f 314/228/192 315/229/193 313/227/191
f 314/228/192 316/230/194 315/229/193
f 316/230/194 317/231/1 315/229/193
f 316/230/194 318/228/195 317/231/1
f 318/228/195 319/229/196 317/231/1
f 318/228/195 320/226/197 319/229/196
f 320/226/197 321/227/198 319/229/196
f 320/226/197 322/225/199 321/227/198
f 322/225/199 302/221/180 321/227/198
f 322/225/199 299/218/177 302/221/180
f 323/232/45 325/233/45 324/234/45
f 323/232/45 326/235/45 325/233/45
f 327/236/120 329/237/200 328/238/201
f 327/236/120 330/239/10 329/237/200
f 331/233/45 333/232/45 332/234/45
f 331/233/45 334/235/45 333/232/45
f 335/238/202 337/240/203 336/236/204
f 335/238/202 338/241/205 337/240/203
f 339/237/206 338/241/205 335/238/202
f 339/237/206 340/242/207 338/241/205
f 341/241/208 329/237/200 342/242/209
f 341/241/208 328/238/201 329/237/200
f 343/240/210 328/238/201 341/241/208
f 343/240/210 327/236/120 328/238/201
f 344/243/7 338/241/205 340/242/207
f 344/243/7 337/240/203 338/241/205
f 336/236/204 339/237/206 335/238/202
f 336/236/204 345/239/211 339/237/206
f 346/243/212 341/241/208 342/242/209
f 346/243/212 343/240/210 341/241/208
f 347/244/213 349/245/214 348/246/215
f 347/244/213 350/247/216 349/245/214
f 348/246/215 351/248/217 347/244/213
f 348/246/215 352/249/218 351/248/217
f 353/250/219 349/245/214 350/247/216
f 353/250/219 354/251/220 349/245/214
f 348/246/215 354/251/220 352/249/218
f 348/246/215 349/245/214 354/251/220
f 351/248/217 350/247/216 347/244/213
f 351/248/217 353/250/219 350/247/216
f 355/252/45 357/253/45 356/254/45
f 355/252/45 358/255/45 357/253/45
f 359/238/201 361/240/203 360/236/120
f 359/238/201 362/241/205 361/240/203
f 363/242/221 362/241/205 359/238/201
f 359/238/201 364/237/200 363/242/221
f 362/241/205 365/243/7 361/240/203
f 362/241/205 363/242/221 365/243/7
f 364/237/200 360/236/120 366/239/10
f 364/237/200 359/238/201 360/236/120
f 367/246/222 369/247/223 368/244/224
f 367/246/222 370/245/225 369/247/223
f 371/250/226 368/244/224 369/247/223
f 371/250/226 372/248/227 368/244/224
f 368/244/224 373/249/228 367/246/222
f 368/244/224 372/248/227 373/249/228
f 367/246/222 374/251/229 370/245/225
f 367/246/222 373/249/228 374/251/229
f 369/247/223 374/251/229 371/250/226
f 369/247/223 370/245/225 374/251/229
f 375/256/1 377/257/230 376/258/1
f 375/256/1 378/259/230 377/257/230
f 379/260/1 378/259/230 375/256/1
f 379/260/1 380/261/1 378/259/230
f 381/262/127 377/257/230 378/259/230
f 381/262/127 382/263/127 377/257/230
f 383/264/127 382/263/127 381/262/127
f 383/264/127 384/265/127 382/263/127
f 385/266/127 384/265/127 383/264/127
f 385/266/127 386/267/127 384/265/127
f 387/268/231 389/269/232 388/270/233
f 387/268/231 390/271/234 389/269/232
f 391/272/7 389/269/232 392/273/7
f 391/272/7 388/270/233 389/269/232
f 393/274/7 388/270/233 391/272/7
f 393/274/7 394/275/7 388/270/233
f 395/276/7 394/275/7 393/274/7
f 395/276/7 396/277/7 394/275/7
f 397/278/7 396/277/7 395/276/7
f 391/272/7 268/155/7 393/274/7
f 398/279/235 400/280/235 399/281/235
f 398/279/235 401/282/235 400/280/235
f 402/282/236 404/281/236 403/280/236
f 402/282/236 405/279/236 404/281/236
f 406/272/10 407/274/10 213/155/10
f 406/272/10 408/270/237 407/274/10
f 409/273/10 408/270/237 406/272/10
f 410/271/238 412/283/239 411/284/240
f 410/271/238 413/285/239 412/283/239
f 414/286/241 416/287/242 415/288/243
f 414/286/241 417/289/244 416/287/242
f 408/270/237 419/290/245 418/291/246
f 408/270/237 420/269/247 419/290/245
f 420/269/247 410/271/248 419/290/245
f 408/270/237 409/273/10 420/269/247
f 421/292/10 407/274/10 408/270/237
f 421/292/10 422/276/10 407/274/10
f 423/278/10 422/276/10 421/292/10
f 421/292/10 424/293/249 423/278/10
f 425/294/250 427/295/251 426/296/252
f 428/297/253 429/298/254 427/295/255
f 428/297/253 424/293/256 429/298/254
f 430/299/257 429/298/254 424/293/256
f 431/300/258 433/301/258 432/302/259
f 431/300/258 434/303/258 433/301/258
f 435/304/260 434/303/258 431/300/258
f 436/305/261 408/270/237 418/291/246
f 390/271/262 438/306/263 437/285/7
f 390/271/262 439/302/264 438/306/263
f 440/286/265 442/287/266 441/289/265
f 440/286/265 443/307/267 442/287/266
f 444/308/268 443/307/267 440/286/265
f 444/308/268 445/309/269 443/307/267
f 446/298/270 447/299/271 445/309/272
f 448/310/50 450/311/50 449/312/50
f 448/310/50 451/313/50 450/311/50
f 451/313/50 452/314/50 450/311/50
f 451/313/50 453/315/50 452/314/50
f 388/270/233 454/316/273 387/268/231
f 455/296/274 456/294/274 457/295/275
f 446/298/276 458/297/277 457/295/278
f 446/298/276 459/317/277 458/297/277
f 460/318/279 439/302/264 461/319/279
f 460/318/279 438/306/263 439/302/264
f 462/320/45 464/321/280 463/322/51
f 462/320/45 465/323/45 464/321/280
f 466/324/45 465/323/45 462/320/45
f 466/324/45 416/287/281 465/323/45
f 467/322/45 416/287/281 466/324/45
f 467/322/45 468/325/45 416/287/281
f 469/326/45 468/325/45 467/322/45
f 467/322/45 470/327/45 469/326/45
f 471/328/282 435/304/283 472/328/127
f 471/328/282 473/304/127 435/304/283
f 474/329/284 473/304/127 471/328/282
f 475/330/50 442/287/285 476/331/50
f 475/330/50 477/332/50 442/287/285
f 478/284/50 479/302/50 411/284/286
f 478/284/50 432/302/287 479/302/50
f 418/291/288 432/302/289 480/316/50
f 464/321/280 471/328/282 463/322/51
f 464/321/280 474/329/284 471/328/282
f 444/308/290 446/298/291 481/333/292
f 444/308/290 482/334/293 446/298/291
f 483/335/7 485/336/7 484/337/7
f 483/335/7 486/338/7 485/336/7
f 487/339/7 486/338/7 483/335/7
f 488/340/7 485/336/7 486/338/7
f 488/340/7 489/341/7 485/336/7
f 490/342/7 489/341/7 488/340/7
f 490/342/7 491/343/7 489/341/7
f 492/335/10 494/338/10 493/339/10
f 492/335/10 495/337/10 494/338/10
f 496/336/10 494/338/10 495/337/10
f 496/336/10 497/340/10 494/338/10
f 498/341/10 497/340/10 496/336/10
f 498/341/10 499/342/10 497/340/10
f 500/343/10 499/342/10 498/341/10
f 501/344/294 503/345/295 502/346/295
f 501/344/294 504/347/296 503/345/295
f 505/348/297 504/347/296 501/344/294
f 505/348/297 506/349/298 504/347/296
f 507/350/299 509/351/300 508/352/301
f 507/350/299 510/353/302 509/351/300
f 511/354/303 510/353/302 507/350/299
f 511/354/303 512/355/303 510/353/302
f 513/356/304 512/355/303 511/354/303
f 511/354/303 514/357/304 513/356/304
f 510/353/302 515/358/305 509/351/300
f 510/353/302 516/359/306 515/358/305
f 509/351/300 501/344/294 508/352/301
f 509/351/300 505/348/297 501/344/294
f 515/358/305 505/348/297 509/351/300
f 515/358/305 506/349/298 505/348/297
f 516/359/306 506/349/298 515/358/305
f 516/359/306 504/347/296 506/349/298
f 517/360/307 519/361/308 518/362/308
f 517/360/307 520/352/307 519/361/308
f 521/363/309 520/352/307 517/360/307
f 521/363/309 522/364/309 520/352/307
f 523/365/310 522/364/309 521/363/309
f 523/365/310 524/366/310 522/364/309
f 528/37/311 530/39/312 529/38/313
f 528/37/311 531/40/314 530/39/312
f 531/40/314 534/41/315 530/39/312
f 531/40/314 535/42/316 534/41/315
f 535/42/316 536/43/317 534/41/315
f 535/42/316 525/44/318 536/43/317
f 525/44/318 526/45/319 536/43/317
f 525/44/318 527/46/320 526/45/319
f 527/46/320 532/47/321 526/45/319
f 527/46/320 533/48/322 532/47/321
f 66/45/38 532/47/321 68/47/40
f 61/40/33 528/37/311 58/37/30
f 64/43/36 526/45/319 66/45/38
f 67/46/39 525/44/318 65/44/37
f 65/44/37 535/42/316 63/42/35
f 58/37/30 529/38/313 59/38/31
f 62/41/34 536/43/317 64/43/36
f 68/47/40 533/48/322 69/48/41
f 60/39/32 534/41/315 62/41/34
f 59/38/31 530/39/312 60/39/32
f 63/42/35 531/40/314 61/40/33
f 69/48/41 527/46/320 67/46/39
f 66/45/38 526/45/319 532/47/321
f 61/40/33 531/40/314 528/37/311
f 64/43/36 536/43/317 526/45/319
f 67/46/39 527/46/320 525/44/318
f 65/44/37 525/44/318 535/42/316
f 58/37/30 528/37/311 529/38/313
f 62/41/34 534/41/315 536/43/317
f 68/47/40 532/47/321 533/48/322
f 60/39/32 530/39/312 534/41/315
f 59/38/31 529/38/313 530/39/312
f 63/42/35 535/42/316 531/40/314
f 69/48/41 533/48/322 527/46/320
