# Blender 4.1.0
# www.blender.org
mtllib T_TankTwo.mtl
o Tank_Two
v 38.219902 8.703730 -54.617706
v 35.589836 8.703730 -51.226601
v 42.657291 0.550370 -51.176170
v 38.219902 3.366198 -54.617706
v 72.731247 3.366198 -27.851484
v 67.212753 0.550370 -32.131508
v 35.589836 3.366198 -51.226601
v 40.027225 0.550370 -47.785065
v 64.582687 0.550370 -28.740398
v 70.101181 3.366198 -24.460377
v 71.349487 6.904406 -28.923145
v 72.731247 6.205020 -27.851484
v 70.101181 6.205020 -24.460377
v 68.719421 6.904406 -25.532038
v 72.731247 4.544182 -27.851484
v 70.101181 4.544181 -24.460377
v 68.103561 2.909867 -27.022188
v 40.557655 2.909867 -48.386169
v 34.532158 8.703730 -39.449936
v 34.725288 12.115974 -38.484676
v 46.769127 8.703730 -42.556198
v 61.057690 8.703730 -31.474308
v 61.341743 10.349720 -36.549736
v 81.742928 10.273667 -40.465534
v 61.341743 9.622022 -36.549736
v 81.742928 9.698090 -40.465534
v 56.967976 8.703730 -43.938904
v 60.016438 8.703730 -42.964012
v 62.454056 8.703730 -40.771400
v 54.836876 12.115974 -42.508614
v 57.117130 11.279481 -43.193424
v 59.192825 12.115974 -40.006294
v 62.454056 11.183794 -40.771400
v 56.944389 12.115974 -42.028744
v 60.016438 11.223210 -42.964012
v 35.589836 5.669864 -51.226601
v 40.067329 2.909867 -47.753960
v 38.219902 4.592381 -54.617706
v 35.589836 4.592381 -51.226601
v 61.647186 10.349720 -35.023155
v 61.647186 9.622022 -35.023155
v 65.111610 8.703730 -28.330177
v 67.741676 8.703730 -31.721285
v 54.935024 0.550370 -41.653839
v 52.304958 0.550370 -38.262730
v 70.681702 9.656845 -38.342445
v 70.681702 10.314904 -38.342445
v 70.507904 9.560174 -38.518593
v 70.507904 10.411579 -38.518593
v 66.908485 9.642777 -37.618217
v 66.908485 10.328970 -37.618217
v 67.126877 9.543897 -37.877655
v 67.126877 10.427851 -37.877655
v 81.726425 10.243177 -40.395702
v 81.726425 9.728583 -40.395702
v 83.178192 10.243180 -40.686180
v 83.178192 9.728586 -40.686180
v 25.297384 8.703730 -37.955902
v 27.927450 8.703730 -41.347012
v 29.734772 0.550370 -34.514366
v 25.297384 3.366198 -37.955902
v 59.808731 3.366198 -11.189680
v 54.290234 0.550370 -15.469702
v 27.927450 3.366198 -41.347012
v 32.364838 0.550370 -37.905472
v 56.920300 0.550370 -18.860809
v 62.438797 3.366198 -14.580788
v 58.426971 6.904406 -12.261341
v 59.808731 6.205020 -11.189680
v 62.438797 6.205020 -14.580788
v 61.057037 6.904406 -15.652449
v 59.808731 4.544182 -11.189680
v 62.438797 4.544181 -14.580788
v 59.460510 2.909867 -15.878178
v 31.914614 2.909867 -37.242157
v 38.017311 8.703730 -22.031153
v 37.824184 12.115974 -22.996412
v 39.106735 8.703730 -32.676609
v 53.395302 8.703730 -21.594717
v 61.647186 10.349720 -35.023155
v 81.984528 10.273667 -39.258080
v 61.647186 9.622022 -35.023155
v 81.984528 9.698090 -39.258080
v 60.453133 8.703730 -26.520119
v 62.891815 8.703730 -28.592880
v 64.298157 8.703730 -31.554594
v 57.935776 12.115974 -27.020348
v 60.303974 11.279481 -27.265600
v 60.993607 12.115974 -31.006016
v 64.298157 11.183794 -31.554594
v 59.696411 12.115974 -28.274157
v 62.891815 11.223210 -28.592880
v 27.927450 5.669864 -41.347012
v 32.404942 2.909867 -37.874371
v 25.297384 4.592381 -37.955902
v 27.927450 4.592381 -41.347012
v 66.269989 6.205020 -19.520582
v 64.888229 6.904406 -20.592243
v 66.269989 4.544181 -19.520582
v 63.782036 2.909867 -21.450184
v 36.236137 2.909867 -42.814163
v 31.758644 8.703730 -46.286804
v 64.888229 6.904406 -20.592243
v 63.376106 8.703730 -36.162998
v 36.274734 8.703730 -30.740545
v 36.274734 12.115974 -30.740545
v 42.937935 8.703730 -37.616398
v 57.226486 8.703730 -26.534519
v 61.494469 9.258169 -35.786446
v 81.863724 9.410303 -39.861809
v 61.494469 10.713573 -35.786446
v 81.863724 10.561461 -39.861805
v 61.341743 10.349720 -36.549736
v 61.341743 9.622022 -36.549736
v 63.376106 11.183798 -36.162998
v 60.093216 12.115974 -35.506153
v 31.758644 5.669864 -46.286804
v 36.236137 2.909867 -42.814163
v 57.449223 8.703730 -18.450586
v 61.280418 8.703730 -23.390381
v 54.819157 8.703730 -15.059481
v 42.012505 0.550370 -24.992033
v 44.642570 0.550370 -28.383141
v 70.819817 9.327818 -37.652206
v 70.819809 10.643934 -37.652203
v 70.957916 9.656845 -36.961960
v 70.957916 10.314904 -36.961960
v 70.686592 10.837279 -37.625549
v 70.865280 9.560174 -36.732506
v 70.865280 10.411579 -36.732506
v 70.686592 9.134476 -37.625549
v 67.052490 10.672066 -36.898464
v 67.196503 9.642777 -36.178711
v 67.196503 10.328970 -36.178711
v 67.052498 9.299682 -36.898464
v 67.312393 9.101916 -36.950462
v 67.312393 10.869835 -36.950462
v 67.497910 9.543897 -36.023273
v 67.497910 10.427851 -36.023273
v 81.942413 10.243177 -39.316181
v 81.834419 10.500477 -39.855946
v 81.834427 9.471287 -39.855942
v 81.942413 9.728583 -39.316181
v 83.394196 10.243180 -39.606632
v 83.286194 10.500481 -40.146400
v 83.286194 9.471290 -40.146400
v 83.394196 9.728586 -39.606632
vn -0.7902 -0.0000 -0.6129
vn 0.6129 -0.0000 -0.7902
vn -0.6129 -0.0000 0.7902
vn 0.7902 -0.0000 0.6129
vn 0.1505 -0.9817 0.1167
vn 0.2955 -0.9275 0.2292
vn -0.3542 -0.8939 -0.2747
vn -0.0000 -1.0000 -0.0000
vn 0.2916 0.9294 0.2261
vn 0.2934 0.9285 0.2276
vn 0.1475 0.9824 0.1144
vn 0.3640 -0.8876 0.2823
vn 0.2897 0.9304 0.2247
vn 0.8682 -0.0000 -0.4961
vn 0.9806 -0.0000 -0.1962
vn 0.8689 -0.0000 -0.4950
vn -0.9806 -0.0000 0.1962
vn 0.6688 -0.0000 -0.7435
vn -0.0000 1.0000 -0.0000
vn 0.9020 -0.4310 0.0250
vn -0.1885 -0.0000 -0.9821
vn -0.0766 -0.9059 -0.4165
vn 0.1978 0.1362 -0.9707
vn 0.1979 0.1363 -0.9707
vn -0.1881 0.2774 -0.9421
vn 0.1421 0.9855 -0.0930
vn 0.1933 0.9369 -0.2914
vn 0.0760 0.9556 -0.2848
vn 0.0902 0.8152 -0.5721
vn 0.2630 0.9634 -0.0526
vn 0.2444 0.9621 -0.1214
vn 0.1327 0.9908 -0.0266
vn -0.3460 -0.8990 -0.2684
vn -0.0766 0.9059 -0.4165
vn 0.7239 -0.5552 -0.4095
vn 0.8023 -0.5749 -0.1605
vn 0.7119 -0.0000 -0.7023
vn 0.7118 -0.0000 -0.7023
vn -0.1863 -0.0000 -0.9825
vn -0.0747 -0.9059 -0.4169
vn 0.7239 0.5552 -0.4095
vn 0.8023 0.5749 -0.1605
vn -0.6180 0.7505 -0.2341
vn -0.0747 0.9059 -0.4169
vn -0.6180 -0.7505 -0.2341
vn -0.7650 -0.0000 -0.6440
vn -0.0831 -0.9059 -0.4152
vn 0.9020 0.4310 0.0250
vn 0.9732 -0.0000 0.2300
vn -0.1962 -0.0000 -0.9806
vn -0.0831 0.9059 -0.4152
vn 0.9923 -0.0000 0.1239
vn 0.9925 -0.0000 0.1226
vn 0.9033 -0.0000 0.4289
vn 0.8229 -0.4311 -0.3701
vn 0.8229 -0.4310 -0.3701
vn 0.2039 -0.0000 0.9790
vn 0.0896 -0.9059 0.4139
vn 0.5561 0.1362 0.8199
vn 0.1889 0.2774 0.9420
vn 0.2905 0.9369 0.1946
vn 0.1670 0.9855 0.0312
vn 0.1797 0.9556 0.2336
vn 0.3034 0.8152 0.4934
vn 0.3034 0.8152 0.4933
vn 0.0896 0.9059 0.4139
vn 0.8257 -0.5552 0.0995
vn 0.9273 -0.0000 0.3744
vn 0.2061 -0.0000 0.9785
vn 0.0915 -0.9059 0.4135
vn 0.8257 0.5552 0.0995
vn -0.4803 0.7505 0.4539
vn 0.0915 0.9059 0.4135
vn -0.4803 -0.7505 0.4539
vn -0.4584 -0.0000 0.8888
vn 0.0831 -0.9059 0.4152
vn 0.8229 0.4310 -0.3701
vn 0.8229 0.4311 -0.3701
vn 0.1963 -0.0000 0.9806
vn 0.1964 -0.0000 0.9805
vn 0.8097 -0.0000 -0.5868
vn 0.1962 -0.0000 0.9806
vn 0.0831 0.9059 0.4152
vn -0.1880 0.2775 -0.9422
vn -0.1882 0.2774 -0.9421
vn 0.8230 -0.4310 -0.3701
vn 0.5561 0.1363 0.8199
vn 0.2722 0.9621 0.0180
vn 0.1967 -0.0000 0.9805
vn 0.8098 -0.0000 -0.5868
vt 0.578125 0.777344
vt 0.496094 0.714844
vt 0.578125 0.714844
vt 0.417969 0.160156
vt 0.347656 0.128906
vt 0.429688 -0.000000
vt 0.257812 0.064303
vt 0.257812 0.086301
vt 0.285026 0.140625
vt 0.500000 0.406250
vt 0.605469 0.371417
vt 0.500000 0.371094
vt 0.371094 1.000000
vt 0.433594 0.957031
vt 0.371094 0.957031
vt 0.433594 1.000000
vt 0.490234 0.957031
vt 0.367188 1.000000
vt 0.490234 1.000000
vt 0.843750 0.441406
vt 0.933594 0.410156
vt 0.933594 0.441406
vt 0.015625 0.746094
vt 0.074219 0.679688
vt 0.074219 0.746094
vt 0.414062 1.000000
vt 0.394531 0.957031
vt 0.394531 1.000000
vt 0.832031 0.410156
vt 0.769531 0.378906
vt 0.832031 0.378906
vt 0.132812 0.714844
vt 0.070312 0.691406
vt 0.132812 0.691406
vt 0.851562 0.382812
vt 0.710938 0.328125
vt 0.851562 0.328125
vt 0.382812 0.949219
vt 0.957031 0.871094
vt 0.382812 0.871094
vt 0.078125 0.718750
vt 0.132812 0.687500
vt 0.132812 0.718750
vt 0.089844 0.617188
vt 0.144531 0.628906
vt 0.089844 0.628906
vt 0.718750 0.785156
vt 0.546875 0.855469
vt 0.531250 0.785156
vt 0.480469 0.207031
vt 0.503906 0.175781
vt 0.503906 0.207031
vt 0.074219 0.410156
vt 0.136719 0.203125
vt 0.136719 0.410156
vt 0.207031 0.593750
vt 0.160156 0.480469
vt 0.207031 0.480162
vt 0.074219 0.191406
vt 0.078125 0.187500
vt 0.074219 0.187500
vt 0.285680 0.179688
vt 0.285680 0.187500
vt 0.078125 0.179688
vt 0.285680 0.175781
vt 0.738281 0.011719
vt 0.531250 0.371094
vt 0.738281 0.488281
vt 0.531250 0.066406
vt 0.671875 0.066406
vt 0.558594 0.136719
vt 0.531250 0.207031
vt 0.549819 0.216588
vt 0.533050 0.206866
vt 0.533050 0.175781
vt 0.089844 0.605469
vt 0.054688 0.593750
vt 0.058594 0.582031
vt 0.039062 0.566406
vt 0.039062 0.539062
vt 0.148438 0.617188
vt 0.148438 0.605469
vt 0.148438 0.312500
vt 0.710938 0.714844
vt 0.710938 0.777344
vt 0.710938 0.640625
vt 0.578125 0.675781
vt 0.496094 0.675781
vt 0.356482 0.187500
vt 0.460938 0.191406
vt 0.356482 0.191406
vt 0.074219 0.408753
vt 0.074219 0.628906
vt 0.015625 0.703125
vt 0.078125 0.687500
vt 0.382812 1.000000
vt 0.503906 0.957031
vt 0.382812 0.957031
vt 0.285680 0.191406
vt 0.078125 0.191406
vt 0.288184 0.175781
vt 0.288184 0.179688
vt 0.288184 0.187500
vt 0.351598 0.187500
vt 0.351598 0.179688
vt 0.351598 0.175781
vt 0.288184 0.191406
vt 0.356482 0.179688
vt 0.460938 0.175781
vt 0.460938 0.179688
vt 0.460938 0.187500
vt 0.351597 0.191406
vt 0.356482 0.175781
vt 0.074219 0.175781
vt 0.054688 0.179688
vt 0.054688 0.175781
vt 0.078125 0.175781
vt 0.074219 0.179688
vt 0.050781 0.917969
vt 0.031250 0.890625
vt 0.050781 0.882812
vt 0.054688 0.187500
vt 1.000000 0.160156
vt 0.671875 -0.000000
vt 0.257812 0.113996
vt 0.710938 0.382812
vt 0.718750 0.855469
vt 0.480469 0.175781
vt 0.160156 0.593750
vt 0.531250 0.105469
vt 0.542969 0.125000
vt 0.242188 0.593750
vt 0.207031 0.605469
vt 0.238281 0.582031
vt 0.257812 0.566406
vt 0.257812 0.539062
vt 0.253906 0.312500
vt 0.015625 0.203125
vt 0.000000 0.000000
vt 0.054688 0.191406
vt 0.496094 0.777344
vt 0.914062 -0.000000
vt 1.000000 0.058594
vt 1.000000 0.082031
vt 0.316406 0.058594
vt 0.316406 0.078125
vt 0.316406 0.113281
vt 0.937500 0.085939
vt 0.937500 0.062500
vt 0.851562 0.011719
vt 0.613281 0.011719
vt 0.375000 0.011719
vt 0.435921 0.140625
vt 0.356080 0.140625
vt 0.937500 0.140625
vt 0.717328 0.140625
vt 0.605469 0.406250
vt 0.367188 0.957031
vt 0.843750 0.410156
vt 0.015625 0.679688
vt 0.414062 0.957031
vt 0.769531 0.410156
vt 0.070312 0.714844
vt 0.957031 0.949219
vt 0.144531 0.617188
vt 0.074219 0.203125
vt 0.531250 0.128906
vt 0.671875 0.136719
vt 0.531250 0.175781
vt 0.804688 0.175781
vt 0.804688 0.222656
vt 0.042969 0.312500
vt 0.578125 0.640625
vt 0.074219 0.703125
vt 0.503906 1.000000
vt 0.031250 0.910156
vt 0.207031 0.617188
s 1
usemtl Tank2
f 2/1/1 38/2/1 39/3/1
f 43/4/2 11/5/2 6/6/2
f 10/7/3 16/8/3 14/9/3
f 12/10/4 16/11/4 15/12/4
f 6/13/5 10/14/6 9/15/5
f 8/14/7 4/13/7 3/16/7
f 45/17/8 3/18/8 44/19/8
f 14/20/9 12/21/10 11/22/9
f 11/23/9 42/24/11 14/25/9
f 15/26/4 10/27/4 5/28/4
f 13/29/4 99/30/4 16/31/4
f 14/32/10 97/33/10 13/34/10
f 16/35/12 100/36/12 17/37/12
f 100/38/8 18/39/8 17/40/8
f 14/41/13 120/42/11 103/43/13
f 33/44/14 104/45/15 29/46/16
f 105/47/17 20/48/17 19/49/17
f 33/50/14 28/51/18 35/52/18
f 21/53/19 102/54/19 107/55/19
f 108/56/19 21/57/19 107/58/19
f 112/59/20 54/60/20 24/61/20
f 24/60/21 46/62/21 47/63/21
f 26/64/22 124/65/22 46/62/22
f 111/66/17 25/67/17 109/68/17
f 104/69/8 105/70/8 27/71/8
f 28/51/23 31/72/24 35/52/23
f 30/73/25 31/74/25 27/75/25
f 32/76/26 35/77/27 34/78/28
f 34/78/28 31/79/29 30/80/29
f 32/76/26 115/81/30 33/44/31
f 116/82/32 30/80/19 106/83/19
f 2/1/1 117/84/1 102/85/1
f 36/3/33 118/86/33 117/84/33
f 7/87/1 38/2/1 4/88/1
f 51/89/34 111/90/34 132/91/34
f 41/67/17 111/66/17 109/68/17
f 21/92/19 22/93/19 43/94/11
f 120/43/11 22/95/19 108/42/19
f 9/96/5 44/97/8 6/98/5
f 24/60/34 125/99/34 112/100/34
f 46/62/35 131/101/36 48/102/35
f 47/63/37 48/102/38 49/103/37
f 53/104/39 48/102/39 52/105/39
f 48/102/40 136/106/40 52/105/40
f 47/63/41 128/107/42 125/99/42
f 50/108/22 109/109/22 25/110/22
f 51/89/21 25/110/21 23/111/21
f 137/112/43 51/89/43 132/91/43
f 49/103/44 137/112/44 128/107/44
f 50/108/45 136/106/45 135/113/45
f 53/104/46 50/108/46 51/89/46
f 142/114/47 57/115/47 146/116/47
f 110/114/48 55/64/48 142/117/48
f 24/61/49 55/64/49 26/118/49
f 146/119/15 56/120/15 145/121/15
f 54/61/50 57/115/50 55/118/50
f 141/59/51 56/122/51 54/61/51
f 95/2/1 59/1/1 96/3/1
f 121/4/3 58/123/3 122/124/3
f 71/9/2 70/125/2 73/8/2
f 73/11/4 69/10/4 72/12/4
f 67/14/6 63/13/5 66/15/5
f 61/13/7 65/14/7 60/16/7
f 60/18/8 123/17/8 122/19/8
f 69/21/10 71/20/9 68/22/9
f 119/24/11 68/23/9 71/25/9
f 67/27/4 72/26/4 62/28/4
f 99/30/4 70/29/4 73/31/4
f 97/33/10 71/32/10 70/34/10
f 73/35/12 100/36/12 99/126/12
f 75/39/8 100/38/8 74/40/8
f 71/41/13 120/42/11 119/95/11
f 104/45/15 90/44/52 86/46/53
f 105/47/17 77/48/17 106/127/17
f 90/50/52 85/51/54 86/128/53
f 102/54/19 78/53/19 107/55/19
f 108/56/19 78/57/19 79/129/19
f 140/60/55 112/59/56 81/61/55
f 127/63/57 83/64/57 81/60/57
f 124/65/58 83/64/58 126/62/58
f 82/67/17 111/66/17 109/68/17
f 104/69/8 86/130/8 85/131/8
f 88/72/59 85/51/59 92/52/59
f 84/75/60 88/74/60 87/73/60
f 92/132/61 89/133/62 91/134/63
f 88/135/64 91/134/63 87/136/65
f 89/133/62 115/81/30 116/82/32
f 106/83/19 77/137/19 87/136/19
f 117/84/1 59/1/1 102/85/1
f 118/86/33 93/3/33 117/84/33
f 61/88/1 96/3/1 64/87/1
f 111/90/66 134/89/66 132/91/66
f 111/66/17 114/67/17 109/68/17
f 78/92/19 58/138/19 121/94/11
f 120/43/11 79/95/19 119/41/11
f 122/97/8 66/96/5 63/98/5
f 125/99/66 81/60/66 112/100/66
f 131/101/36 126/62/67 129/102/67
f 129/102/68 127/63/68 130/103/68
f 139/104/69 129/102/69 130/103/69
f 136/106/70 129/102/70 138/105/70
f 128/107/42 127/63/71 125/99/42
f 109/109/58 133/108/58 82/110/58
f 80/111/57 133/108/57 134/89/57
f 137/112/72 134/89/72 139/104/72
f 137/112/73 130/103/73 128/107/73
f 133/108/74 136/106/74 138/105/74
f 133/108/75 139/104/75 134/89/75
f 146/116/76 143/118/76 142/114/76
f 110/114/77 143/64/78 83/118/78
f 112/139/79 142/139/80 110/139/80
f 143/64/81 81/61/81 83/118/81
f 144/120/15 146/119/15 145/121/15
f 141/59/50 146/116/50 142/114/50
f 147/115/82 140/61/82 143/118/82
f 140/61/83 145/140/83 141/59/83
f 2/1/1 1/141/1 38/2/1
f 44/124/2 3/142/2 1/123/2
f 3/142/2 4/143/2 38/144/2
f 38/144/2 1/123/2 3/142/2
f 1/123/2 43/4/2 44/124/2
f 5/145/2 6/6/2 11/5/2
f 6/6/2 44/124/2 43/4/2
f 5/145/2 11/5/2 15/146/2
f 11/5/2 12/147/2 15/146/2
f 39/148/3 7/149/3 8/150/3
f 45/151/3 9/152/3 22/153/3
f 9/152/3 10/7/3 14/9/3
f 22/153/3 9/152/3 42/154/3
f 39/148/3 8/150/3 2/155/3
f 8/150/3 45/151/3 21/156/3
f 21/156/3 2/155/3 8/150/3
f 14/9/3 42/154/3 9/152/3
f 22/153/3 21/156/3 45/151/3
f 16/8/3 13/125/3 14/9/3
f 12/10/4 13/157/4 16/11/4
f 6/13/5 5/16/6 10/14/6
f 8/14/7 7/15/7 4/13/7
f 45/17/8 8/158/8 3/18/8
f 14/20/9 13/159/10 12/21/10
f 11/23/9 43/160/11 42/24/11
f 15/26/4 16/161/4 10/27/4
f 13/29/4 97/162/4 99/30/4
f 14/32/10 98/163/10 97/33/10
f 16/35/12 99/126/12 100/36/12
f 100/38/8 101/164/8 18/39/8
f 14/41/13 42/95/11 120/42/11
f 33/44/14 115/165/15 104/45/15
f 105/47/17 106/127/17 20/48/17
f 33/50/14 29/128/16 28/51/18
f 21/53/19 2/166/19 102/54/19
f 108/56/19 22/129/19 21/57/19
f 112/59/20 141/100/20 54/60/20
f 24/60/21 26/64/21 46/62/21
f 26/64/22 110/117/22 124/65/22
f 111/66/17 23/167/17 25/67/17
f 19/168/8 27/71/8 105/70/8
f 27/71/8 28/131/8 104/69/8
f 28/131/8 29/130/8 104/69/8
f 28/51/23 27/169/24 31/72/24
f 27/75/25 19/170/84 30/73/25
f 19/170/84 20/171/85 30/73/25
f 32/76/26 33/44/31 35/77/27
f 34/78/28 35/77/27 31/79/29
f 32/76/26 116/82/32 115/81/30
f 116/82/32 32/76/26 30/80/19
f 32/76/26 34/78/28 30/80/19
f 30/80/19 20/172/19 106/83/19
f 2/1/1 36/3/1 117/84/1
f 36/3/33 37/173/33 118/86/33
f 7/87/1 39/3/1 38/2/1
f 51/89/34 23/111/34 111/90/34
f 41/67/17 40/167/17 111/66/17
f 22/93/19 42/174/11 43/94/11
f 43/94/11 1/138/19 21/92/19
f 1/138/19 2/166/19 21/92/19
f 120/43/11 42/41/11 22/95/19
f 9/96/5 45/175/8 44/97/8
f 24/60/34 47/63/34 125/99/34
f 46/62/35 124/65/36 131/101/36
f 47/63/37 46/62/38 48/102/38
f 53/104/39 49/103/39 48/102/39
f 48/102/40 131/101/40 136/106/40
f 47/63/41 49/103/41 128/107/42
f 50/108/22 135/113/22 109/109/22
f 51/89/21 50/108/21 25/110/21
f 137/112/43 53/104/43 51/89/43
f 49/103/44 53/104/44 137/112/44
f 50/108/45 52/105/45 136/106/45
f 53/104/46 52/105/46 50/108/46
f 142/114/47 55/118/47 57/115/47
f 110/114/48 26/118/48 55/64/48
f 24/61/49 54/60/49 55/64/49
f 146/119/15 57/176/15 56/120/15
f 54/61/50 56/122/50 57/115/50
f 141/59/51 145/140/51 56/122/51
f 95/2/1 58/141/1 59/1/1
f 61/143/3 60/142/3 95/144/3
f 60/142/3 122/124/3 58/123/3
f 95/144/3 60/142/3 58/123/3
f 122/124/3 63/6/3 121/4/3
f 63/6/3 62/145/3 68/5/3
f 68/5/3 62/145/3 72/146/3
f 72/146/3 69/147/3 68/5/3
f 121/4/3 63/6/3 68/5/3
f 65/150/2 64/149/2 96/148/2
f 96/148/2 59/155/2 65/150/2
f 59/155/2 78/156/2 65/150/2
f 79/153/2 119/154/2 66/152/2
f 119/154/2 71/9/2 66/152/2
f 78/156/2 79/153/2 123/151/2
f 123/151/2 65/150/2 78/156/2
f 67/7/2 66/152/2 71/9/2
f 66/152/2 123/151/2 79/153/2
f 67/7/2 71/9/2 73/8/2
f 73/11/4 70/157/4 69/10/4
f 67/14/6 62/16/6 63/13/5
f 61/13/7 64/15/7 65/14/7
f 60/18/8 65/158/8 123/17/8
f 69/21/10 70/159/10 71/20/9
f 119/24/11 121/160/11 68/23/9
f 67/27/4 73/161/4 72/26/4
f 99/30/4 97/162/4 70/29/4
f 97/33/10 98/163/10 71/32/10
f 73/35/12 74/37/12 100/36/12
f 75/39/8 101/164/8 100/38/8
f 71/41/13 103/43/13 120/42/11
f 104/45/15 115/165/15 90/44/52
f 105/47/17 76/49/17 77/48/17
f 90/50/52 92/52/54 85/51/54
f 102/54/19 59/166/19 78/53/19
f 108/56/19 107/58/19 78/57/19
f 140/60/55 141/100/86 112/59/56
f 127/63/57 126/62/57 83/64/57
f 124/65/58 110/117/58 83/64/58
f 82/67/17 80/167/17 111/66/17
f 85/131/8 84/71/8 104/69/8
f 84/71/8 76/168/8 105/70/8
f 104/69/8 84/71/8 105/70/8
f 88/72/59 84/169/87 85/51/59
f 77/171/60 76/170/60 87/73/60
f 76/170/60 84/75/60 87/73/60
f 92/132/61 90/177/88 89/133/62
f 88/135/64 92/132/61 91/134/63
f 89/133/62 90/177/88 115/81/30
f 91/134/63 89/133/62 87/136/19
f 89/133/62 116/82/32 87/136/19
f 116/82/32 106/83/19 87/136/19
f 117/84/1 93/3/1 59/1/1
f 118/86/33 94/173/33 93/3/33
f 61/88/1 95/2/1 96/3/1
f 111/90/66 80/111/66 134/89/66
f 111/66/17 113/167/17 114/67/17
f 121/94/11 119/174/11 79/93/19
f 78/92/19 59/166/19 58/138/19
f 121/94/11 79/93/19 78/92/19
f 120/43/11 108/42/19 79/95/19
f 122/97/8 123/175/8 66/96/5
f 125/99/66 127/63/66 81/60/66
f 131/101/36 124/65/36 126/62/67
f 129/102/68 126/62/68 127/63/68
f 139/104/69 138/105/69 129/102/69
f 136/106/70 131/101/70 129/102/70
f 128/107/42 130/103/71 127/63/71
f 109/109/58 135/113/58 133/108/58
f 80/111/57 82/110/57 133/108/57
f 137/112/72 132/91/72 134/89/72
f 137/112/73 139/104/73 130/103/73
f 133/108/74 135/113/74 136/106/74
f 133/108/75 138/105/75 139/104/75
f 146/116/76 147/115/76 143/118/76
f 110/114/77 142/117/77 143/64/78
f 112/139/79 141/139/89 142/139/80
f 143/64/81 140/60/90 81/61/81
f 144/120/15 147/176/15 146/119/15
f 141/59/50 145/140/50 146/116/50
f 147/115/82 144/122/82 140/61/82
f 140/61/83 144/122/83 145/140/83
