# Blender 4.1.0
# www.blender.org
mtllib T_Tank.mtl
o Tank_Three
v 24.608637 7.453173 -0.380588
v 24.608637 7.453173 3.910900
v 30.224205 0.550370 -0.380588
v 24.608637 3.366198 -0.380588
v 68.283157 3.366198 -0.380588
v 61.299435 0.550370 -0.380588
v 24.608637 3.366198 3.910900
v 30.224205 0.550370 3.910899
v 61.299435 0.550370 3.910899
v 68.283157 3.366198 3.910899
v 66.534523 7.453173 -0.380588
v 68.283157 6.205020 -0.380588
v 68.283157 6.205020 3.910899
v 66.534523 7.453173 3.910899
v 68.283157 4.544182 -0.380588
v 68.283157 4.544181 3.910899
v 65.134621 3.397169 3.110829
v 30.274956 3.397169 3.110829
v 33.430756 7.654767 1.280259
v 33.430756 11.400809 1.280259
v 38.756157 7.453173 3.910899
v 56.838509 7.453173 3.910899
v 60.781639 9.375917 9.383848
v 76.882347 9.246172 9.613896
v 60.781639 8.497885 9.383848
v 76.882347 8.627626 9.613896
v 56.311237 7.654767 1.280259
v 59.109192 7.654767 2.834286
v 61.069263 7.654767 5.462528
v 53.940948 10.969044 1.280259
v 56.311237 10.230518 1.280259
v 59.112885 10.865025 5.572937
v 61.069263 10.134832 5.462528
v 57.304932 10.901386 3.148668
v 59.109192 10.174249 2.834286
v 24.608637 5.669864 3.910900
v 30.274956 3.397169 3.910899
v 24.608637 4.592381 -0.380588
v 24.608637 4.592381 3.910900
v 24.608637 7.453173 20.705124
v 24.608637 7.453173 16.413639
v 30.224205 0.550370 20.705124
v 24.608637 3.366198 20.705124
v 68.283157 3.366198 20.705124
v 61.299435 0.550370 20.705124
v 24.608637 3.366198 16.413639
v 30.224205 0.550370 16.413639
v 61.299435 0.550370 16.413639
v 68.283157 3.366198 16.413637
v 66.534523 7.453173 20.705124
v 68.283157 6.205020 20.705124
v 68.283157 6.205020 16.413637
v 66.534523 7.453173 16.413637
v 68.283157 4.544182 20.705124
v 68.283157 4.544181 16.413637
v 68.283157 6.205020 10.162269
v 66.534523 7.453173 10.162269
v 68.283157 4.544181 10.162269
v 65.134621 3.397169 17.213707
v 65.134621 3.397169 10.162269
v 30.274956 3.397169 17.213707
v 30.274956 3.397169 10.162269
v 24.608637 7.453173 10.162269
v 66.534523 7.453173 10.162269
v 33.430756 7.654767 19.044277
v 33.430756 11.400809 19.044277
v 61.069263 7.654767 10.162269
v 33.430756 7.654767 10.162269
v 33.430756 11.400809 10.162269
v 38.756161 7.453173 10.162269
v 38.756157 7.453173 16.413639
v 56.838509 7.453173 16.413639
v 56.838493 7.453173 10.162269
v 60.781639 8.058868 10.162269
v 76.882355 8.318355 10.162269
v 60.781639 9.814934 10.162269
v 76.882347 9.555445 10.162269
v 60.781639 9.375917 10.940689
v 76.882347 9.246172 10.710640
v 60.781639 8.497885 10.940689
v 76.882347 8.627626 10.710640
v 56.311237 7.654767 19.044277
v 59.109192 7.654767 17.490252
v 61.069263 7.654767 14.862009
v 61.069263 10.134834 10.162269
v 59.112885 10.865025 10.162269
v 53.940948 10.969044 19.044277
v 56.311237 10.230518 19.044277
v 59.112885 10.865025 14.751600
v 61.069263 10.134832 14.862009
v 57.304932 10.901386 17.175869
v 59.109192 10.174249 17.490252
v 24.608637 5.669864 16.413639
v 24.608637 5.669864 10.162269
v 30.274956 3.397169 16.413639
v 30.274956 3.397169 10.162269
v 24.608637 4.592381 20.705124
v 24.608637 4.592381 16.413639
vn -1.0000 -0.0000 -0.0000
vn -0.0000 -0.0000 -1.0000
vn -0.0000 -0.0000 1.0000
vn 1.0000 -0.0000 -0.0000
vn 0.1905 -0.9817 -0.0000
vn 0.3739 -0.9275 -0.0000
vn -0.4482 -0.8939 -0.0000
vn -0.0000 -1.0000 -0.0000
vn 0.5810 0.8139 -0.0000
vn -0.0000 1.0000 -0.0000
vn 0.3423 -0.9396 -0.0000
vn 0.1738 -0.9848 -0.0000
vn 0.1598 -0.9872 -0.0000
vn 0.9487 -0.0000 -0.3162
vn 0.9491 -0.0000 -0.3149
vn 0.6583 -0.0000 -0.7528
vn 0.6567 -0.0000 -0.7541
vn 0.0140 0.8709 -0.4912
vn 0.0143 -0.0000 -0.9999
vn 0.0140 -0.8709 -0.4912
vn 0.4855 -0.0000 -0.8742
vn 0.2146 0.9734 -0.0801
vn 0.3133 0.9036 -0.2921
vn 0.1759 0.9594 -0.2205
vn 0.2660 0.8536 -0.4479
vn 0.0660 0.9944 -0.0821
vn 0.3497 0.9369 -0.0000
vn 0.3435 0.9345 -0.0938
vn 0.1878 0.9822 -0.0000
vn 0.0210 0.9998 -0.0000
vn -0.3723 -0.9281 -0.0000
vn 0.9487 -0.0000 0.3162
vn 0.9491 -0.0000 0.3149
vn 0.6583 -0.0000 0.7528
vn 0.0140 0.8709 0.4912
vn 0.0143 -0.0000 0.9999
vn 0.0140 -0.8709 0.4912
vn 0.6567 -0.0000 0.7541
vn 0.4855 -0.0000 0.8742
vn 0.3133 0.9036 0.2921
vn 0.2146 0.9734 0.0801
vn 0.1759 0.9594 0.2205
vn 0.2660 0.8536 0.4479
vn 0.0660 0.9944 0.0821
vn 0.3435 0.9345 0.0938
vt 0.554688 0.804688
vt 0.433594 0.733596
vt 0.554688 0.733596
vt 0.285026 0.140625
vt 0.257812 0.117188
vt 0.257812 0.086301
vt 0.375000 0.011719
vt 0.435921 0.140625
vt 0.717328 0.140625
vt 0.460938 0.406250
vt 0.605469 0.371417
vt 0.460938 0.371417
vt 0.918209 0.992188
vt 0.964844 0.933594
vt 0.917969 0.933594
vt 0.421875 0.933594
vt 0.382812 0.988281
vt 0.421875 0.988281
vt 0.792969 0.933594
vt 0.546875 0.992188
vt 0.792969 0.992188
vt 0.074219 0.792969
vt 0.015625 0.816406
vt 0.015625 0.792969
vt 0.074219 0.408753
vt 0.074219 0.671573
vt 0.015625 0.812500
vt 0.566406 0.992188
vt 0.554688 0.933594
vt 0.554688 0.992188
vt 0.851562 0.414062
vt 0.710938 0.382812
vt 0.851562 0.382812
vt 0.082031 0.777344
vt 0.140625 0.792969
vt 0.082031 0.792969
vt 0.710938 0.328125
vt 0.851562 0.328125
vt 0.375000 0.921875
vt 0.957031 0.859375
vt 0.375000 0.859375
vt 0.078125 0.718750
vt 0.132812 0.777344
vt 0.078125 0.777344
vt 0.582031 0.218750
vt 0.535156 0.175781
vt 0.582031 0.175781
vt 0.707031 0.859375
vt 0.550781 0.812500
vt 0.707031 0.812500
vt 0.480469 0.214844
vt 0.523438 0.171875
vt 0.523438 0.214844
vt 0.074219 0.410156
vt 0.136719 0.203125
vt 0.136719 0.410156
vt 0.207031 0.593750
vt 0.160156 0.480469
vt 0.207031 0.480162
vt 0.059565 0.919361
vt 0.043136 0.890905
vt 0.059565 0.881421
vt 0.158224 0.696332
vt 0.153653 0.987262
vt 0.153653 0.696332
vt 0.149082 0.696332
vt 0.149082 0.987262
vt 0.144511 0.696332
vt 0.750000 0.010000
vt 0.542154 0.370000
vt 0.750000 0.490000
vt 0.250000 0.500000
vt 0.250000 0.750000
vt 0.125000 0.543038
vt 0.503906 0.207031
vt 0.531250 0.175781
vt 0.531250 0.207031
vt 0.549819 0.216588
vt 0.533050 0.206866
vt 0.533050 0.175781
vt 0.097656 0.675781
vt 0.066080 0.666527
vt 0.078125 0.660156
vt 0.050781 0.621094
vt 0.062500 0.621094
vt 0.160156 0.691406
vt 0.097656 0.691406
vt 0.152344 0.679688
vt 0.046875 0.612917
vt 0.152344 0.339844
vt 0.546875 0.816406
vt 0.714844 0.746094
vt 0.714844 0.816406
vt 0.546875 0.746094
vt 0.714844 0.671875
vt 0.539062 0.644531
vt 0.441406 0.691406
vt 0.441406 0.644531
vt 0.937500 0.140625
vt 0.851562 0.011719
vt 0.257812 0.064303
vt 0.285026 0.140625
vt 0.015625 0.203125
vt 0.480469 0.171875
vt 0.160156 0.593750
vt 0.158224 0.987262
vt 0.183859 0.500000
vt 0.146870 0.517730
vt 0.503906 0.175781
vt 0.238281 0.667969
vt 0.203125 0.679688
vt 0.234375 0.656250
vt 0.253906 0.621094
vt 0.226562 0.660156
vt 0.242188 0.621094
vt 0.152344 0.691406
vt 0.257812 0.613281
vt 0.539062 0.691406
vt 0.433594 0.804688
vt 0.937500 0.062500
vt 0.937500 0.085939
vt 0.937500 0.085939
vt 0.257812 0.086301
vt 0.257812 0.113996
vt 0.605469 0.406250
vt 0.964844 0.992188
vt 0.382812 0.933594
vt 0.546875 0.933594
vt 0.074219 0.816406
vt 0.074219 0.812500
vt 0.074219 0.203125
vt 0.566406 0.933594
vt 0.710938 0.414062
vt 0.140625 0.777344
vt 0.957031 0.921875
vt 0.132812 0.718750
vt 0.535156 0.218750
vt 0.550781 0.859375
vt 0.043136 0.909876
vt 0.144511 0.987262
vt 0.542154 0.130000
vt 0.125000 0.750000
vt 0.804688 0.175781
vt 0.804688 0.222656
vt 0.066012 0.666474
vt 0.160156 0.675781
vt 0.099676 0.678704
vt 0.069825 0.655707
vt 0.046875 0.339844
vt 0.546875 0.671875
vt 0.207031 0.691406
vt 0.257812 0.339844
s 1
usemtl Tank.001
f 2/1/1 38/2/1 39/3/1
f 11/4/2 12/5/2 15/6/2
f 9/7/3 22/8/3 21/9/3
f 12/10/4 16/11/4 15/12/4
f 6/13/5 10/14/6 9/15/5
f 8/16/7 4/17/7 3/18/7
f 9/19/5 3/20/8 6/21/5
f 14/22/9 12/23/9 11/24/9
f 21/25/10 22/26/10 11/27/10
f 15/28/4 10/29/4 5/30/4
f 13/31/4 58/32/4 16/33/4
f 14/34/9 56/35/9 13/36/9
f 16/33/11 60/37/12 17/38/13
f 60/39/12 18/40/8 17/41/13
f 22/42/10 64/43/10 14/44/10
f 33/45/14 67/46/4 29/47/15
f 69/48/1 19/49/1 68/50/1
f 33/51/14 28/52/16 35/53/17
f 21/54/10 63/55/10 70/56/10
f 73/57/10 21/58/10 70/59/10
f 75/60/4 24/61/4 77/62/4
f 76/63/18 24/64/18 23/65/18
f 24/64/19 25/66/19 23/65/19
f 26/67/20 74/68/20 25/66/20
f 76/69/1 25/70/1 74/71/1
f 67/72/8 68/73/8 27/74/8
f 35/75/17 27/76/21 31/77/21
f 30/78/2 31/79/2 27/80/2
f 32/81/22 35/82/23 34/83/24
f 34/83/24 31/84/25 30/85/26
f 32/81/22 85/86/27 33/87/28
f 86/88/29 30/89/26 69/90/30
f 2/91/1 94/92/1 63/93/1
f 36/94/31 96/95/31 94/92/31
f 7/96/1 38/97/1 4/98/1
f 97/2/1 41/1/1 98/3/1
f 50/4/3 40/99/3 42/100/3
f 49/101/2 48/7/2 53/102/2
f 55/11/4 51/10/4 54/12/4
f 49/14/6 45/13/5 48/15/5
f 43/17/7 47/16/7 42/18/7
f 42/20/8 48/19/5 45/21/5
f 51/23/9 53/22/9 50/24/9
f 71/25/10 40/103/10 50/27/10
f 49/29/4 54/28/4 44/30/4
f 58/32/4 52/31/4 55/33/4
f 56/35/9 53/34/9 52/36/9
f 55/33/11 60/37/12 58/32/11
f 61/40/8 60/39/12 59/41/13
f 64/43/10 72/42/10 53/44/10
f 67/46/4 90/45/32 84/47/33
f 65/49/1 69/48/1 68/50/1
f 90/51/32 83/52/34 84/104/33
f 63/55/10 71/54/10 70/56/10
f 73/57/10 71/58/10 72/105/10
f 79/61/4 75/60/4 77/62/4
f 76/63/35 79/64/35 77/106/35
f 80/66/36 79/64/36 78/65/36
f 74/68/37 81/67/37 80/66/37
f 80/70/1 76/69/1 74/71/1
f 67/72/8 84/107/8 83/108/8
f 92/75/38 82/76/39 83/109/34
f 82/80/3 88/79/3 87/78/3
f 92/110/40 89/111/41 91/112/42
f 88/113/43 91/114/42 87/115/44
f 89/111/41 85/116/27 86/88/29
f 87/117/44 91/112/42 86/88/29
f 94/92/1 41/91/1 63/93/1
f 96/95/31 93/94/31 94/92/31
f 43/98/1 98/118/1 46/96/1
f 2/1/1 1/119/1 38/2/1
f 6/7/2 3/100/2 11/4/2
f 3/100/2 4/120/2 38/121/2
f 38/121/2 1/99/2 3/100/2
f 1/99/2 11/4/2 3/100/2
f 15/6/2 5/101/2 11/4/2
f 5/101/2 6/7/2 11/4/2
f 39/122/3 7/120/3 8/100/3
f 8/100/3 9/7/3 21/9/3
f 9/7/3 10/101/3 14/102/3
f 14/102/3 10/101/3 16/123/3
f 16/123/3 13/124/3 14/102/3
f 22/8/3 9/7/3 14/102/3
f 2/99/3 39/122/3 8/100/3
f 21/9/3 2/99/3 8/100/3
f 12/10/4 13/125/4 16/11/4
f 6/13/5 5/126/6 10/14/6
f 8/16/7 7/127/7 4/17/7
f 9/19/5 8/128/8 3/20/8
f 14/22/9 13/129/9 12/23/9
f 22/26/10 14/130/10 11/27/10
f 11/27/10 1/103/10 21/25/10
f 1/103/10 2/131/10 21/25/10
f 15/28/4 16/132/4 10/29/4
f 13/31/4 56/133/4 58/32/4
f 14/34/9 57/134/9 56/35/9
f 16/33/11 58/32/11 60/37/12
f 60/39/12 62/135/8 18/40/8
f 22/42/10 73/136/10 64/43/10
f 33/45/14 85/137/4 67/46/4
f 69/48/1 20/138/1 19/49/1
f 33/51/14 29/104/15 28/52/16
f 21/54/10 2/131/10 63/55/10
f 73/57/10 22/105/10 21/58/10
f 75/60/4 26/139/4 24/61/4
f 76/63/18 77/106/18 24/64/18
f 24/64/19 26/67/19 25/66/19
f 26/67/20 75/140/20 74/68/20
f 76/69/1 23/141/1 25/70/1
f 19/142/8 27/74/8 68/73/8
f 27/74/8 28/108/8 67/72/8
f 28/108/8 29/107/8 67/72/8
f 35/75/17 28/109/16 27/76/21
f 27/80/2 19/143/2 30/78/2
f 19/143/2 20/144/2 30/78/2
f 32/81/22 33/87/28 35/82/23
f 34/83/24 35/145/23 31/84/25
f 32/81/22 86/146/29 85/86/27
f 86/88/29 32/147/22 34/148/24
f 34/148/24 30/89/26 86/88/29
f 30/89/26 20/149/30 69/90/30
f 2/91/1 36/94/1 94/92/1
f 36/94/31 37/150/31 96/95/31
f 7/96/1 39/118/1 38/97/1
f 97/2/1 40/119/1 41/1/1
f 43/120/3 42/100/3 97/121/3
f 42/100/3 45/7/3 50/4/3
f 97/121/3 42/100/3 40/99/3
f 45/7/3 44/101/3 50/4/3
f 44/101/3 54/6/3 50/4/3
f 54/6/3 51/5/3 50/4/3
f 47/100/2 46/120/2 98/122/2
f 98/122/2 41/99/2 47/100/2
f 41/99/2 71/9/2 47/100/2
f 72/8/2 53/102/2 48/7/2
f 53/102/2 52/124/2 55/123/2
f 71/9/2 72/8/2 48/7/2
f 48/7/2 47/100/2 71/9/2
f 55/123/2 49/101/2 53/102/2
f 55/11/4 52/125/4 51/10/4
f 49/14/6 44/126/6 45/13/5
f 43/17/7 46/127/7 47/16/7
f 42/20/8 47/128/8 48/19/5
f 51/23/9 52/129/9 53/22/9
f 50/27/10 53/130/10 72/26/10
f 71/25/10 41/131/10 40/103/10
f 50/27/10 72/26/10 71/25/10
f 49/29/4 55/132/4 54/28/4
f 58/32/4 56/133/4 52/31/4
f 56/35/9 57/134/9 53/34/9
f 55/33/11 59/38/13 60/37/12
f 61/40/8 62/135/8 60/39/12
f 64/43/10 73/136/10 72/42/10
f 67/46/4 85/137/4 90/45/32
f 65/49/1 66/138/1 69/48/1
f 90/51/32 92/53/38 83/52/34
f 63/55/10 41/131/10 71/54/10
f 73/57/10 70/59/10 71/58/10
f 79/61/4 81/139/4 75/60/4
f 76/63/35 78/65/35 79/64/35
f 80/66/36 81/67/36 79/64/36
f 74/68/37 75/140/37 81/67/37
f 80/70/1 78/141/1 76/69/1
f 83/108/8 82/74/8 67/72/8
f 82/74/8 65/142/8 68/73/8
f 67/72/8 82/74/8 68/73/8
f 92/75/38 88/77/39 82/76/39
f 66/144/3 65/143/3 87/78/3
f 65/143/3 82/80/3 87/78/3
f 92/110/40 90/151/45 89/111/41
f 88/113/43 92/110/40 91/114/42
f 89/111/41 90/151/45 85/116/27
f 91/112/42 89/111/41 86/88/29
f 86/88/29 69/90/30 87/117/44
f 69/90/30 66/152/30 87/117/44
f 94/92/1 93/94/1 41/91/1
f 96/95/31 95/150/31 93/94/31
f 43/98/1 97/97/1 98/118/1
