

v  4.5973 -4.8484 -0.0000
v  0.0000 -4.8484 7.9628
v  -4.5973 -4.8484 -0.0000
v  -0.0000 4.8484 7.9628
v  -4.5973 4.8484 -0.0000
v  4.5973 4.8484 -0.0000


vt 0.4167 0.0000 1.0000
vt 0.0833 0.0000 1.0000
vt -0.2500 0.0000 1.0000
vt 0.0833 1.0000 1.0000
vt -0.2500 1.0000 1.0000
vt 0.4167 1.0000 1.0000
vt 0.7500 0.0000 1.0000
vt 0.7500 1.0000 1.0000
vt 0.3333 1.0000 -2.0000


vn 0.0000 -1.0000 0.0000
vn -0.8660 -0.0000 0.5000
vn 0.8660 0.0000 0.5000
vn -0.0000 -0.0000 -1.0000
vn -0.0000 1.0000 -0.0000


f 1/1/1 2/2/1 3/3/1 
f 3/3/2 2/2/2 4/4/2 5/5/2 
f 2/2/3 1/1/3 6/6/3 4/4/3 
f 1/1/4 3/7/4 5/8/4 6/6/4 
f 6/6/5 5/8/5 4/9/5 


