# Blender 4.1.0
# www.blender.org
mtllib WallThree.mtl
o Far_Wall_Right
v 57.359535 -0.752020 -131.301224
v 57.359535 37.464294 -131.301224
v 96.277405 -0.752020 -131.301224
v 96.277405 37.464294 -131.301224
v 57.359535 -0.752020 -107.088982
v 57.359535 37.464294 -107.088982
v 96.277405 -0.752020 -107.088982
v 96.277405 37.464294 -107.088982
v 96.277405 -0.752020 -115.221497
v 96.277405 37.464294 -115.221497
v 57.359535 -0.752020 -115.221497
v 57.359535 37.464294 -115.221497
v 96.277405 -0.752020 -123.261360
v 57.359535 37.464294 -123.261360
v 96.277405 37.464294 -123.261360
v 57.359535 -0.752020 -123.261360
v 36.801956 -0.752020 -123.261368
v 36.801956 -0.752020 -115.221504
v 36.801956 37.464294 -115.221504
v 36.801956 37.464294 -123.261368
vn -0.0000 -0.0000 -1.0000
vn 1.0000 -0.0000 -0.0000
vn -0.0000 -0.0000 1.0000
vn -1.0000 -0.0000 -0.0000
vn -0.0000 -1.0000 -0.0000
vn -0.0000 1.0000 -0.0000
vt 0.572166 0.667171
vt 0.350709 0.892694
vt 0.350709 0.667171
vt 0.572166 0.015959
vt 0.350709 0.063086
vt 0.350709 0.015959
vt 0.572166 0.063086
vt 0.350709 0.288609
vt 0.572166 0.620581
vt 0.350709 0.620581
vt 0.006058 0.454864
vt 0.231581 0.407737
vt 0.231581 0.454864
vt 0.916817 0.548043
vt 0.691294 0.501453
vt 0.916817 0.501453
vt 0.916817 0.454864
vt 0.691294 0.407737
vt 0.916817 0.407737
vt 0.231581 0.501453
vt 0.006058 0.501453
vt 0.572166 0.288609
vt 0.350709 0.335736
vt 0.572166 0.939284
vt 0.350709 0.985874
vt 0.350709 0.939284
vt 0.572166 0.892694
vt 0.231581 0.548043
vt 0.006058 0.548043
vt 0.691294 0.454864
vt 0.572166 0.501453
vt 0.572166 0.454864
vt 0.350709 0.501453
vt 0.350709 0.454864
vt 0.572166 0.335736
vt 0.006058 0.407737
vt 0.691294 0.548043
vt 0.572166 0.985874
s 0
usemtl Material.004
f 2/1/1 3/2/1 1/3/1
f 10/4/2 7/5/2 9/6/2
f 8/7/3 5/8/3 7/5/3
f 14/9/4 1/3/4 16/10/4
f 9/11/5 5/12/5 11/13/5
f 4/14/6 14/15/6 15/16/6
f 10/17/6 6/18/6 8/19/6
f 9/11/5 16/20/5 13/21/5
f 6/22/4 11/23/4 5/8/4
f 15/24/2 9/25/2 13/26/2
f 4/27/2 13/26/2 3/2/2
f 13/21/5 1/28/5 3/29/5
f 15/16/6 12/30/6 10/17/6
f 16/10/1 20/31/1 14/9/1
f 19/32/4 17/33/4 18/34/4
f 11/13/5 17/33/5 16/20/5
f 14/15/6 19/32/6 12/30/6
f 12/35/3 18/34/3 11/23/3
f 2/1/1 4/27/1 3/2/1
f 10/4/2 8/7/2 7/5/2
f 8/7/3 6/22/3 5/8/3
f 14/9/4 2/1/4 1/3/4
f 9/11/5 7/36/5 5/12/5
f 4/14/6 2/37/6 14/15/6
f 10/17/6 12/30/6 6/18/6
f 9/11/5 11/13/5 16/20/5
f 6/22/4 12/35/4 11/23/4
f 15/24/2 10/38/2 9/25/2
f 4/27/2 15/24/2 13/26/2
f 13/21/5 16/20/5 1/28/5
f 15/16/6 14/15/6 12/30/6
f 16/10/1 17/33/1 20/31/1
f 19/32/4 20/31/4 17/33/4
f 11/13/5 18/34/5 17/33/5
f 14/15/6 20/31/6 19/32/6
f 12/35/3 19/32/3 18/34/3
