# Blender 4.1.0
# www.blender.org
mtllib WallTwo.mtl
o Far_Wall_Left
v 20.445818 -0.752020 -131.301224
v 20.445818 37.464294 -131.301224
v 36.971024 -0.752020 -131.301224
v 36.971024 37.464294 -131.301224
v 20.445820 -0.752020 -107.088982
v 20.445820 37.464294 -107.088982
v 36.971024 -0.752020 -107.088982
v 36.971024 37.464294 -107.088982
v 36.971024 -0.752020 -115.221497
v 36.971024 37.464294 -115.221497
v 20.445820 -0.752020 -115.221497
v 20.445820 37.464294 -115.221497
v 36.971024 -0.752020 -123.261360
v 20.445820 37.464294 -123.261360
v 36.971024 37.464294 -123.261360
v 20.445820 -0.752020 -123.261360
v -59.102142 -0.752020 -123.261360
v -59.102142 -0.752020 -115.221504
v -59.102142 37.464294 -115.221504
v -59.102142 37.464294 -123.261368
vn -0.0000 -0.0000 -1.0000
vn 1.0000 -0.0000 -0.0000
vn -0.0000 -0.0000 1.0000
vn -1.0000 -0.0000 -0.0000
vn -0.0000 -1.0000 -0.0000
vn -0.0000 1.0000 -0.0000
vt 0.400889 0.137464
vt 0.558904 0.069136
vt 0.558904 0.137464
vt 0.400889 0.997349
vt 0.558904 0.963724
vt 0.558904 0.997350
vt 0.400889 0.963724
vt 0.558904 0.895396
vt 0.400889 0.170706
vt 0.558904 0.170706
vt 0.956142 0.566486
vt 0.887815 0.532860
vt 0.956142 0.532860
vt 0.003651 0.466374
vt 0.071979 0.499617
vt 0.003651 0.499617
vt 0.003651 0.532860
vt 0.071979 0.566486
vt 0.003651 0.566485
vt 0.887815 0.499617
vt 0.956142 0.499617
vt 0.400889 0.895396
vt 0.558904 0.861770
vt 0.400889 0.035893
vt 0.558904 0.002650
vt 0.558904 0.035893
vt 0.400889 0.069136
vt 0.887815 0.466374
vt 0.956142 0.466374
vt 0.071979 0.532860
vt 0.400889 0.499617
vt 0.400889 0.532860
vt 0.558904 0.499617
vt 0.558904 0.532860
vt 0.400889 0.861770
vt 0.887814 0.566486
vt 0.071979 0.466374
vt 0.400889 0.002650
s 0
usemtl Material.006
f 2/1/1 3/2/1 1/3/1
f 10/4/2 7/5/2 9/6/2
f 8/7/3 5/8/3 7/5/3
f 14/9/4 1/3/4 16/10/4
f 7/11/5 11/12/5 9/13/5
f 4/14/6 14/15/6 15/16/6
f 10/17/6 6/18/6 8/19/6
f 9/13/5 16/20/5 13/21/5
f 6/22/4 11/23/4 5/8/4
f 15/24/2 9/25/2 13/26/2
f 4/27/2 13/26/2 3/2/2
f 13/21/5 1/28/5 3/29/5
f 15/16/6 12/30/6 10/17/6
f 16/10/1 20/31/1 14/9/1
f 19/32/4 17/33/4 18/34/4
f 11/12/5 17/33/5 16/20/5
f 12/30/6 20/31/6 19/32/6
f 12/35/3 18/34/3 11/23/3
f 2/1/1 4/27/1 3/2/1
f 10/4/2 8/7/2 7/5/2
f 8/7/3 6/22/3 5/8/3
f 14/9/4 2/1/4 1/3/4
f 7/11/5 5/36/5 11/12/5
f 4/14/6 2/37/6 14/15/6
f 10/17/6 12/30/6 6/18/6
f 9/13/5 11/12/5 16/20/5
f 6/22/4 12/35/4 11/23/4
f 15/24/2 10/38/2 9/25/2
f 4/27/2 15/24/2 13/26/2
f 13/21/5 16/20/5 1/28/5
f 15/16/6 14/15/6 12/30/6
f 16/10/1 17/33/1 20/31/1
f 19/32/4 20/31/4 17/33/4
f 11/12/5 18/34/5 17/33/5
f 12/30/6 14/15/6 20/31/6
f 12/35/3 19/32/3 18/34/3
