# Blender 4.1.0
# www.blender.org
mtllib WallFour.mtl
o Far_Wall_Right.001
v 133.130325 -0.752020 -93.320267
v 133.130325 37.464294 -93.320267
v 109.440529 -0.752020 -124.197350
v 109.440529 37.464294 -124.197350
v 113.920547 -0.752020 -78.581970
v 113.920547 37.464294 -78.581970
v 90.230759 -0.752020 -109.459045
v 90.230759 37.464294 -109.459045
v 96.683022 -0.752020 -114.409416
v 96.683022 37.464294 -114.409416
v 120.372818 -0.752020 -83.532341
v 120.372818 37.464294 -83.532341
v 103.061775 -0.752020 -119.303383
v 126.751572 37.464294 -88.426308
v 103.061775 37.464294 -119.303383
v 126.751572 -0.752020 -88.426308
v 139.265228 -0.752020 -72.116112
v 132.886475 -0.752020 -67.222145
v 132.886475 37.464294 -67.222145
v 139.265228 37.464294 -72.116112
vn 0.7934 -0.0000 -0.6087
vn -0.6087 -0.0000 -0.7934
vn -0.7934 -0.0000 0.6087
vn 0.6087 -0.0000 0.7934
vn -0.0000 -1.0000 -0.0000
vn -0.0000 1.0000 -0.0000
vt 0.350709 0.892694
vt 0.572166 0.667171
vt 0.350709 0.667171
vt 0.350709 0.063086
vt 0.572166 0.015959
vt 0.350709 0.015959
vt 0.350709 0.288609
vt 0.572166 0.063086
vt 0.572166 0.620581
vt 0.350709 0.620581
vt 0.006058 0.454864
vt 0.231581 0.407737
vt 0.006058 0.407737
vt 0.691294 0.501453
vt 0.916817 0.548043
vt 0.916817 0.501453
vt 0.691294 0.407737
vt 0.916817 0.454864
vt 0.916817 0.407737
vt 0.231581 0.501453
vt 0.006058 0.501453
vt 0.350709 0.335736
vt 0.572166 0.288609
vt 0.350709 0.985874
vt 0.572166 0.939284
vt 0.350709 0.939284
vt 0.572166 0.892694
vt 0.231581 0.548043
vt 0.006058 0.548043
vt 0.691294 0.454864
vt 0.572166 0.501453
vt 0.350709 0.501453
vt 0.572166 0.454864
vt 0.350709 0.454864
vt 0.231581 0.454864
vt 0.572166 0.335736
vt 0.691294 0.548043
vt 0.572166 0.985874
s 0
usemtl Material.020
f 3/1/1 2/2/1 1/3/1
f 7/4/2 10/5/2 9/6/2
f 5/7/3 8/8/3 7/4/3
f 1/3/4 14/9/4 16/10/4
f 9/11/5 5/12/5 7/13/5
f 14/14/6 4/15/6 15/16/6
f 6/17/6 10/18/6 8/19/6
f 16/20/5 9/11/5 13/21/5
f 11/22/4 6/23/4 5/7/4
f 9/24/2 15/25/2 13/26/2
f 13/26/2 4/27/2 3/1/2
f 1/28/5 13/21/5 3/29/5
f 12/30/6 15/16/6 10/18/6
f 20/31/1 16/10/1 14/9/1
f 17/32/4 19/33/4 18/34/4
f 16/20/5 18/34/5 11/35/5
f 19/33/6 14/14/6 12/30/6
f 18/34/3 12/36/3 11/22/3
f 3/1/1 4/27/1 2/2/1
f 7/4/2 8/8/2 10/5/2
f 5/7/3 6/23/3 8/8/3
f 1/3/4 2/2/4 14/9/4
f 9/11/5 11/35/5 5/12/5
f 14/14/6 2/37/6 4/15/6
f 6/17/6 12/30/6 10/18/6
f 16/20/5 11/35/5 9/11/5
f 11/22/4 12/36/4 6/23/4
f 9/24/2 10/38/2 15/25/2
f 13/26/2 15/25/2 4/27/2
f 1/28/5 16/20/5 13/21/5
f 12/30/6 14/14/6 15/16/6
f 20/31/1 17/32/1 16/10/1
f 17/32/4 20/31/4 19/33/4
f 16/20/5 17/32/5 18/34/5
f 19/33/6 20/31/6 14/14/6
f 18/34/3 19/33/3 12/36/3
