# Blender 4.1.0
# www.blender.org
mtllib Camera.mtl
o Glass_Lens
v 29.251841 35.952564 -102.447311
v 29.236444 35.942463 -102.414909
v 29.288883 35.948727 -102.430908
v 29.273487 35.938625 -102.398506
v 29.325430 35.937355 -102.417091
v 29.310034 35.927254 -102.384689
v 29.360075 35.918892 -102.406387
v 29.344679 35.908791 -102.373985
v 29.391489 35.894043 -102.399208
v 29.376093 35.883942 -102.366806
v 29.418465 35.863762 -102.395828
v 29.403069 35.853661 -102.363426
v 29.439964 35.829220 -102.396385
v 29.424568 35.819118 -102.363976
v 29.455162 35.791737 -102.400848
v 29.439766 35.781635 -102.368439
v 29.463474 35.752754 -102.409050
v 29.448078 35.742653 -102.376640
v 29.464581 35.713772 -102.420670
v 29.449184 35.703671 -102.388268
v 29.458439 35.676289 -102.435272
v 29.443043 35.666187 -102.402863
v 29.445286 35.641747 -102.452286
v 29.429890 35.631645 -102.419884
v 29.425627 35.611465 -102.471062
v 29.410231 35.601364 -102.438660
v 29.400215 35.586617 -102.490883
v 29.384819 35.576515 -102.458473
v 29.370031 35.568153 -102.510979
v 29.354635 35.558052 -102.478569
v 29.336231 35.556782 -102.530579
v 29.320835 35.546680 -102.498169
v 29.300117 35.552944 -102.548927
v 29.284721 35.542843 -102.516525
v 29.263075 35.556782 -102.565331
v 29.247679 35.546680 -102.532928
v 29.226528 35.568153 -102.579147
v 29.211132 35.558052 -102.546745
v 29.191883 35.586617 -102.589851
v 29.176487 35.576515 -102.557449
v 29.160469 35.611465 -102.597031
v 29.145073 35.601364 -102.564629
v 29.133493 35.641747 -102.600410
v 29.118097 35.631645 -102.568008
v 29.111994 35.676289 -102.599861
v 29.096598 35.666187 -102.567451
v 29.096796 35.713772 -102.595398
v 29.081400 35.703671 -102.562988
v 29.088486 35.752754 -102.587196
v 29.073090 35.742653 -102.554787
v 29.087378 35.791737 -102.575569
v 29.071983 35.781635 -102.543167
v 29.093519 35.829220 -102.560974
v 29.078123 35.819118 -102.528564
v 29.106672 35.863762 -102.543961
v 29.091276 35.853661 -102.511551
v 29.126333 35.894043 -102.525177
v 29.110937 35.883942 -102.492775
v 29.151743 35.918892 -102.505363
v 29.136347 35.908791 -102.472954
v 29.181927 35.937355 -102.485268
v 29.166533 35.927254 -102.452858
v 29.215727 35.948727 -102.465668
v 29.200331 35.938625 -102.433258
v 29.315777 35.037922 -104.721573
v 29.315777 35.602646 -104.721573
v 29.315777 35.037922 -104.808380
v 29.315777 35.602646 -104.808380
v 30.122883 35.037922 -104.721573
v 30.122883 35.602646 -104.721573
v 30.122883 35.037922 -104.808380
v 30.122883 35.602646 -104.808380
v 29.523619 35.121651 -104.721573
v 29.523619 35.483082 -104.721573
v 29.915041 35.121651 -104.721573
v 29.915041 35.483082 -104.721573
v 29.523619 35.345993 -103.576622
v 29.523619 35.483082 -103.576622
v 29.915041 35.345993 -103.576622
v 29.915041 35.483082 -103.576622
v 29.615993 35.345993 -103.257225
v 29.523619 35.345993 -103.349602
v 29.523619 35.483082 -103.349602
v 29.615993 35.483082 -103.257225
v 29.915041 35.345993 -103.349602
v 29.822666 35.345993 -103.257225
v 29.822666 35.483082 -103.257225
v 29.915041 35.483082 -103.349602
v 29.719330 35.483082 -103.589165
v 29.609400 35.483082 -103.536224
v 29.582249 35.483082 -103.417274
v 29.658323 35.483082 -103.321877
v 29.780336 35.483082 -103.321877
v 29.856411 35.483082 -103.417274
v 29.829260 35.483082 -103.536224
v 29.609400 35.545074 -103.536224
v 29.719330 35.545074 -103.589165
v 29.582249 35.545074 -103.417274
v 29.658323 35.545074 -103.321877
v 29.780336 35.545074 -103.321877
v 29.856411 35.545074 -103.417274
v 29.829260 35.545074 -103.536224
v 29.637083 35.681034 -103.514153
v 29.719330 35.681034 -103.553757
v 29.616770 35.681034 -103.425156
v 29.673687 35.681034 -103.353783
v 29.764973 35.681034 -103.353783
v 29.821890 35.681034 -103.425156
v 29.801577 35.681034 -103.514153
v 29.402126 35.569576 -104.721573
v 29.358295 35.525745 -104.721573
v 29.402126 35.481918 -104.721573
v 29.445955 35.525745 -104.721573
v 29.369358 35.525745 -104.703285
v 29.402126 35.558514 -104.703285
v 29.402126 35.492977 -104.703285
v 29.434893 35.525745 -104.703285
v 30.036533 35.569576 -104.721573
v 30.080364 35.525745 -104.721573
v 30.036533 35.481918 -104.721573
v 29.992704 35.525745 -104.721573
v 30.069302 35.525745 -104.703285
v 30.036533 35.558514 -104.703285
v 30.036533 35.492977 -104.703285
v 30.003767 35.525745 -104.703285
v 29.402126 35.070992 -104.721573
v 29.358295 35.114822 -104.721573
v 29.402126 35.158653 -104.721573
v 29.445955 35.114822 -104.721573
v 29.369358 35.114822 -104.703285
v 29.402126 35.082054 -104.703285
v 29.402126 35.147591 -104.703285
v 29.434893 35.114822 -104.703285
v 30.036533 35.070992 -104.721573
v 30.080364 35.114822 -104.721573
v 30.036533 35.158653 -104.721573
v 29.992704 35.114822 -104.721573
v 30.069302 35.114822 -104.703285
v 30.036533 35.082054 -104.703285
v 30.036533 35.147591 -104.703285
v 30.003767 35.114822 -104.703285
v 29.101246 35.866608 -102.985771
v 29.708380 36.264923 -104.263741
v 29.703932 36.556553 -104.174957
v 29.723604 36.576427 -104.159416
v 29.799227 35.950451 -104.318596
v 29.774778 35.970329 -104.324013
v 29.116470 36.178112 -102.881447
v 29.096796 36.158237 -102.896988
v 29.167645 35.572018 -103.046043
v 29.192091 35.552135 -103.040627
v 29.771729 35.866608 -102.667236
v 30.378864 36.264923 -103.945206
v 30.312851 36.556553 -103.885674
v 30.288376 36.576427 -103.891106
v 30.363997 35.950451 -104.050285
v 30.383640 35.970329 -104.034760
v 29.681240 36.178112 -102.613136
v 29.705717 36.158237 -102.607704
v 29.776506 35.572018 -102.756783
v 29.756863 35.552135 -102.772316
v 29.399351 36.174011 -102.748337
v 29.291248 36.150494 -102.807022
v 29.205286 36.083523 -102.868736
v 29.154551 35.983292 -102.924080
v 29.146765 35.865059 -102.964622
v 29.183117 35.746830 -102.984207
v 29.258068 35.646599 -102.979836
v 29.360212 35.579624 -102.952187
v 29.473997 35.556107 -102.905457
v 29.582100 35.579624 -102.846771
v 29.668062 35.646599 -102.785057
v 29.718798 35.746830 -102.729713
v 29.726583 35.865059 -102.689171
v 29.690231 35.983292 -102.669586
v 29.615280 36.083523 -102.673958
v 29.513136 36.150494 -102.701607
v 29.302950 36.084743 -102.776466
v 29.390209 36.103725 -102.729095
v 29.233561 36.030682 -102.826279
v 29.192608 35.949776 -102.870949
v 29.186323 35.854340 -102.903679
v 29.215666 35.758907 -102.919487
v 29.276167 35.678001 -102.915962
v 29.358618 35.623940 -102.893639
v 29.450462 35.604958 -102.855919
v 29.537722 35.623940 -102.808548
v 29.607111 35.678001 -102.758736
v 29.648064 35.758907 -102.714066
v 29.654348 35.854340 -102.681335
v 29.625006 35.949776 -102.665527
v 29.564505 36.030682 -102.669052
v 29.482056 36.084743 -102.691376
v 29.274910 36.139778 -102.772629
v 29.383013 36.163292 -102.713943
v 29.188948 36.072803 -102.834343
v 29.138212 35.972572 -102.889687
v 29.130426 35.854340 -102.930237
v 29.166779 35.736111 -102.949814
v 29.241732 35.635880 -102.945450
v 29.343874 35.568909 -102.917793
v 29.457659 35.545387 -102.871071
v 29.565762 35.568909 -102.812378
v 29.651724 35.635880 -102.750671
v 29.702459 35.736111 -102.695328
v 29.710245 35.854340 -102.654778
v 29.673895 35.972572 -102.635201
v 29.598942 36.072803 -102.639565
v 29.496798 36.139778 -102.667221
v 29.305647 36.055107 -102.758537
v 29.383993 36.072151 -102.716003
v 29.243347 36.006569 -102.803261
v 29.206577 35.933929 -102.843376
v 29.200935 35.848244 -102.872757
v 29.227280 35.762558 -102.886948
v 29.281601 35.689919 -102.883781
v 29.355629 35.641380 -102.863747
v 29.438091 35.624336 -102.829880
v 29.516438 35.641380 -102.787346
v 29.578737 35.689919 -102.742622
v 29.615507 35.762558 -102.702515
v 29.621149 35.848244 -102.673126
v 29.594805 35.933929 -102.658936
v 29.540483 36.006569 -102.662102
v 29.466455 36.055107 -102.682144
v 29.319288 36.095459 -102.810852
v 29.406548 36.114445 -102.763481
v 29.249899 36.041401 -102.860664
v 29.208946 35.960495 -102.905342
v 29.202662 35.865059 -102.938072
v 29.232004 35.769627 -102.953873
v 29.292505 35.688721 -102.950348
v 29.374954 35.634659 -102.928032
v 29.466801 35.615677 -102.890312
v 29.554060 35.634659 -102.842941
v 29.623449 35.688721 -102.793129
v 29.664402 35.769627 -102.748451
v 29.670687 35.865059 -102.715721
v 29.641344 35.960495 -102.699921
v 29.580843 36.041401 -102.703445
v 29.498394 36.095459 -102.725761
v 29.167398 35.916534 -102.431557
v 29.232155 35.930622 -102.396400
v 29.115906 35.876415 -102.468521
v 29.085512 35.816376 -102.501671
v 29.080849 35.745552 -102.525963
v 29.102625 35.674728 -102.537697
v 29.147524 35.614685 -102.535080
v 29.208710 35.574570 -102.518509
v 29.276871 35.560482 -102.490524
v 29.341627 35.574570 -102.455368
v 29.393120 35.614685 -102.418396
v 29.423512 35.674728 -102.385246
v 29.428175 35.745552 -102.360954
v 29.406401 35.816376 -102.349228
v 29.361502 35.876415 -102.351845
v 29.300316 35.916534 -102.368408
v 29.149118 35.952415 -102.429054
v 29.227463 35.969460 -102.386520
v 29.086819 35.903877 -102.473778
v 29.050049 35.831238 -102.513893
v 29.044407 35.745552 -102.543274
v 29.070751 35.659866 -102.557465
v 29.125071 35.587227 -102.554298
v 29.199099 35.538689 -102.534264
v 29.281561 35.521645 -102.500397
v 29.359907 35.538689 -102.457863
v 29.422207 35.587227 -102.413139
v 29.458977 35.659866 -102.373032
v 29.464619 35.745552 -102.343643
v 29.438274 35.831238 -102.329453
v 29.383953 35.903877 -102.332619
v 29.309927 35.952415 -102.352661
v 29.212496 35.946121 -102.526482
v 29.277252 35.960209 -102.491325
v 29.161001 35.906002 -102.563446
v 29.130610 35.845963 -102.596603
v 29.125946 35.775139 -102.620888
v 29.147722 35.704315 -102.632622
v 29.192621 35.644272 -102.630005
v 29.253807 35.604156 -102.613441
v 29.321968 35.590069 -102.585449
v 29.386723 35.604156 -102.550293
v 29.438217 35.644272 -102.513329
v 29.468609 35.704315 -102.480171
v 29.473272 35.775139 -102.455887
v 29.451498 35.845963 -102.444153
v 29.406599 35.906002 -102.446770
v 29.345411 35.946121 -102.463333
v 29.282272 35.763763 -102.501892
v 29.521332 35.594387 -103.346260
v 29.389837 35.634495 -103.270554
v 29.647739 35.677319 -103.612335
v 29.606510 35.776642 -103.726639
v 29.785799 35.594387 -103.220612
v 29.810184 35.634495 -103.070862
v 29.912207 35.677319 -103.486694
v 30.026857 35.776642 -103.526939
vn -0.0272 0.9579 0.2857
vn 0.1509 0.9211 0.3588
vn 0.3232 0.8489 0.4182
vn 0.4831 0.7441 0.4614
vn 0.6245 0.6107 0.4870
vn 0.7418 0.4538 0.4938
vn 0.8306 0.2794 0.4817
vn 0.8875 0.0943 0.4510
vn 0.9103 -0.0943 0.4031
vn 0.8981 -0.2794 0.3396
vn 0.8514 -0.4538 0.2631
vn 0.7720 -0.6107 0.1764
vn 0.6629 -0.7441 0.0830
vn 0.5283 -0.8489 -0.0136
vn 0.3735 -0.9211 -0.1097
vn 0.2043 -0.9579 -0.2015
vn 0.0272 -0.9579 -0.2857
vn -0.1509 -0.9211 -0.3588
vn -0.3232 -0.8489 -0.4182
vn -0.4831 -0.7441 -0.4614
vn -0.6245 -0.6107 -0.4870
vn -0.7418 -0.4538 -0.4938
vn -0.8306 -0.2794 -0.4817
vn -0.8875 -0.0943 -0.4510
vn -0.9103 0.0943 -0.4031
vn -0.8981 0.2794 -0.3396
vn -0.8514 0.4538 -0.2631
vn -0.7720 0.6107 -0.1764
vn -0.6629 0.7441 -0.0830
vn -0.5283 0.8489 0.0136
vn -0.4131 -0.2710 0.8695
vn -0.3735 0.9211 0.1097
vn -0.2043 0.9579 0.2015
vn 0.4131 0.2710 -0.8695
vn -1.0000 -0.0000 -0.0000
vn 1.0000 -0.0000 -0.0000
vn -0.0000 -0.0000 1.0000
vn -0.0000 -1.0000 -0.0000
vn -0.0000 1.0000 -0.0000
vn 0.9239 -0.0000 0.3827
vn -0.0000 -0.9813 0.1923
vn -0.0000 -0.9953 0.0966
vn 0.3827 -0.0000 0.9239
vn -0.3827 -0.0000 0.9239
vn -0.9239 -0.0000 0.3827
vn -0.7759 0.1228 -0.6188
vn -0.9435 0.2520 0.2153
vn -0.7566 0.2520 -0.6034
vn -0.9749 -0.0000 0.2225
vn -0.7818 -0.0000 -0.6235
vn -0.0000 -0.0000 -1.0000
vn 0.7759 0.1228 -0.6188
vn 0.7818 -0.0000 -0.6235
vn 0.9749 -0.0000 0.2225
vn 0.4306 0.1228 0.8941
vn 0.4339 -0.0000 0.9010
vn -0.4339 -0.0000 0.9010
vn -0.9675 0.1228 0.2208
vn -0.0000 0.1228 -0.9924
vn 0.9675 0.1228 0.2208
vn -0.4306 0.1228 0.8941
vn 0.7566 0.2520 -0.6034
vn 0.9435 0.2520 0.2153
vn 0.4199 0.2520 0.8719
vn -0.0000 0.2520 -0.9677
vn -0.4199 0.2520 0.8719
vn -0.6320 -0.0000 0.7749
vn 0.6321 -0.0000 0.7749
vn -0.0000 0.6321 0.7749
vn -0.0000 -0.8556 0.5177
vn -0.0000 -0.6321 0.7749
vn -0.0000 0.8556 0.5177
vn 0.8556 -0.0000 0.5177
vn -0.8556 -0.0000 0.5177
vn -0.6321 -0.0000 0.7749
vn 0.2012 0.9040 0.3773
vn -0.4196 0.9040 0.0824
vn 0.4199 -0.9038 -0.0822
vn -0.2015 -0.9038 -0.3774
vn 0.4199 -0.9039 -0.0822
vn -0.8848 -0.1066 -0.4536
vn -0.7424 -0.4528 -0.4938
vn 0.4130 0.2710 -0.8695
vn -0.8515 0.4536 -0.2631
vn -0.9106 0.1076 -0.3991
vn 0.8518 -0.4528 0.2635
vn 0.9106 -0.1066 0.3994
vn 0.7419 0.4536 0.4938
vn 0.8846 0.1076 0.4538
vn -0.1163 0.9626 0.2448
vn 0.2382 0.8893 0.3904
vn -0.7209 0.6806 -0.1304
vn -0.4531 0.8893 0.0619
vn 0.7209 -0.6806 0.1304
vn 0.4531 -0.8893 -0.0619
vn -0.8790 0.3684 -0.3028
vn -0.7209 0.6807 -0.1303
vn 0.8790 -0.3684 0.3028
vn 0.7209 -0.6807 0.1303
vn -0.9033 -0.0000 -0.4291
vn 0.9033 -0.0000 0.4291
vn -0.7900 -0.3684 -0.4901
vn 0.7900 0.3684 0.4901
vn -0.5565 -0.6807 -0.4765
vn 0.5565 0.6807 0.4765
vn -0.2382 -0.8893 -0.3904
vn -0.5565 -0.6806 -0.4765
vn 0.5565 0.6806 0.4765
vn 0.1163 -0.9626 -0.2448
vn 0.9032 -0.0000 0.4291
vn -0.2690 0.7791 0.5662
vn -0.5788 0.7117 0.3981
vn -0.8252 0.5198 0.2212
vn -0.9706 0.2325 0.0626
vn -0.9929 -0.1063 -0.0536
vn -0.8887 -0.4451 -0.1097
vn -0.6739 -0.7324 -0.0972
vn -0.3812 -0.9243 -0.0180
vn -0.0551 -0.9917 0.1160
vn 0.2547 -0.9243 0.2841
vn 0.5011 -0.7324 0.4610
vn 0.6465 -0.4451 0.6196
vn 0.6688 -0.1063 0.7358
vn 0.5646 0.2325 0.7919
vn 0.3498 0.5198 0.7794
vn 0.0571 0.7117 0.7002
vn -0.2351 -0.1862 0.9540
vn -0.2849 -0.1196 0.9511
vn -0.7209 0.6806 -0.1303
vn -0.5222 -0.4099 0.7478
vn -0.4544 -0.4544 0.7662
vn -0.3527 -0.0751 0.9327
vn -0.3788 -0.4701 0.7972
vn -0.4284 -0.0595 0.9017
vn -0.5002 -0.0751 0.8627
vn -0.3069 -0.4544 0.8362
vn -0.5573 -0.1196 0.8216
vn -0.2498 -0.4099 0.8772
vn -0.5910 -0.1862 0.7849
vn -0.2161 -0.3433 0.9140
vn -0.5962 -0.2648 0.7579
vn -0.2109 -0.2648 0.9410
vn -0.5720 -0.3433 0.7449
vn -0.4916 -0.7373 -0.4634
vn 0.3251 -0.6526 -0.6844
vn 0.6698 -0.7373 0.0884
vn -0.1313 -0.9520 0.2764
vn 0.4131 0.2710 -0.8694
vn -0.4130 -0.2710 0.8695
vn -0.4131 -0.2710 0.8694
vt 1.000000 1.000000
vt 0.968750 0.500000
vt 1.000000 0.500000
vt 0.968750 1.000000
vt 0.937500 0.500000
vt 0.937500 1.000000
vt 0.906250 0.500000
vt 0.906250 1.000000
vt 0.875000 0.500000
vt 0.875000 1.000000
vt 0.843750 0.500000
vt 0.843750 1.000000
vt 0.812500 0.500000
vt 0.812500 1.000000
vt 0.781250 0.500000
vt 0.781250 1.000000
vt 0.750000 0.500000
vt 0.750000 1.000000
vt 0.718750 0.500000
vt 0.718750 1.000000
vt 0.687500 0.500000
vt 0.687500 1.000000
vt 0.656250 0.500000
vt 0.656250 1.000000
vt 0.625000 0.500000
vt 0.625000 1.000000
vt 0.593750 0.500000
vt 0.593750 1.000000
vt 0.562500 0.500000
vt 0.562500 1.000000
vt 0.531250 0.500000
vt 0.531250 1.000000
vt 0.500000 0.500000
vt 0.500000 1.000000
vt 0.468750 0.500000
vt 0.468750 1.000000
vt 0.437500 0.500000
vt 0.437500 1.000000
vt 0.406250 0.500000
vt 0.406250 1.000000
vt 0.375000 0.500000
vt 0.375000 1.000000
vt 0.343750 0.500000
vt 0.343750 1.000000
vt 0.312500 0.500000
vt 0.312500 1.000000
vt 0.281250 0.500000
vt 0.281250 1.000000
vt 0.250000 0.500000
vt 0.250000 1.000000
vt 0.218750 0.500000
vt 0.218750 1.000000
vt 0.187500 0.500000
vt 0.187500 1.000000
vt 0.156250 0.500000
vt 0.156250 1.000000
vt 0.125000 0.500000
vt 0.125000 1.000000
vt 0.093750 0.500000
vt 0.093750 1.000000
vt 0.062500 0.500000
vt 0.158156 0.028269
vt 0.471731 0.158156
vt 0.341844 0.471731
vt 0.062500 1.000000
vt 0.031250 0.500000
vt 0.031250 1.000000
vt 0.000000 0.500000
vt 0.796822 0.014612
vt 0.514612 0.203178
vt 0.703178 0.485388
vt 0.732916 0.362653
vt 0.747010 0.410896
vt 0.732916 0.410896
vt 0.747010 0.293703
vt 0.732916 0.245459
vt 0.747010 0.245459
vt 0.728462 0.296741
vt 0.519689 0.505513
vt 0.519689 0.296741
vt 0.747010 0.479846
vt 0.747010 0.362653
vt 0.732916 0.293703
vt 0.617743 0.519698
vt 0.667844 0.218519
vt 0.535753 0.218519
vt 0.682558 0.515470
vt 0.565813 0.515470
vt 0.513633 0.449353
vt 0.740856 0.319907
vt 0.684122 0.427643
vt 0.684122 0.319907
vt 0.743888 0.439897
vt 0.511963 0.218792
vt 0.743888 0.218792
vt 0.651476 0.427643
vt 0.599828 0.319907
vt 0.651476 0.319907
vt 0.599828 0.427643
vt 0.567182 0.319907
vt 0.567182 0.427643
vt 0.510448 0.319907
vt 0.486886 0.746044
vt 0.441531 0.775029
vt 0.482603 0.775029
vt 0.572750 0.499459
vt 0.539934 0.538173
vt 0.539934 0.499459
vt 0.736828 0.499459
vt 0.704012 0.538173
vt 0.704012 0.499459
vt 0.671197 0.499459
vt 0.638381 0.538173
vt 0.638381 0.499459
vt 0.605565 0.499459
vt 0.572750 0.538173
vt 0.507119 0.538173
vt 0.507119 0.499459
vt 0.671197 0.538173
vt 0.605565 0.538173
vt 0.455078 0.746044
vt 0.493035 0.775029
vt 0.498405 0.746044
vt 0.402404 0.746044
vt 0.408593 0.775029
vt 0.440002 0.746044
vt 0.411751 0.746044
vt 0.455078 0.775029
vt 0.431033 0.746044
vt 0.476142 0.775029
vt 0.434014 0.775029
vt 0.536622 0.485923
vt 0.567446 0.455100
vt 0.567446 0.485923
vt 0.608835 0.488885
vt 0.616191 0.491787
vt 0.608835 0.491787
vt 0.616191 0.502046
vt 0.608835 0.499143
vt 0.616191 0.499143
vt 0.619094 0.491787
vt 0.605933 0.491787
vt 0.605933 0.499143
vt 0.536622 0.455100
vt 0.616191 0.488885
vt 0.608835 0.502046
vt 0.619094 0.499143
vt 0.516457 0.497273
vt 0.516457 0.451090
vt 0.739641 0.451090
vt 0.363769 0.663142
vt 0.458386 0.568524
vt 0.458386 0.663142
vt 0.456510 0.663142
vt 0.361893 0.568524
vt 0.456510 0.568524
vt 0.001209 0.768504
vt 0.994047 0.557916
vt 0.001209 0.557916
vt 0.498057 0.263372
vt 0.038986 0.524269
vt -0.000302 0.263371
vt 0.001209 0.536051
vt 0.994047 0.536051
vt 0.994047 0.998877
vt 0.001209 0.976997
vt 0.001209 0.998877
vt 0.994047 0.768504
vt 0.996707 0.557081
vt 0.001343 0.768084
vt 0.001343 0.557081
vt 0.001343 0.535172
vt 0.996707 0.535172
vt 0.001343 0.976989
vt 0.996707 0.998912
vt 0.001343 0.998911
vt 0.996707 0.976989
vt 0.837378 0.758841
vt 0.594669 0.860945
vt 0.573897 0.758841
vt 0.421701 0.885005
vt 0.436509 0.921350
vt 0.422023 0.921350
vt 0.142825 0.747707
vt 0.167156 0.718667
vt 0.167156 0.747707
vt 0.337474 0.747707
vt 0.361805 0.718667
vt 0.361805 0.747707
vt 0.118494 0.747707
vt 0.142825 0.718667
vt 0.313143 0.747707
vt 0.337474 0.718667
vt 0.094162 0.747707
vt 0.118494 0.718667
vt 0.288812 0.747707
vt 0.313143 0.718667
vt 0.069831 0.747707
vt 0.094162 0.718667
vt 0.264481 0.747707
vt 0.288812 0.718667
vt 0.045500 0.747707
vt 0.069831 0.718667
vt 0.240149 0.747707
vt 0.264481 0.718667
vt 0.410467 0.747707
vt 0.434799 0.718667
vt 0.434799 0.747707
vt 0.215818 0.747707
vt 0.240149 0.718667
vt 0.386136 0.747707
vt 0.410467 0.718667
vt 0.191487 0.718667
vt 0.191487 0.747707
vt 0.215818 0.718667
vt 0.386136 0.718667
vt 0.746895 0.759009
vt 0.734701 0.703137
vt 0.746895 0.703137
vt 0.759088 0.759009
vt 0.759088 0.703137
vt 0.771282 0.759009
vt 0.771282 0.703137
vt 0.783476 0.703137
vt 0.783476 0.759009
vt 0.795669 0.759009
vt 0.795669 0.703137
vt 0.612766 0.759009
vt 0.600573 0.703137
vt 0.612766 0.703137
vt 0.624960 0.703137
vt 0.624960 0.759009
vt 0.637153 0.703137
vt 0.637153 0.759009
vt 0.649347 0.759009
vt 0.649347 0.703137
vt 0.661540 0.759009
vt 0.661540 0.703137
vt 0.673734 0.703137
vt 0.673734 0.759009
vt 0.685927 0.703137
vt 0.685927 0.759009
vt 0.698121 0.759009
vt 0.698121 0.703137
vt 0.710314 0.703137
vt 0.710314 0.759009
vt 0.722508 0.703137
vt 0.722508 0.759009
vt 0.734701 0.759009
vt 0.757964 0.158219
vt 0.950100 0.160175
vt 0.757964 0.160175
vt 0.419478 0.885005
vt 0.404671 0.921349
vt 0.404993 0.885005
vt 0.404671 0.848660
vt 0.419156 0.848660
vt 0.422023 0.848660
vt 0.436187 0.885005
vt 0.418239 0.952161
vt 0.419156 0.921349
vt 0.422941 0.817848
vt 0.436509 0.848660
vt 0.385559 0.916507
vt 0.401530 0.950189
vt 0.387069 0.950371
vt 0.222459 0.921786
vt 0.238430 0.948822
vt 0.223970 0.948640
vt 0.385028 0.879465
vt 0.400020 0.916325
vt 0.221929 0.887205
vt 0.236920 0.921968
vt 0.385559 0.844884
vt 0.399489 0.879283
vt 0.222459 0.850163
vt 0.236390 0.887387
vt 0.387069 0.818030
vt 0.400020 0.844703
vt 0.223970 0.816299
vt 0.236920 0.850345
vt 0.437426 0.952161
vt 0.422941 0.952161
vt 0.403753 0.817848
vt 0.418239 0.817848
vt 0.983825 0.399666
vt 0.954703 0.369410
vt 0.983825 0.369410
vt 0.954703 0.339153
vt 0.983825 0.339153
vt 0.954703 0.308897
vt 0.983825 0.308897
vt 0.954703 0.278641
vt 0.983825 0.278641
vt 0.983825 0.248385
vt 0.954703 0.248385
vt 0.954703 0.218129
vt 0.983825 0.218129
vt 0.983825 0.187873
vt 0.954703 0.187873
vt 0.983825 0.157616
vt 0.954703 0.157616
vt 0.954703 0.127360
vt 0.983825 0.127360
vt 0.954703 0.097104
vt 0.983825 0.097104
vt 0.969126 0.066848
vt 0.940004 0.066848
vt 0.957577 0.036592
vt 0.928455 0.036592
vt 0.979959 0.477101
vt 0.939288 0.507357
vt 0.950837 0.477101
vt 0.983825 0.460178
vt 0.954703 0.460178
vt 0.954703 0.429922
vt 0.983825 0.429922
vt 0.954703 0.399666
vt 0.775305 0.205510
vt 0.794157 0.209392
vt 0.775305 0.209392
vt 0.757964 0.142576
vt 0.950100 0.144531
vt 0.757964 0.144531
vt 0.757964 0.156264
vt 0.950100 0.158219
vt 0.757964 0.140620
vt 0.950100 0.142576
vt 0.757964 0.154308
vt 0.950100 0.156264
vt 0.757964 0.138665
vt 0.950100 0.140620
vt 0.757964 0.152353
vt 0.950100 0.154308
vt 0.757964 0.167997
vt 0.950100 0.169952
vt 0.757964 0.169952
vt 0.757964 0.150398
vt 0.950100 0.152353
vt 0.757964 0.166041
vt 0.950100 0.167997
vt 0.757964 0.148442
vt 0.950100 0.150398
vt 0.757964 0.164086
vt 0.950100 0.166041
vt 0.757964 0.146487
vt 0.950100 0.148442
vt 0.950100 0.162130
vt 0.757964 0.162130
vt 0.950100 0.164086
vt 0.950100 0.146487
vt 0.794864 0.240315
vt 0.777447 0.236850
vt 0.794864 0.236850
vt 0.794864 0.233385
vt 0.777447 0.233385
vt 0.794864 0.229920
vt 0.777447 0.229920
vt 0.794864 0.226454
vt 0.777447 0.226454
vt 0.777447 0.222989
vt 0.794864 0.222989
vt 0.777447 0.219524
vt 0.794864 0.219524
vt 0.777447 0.216059
vt 0.794864 0.216059
vt 0.777447 0.212593
vt 0.794864 0.212593
vt 0.794864 0.209128
vt 0.777447 0.209128
vt 0.794864 0.205663
vt 0.777447 0.205663
vt 0.794864 0.202198
vt 0.777447 0.202198
vt 0.794864 0.198732
vt 0.777447 0.198732
vt 0.794864 0.254176
vt 0.777447 0.250711
vt 0.794864 0.250711
vt 0.777447 0.247246
vt 0.794864 0.247246
vt 0.777447 0.243781
vt 0.794864 0.243781
vt 0.777447 0.240315
vt 0.669332 0.099883
vt 0.669332 0.122775
vt 0.611789 0.111329
vt 0.775305 0.232687
vt 0.794157 0.236570
vt 0.775305 0.236570
vt 0.775305 0.201628
vt 0.794157 0.205510
vt 0.775305 0.228805
vt 0.794157 0.232687
vt 0.775305 0.197745
vt 0.794157 0.201628
vt 0.775305 0.224922
vt 0.794157 0.228805
vt 0.775305 0.193863
vt 0.794157 0.197745
vt 0.775305 0.221040
vt 0.794157 0.224922
vt 0.775305 0.189980
vt 0.794157 0.193863
vt 0.794157 0.217157
vt 0.794157 0.221040
vt 0.775305 0.248217
vt 0.794157 0.252099
vt 0.775305 0.252099
vt 0.775305 0.217157
vt 0.794157 0.213275
vt 0.775305 0.244334
vt 0.794157 0.248217
vt 0.775305 0.213275
vt 0.794157 0.240452
vt 0.775305 0.240452
vt 0.794157 0.244334
vt 0.554247 0.099883
vt 0.563007 0.078734
vt 0.660572 0.143924
vt 0.579195 0.062547
vt 0.644385 0.160111
vt 0.623236 0.168871
vt 0.600344 0.053787
vt 0.600344 0.168871
vt 0.623236 0.053787
vt 0.579195 0.160111
vt 0.644385 0.062547
vt 0.563007 0.143924
vt 0.660572 0.078734
vt 0.554247 0.122775
vt 0.366885 0.753838
vt 0.423910 0.779918
vt 0.423910 0.753838
vt 0.475963 0.753838
vt 0.257807 0.779918
vt 0.314832 0.753838
vt 0.257807 0.753838
vt 0.314832 0.779918
vt 0.614940 0.752773
vt 0.728462 0.505513
vt 0.732916 0.479846
vt 0.667844 0.519698
vt 0.513633 0.286860
vt 0.734738 0.286860
vt 0.734738 0.449353
vt 0.740856 0.427643
vt 0.511963 0.439897
vt 0.510448 0.427643
vt 0.736828 0.538173
vt 0.417121 0.775029
vt 0.479123 0.746044
vt 0.516457 0.218177
vt 0.739641 0.218177
vt 0.739641 0.497273
vt 0.686970 0.516065
vt 0.569127 0.516065
vt 0.363769 0.568524
vt 0.361893 0.663142
vt 0.475156 0.016639
vt 0.458770 -0.000011
vt 0.475177 0.507623
vt 0.458769 0.524269
vt 0.022578 0.507623
vt 0.022600 0.016639
vt 0.038986 -0.000011
vt 0.994047 0.976997
vt 0.996707 0.768084
vt 0.825270 0.662281
vt 0.816607 0.655765
vt 0.825281 0.854430
vt 0.816607 0.860945
vt 0.585994 0.854430
vt 0.586005 0.662281
vt 0.594669 0.655765
vt 0.045500 0.718667
vt 0.600573 0.759009
vt 0.403753 0.952161
vt 0.437426 0.817848
vt 0.401530 0.817848
vt 0.238430 0.816481
vt 0.968410 0.507357
vt 0.950100 0.138665
vt 0.777447 0.254176
vt 0.794157 0.189980
vt 0.366885 0.779918
vt 0.475963 0.779918
vt 0.296822 0.485388
vt 0.250000 0.490000
vt 0.203178 0.485388
vt 0.158156 0.471731
vt 0.116663 0.449553
vt 0.080294 0.419706
vt 0.050447 0.383337
vt 0.028269 0.341844
vt 0.014612 0.296822
vt 0.010000 0.250000
vt 0.014612 0.203178
vt 0.028269 0.158156
vt 0.050447 0.116663
vt 0.080294 0.080294
vt 0.116663 0.050447
vt 0.203178 0.014612
vt 0.341844 0.028269
vt 0.250000 0.010000
vt 0.296822 0.014612
vt 0.383337 0.050447
vt 0.419706 0.080294
vt 0.449553 0.116663
vt 0.485388 0.203178
vt 0.471731 0.341844
vt 0.490000 0.250000
vt 0.485388 0.296822
vt 0.449553 0.383337
vt 0.419706 0.419706
vt 0.383337 0.449553
vt 0.000000 1.000000
vt 0.750000 0.490000
vt 0.796822 0.485388
vt 0.841844 0.471731
vt 0.883337 0.449553
vt 0.919706 0.419706
vt 0.949553 0.383337
vt 0.971731 0.341844
vt 0.985388 0.296822
vt 0.990000 0.250000
vt 0.985388 0.203178
vt 0.971731 0.158156
vt 0.949553 0.116663
vt 0.919706 0.080294
vt 0.883337 0.050447
vt 0.841844 0.028269
vt 0.750000 0.010000
vt 0.703178 0.014612
vt 0.658156 0.028269
vt 0.616663 0.050447
vt 0.580294 0.080294
vt 0.550447 0.116663
vt 0.528269 0.158156
vt 0.510000 0.250000
vt 0.514612 0.296822
vt 0.528269 0.341844
vt 0.550447 0.383337
vt 0.580294 0.419706
vt 0.616663 0.449553
vt 0.658156 0.471731
s 0
usemtl Glass
f 2/1/1 3/2/1 1/3/1
f 4/4/2 5/5/2 3/2/2
f 6/6/3 7/7/3 5/5/3
f 8/8/4 9/9/4 7/7/4
f 10/10/5 11/11/5 9/9/5
f 12/12/6 13/13/6 11/11/6
f 14/14/7 15/15/7 13/13/7
f 16/16/8 17/17/8 15/15/8
f 18/18/9 19/19/9 17/17/9
f 20/20/10 21/21/10 19/19/10
f 22/22/11 23/23/11 21/21/11
f 24/24/12 25/25/12 23/23/12
f 26/26/13 27/27/13 25/25/13
f 28/28/14 29/29/14 27/27/14
f 30/30/15 31/31/15 29/29/15
f 32/32/16 33/33/16 31/31/16
f 34/34/17 35/35/17 33/33/17
f 36/36/18 37/37/18 35/35/18
f 38/38/19 39/39/19 37/37/19
f 40/40/20 41/41/20 39/39/20
f 42/42/21 43/43/21 41/41/21
f 44/44/22 45/45/22 43/43/22
f 46/46/23 47/47/23 45/45/23
f 48/48/24 49/49/24 47/47/24
f 50/50/25 51/51/25 49/49/25
f 52/52/26 53/53/26 51/51/26
f 54/54/27 55/55/27 53/53/27
f 56/56/28 57/57/28 55/55/28
f 58/58/29 59/59/29 57/57/29
f 60/60/30 61/61/30 59/59/30
f 38/62/31 22/63/31 6/64/31
f 62/65/32 63/66/32 61/61/32
f 64/67/33 1/68/33 63/66/33
f 31/69/34 47/70/34 63/71/34
f 2/1/1 4/4/1 3/2/1
f 4/4/2 6/6/2 5/5/2
f 6/6/3 8/8/3 7/7/3
f 8/8/4 10/10/4 9/9/4
f 10/10/5 12/12/5 11/11/5
f 12/12/6 14/14/6 13/13/6
f 14/14/7 16/16/7 15/15/7
f 16/16/8 18/18/8 17/17/8
f 18/18/9 20/20/9 19/19/9
f 20/20/10 22/22/10 21/21/10
f 22/22/11 24/24/11 23/23/11
f 24/24/12 26/26/12 25/25/12
f 26/26/13 28/28/13 27/27/13
f 28/28/14 30/30/14 29/29/14
f 30/30/15 32/32/15 31/31/15
f 32/32/16 34/34/16 33/33/16
f 34/34/17 36/36/17 35/35/17
f 36/36/18 38/38/18 37/37/18
f 38/38/19 40/40/19 39/39/19
f 40/40/20 42/42/20 41/41/20
f 42/42/21 44/44/21 43/43/21
f 44/44/22 46/46/22 45/45/22
f 46/46/23 48/48/23 47/47/23
f 48/48/24 50/50/24 49/49/24
f 50/50/25 52/52/25 51/51/25
f 52/52/26 54/54/26 53/53/26
f 54/54/27 56/56/27 55/55/27
f 56/56/28 58/58/28 57/57/28
f 58/58/29 60/60/29 59/59/29
f 60/60/30 62/65/30 61/61/30
f 6/64/31 4/488/31 2/489/31
f 2/489/31 64/490/31 6/64/31
f 64/490/31 62/491/31 6/64/31
f 62/491/149 60/492/149 58/493/149
f 58/493/31 56/494/31 54/495/31
f 54/495/31 52/496/31 50/497/31
f 50/497/31 48/498/31 54/495/31
f 48/498/31 46/499/31 54/495/31
f 46/499/31 44/500/31 42/501/31
f 42/501/31 40/502/31 38/62/31
f 38/62/31 36/503/31 30/504/31
f 36/503/31 34/505/31 30/504/31
f 34/505/31 32/506/31 30/504/31
f 30/504/150 28/507/150 26/508/150
f 26/508/31 24/509/31 22/63/31
f 22/63/31 20/510/31 14/511/31
f 20/510/31 18/512/31 14/511/31
f 18/512/31 16/513/31 14/511/31
f 14/511/150 12/514/150 10/515/150
f 10/515/150 8/516/150 6/64/150
f 62/491/31 58/493/31 6/64/31
f 58/493/31 54/495/31 6/64/31
f 46/499/31 42/501/31 54/495/31
f 42/501/31 38/62/31 54/495/31
f 30/504/31 26/508/31 38/62/31
f 26/508/31 22/63/31 38/62/31
f 14/511/31 10/515/31 22/63/31
f 10/515/31 6/64/31 22/63/31
f 6/64/31 54/495/31 38/62/31
f 62/65/32 64/67/32 63/66/32
f 64/67/33 2/517/33 1/68/33
f 63/71/34 1/518/34 3/519/34
f 3/519/148 5/520/148 7/521/148
f 7/521/83 9/522/83 11/523/83
f 11/523/34 13/524/34 15/525/34
f 15/525/83 17/526/83 19/527/83
f 19/527/34 21/528/34 23/529/34
f 23/529/34 25/530/34 27/531/34
f 27/531/148 29/532/148 31/69/148
f 31/69/34 33/533/34 35/534/34
f 35/534/34 37/535/34 39/536/34
f 39/536/34 41/537/34 43/538/34
f 43/538/34 45/539/34 47/70/34
f 47/70/34 49/540/34 51/541/34
f 51/541/34 53/542/34 55/543/34
f 55/543/34 57/544/34 59/545/34
f 59/545/34 61/546/34 63/71/34
f 63/71/34 3/519/34 15/525/34
f 3/519/34 7/521/34 15/525/34
f 7/521/34 11/523/34 15/525/34
f 15/525/34 19/527/34 31/69/34
f 19/527/34 23/529/34 31/69/34
f 23/529/34 27/531/34 31/69/34
f 31/69/34 35/534/34 47/70/34
f 35/534/34 39/536/34 47/70/34
f 39/536/34 43/538/34 47/70/34
f 47/70/34 51/541/34 63/71/34
f 51/541/34 55/543/34 63/71/34
f 55/543/34 59/545/34 63/71/34
f 63/71/34 15/525/34 31/69/34
s 1
usemtl lcctv.001
f 66/72/35 67/73/35 65/74/35
f 72/75/36 69/76/36 71/77/36
f 70/78/37 65/79/37 69/80/37
f 71/81/38 65/74/38 67/73/38
f 68/82/39 70/83/39 72/75/39
f 77/84/35 74/85/35 73/86/35
f 86/87/38 81/88/38 82/89/38
f 79/90/36 88/91/40 85/92/40
f 75/93/41 77/94/42 73/95/41
f 76/85/36 79/84/36 75/86/36
f 87/96/43 81/97/44 86/98/43
f 84/99/44 82/100/45 81/97/44
f 86/98/43 88/91/40 87/96/43
f 83/101/45 77/102/35 82/100/45
f 96/103/46 105/104/47 103/105/48
f 91/106/49 96/107/46 90/108/50
f 89/109/51 102/110/52 95/111/53
f 94/112/54 100/113/55 93/114/56
f 92/115/57 98/116/58 91/106/49
f 90/108/50 97/117/59 89/118/51
f 95/111/53 101/119/60 94/112/54
f 93/114/56 99/120/61 92/115/57
f 97/121/59 109/122/62 102/123/52
f 100/124/55 108/104/63 107/125/64
f 99/124/61 105/104/47 98/126/58
f 96/127/46 104/128/65 97/121/59
f 102/103/52 108/104/63 101/126/60
f 99/129/61 107/130/64 106/131/66
f 114/132/67 117/133/68 115/134/69
f 112/135/70 117/136/68 116/137/71
f 110/138/72 114/139/67 115/140/69
f 113/141/73 115/140/69 117/136/68
f 112/142/70 114/139/67 111/143/74
f 122/132/68 125/133/75 124/144/71
f 120/135/70 125/136/75 121/145/74
f 123/140/69 119/146/73 118/138/72
f 121/141/74 123/140/69 118/147/72
f 122/139/68 120/142/70 119/143/73
f 130/132/75 133/133/68 132/144/69
f 132/137/69 129/145/73 128/135/72
f 131/140/71 127/146/74 126/138/70
f 129/141/73 131/140/71 126/147/70
f 130/139/75 128/142/72 127/143/74
f 138/132/68 141/133/75 139/134/71
f 137/145/74 140/137/69 136/135/72
f 135/146/73 139/140/71 134/138/70
f 137/141/74 139/140/71 141/136/75
f 136/142/72 138/139/68 135/143/73
f 88/148/39 80/149/39 78/150/39
f 158/151/76 145/152/77 148/153/77
f 161/154/78 146/155/79 156/156/80
f 142/157/81 147/158/82 150/159/82
f 143/160/34 155/161/83 153/162/34
f 151/163/79 147/158/82 146/164/79
f 145/165/77 149/166/84 148/167/77
f 149/166/84 143/168/85 142/157/85
f 157/169/86 152/170/87 160/171/86
f 157/169/86 161/172/78 156/173/80
f 159/174/88 155/175/76 158/176/76
f 152/170/89 154/177/88 159/174/88
f 152/178/31 148/179/31 142/180/31
f 186/181/90 233/182/91 185/183/91
f 164/184/92 194/185/93 163/186/93
f 172/187/94 203/188/95 171/189/95
f 165/190/96 196/191/97 164/184/92
f 173/192/98 204/193/99 172/187/94
f 166/194/100 197/195/96 165/190/96
f 174/196/101 205/197/98 173/192/98
f 167/198/102 198/199/100 166/194/100
f 175/200/103 206/201/101 174/196/101
f 168/202/104 199/203/102 167/198/102
f 176/204/105 207/205/103 175/200/103
f 169/206/106 200/207/107 168/208/104
f 177/209/91 208/210/108 176/204/105
f 170/211/109 201/212/106 169/206/106
f 163/186/93 195/213/90 162/214/90
f 177/209/91 195/213/90 209/215/91
f 171/189/95 202/216/109 170/211/109
f 178/217/31 195/218/31 194/219/31
f 180/220/31 194/219/31 196/221/31
f 181/222/31 196/221/31 197/223/31
f 181/222/31 198/224/31 182/225/31
f 183/226/31 198/224/31 199/227/31
f 184/228/31 199/229/31 200/230/31
f 184/228/31 201/231/31 185/232/31
f 185/232/31 202/233/31 186/234/31
f 187/235/31 202/233/31 203/236/31
f 188/237/31 203/236/31 204/238/31
f 188/237/31 205/239/31 189/240/31
f 189/240/31 206/241/31 190/242/31
f 191/243/31 206/241/31 207/244/31
f 191/243/31 208/245/31 192/246/31
f 192/246/31 209/247/31 193/248/31
f 193/248/31 195/218/31 179/249/31
f 212/250/92 258/251/93 210/252/93
f 179/253/109 226/254/95 227/255/109
f 179/253/109 241/256/106 193/257/106
f 187/258/93 234/259/90 186/181/90
f 180/260/94 226/254/95 178/261/95
f 188/262/92 235/263/93 187/258/93
f 181/264/98 228/265/99 180/266/94
f 189/267/96 236/268/97 188/269/92
f 182/270/110 229/271/98 181/264/98
f 190/272/100 237/273/96 189/267/96
f 183/274/103 230/275/101 182/270/110
f 191/276/102 238/277/100 190/272/100
f 184/278/105 231/279/103 183/274/103
f 192/280/104 239/281/102 191/276/102
f 185/183/91 232/282/108 184/283/105
f 193/257/106 240/284/107 192/285/104
f 211/286/111 226/287/112 210/288/112
f 210/288/112 228/289/113 212/290/113
f 212/290/113 229/291/114 213/292/114
f 213/292/114 230/293/115 214/294/115
f 215/295/116 230/293/115 231/296/116
f 215/295/116 232/297/117 216/298/117
f 217/299/118 232/297/117 233/300/118
f 218/301/119 233/300/118 234/302/119
f 218/301/119 235/303/120 219/304/120
f 219/304/120 236/305/121 220/306/121
f 221/307/122 236/305/121 237/308/122
f 222/309/123 237/308/122 238/310/123
f 223/311/124 238/312/123 239/313/124
f 224/314/125 239/313/124 240/315/125
f 224/314/125 241/316/126 225/317/126
f 211/286/111 241/316/126 227/318/111
f 251/319/93 282/320/90 250/321/90
f 220/322/94 267/323/95 219/324/95
f 213/325/96 260/326/97 212/250/92
f 221/327/98 268/328/99 220/322/94
f 214/329/100 261/330/96 213/325/96
f 222/331/101 269/332/98 221/327/98
f 215/333/102 262/334/100 214/329/100
f 223/335/103 270/336/101 222/337/101
f 216/338/104 263/339/102 215/333/102
f 224/340/105 271/341/103 223/335/103
f 217/342/106 264/343/107 216/338/104
f 225/344/91 272/345/108 224/340/105
f 218/346/109 265/347/106 217/342/106
f 210/252/93 259/348/90 211/349/90
f 211/349/90 273/350/91 225/344/91
f 219/324/95 266/351/109 218/346/109
f 243/352/31 258/353/31 242/354/31
f 244/355/31 258/353/31 260/356/31
f 245/357/31 260/356/31 261/358/31
f 246/359/31 261/358/31 262/360/31
f 246/359/31 263/361/31 247/362/31
f 247/362/31 264/363/31 248/364/31
f 248/364/31 265/365/31 249/366/31
f 249/366/31 266/367/31 250/368/31
f 251/369/31 266/367/31 267/370/31
f 252/371/31 267/370/31 268/372/31
f 253/373/31 268/372/31 269/374/31
f 254/375/31 269/374/31 270/376/31
f 254/377/31 271/378/31 255/379/31
f 255/379/31 272/380/31 256/381/31
f 256/381/31 273/382/31 257/383/31
f 243/352/31 273/382/31 259/384/31
f 287/385/127 288/386/128 290/387/31
f 244/388/99 274/389/95 242/390/95
f 252/391/129 283/392/93 251/319/93
f 245/393/98 276/394/94 244/388/99
f 253/395/96 284/396/92 252/391/129
f 246/397/101 277/398/98 245/393/98
f 254/399/100 285/400/96 253/395/96
f 247/401/103 278/402/101 246/397/101
f 255/403/102 286/404/100 254/399/100
f 247/401/103 280/405/108 279/406/103
f 256/407/107 287/408/102 255/409/102
f 248/410/108 281/411/91 280/405/108
f 257/412/106 288/413/104 256/407/107
f 250/321/90 281/411/91 249/414/91
f 242/390/95 275/415/109 243/416/109
f 243/416/109 289/417/106 257/412/106
f 280/418/130 281/419/131 290/387/31
f 288/386/128 289/420/132 290/387/31
f 281/419/131 282/421/133 290/387/31
f 275/422/134 274/423/135 290/387/31
f 289/420/132 275/422/134 290/387/31
f 282/421/133 283/424/136 290/387/31
f 274/423/135 276/425/137 290/387/31
f 283/424/136 284/426/138 290/387/31
f 276/425/137 277/427/139 290/387/31
f 284/426/138 285/428/140 290/387/31
f 277/427/139 278/429/141 290/387/31
f 285/428/140 286/430/142 290/387/31
f 278/429/141 279/431/143 290/387/31
f 286/430/142 287/385/127 290/387/31
f 279/431/143 280/418/130 290/387/31
f 291/432/144 294/433/144 293/434/144
f 294/433/145 297/435/145 293/434/145
f 298/436/146 295/437/146 297/438/146
f 296/439/147 291/432/147 295/437/147
f 297/440/109 291/440/109 293/440/109
f 66/72/35 68/82/35 67/73/35
f 72/75/36 70/83/36 69/76/36
f 70/78/37 66/441/37 65/79/37
f 71/81/38 69/442/38 65/74/38
f 68/82/39 66/72/39 70/83/39
f 77/84/35 78/443/35 74/85/35
f 82/89/38 77/444/42 79/445/42
f 79/445/42 85/446/38 82/89/38
f 85/446/38 86/87/38 82/89/38
f 79/90/36 80/447/36 88/91/40
f 75/93/41 79/448/42 77/94/42
f 76/85/36 80/443/36 79/84/36
f 87/96/43 84/99/44 81/97/44
f 84/99/44 83/101/45 82/100/45
f 86/98/43 85/92/40 88/91/40
f 83/101/45 78/449/35 77/102/35
f 96/103/46 98/126/58 105/104/47
f 91/106/49 98/116/58 96/107/46
f 89/109/51 97/450/59 102/110/52
f 94/112/54 101/119/60 100/113/55
f 92/115/57 99/120/61 98/116/58
f 90/108/50 96/107/46 97/117/59
f 95/111/53 102/110/52 101/119/60
f 93/114/56 100/113/55 99/120/61
f 97/121/59 104/128/65 109/122/62
f 100/124/55 101/126/60 108/104/63
f 99/124/61 106/125/66 105/104/47
f 96/127/46 103/451/48 104/128/65
f 102/103/52 109/105/62 108/104/63
f 99/129/61 100/452/55 107/130/64
f 114/132/67 116/144/71 117/133/68
f 112/135/70 113/145/73 117/136/68
f 110/138/72 111/146/74 114/139/67
f 113/141/73 110/147/72 115/140/69
f 112/142/70 116/137/71 114/139/67
f 122/132/68 123/134/69 125/133/75
f 120/135/70 124/137/71 125/136/75
f 123/140/69 122/139/68 119/146/73
f 121/141/74 125/136/75 123/140/69
f 122/139/68 124/137/71 120/142/70
f 130/132/75 131/134/71 133/133/68
f 132/137/69 133/136/68 129/145/73
f 131/140/71 130/139/75 127/146/74
f 129/141/73 133/136/68 131/140/71
f 130/139/75 132/137/69 128/142/72
f 138/132/68 140/144/69 141/133/75
f 137/145/74 141/136/75 140/137/69
f 135/146/73 138/139/68 139/140/71
f 137/141/74 134/147/70 139/140/71
f 136/142/72 140/137/69 138/139/68
f 80/149/39 76/453/39 74/454/39
f 78/150/39 83/455/39 88/148/39
f 83/455/39 84/456/39 87/457/39
f 80/149/39 74/454/39 78/150/39
f 87/457/39 88/148/39 83/455/39
f 158/151/76 155/458/76 145/152/77
f 161/154/78 151/459/79 146/155/79
f 142/157/81 143/168/81 147/158/82
f 147/460/34 143/160/34 146/461/34
f 143/160/34 144/462/148 145/463/34
f 155/161/83 143/160/34 145/463/34
f 155/161/83 154/464/83 153/162/34
f 153/162/34 157/465/34 156/466/34
f 156/466/34 146/461/34 153/162/34
f 153/162/34 146/461/34 143/160/34
f 151/163/79 150/159/82 147/158/82
f 145/165/77 144/467/84 149/166/84
f 149/166/84 144/467/84 143/168/85
f 157/169/86 153/468/87 152/170/87
f 157/169/86 160/171/86 161/172/78
f 159/174/88 154/177/88 155/175/76
f 152/170/89 153/468/89 154/177/88
f 160/469/31 152/178/31 161/470/31
f 152/178/31 159/471/31 158/472/31
f 148/179/31 152/178/31 158/472/31
f 148/179/31 149/473/31 142/180/31
f 142/180/31 150/474/31 151/475/31
f 151/475/31 161/470/31 142/180/31
f 142/180/31 161/470/31 152/178/31
f 186/181/90 234/259/90 233/182/91
f 164/184/92 196/191/97 194/185/93
f 172/187/94 204/193/99 203/188/95
f 165/190/96 197/195/96 196/191/97
f 173/192/98 205/197/98 204/193/99
f 166/194/100 198/199/100 197/195/96
f 174/196/101 206/201/101 205/197/98
f 167/198/102 199/203/102 198/199/100
f 175/200/103 207/205/103 206/201/101
f 168/202/104 200/476/107 199/203/102
f 176/204/105 208/210/108 207/205/103
f 169/206/106 201/212/106 200/207/107
f 177/209/91 209/215/91 208/210/108
f 170/211/109 202/216/109 201/212/106
f 163/186/93 194/185/93 195/213/90
f 177/209/91 162/214/90 195/213/90
f 171/189/95 203/188/95 202/216/109
f 178/217/31 179/249/31 195/218/31
f 180/220/31 178/217/31 194/219/31
f 181/222/31 180/220/31 196/221/31
f 181/222/31 197/223/31 198/224/31
f 183/226/31 182/225/31 198/224/31
f 184/228/31 183/477/31 199/229/31
f 184/228/31 200/230/31 201/231/31
f 185/232/31 201/231/31 202/233/31
f 187/235/31 186/234/31 202/233/31
f 188/237/31 187/235/31 203/236/31
f 188/237/31 204/238/31 205/239/31
f 189/240/31 205/239/31 206/241/31
f 191/243/31 190/242/31 206/241/31
f 191/243/31 207/244/31 208/245/31
f 192/246/31 208/245/31 209/247/31
f 193/248/31 209/247/31 195/218/31
f 212/250/92 260/326/97 258/251/93
f 179/253/109 178/261/95 226/254/95
f 179/253/109 227/255/109 241/256/106
f 187/258/93 235/263/93 234/259/90
f 180/260/94 228/478/99 226/254/95
f 188/262/92 236/479/97 235/263/93
f 181/264/98 229/271/98 228/265/99
f 189/267/96 237/273/96 236/268/97
f 182/270/110 230/275/101 229/271/98
f 190/272/100 238/277/100 237/273/96
f 183/274/103 231/279/103 230/275/101
f 191/276/102 239/281/102 238/277/100
f 184/278/105 232/480/108 231/279/103
f 192/280/104 240/481/107 239/281/102
f 185/183/91 233/182/91 232/282/108
f 193/257/106 241/256/106 240/284/107
f 211/286/111 227/318/111 226/287/112
f 210/288/112 226/287/112 228/289/113
f 212/290/113 228/289/113 229/291/114
f 213/292/114 229/291/114 230/293/115
f 215/295/116 214/294/115 230/293/115
f 215/295/116 231/296/116 232/297/117
f 217/299/118 216/298/117 232/297/117
f 218/301/119 217/299/118 233/300/118
f 218/301/119 234/302/119 235/303/120
f 219/304/120 235/303/120 236/305/121
f 221/307/122 220/306/121 236/305/121
f 222/309/123 221/307/122 237/308/122
f 223/311/124 222/482/123 238/312/123
f 224/314/125 223/311/124 239/313/124
f 224/314/125 240/315/125 241/316/126
f 211/286/111 225/317/126 241/316/126
f 251/319/93 283/392/93 282/320/90
f 220/322/94 268/328/99 267/323/95
f 213/325/96 261/330/96 260/326/97
f 221/327/98 269/332/98 268/328/99
f 214/329/100 262/334/100 261/330/96
f 222/331/101 270/483/101 269/332/98
f 215/333/102 263/339/102 262/334/100
f 223/335/103 271/341/103 270/336/101
f 216/338/104 264/343/107 263/339/102
f 224/340/105 272/345/108 271/341/103
f 217/342/106 265/347/106 264/343/107
f 225/344/91 273/350/91 272/345/108
f 218/346/109 266/351/109 265/347/106
f 210/252/93 258/251/93 259/348/90
f 211/349/90 259/348/90 273/350/91
f 219/324/95 267/323/95 266/351/109
f 243/352/31 259/384/31 258/353/31
f 244/355/31 242/354/31 258/353/31
f 245/357/31 244/355/31 260/356/31
f 246/359/31 245/357/31 261/358/31
f 246/359/31 262/360/31 263/361/31
f 247/362/31 263/361/31 264/363/31
f 248/364/31 264/363/31 265/365/31
f 249/366/31 265/365/31 266/367/31
f 251/369/31 250/368/31 266/367/31
f 252/371/31 251/369/31 267/370/31
f 253/373/31 252/371/31 268/372/31
f 254/375/31 253/373/31 269/374/31
f 254/377/31 270/484/31 271/378/31
f 255/379/31 271/378/31 272/380/31
f 256/381/31 272/380/31 273/382/31
f 243/352/31 257/383/31 273/382/31
f 244/388/99 276/394/94 274/389/95
f 252/391/129 284/396/92 283/392/93
f 245/393/98 277/398/98 276/394/94
f 253/395/96 285/400/96 284/396/92
f 246/397/101 278/402/101 277/398/98
f 254/399/100 286/404/100 285/400/96
f 247/401/103 279/406/103 278/402/101
f 255/403/102 287/485/102 286/404/100
f 247/401/103 248/410/108 280/405/108
f 256/407/107 288/413/104 287/408/102
f 248/410/108 249/414/91 281/411/91
f 257/412/106 289/417/106 288/413/104
f 250/321/90 282/320/90 281/411/91
f 242/390/95 274/389/95 275/415/109
f 243/416/109 275/415/109 289/417/106
f 291/432/144 292/486/144 294/433/144
f 294/433/145 298/487/145 297/435/145
f 298/436/146 296/439/146 295/437/146
f 296/439/147 292/486/147 291/432/147
f 297/440/109 295/440/109 291/440/109
