# Blender 4.1.0
# www.blender.org
mtllib FarWallDetail.mtl
o Far_Wall_Detail
v 26.672188 0.008675 -104.749184
v 26.672188 37.372013 -104.749184
v 26.672188 0.008675 -107.145821
v 26.672188 37.372013 -107.145821
v 32.610088 0.008675 -104.749184
v 32.610088 37.372013 -104.749184
v 32.610088 0.008675 -107.145821
v 32.610088 37.372013 -107.145821
vn -1.0000 -0.0000 -0.0000
vn -0.0000 -0.0000 -1.0000
vn 1.0000 -0.0000 -0.0000
vn -0.0000 -0.0000 1.0000
vn -0.0000 -1.0000 -0.0000
vn -0.0000 1.0000 -0.0000
vt 0.254555 0.943149
vt 0.197704 0.056851
vt 0.254555 0.056851
vt 0.197704 0.943149
vt 0.056851 0.056851
vt 0.056851 0.943149
vt 0.000000 0.056851
vt 0.395408 0.943149
vt 0.395408 0.056851
vt 0.197704 0.000000
vt 0.056851 1.000000
vt 0.000000 0.943149
vt 0.056851 0.000000
vt 0.197704 1.000000
s 0
usemtl Material.007
f 2/1/1 3/2/1 1/3/1
f 4/4/2 7/5/2 3/2/2
f 8/6/3 5/7/3 7/5/3
f 6/8/4 1/3/4 5/9/4
f 7/5/5 1/10/5 3/2/5
f 4/4/6 6/11/6 8/6/6
f 2/1/1 4/4/1 3/2/1
f 4/4/2 8/6/2 7/5/2
f 8/6/3 6/12/3 5/7/3
f 6/8/4 2/1/4 1/3/4
f 7/5/5 5/13/5 1/10/5
f 4/4/6 2/14/6 6/11/6
