# Blender 4.1.0
# www.blender.org
mtllib GRU.mtl
o Regroup51
v 7.284806 3.621045 26.284670
v 7.089423 4.744652 26.289278
v 7.385218 4.416109 25.760433
v 8.534093 4.895935 26.266151
v 8.226392 4.864487 25.676414
v 8.482142 5.291065 26.221972
v 8.354806 4.811690 26.818844
v 8.256783 5.297608 25.590105
v 8.247161 5.176334 25.610512
v 7.734255 5.294734 25.335361
v 8.275333 5.291826 26.767220
v 8.154288 3.820243 25.678751
v 7.614397 3.727242 25.750683
v 7.450203 4.317462 26.987846
v 7.388028 4.908041 27.002840
v 8.367036 4.444188 25.656960
v 8.368382 3.758867 26.774076
v 8.025558 4.492362 27.087444
v 7.831733 4.266656 25.574810
v 7.872093 5.271163 27.052778
v 7.163926 5.241038 27.133255
v 7.767284 5.095466 25.462936
v 8.506494 4.392041 26.799595
v 8.136731 3.449981 27.083479
v 7.308924 5.065312 25.512436
v 7.163656 5.315735 25.273254
v 7.532356 3.667520 26.915113
v 8.550000 3.815915 26.291691
v 8.680000 4.475960 26.246862
v 7.163268 5.032248 25.688076
v 5.794450 4.896538 26.266117
v 5.846401 5.291667 26.221931
v 6.102151 4.865089 25.676378
v 5.973738 4.812293 26.818813
v 6.069883 5.298748 25.590740
v 6.585186 5.288579 25.339142
v 6.080065 5.177248 25.610956
v 6.053210 5.292428 26.767181
v 6.941007 4.416461 25.760714
v 6.714140 3.727916 25.750750
v 6.174253 3.820869 25.678764
v 7.232305 4.744295 26.289318
v 6.938744 4.908694 27.002813
v 6.876709 4.318204 26.987814
v 5.961508 4.444791 25.656931
v 5.960162 3.759470 26.774063
v 6.302985 4.492964 27.087416
v 6.496811 4.267259 25.574783
v 7.043638 3.621916 26.285658
v 6.556879 5.094016 25.464689
v 5.822050 4.392643 26.799568
v 6.191809 3.450550 27.083492
v 7.018322 5.064820 25.512751
v 6.456059 5.272059 27.052719
v 6.796079 3.667476 26.915997
v 5.778543 3.816519 26.291672
v 5.648544 4.476563 26.246834
v 7.442805 3.196650 26.265793
v 7.646475 3.384224 25.730276
v 7.658268 3.189787 26.781921
v 8.273734 2.467144 26.920382
v 8.159486 3.150712 26.916451
v 8.175722 3.363247 25.708303
v 8.294863 2.773662 25.635126
v 8.544144 3.219730 26.272572
v 7.776412 2.435447 26.869732
v 7.837448 2.268441 26.667675
v 8.236164 2.295588 26.665634
v 7.659176 2.602185 25.645613
v 8.702052 2.665103 26.216869
v 8.159821 2.329419 25.762894
v 8.446257 2.335306 26.183474
v 7.841592 2.311874 25.765259
v 7.613684 2.279221 26.165928
v 7.451517 2.500870 26.177412
v 6.670266 3.190293 26.781975
v 6.169055 3.151268 26.916460
v 6.054807 2.467731 26.920372
v 6.682060 3.385040 25.730400
v 6.033675 2.774226 25.635107
v 6.152818 3.363907 25.708334
v 5.784395 3.220336 26.272602
v 6.557968 2.435655 26.869673
v 6.092375 2.296165 26.665621
v 6.496929 2.268664 26.667589
v 6.675234 2.602606 25.645527
v 6.885700 3.197655 26.266298
v 5.626482 2.665651 26.216896
v 6.168721 2.329993 25.762817
v 5.882271 2.335845 26.183500
v 6.486972 2.312527 25.765108
v 6.877064 2.501577 26.177170
v 6.714891 2.279870 26.165667
v 7.159594 4.841832 26.314039
v 8.216402 0.975519 26.439999
v 8.229178 0.692587 26.500565
v 8.354399 0.497249 26.316097
v 7.841796 0.970227 25.700108
v 8.158737 2.332525 25.759483
v 8.142599 0.986736 25.693918
v 7.840344 2.315602 25.761702
v 8.367727 0.952384 26.111296
v 7.711241 1.067625 26.099129
v 7.876225 0.676615 26.507292
v 7.857911 0.956106 26.446907
v 7.613012 2.280734 26.162569
v 8.365677 0.509449 25.954395
v 8.236164 2.294155 26.662247
v 7.837448 2.267168 26.664551
v 8.445846 2.335968 26.180599
v 7.704825 0.510508 26.243002
v 6.452317 0.677100 26.507088
v 6.623732 0.511041 26.242764
v 6.617301 1.068197 26.098934
v 6.486745 0.970801 25.699890
v 6.488190 2.316158 25.761625
v 6.715525 2.281291 26.162493
v 5.960814 0.952959 26.111080
v 5.882693 2.336524 26.180532
v 6.169806 2.333081 25.759409
v 6.470642 0.956660 26.446712
v 6.112071 0.976098 26.439762
v 6.092404 2.294707 26.662199
v 5.974076 0.497592 26.315912
v 6.099373 0.693002 26.500399
v 6.496939 2.267414 26.664515
v 5.962855 0.509917 25.954174
v 6.185951 0.987310 25.693703
v 8.314055 0.138277 26.088219
v 7.712569 0.018479 26.833227
v 7.786752 0.118001 26.098137
v 8.417558 0.014637 26.772291
v 7.790791 0.002707 26.096046
v 8.241326 0.128210 27.318501
v 7.883485 0.125548 27.319300
v 8.318111 0.022602 26.086308
v 7.886324 0.013773 25.672304
v 8.187262 0.024148 25.667379
v 6.537376 0.002847 26.095800
v 6.011706 0.022405 26.087019
v 6.442289 0.014125 25.672176
v 6.141526 0.024209 25.667479
v 6.015691 0.137970 26.088953
v 6.445177 0.125716 27.319277
v 6.087337 0.128322 27.318504
v 6.616033 0.018644 26.833178
v 5.911402 0.014738 26.772440
v 6.541309 0.117961 26.097923
v 8.352202 0.494400 26.318478
v 8.450575 0.269345 26.798836
v 8.300223 0.129534 26.098944
v 8.057061 0.460628 26.833225
v 8.230724 0.697309 26.497671
v 7.877599 0.697327 26.497663
v 8.236492 0.130644 27.319590
v 7.877643 0.130662 27.319584
v 7.704042 0.026291 26.833502
v 7.721352 0.275192 26.798819
v 7.773452 0.129550 26.098919
v 8.410090 0.014789 26.775717
v 7.703957 0.523284 26.237511
v 6.607186 0.275191 26.798819
v 6.555083 0.129548 26.098919
v 6.624578 0.523282 26.237511
v 6.028312 0.129536 26.098944
v 5.918447 0.014790 26.775717
v 5.877962 0.269347 26.798834
v 6.271474 0.460628 26.833223
v 6.092047 0.130646 27.319590
v 5.976333 0.494402 26.318480
v 6.097811 0.697309 26.497671
v 6.450936 0.697326 26.497662
v 6.450896 0.130661 27.319584
v 6.624495 0.026290 26.833504
v 7.850304 0.970970 25.695770
v 7.852071 0.522163 25.587643
v 7.704227 0.519061 26.239279
v 8.305853 0.132873 26.094643
v 8.307673 0.017224 26.093805
v 8.185056 0.021029 25.669893
v 8.366060 0.507960 25.954922
v 8.169448 0.532025 25.583391
v 7.883851 0.013288 25.673683
v 7.777340 0.125955 26.098732
v 7.778806 0.010137 26.098143
v 8.354073 0.496809 26.316452
v 8.149853 0.983988 25.691422
v 6.483066 0.522334 25.587914
v 6.624296 0.518981 26.239311
v 6.444279 0.013593 25.673342
v 5.962628 0.509010 25.954498
v 6.163198 0.537053 25.582903
v 6.142823 0.022169 25.669031
v 6.181273 0.985443 25.692095
v 6.479745 0.971298 25.696365
v 5.974342 0.497201 26.316216
v 6.022304 0.133292 26.094263
v 6.551000 0.125903 26.098663
v 6.549452 0.010084 26.098038
v 6.020334 0.017665 26.093346
v 8.144124 6.447309 26.206953
v 8.366571 5.990467 26.200205
v 8.136479 6.031866 25.650251
v 7.974902 6.467860 25.818867
v 6.192162 6.032405 25.650156
v 5.961967 5.990892 26.200169
v 6.184499 6.447437 26.206909
v 6.353793 6.467949 25.818794
v 7.383866 6.316375 27.082006
v 6.944676 6.316400 27.082008
v 7.164270 6.031677 27.169596
v 7.625675 6.756805 25.606403
v 7.982726 6.774785 25.808279
v 7.383159 6.601238 27.093733
v 6.945381 6.601255 27.093729
v 6.703126 6.756670 25.606308
v 7.607904 6.454848 25.606281
v 6.721081 6.454483 25.606125
v 8.151255 6.746897 26.219246
v 6.345509 6.774846 25.808399
v 6.177291 6.746933 26.219240
v 7.754487 6.954473 27.059240
v 7.164270 6.948637 27.198187
v 7.979050 6.688782 26.757906
v 7.725492 7.133699 25.416059
v 8.113131 7.110539 25.734224
v 8.269390 7.070067 26.191336
v 8.147960 6.994951 26.683088
v 6.574052 6.954473 27.059240
v 6.349495 6.688802 26.757902
v 6.215407 7.110539 25.734224
v 6.603046 7.133699 25.416059
v 6.180578 6.994951 26.683088
v 6.059149 7.070067 26.191336
v 7.737168 7.423069 26.902983
v 8.026340 7.498376 26.619455
v 7.765965 8.152225 26.972454
v 6.562574 8.152225 26.972454
v 6.302199 7.498376 26.619455
v 6.591371 7.423069 26.902983
v 7.164270 8.690288 26.804708
v 8.078493 7.718273 25.705227
v 8.171120 7.660285 26.150858
v 7.731327 7.770229 25.450695
v 7.164270 7.370914 27.047766
v 6.250045 7.718273 25.705227
v 6.157418 7.660285 26.116030
v 6.597212 7.770229 25.450695
v 6.141899 8.008334 25.696592
v 6.283833 9.190470 26.116922
v 5.929517 8.748191 25.669329
v 5.777990 8.907036 26.099846
v 6.503753 8.340479 25.343740
v 6.152209 8.364388 25.467573
v 6.466273 8.978360 25.531509
v 6.392280 8.849546 26.655628
v 6.059149 7.874340 26.064072
v 6.135950 8.343596 26.555717
v 6.071119 8.906957 26.470531
v 6.464929 5.266854 27.049442
v 7.164242 5.245895 27.126997
v 6.309253 6.153983 26.850283
v 6.395969 6.382680 26.821453
v 5.849103 5.289009 26.220959
v 6.589631 5.291666 25.337324
v 6.656904 6.051880 25.357607
v 7.162543 5.316236 25.273117
v 6.058474 5.287250 26.765181
v 6.075064 5.297184 25.588867
v 8.188510 8.005787 25.691811
v 8.559896 8.969315 26.086563
v 8.405769 8.819833 25.627134
v 8.017328 9.194925 26.130384
v 8.178520 8.370378 25.454811
v 7.824570 8.341196 25.341682
v 7.861839 8.988254 25.532743
v 7.933506 8.835027 26.670029
v 8.269390 7.874340 26.064072
v 8.257993 8.876546 26.499512
v 8.193039 8.333512 26.558498
v 7.862898 5.266098 27.049147
v 8.024938 6.153923 26.850290
v 7.932559 6.382653 26.821451
v 8.479333 5.288346 26.220961
v 7.677693 6.053078 25.357712
v 7.725726 5.300863 25.331816
v 8.270306 5.286952 26.765303
v 8.249262 5.295458 25.587387
v 7.557750 8.979656 26.567492
v 7.528749 8.933344 26.862505
v 7.164270 8.690288 26.804708
v 6.724476 9.564034 25.716906
v 6.927053 8.927504 26.538500
v 7.164270 9.506044 25.676428
v 6.614531 9.419252 26.179853
v 7.407320 8.927504 26.538500
v 7.604063 9.564034 25.716906
v 7.714008 9.419252 26.179853
v 7.164270 9.558199 25.502850
v 7.164270 9.170561 25.224966
v 7.164270 9.367297 25.433378
v 7.650376 9.355620 25.670595
v 7.789124 9.344136 26.168177
v 7.164270 9.025773 25.265635
v 7.430479 8.684454 25.167166
v 6.898060 8.684454 25.167166
v 6.678163 9.355620 25.670595
v 6.539414 9.344136 26.168177
v 6.770789 8.979656 26.567492
v 6.799790 8.933344 26.862505
v 6.331002 9.187879 26.133539
v 7.164270 8.539865 25.392900
v 6.284688 9.257344 26.150858
v 6.527739 8.973816 25.549166
v 8.038015 9.257344 26.150858
v 7.800799 8.973816 25.549166
v 7.974383 9.187879 26.139185
v 6.695680 6.080727 27.105562
v 6.452622 6.647790 26.960974
v 6.493101 6.074892 27.047766
v 6.672520 6.665109 27.024603
v 6.423018 5.464581 27.131983
v 6.484628 5.433721 27.150303
v 6.464841 5.491701 27.137394
v 6.711474 5.447571 27.208530
v 6.726094 5.504523 27.201464
v 6.770894 5.473988 27.219528
v 6.632231 4.800370 27.291056
v 6.710065 4.964126 27.282051
v 6.542950 4.873416 27.254644
v 6.489955 4.858488 27.243370
v 6.514247 4.759304 27.262663
v 6.484107 4.968081 27.223555
v 6.437259 6.075969 27.058056
v 6.744273 6.090467 27.133968
v 6.695724 5.917916 27.148771
v 6.771223 5.927742 27.264774
v 6.887322 5.925298 27.195698
v 6.577329 6.111739 27.023281
v 6.805839 5.910115 27.085642
v 7.534589 9.506046 26.532663
v 7.621382 9.592839 26.121866
v 7.598222 9.899519 26.474867
v 7.401484 10.154252 26.758394
v 7.441964 10.478258 26.567492
v 7.164270 10.350989 26.775713
v 7.702332 10.032624 26.150858
v 7.378325 9.853207 26.769880
v 7.164270 9.888042 26.856672
v 7.216424 9.737618 26.914660
v 7.459282 9.679628 25.850012
v 7.638700 10.078944 26.145025
v 7.459282 10.107939 25.734224
v 7.164270 9.685464 25.722746
v 7.164270 10.148410 25.653276
v 7.268380 9.581354 26.856672
v 7.164270 9.743262 26.926138
v 7.523106 9.847564 26.642611
v 7.453640 10.495578 25.855654
v 7.297375 9.263187 26.723757
v 7.499952 9.396096 26.393915
v 7.274215 9.396094 26.793032
v 7.164270 10.553369 25.803698
v 7.164270 10.669154 26.208658
v 7.465117 10.617007 26.191339
v 7.441964 10.061625 26.741076
v 7.517271 9.968992 26.602137
v 7.580904 10.136735 26.492186
v 7.598222 10.379792 26.266645
v 7.164270 9.581354 26.868345
v 7.164270 10.565044 26.573137
v 7.164270 9.378776 26.851027
v 7.274215 9.378776 26.839354
v 7.164270 9.390450 26.810549
v 7.164270 9.257346 26.746721
v 7.482436 9.847564 26.625292
v 7.239577 9.870724 26.804708
v 7.366848 9.847564 26.746721
v 7.164270 10.142575 26.827868
v 7.164270 9.222519 26.602137
v 7.164270 10.061625 26.833509
v 6.793949 9.506046 26.532663
v 6.730317 9.899519 26.474867
v 6.707158 9.592839 26.121866
v 6.927053 10.154252 26.758394
v 6.886575 10.478258 26.567492
v 6.626207 10.032624 26.150858
v 6.950214 9.853207 26.769880
v 7.112115 9.737618 26.914660
v 6.869257 9.679628 25.850012
v 6.689839 10.078944 26.145025
v 6.869257 10.107939 25.734224
v 7.060158 9.581354 26.856672
v 6.805433 9.847564 26.642611
v 6.874900 10.495578 25.855654
v 7.037005 9.263187 26.723757
v 6.828586 9.396096 26.393915
v 7.054325 9.396094 26.793032
v 6.863422 10.617007 26.191339
v 6.886575 10.061625 26.741076
v 6.747636 10.136735 26.492186
v 6.811268 9.968992 26.602137
v 6.730317 10.379792 26.266645
v 7.054325 9.378776 26.839354
v 6.851747 9.847564 26.625292
v 7.094797 9.870724 26.804708
v 6.961692 9.847564 26.746721
v 6.927053 8.927504 26.538500
v 7.164270 8.690288 26.804708
v 7.164270 8.829036 26.654284
v 7.407320 8.927504 26.538500
v 6.851747 9.124240 26.521181
v 7.164270 8.829036 26.654284
v 7.164270 9.020129 26.654284
v 7.164270 9.089602 26.607973
v 6.927053 8.927504 26.538500
v 6.701323 9.326819 26.110388
v 7.476793 9.124240 26.521181
v 7.407320 8.927504 26.538500
v 7.627216 9.326819 26.110388
v 7.505595 9.465567 25.809538
v 7.164270 9.506045 25.676428
v 7.164270 9.685466 25.722746
v 7.459282 9.679629 25.850012
v 7.621382 9.592839 26.121866
v 7.164270 9.222517 26.602137
v 7.499952 9.396095 26.393915
v 6.822944 9.465567 25.809538
v 6.869257 9.679629 25.850012
v 6.707158 9.592839 26.121866
v 6.828586 9.396095 26.393915
v 5.352307 7.400036 26.457624
v 5.329575 7.942688 26.304047
v 5.490058 7.709692 26.096273
v 5.238673 7.651800 26.649147
v 5.824933 7.465990 26.740339
v 5.664543 8.122317 26.782194
v 5.567785 7.827302 26.707848
v 5.295863 7.817029 26.922197
v 5.765256 7.210262 26.544819
v 5.464501 7.178618 26.808125
v 5.739243 7.984866 26.850552
v 6.504292 7.422647 27.460272
v 6.112876 7.570796 27.585026
v 6.349071 7.350484 27.340502
v 6.273254 7.593524 27.669140
v 6.349963 8.090503 27.456341
v 6.477202 8.000886 27.072620
v 6.224272 8.152509 27.368374
v 6.537331 7.967820 27.247154
v 5.349146 8.194784 26.603891
v 5.389446 8.153615 26.591066
v 5.296180 7.842877 26.994581
v 5.297079 7.464801 26.997082
v 6.556532 7.616142 27.092350
v 6.585240 7.698985 27.273741
v 5.940505 7.754147 26.638521
v 6.087773 7.919120 27.628540
v 5.510371 8.394299 26.398729
v 5.672703 7.278140 26.411427
v 6.243519 7.885060 27.676596
v 8.126370 8.236764 27.142063
v 8.182445 7.760661 27.110727
v 8.047505 7.903455 27.219093
v 8.092292 8.159207 26.951756
v 8.548392 7.972056 26.423409
v 8.620134 7.607857 26.489326
v 8.734262 7.446822 26.164289
v 9.060854 7.443116 26.566805
v 9.249240 7.759953 26.629732
v 8.509241 7.803946 27.347406
v 8.649380 8.409410 27.280178
v 8.679966 8.071320 27.456902
v 9.199963 8.097189 26.558712
v 8.809667 8.219628 26.550680
v 8.829515 7.969717 26.369055
v 9.071537 7.641754 26.135065
v 9.204325 7.903908 26.304750
v 8.676811 7.398211 26.369871
v 8.334696 8.465466 27.003679
v 8.313216 8.434631 27.192741
v 8.512781 8.057329 27.514284
v 8.537254 8.354804 27.394531
v 9.168000 8.043532 26.556036
v 8.342155 7.848241 27.433697
v 7.800447 8.022678 27.553514
v 7.868849 8.274842 27.519213
v 8.389909 8.387142 27.659111
v 8.204174 8.555638 27.437920
v 8.013905 8.416502 27.495031
v 8.021698 7.972227 27.692089
v 8.304434 8.137854 27.769554
v 6.794168 7.485736 27.789944
v 6.587455 8.139590 27.645317
v 6.628423 7.659416 27.911787
v 6.561515 7.989590 27.871111
v 6.871216 7.656899 27.608719
v 6.830649 7.822569 27.496027
v 6.751870 8.012417 27.373003
v 8.475927 8.771791 25.638805
v 8.713557 8.766818 26.173906
v 8.629277 8.623518 25.739988
v 8.864742 8.548859 26.283035
v 8.312232 8.773370 26.524626
v 8.872924 8.369520 25.902617
v 8.003502 8.517102 26.496595
v 8.285475 7.865998 25.941120
v 8.212630 8.177282 26.548449
v 8.121307 8.037916 26.017736
v 8.550192 8.461939 26.596292
v 8.610563 8.078971 25.680849
v 6.342310 8.605549 26.491360
v 6.031028 8.800488 26.512016
v 6.159346 8.043152 26.038374
v 5.729089 8.502410 25.836596
v 5.638451 8.650653 26.232103
v 5.865873 8.676329 25.699966
v 6.172690 8.364028 25.481827
v 6.212419 8.046369 25.696575
v 6.236306 7.975489 26.056498
v 6.447855 8.635801 26.488737
v 5.716609 8.815942 26.131083
v 6.106328 8.938596 26.455027
v 8.080358 8.054231 25.678143
v 8.143966 8.383570 25.447962
v 8.045819 7.969185 26.042414
v 7.885538 8.528681 26.522730
v 8.620364 8.907549 26.110010
v 8.227981 8.891009 26.500221
v 9.073759 8.173906 26.045311
v 8.870351 7.857971 25.854399
v 8.746423 8.211452 26.597515
v 9.052805 8.374763 26.415426
v 9.013857 8.325880 26.392948
v 8.345210 8.715089 27.581244
v 8.441251 8.348497 27.583187
v 8.228316 8.545891 27.414789
v 8.342899 8.578814 28.049187
v 8.220236 8.462834 28.120781
v 8.267042 8.140261 27.674314
v 8.006861 8.081205 27.656239
v 7.893637 8.308136 28.033318
v 7.848757 8.344821 27.943739
v 8.022845 8.425223 27.499767
v 8.187074 8.548382 27.704336
v 8.149835 8.682714 27.558767
v 8.084064 8.691778 28.167694
v 7.776519 8.625443 28.092388
v 7.822278 8.482227 28.114248
v 7.932440 8.830838 27.896055
v 7.752143 8.601672 27.891428
v 8.184779 8.891379 28.234110
v 8.137360 8.834527 28.132996
v 8.077877 8.921864 28.120047
v 8.091822 8.833879 28.247311
v 8.049437 8.990826 28.179262
v 7.871257 8.306156 27.552197
v 7.982710 8.821511 28.098415
v 8.011168 8.756186 28.014280
v 8.179558 8.640008 28.228949
v 8.274446 8.721276 28.191120
v 8.136858 8.608171 28.014807
v 8.051311 8.752221 27.821365
v 8.072456 8.819244 27.886681
v 7.995852 8.872444 27.821463
v 8.152659 8.708913 27.760201
v 8.152874 8.841034 27.698782
v 8.261466 8.643632 27.922819
v 8.092830 8.679241 28.068985
v 7.803408 8.489775 28.001429
v 8.183291 8.732637 28.102190
v 8.244576 8.792578 27.786053
v 8.352390 8.580753 27.712242
v 7.381517 8.021410 27.801834
v 7.349566 8.276196 27.679127
v 7.240699 8.312312 27.816048
v 7.281427 7.988983 27.911438
v 7.245696 7.928684 27.820728
v 6.797873 8.250072 27.354855
v 6.904596 8.081788 27.358780
v 6.707603 8.001940 27.338097
v 7.134094 8.164996 27.513388
v 7.186953 8.244828 27.519554
v 7.011536 8.188005 27.494980
v 6.873313 8.103396 27.556709
v 6.780532 8.243420 27.541708
v 6.823189 7.828162 27.481071
v 7.055190 8.230066 27.362492
v 7.006107 8.310016 27.460327
v 6.976729 8.305285 27.661053
v 7.086532 8.237884 27.754040
v 7.107618 7.859346 27.870956
v 6.718569 7.705954 27.823425
v 6.887135 7.679552 27.598249
v 7.181445 8.267755 27.749107
v 6.530916 8.127590 27.594334
v 6.944092 8.386761 27.799248
v 7.294514 8.153959 27.519157
v 7.291029 7.901109 27.664417
v 7.254521 8.224653 27.657545
v 6.579645 7.933118 27.798836
v 7.174967 8.381584 27.896248
v 6.998733 8.269277 27.928999
v 7.163832 8.376098 27.739697
v 7.350784 8.428365 27.784349
v 7.238552 8.188178 27.435410
v 7.098452 7.912689 27.962906
v 7.136292 8.475902 27.814713
v 7.266033 8.410307 27.696980
v 7.311933 8.519843 27.736977
v 7.349078 8.407434 27.630430
v 7.434421 8.449721 27.630699
v 7.071643 7.133698 25.346586
v 7.256896 7.735593 25.074541
v 7.256896 7.133698 25.346586
v 7.071643 7.735593 25.074541
v 7.164270 8.510870 25.253958
v 6.689839 8.956498 25.537489
v 6.880741 8.956498 25.560648
v 7.071643 8.360447 25.196161
v 7.638700 8.956498 25.537489
v 7.453640 8.956498 25.560648
v 7.256896 8.360447 25.196161
v 7.071643 6.780895 25.514330
v 7.256896 6.474207 25.601122
v 7.071643 6.474207 25.601122
v 7.256896 6.780895 25.514330
v 5.921436 5.676026 26.396496
v 5.929885 6.300141 26.096706
v 6.318938 6.725465 26.767662
v 6.133230 6.755313 26.825823
v 6.074631 5.648877 26.739212
v 6.058702 6.777277 26.102188
v 8.523770 5.602689 26.846586
v 8.193029 6.740952 26.584270
v 8.163546 6.424407 26.925316
v 8.284782 6.471463 27.052458
v 8.373004 5.552896 27.002991
v 8.458766 5.641195 27.147072
v 7.667909 5.447349 27.252634
v 7.963233 5.503720 27.298738
v 8.436562 5.528977 26.702099
v 8.044050 5.593577 27.443327
v 7.754833 5.513155 27.391556
v 7.643806 6.134220 27.296209
v 7.840395 6.164078 27.226585
v 7.851494 6.268046 27.307575
v 7.586744 6.578318 27.157709
v 7.731327 6.433728 27.232824
v 7.679179 6.584152 27.140200
v 7.661854 6.422053 27.255987
v 7.654892 6.238456 27.376995
v 7.770338 6.486591 27.180279
v 7.435109 6.664965 27.122452
v 8.211598 6.165429 27.238667
v 8.049494 6.553260 27.203831
v 8.153801 6.159785 27.279137
v 8.124806 6.558902 27.157707
v 7.874537 6.429468 27.336342
v 8.078493 7.226326 25.450695
v 8.084329 7.712432 25.589642
v 7.077477 7.342112 25.363903
v 7.094797 8.360446 25.433378
v 6.296364 7.770229 25.589642
v 6.365831 7.238001 25.450695
v 6.197897 8.424079 25.398540
v 6.406310 7.735592 25.103535
v 7.951223 7.718273 25.057220
v 7.094797 8.279496 25.201805
v 8.124806 8.470392 25.410217
v 8.419950 6.288104 25.653051
v 8.291346 6.820908 25.671574
v 8.459259 6.815227 26.494864
v 8.579011 6.279263 26.473118
v 8.290272 6.224470 26.525763
v 8.133637 6.227510 25.707237
v 8.019980 6.814429 25.726919
v 8.181679 6.813124 26.547249
v 8.247471 6.089962 25.589621
v 7.763703 6.354084 25.690250
v 8.040575 5.844165 25.485964
v 7.811262 6.855844 25.499634
v 7.662653 6.819869 25.541513
v 7.871025 6.839194 25.644623
v 7.646102 6.690360 25.480635
v 7.538840 6.500309 25.287968
v 7.994193 6.540511 25.181028
v 7.588179 6.021328 25.263638
v 8.192465 6.567022 25.608530
v 7.935345 6.726598 25.618071
v 8.064424 6.103579 25.138109
v 7.825918 6.760933 25.867323
v 7.757216 6.694293 25.642374
v 7.480831 6.723105 25.707851
v 7.774660 5.814344 25.354567
v 7.239577 9.922678 26.735243
v 7.378325 9.911194 26.706247
v 7.274215 9.957513 26.723757
v 7.216424 9.974833 26.787390
v 7.164270 9.957513 26.804708
v 7.424645 9.922678 26.677443
v 7.366848 9.847562 26.746721
v 7.517271 9.968992 26.602137
v 7.378325 9.951673 26.706247
v 7.164270 9.888041 26.856672
v 7.239577 9.870722 26.804708
v 7.390001 9.992152 26.746721
v 7.233743 10.009471 26.816191
v 7.482436 9.847562 26.625292
v 7.164270 10.061625 26.833509
v 7.441964 10.061625 26.741076
v 7.088962 9.922678 26.735243
v 7.054325 9.957513 26.723757
v 6.950214 9.911194 26.706247
v 7.112115 9.974833 26.787390
v 6.903894 9.922678 26.677443
v 6.961692 9.847562 26.746721
v 6.950214 9.951673 26.706247
v 6.811268 9.968992 26.602137
v 7.094797 9.870722 26.804708
v 6.938539 9.992152 26.746721
v 7.094797 10.009471 26.816191
v 6.851747 9.847562 26.625292
v 6.886575 10.061625 26.741076
vn -0.9650 -0.2564 -0.0541
vn -0.9523 0.2588 -0.1620
vn -0.6990 -0.2111 -0.6833
vn 0.9717 0.2298 -0.0552
vn 0.6414 -0.0073 -0.7672
vn 0.9939 0.0834 -0.0728
vn 0.7482 0.1713 0.6410
vn 0.7231 -0.1700 -0.6695
vn 0.7090 -0.2012 -0.6759
vn 0.1362 -0.5375 -0.8322
vn 0.7741 0.1930 0.6029
vn 0.3935 -0.1256 -0.9107
vn -0.4948 -0.0906 -0.8643
vn -0.6197 -0.1088 0.7773
vn -0.4918 -0.2842 0.8231
vn 0.5401 -0.0033 -0.8416
vn 0.8465 -0.0724 0.5275
vn 0.2724 0.0178 0.9620
vn -0.1476 -0.2667 -0.9524
vn 0.2504 0.0264 0.9678
vn -0.0011 -0.5660 0.8244
vn 0.1184 -0.3779 -0.9182
vn 0.6531 -0.0015 0.7573
vn 0.2939 -0.2732 0.9159
vn -0.3175 -0.6400 -0.6997
vn 0.0015 -0.7192 -0.6948
vn -0.6616 -0.2548 0.7052
vn 0.9890 -0.1088 -0.1001
vn 0.9931 0.0598 -0.1011
vn 0.0007 -0.9349 -0.3550
vn -0.9717 0.2298 -0.0552
vn -0.9939 0.0827 -0.0724
vn -0.6414 -0.0079 -0.7672
vn -0.7483 0.1712 0.6409
vn -0.7263 -0.1716 -0.6657
vn -0.1391 -0.5399 -0.8302
vn -0.7102 -0.2032 -0.6740
vn -0.7743 0.1930 0.6027
vn 0.7012 -0.2086 -0.6818
vn 0.4957 -0.0899 -0.8638
vn -0.3933 -0.1256 -0.9108
vn 0.9500 0.2664 -0.1629
vn 0.4941 -0.2851 0.8213
vn 0.6215 -0.1075 0.7760
vn -0.5401 -0.0033 -0.8416
vn -0.8465 -0.0724 0.5275
vn -0.2722 0.0177 0.9621
vn 0.1495 -0.2666 -0.9521
vn 0.9657 -0.2541 -0.0533
vn -0.1193 -0.3801 -0.9172
vn -0.6531 -0.0015 0.7573
vn -0.2945 -0.2729 0.9159
vn 0.3183 -0.6420 -0.6975
vn -0.2508 0.0264 0.9677
vn 0.6617 -0.2533 0.7057
vn -0.9890 -0.1088 -0.1001
vn -0.9931 0.0598 -0.1011
vn -0.9832 -0.1824 0.0058
vn -0.5419 0.0061 -0.8404
vn -0.6556 -0.2232 0.7213
vn 0.4332 -0.3685 0.8225
vn 0.3691 -0.1634 0.9149
vn 0.4434 0.0941 -0.8914
vn 0.4926 -0.0613 -0.8681
vn 0.9929 0.1190 -0.0078
vn -0.4817 -0.3985 0.7805
vn -0.4284 -0.7517 0.5014
vn 0.4826 -0.7491 0.4538
vn -0.5452 -0.2260 -0.8073
vn 0.9854 -0.1606 -0.0560
vn 0.4161 -0.3826 -0.8249
vn 0.8041 -0.5695 -0.1705
vn -0.3490 -0.5213 -0.7787
vn -0.8065 -0.5860 -0.0779
vn -0.9490 -0.3144 -0.0228
vn 0.6553 -0.2215 0.7221
vn -0.3693 -0.1636 0.9148
vn -0.4335 -0.3684 0.8224
vn 0.5417 0.0080 -0.8405
vn -0.4926 -0.0613 -0.8681
vn -0.4433 0.0941 -0.8914
vn -0.9929 0.1190 -0.0078
vn 0.4844 -0.3973 0.7795
vn -0.4826 -0.7492 0.4536
vn 0.4323 -0.7512 0.4988
vn 0.5493 -0.2281 -0.8039
vn 0.9836 -0.1802 0.0065
vn -0.9854 -0.1606 -0.0560
vn -0.4161 -0.3823 -0.8251
vn -0.8042 -0.5695 -0.1704
vn 0.3455 -0.5241 -0.7784
vn 0.9487 -0.3153 -0.0233
vn 0.8064 -0.5856 -0.0828
vn -0.0074 0.9374 -0.3482
vn 0.5681 0.0281 0.8225
vn 0.5912 0.1943 0.7828
vn 0.9673 0.0720 0.2431
vn -0.6880 -0.0127 -0.7256
vn 0.4903 0.0182 -0.8714
vn 0.6071 0.0683 -0.7917
vn -0.4942 0.0392 -0.8685
vn 0.9979 0.0487 -0.0436
vn -0.9987 -0.0458 0.0230
vn -0.5539 0.1754 0.8139
vn -0.5871 0.0038 0.8095
vn -0.9984 -0.0493 -0.0293
vn 0.9819 0.0593 -0.1801
vn 0.5558 -0.1407 0.8193
vn -0.5066 -0.1548 0.8482
vn 0.9944 -0.0515 -0.0927
vn -0.9676 0.0735 0.2414
vn 0.5538 0.1754 0.8139
vn 0.9676 0.0735 0.2414
vn 0.9987 -0.0467 0.0221
vn 0.6884 -0.0140 -0.7252
vn 0.4951 0.0409 -0.8679
vn 0.9982 -0.0491 -0.0341
vn -0.9978 0.0511 -0.0420
vn -0.9943 -0.0556 -0.0904
vn -0.4910 0.0197 -0.8709
vn 0.5863 0.0034 0.8101
vn -0.5695 0.0323 0.8214
vn -0.5569 -0.1462 0.8176
vn -0.9673 0.0720 0.2430
vn -0.5910 0.1942 0.7830
vn 0.5098 -0.1572 0.8458
vn -0.9818 0.0593 -0.1802
vn -0.6077 0.0670 -0.7913
vn 0.0206 -0.7919 0.6104
vn 0.0068 -0.9997 0.0226
vn 0.0418 -0.7830 0.6206
vn -0.0061 -1.0000 -0.0071
vn 0.0390 -0.6592 0.7509
vn 0.0106 -0.9778 0.2095
vn 0.0077 -0.9771 0.2125
vn 0.0376 -0.6449 0.7633
vn 0.0360 -0.9992 -0.0162
vn 0.0342 -0.9993 -0.0144
vn -0.0373 -0.6605 0.7499
vn -0.0359 -0.6455 0.7630
vn -0.0353 -0.9992 -0.0167
vn -0.0333 -0.9993 -0.0146
vn -0.0405 -0.8020 0.5960
vn -0.0076 -0.9771 0.2126
vn -0.0105 -0.9777 0.2095
vn 0.0036 -0.9994 0.0335
vn -0.0074 -1.0000 0.0048
vn -0.0198 -0.7932 0.6086
vn 0.9711 0.2184 -0.0965
vn 0.9210 0.3000 0.2485
vn 0.9784 -0.0525 -0.1997
vn -0.0185 0.8052 0.5927
vn 0.4878 0.7430 0.4583
vn -0.5075 0.7003 0.5021
vn 0.3518 0.7554 0.5529
vn -0.3567 0.7744 0.5225
vn -0.9877 0.0868 0.1303
vn -0.8814 0.3846 0.2743
vn -0.9930 -0.1058 -0.0519
vn 0.9848 -0.1622 0.0614
vn -0.9899 0.1158 0.0819
vn 0.8814 0.3846 0.2743
vn 0.9930 -0.1058 -0.0519
vn 0.9899 0.1158 0.0819
vn -0.9784 -0.0525 -0.1997
vn -0.9848 -0.1622 0.0614
vn -0.9210 0.3000 0.2485
vn 0.0185 0.8052 0.5927
vn -0.3518 0.7554 0.5529
vn -0.9711 0.2184 -0.0965
vn -0.4878 0.7430 0.4583
vn 0.5075 0.7003 0.5021
vn 0.3567 0.7744 0.5225
vn 0.9877 0.0868 0.1303
vn -0.5199 0.1969 -0.8312
vn -0.6004 0.0071 -0.7997
vn -0.9744 -0.0467 -0.2200
vn 0.9759 -0.1248 -0.1789
vn 0.9605 0.0171 -0.2777
vn 0.5960 -0.1731 -0.7841
vn 0.9596 -0.0772 -0.2707
vn 0.4841 0.0484 -0.8737
vn -0.6432 -0.1590 -0.7490
vn -0.9719 -0.0689 -0.2253
vn -0.9706 -0.0111 -0.2403
vn 0.9886 -0.1482 0.0282
vn 0.3199 0.2334 -0.9183
vn 0.6077 0.0053 -0.7942
vn 0.9758 -0.0480 -0.2132
vn 0.6424 -0.1630 -0.7488
vn -0.9586 -0.0748 -0.2746
vn -0.4785 0.0528 -0.8765
vn -0.5959 -0.1692 -0.7850
vn -0.3199 0.2363 -0.9175
vn 0.5199 0.2045 -0.8294
vn -0.9888 -0.1469 0.0272
vn -0.9761 -0.1232 -0.1790
vn 0.9718 -0.0693 -0.2255
vn 0.9706 -0.0117 -0.2405
vn -0.9607 0.0186 -0.2771
vn 0.9751 0.2210 -0.0184
vn 0.9572 0.2893 0.0054
vn 0.7284 0.2948 -0.6185
vn 0.7357 0.2388 -0.6338
vn -0.7263 0.2967 -0.6200
vn -0.9569 0.2903 0.0077
vn -0.9754 0.2197 -0.0170
vn -0.7349 0.2378 -0.6351
vn 0.2384 0.0481 0.9700
vn -0.2392 0.0470 0.9698
vn -0.0005 0.1045 0.9945
vn 0.2479 -0.2664 -0.9314
vn 0.7299 -0.2578 -0.6331
vn 0.2302 -0.1421 0.9627
vn -0.2302 -0.1421 0.9627
vn -0.2477 -0.2663 -0.9315
vn 0.2386 0.2910 -0.9265
vn -0.2395 0.2894 -0.9268
vn 0.9743 -0.2197 -0.0502
vn -0.7301 -0.2579 -0.6328
vn -0.9743 -0.2197 -0.0501
vn 0.4764 -0.0192 0.8790
vn -0.0000 0.0630 0.9980
vn 0.7897 -0.1944 0.5818
vn 0.3171 -0.2014 -0.9268
vn 0.8020 -0.1765 -0.5706
vn 0.9944 -0.0987 -0.0381
vn 0.8724 -0.0586 0.4853
vn -0.4764 -0.0193 0.8790
vn -0.7897 -0.1944 0.5818
vn -0.8021 -0.1764 -0.5706
vn -0.3171 -0.2013 -0.9268
vn -0.8734 -0.0564 0.4838
vn -0.9949 -0.0951 -0.0348
vn 0.4842 0.1094 0.8681
vn 0.8290 0.0749 0.5541
vn 0.3776 0.1121 0.9192
vn -0.3794 0.1149 0.9181
vn -0.8344 0.0724 0.5464
vn -0.4842 0.1094 0.8681
vn -0.0011 0.4756 0.8796
vn 0.7985 -0.1640 -0.5792
vn 0.9909 -0.1340 0.0131
vn 0.3001 -0.1022 -0.9484
vn -0.0000 0.1771 0.9842
vn -0.7959 -0.1597 -0.5839
vn -0.9900 -0.1401 -0.0189
vn -0.3003 -0.1009 -0.9485
vn -0.8301 -0.3387 -0.4431
vn -0.3613 0.9281 0.0903
vn -0.4262 0.6119 -0.6663
vn -0.4811 0.8666 -0.1323
vn -0.1952 -0.0042 -0.9808
vn -0.3826 -0.0142 -0.9238
vn -0.2626 0.4648 -0.8456
vn -0.2377 0.5708 0.7860
vn -0.9275 -0.3698 -0.0540
vn -0.7354 0.0153 0.6775
vn -0.3918 0.6515 0.6497
vn -0.3750 0.0689 0.9244
vn 0.0003 -0.0541 0.9985
vn -0.6723 0.2565 0.6944
vn -0.6964 0.1878 0.6926
vn -0.9855 0.1695 0.0117
vn -0.3106 0.0791 -0.9472
vn -0.2676 0.3006 -0.9155
vn -0.0033 0.0674 -0.9977
vn -0.7898 0.1479 0.5953
vn -0.7411 0.1721 -0.6490
vn 0.8218 -0.3542 -0.4463
vn 0.3801 0.9236 -0.0490
vn 0.3204 0.6632 -0.6764
vn 0.2850 0.9462 0.1531
vn 0.3348 -0.0281 -0.9419
vn 0.1828 -0.0077 -0.9831
vn 0.2032 0.4908 -0.8473
vn 0.2388 0.5553 0.7966
vn 0.9152 -0.3970 -0.0687
vn 0.3652 0.6139 0.6998
vn 0.7332 0.0019 0.6800
vn 0.3736 0.0666 0.9252
vn 0.6733 0.2609 0.6918
vn 0.6932 0.1955 0.6937
vn 0.9857 0.1680 0.0096
vn 0.2716 0.3007 -0.9142
vn 0.3057 0.0792 -0.9488
vn 0.7905 0.1448 0.5951
vn 0.7412 0.1690 -0.6496
vn 0.5215 -0.1259 0.8439
vn 0.5614 -0.8242 -0.0742
vn 0.0002 -0.9498 0.3129
vn -0.4403 0.8745 -0.2033
vn 0.3662 0.7885 0.4942
vn 0.0001 0.9030 0.4297
vn -0.1271 0.8636 0.4878
vn -0.3764 0.7899 0.4841
vn 0.4404 0.8746 -0.2027
vn 0.1239 0.8637 0.4885
vn -0.0000 0.8121 -0.5835
vn -0.0000 0.2587 -0.9660
vn -0.0000 0.5790 -0.8153
vn 0.6579 0.4513 -0.6029
vn 0.5338 0.7485 0.3934
vn -0.0000 0.0921 -0.9958
vn 0.5202 -0.3994 -0.7549
vn -0.5202 -0.3994 -0.7549
vn -0.6564 0.4523 -0.6038
vn -0.5303 0.7506 0.3942
vn -0.5096 -0.0859 0.8561
vn -0.5614 -0.8242 -0.0742
vn -0.7968 -0.5772 0.1790
vn -0.0000 -0.9716 -0.2368
vn -0.9163 0.3099 0.2539
vn -0.6805 0.2752 -0.6791
vn 0.9301 0.2643 0.2552
vn 0.6862 0.2673 -0.6765
vn 0.7089 -0.6795 0.1888
vn -0.2778 0.1238 0.9526
vn -0.2827 0.1215 0.9515
vn -0.2755 0.1249 0.9531
vn -0.2847 0.1205 0.9510
vn -0.2165 0.1412 0.9660
vn -0.2429 0.1431 0.9594
vn -0.2339 0.1300 0.9635
vn -0.2543 0.1713 0.9518
vn -0.2502 0.1554 0.9557
vn -0.2573 0.1838 0.9487
vn -0.2608 0.1562 0.9527
vn -0.2462 0.1554 0.9567
vn -0.2520 0.1510 0.9559
vn -0.2408 0.1282 0.9621
vn -0.2648 0.1337 0.9550
vn -0.2468 0.1529 0.9569
vn -0.2399 0.3532 0.9043
vn -0.2423 0.2995 0.9228
vn -0.0134 0.9947 -0.1019
vn -0.0211 0.9973 -0.0707
vn -0.0139 0.9949 -0.0999
vn -0.1380 0.9132 0.3836
vn -0.0057 0.9912 -0.1325
vn 0.8776 -0.3089 0.3667
vn 0.9759 -0.1863 -0.1137
vn 0.9367 -0.0106 0.3501
vn 0.5421 0.1987 0.8165
vn 0.5932 0.5994 0.5375
vn -0.0000 0.4722 0.8815
vn 0.8827 0.4382 -0.1700
vn 0.4837 0.7387 0.4695
vn -0.0003 0.5999 0.8001
vn 0.3960 0.0666 0.9158
vn 0.6949 -0.1527 -0.7027
vn 0.9183 0.3308 -0.2177
vn 0.6348 0.0309 -0.7721
vn -0.0000 -0.2171 -0.9761
vn -0.0000 0.1044 -0.9945
vn 0.4846 -0.1329 0.8646
vn -0.0000 0.0853 0.9964
vn 0.6227 0.5592 0.5473
vn 0.6018 0.5502 -0.5789
vn 0.4837 -0.7291 0.4843
vn 0.8233 -0.5520 0.1325
vn 0.2820 -0.9306 0.2335
vn -0.0000 0.7216 -0.6923
vn -0.0000 1.0000 0.0094
vn 0.5634 0.8261 -0.0133
vn 0.7121 0.1098 0.6934
vn 0.8476 -0.0375 0.5292
vn 0.9214 0.1271 0.3672
vn 0.9441 0.3236 0.0634
vn -0.0000 -0.2144 0.9768
vn -0.0000 0.8520 0.5236
vn -0.0000 -0.8054 0.5927
vn 0.3812 -0.7702 0.5114
vn -0.0000 -0.9333 0.3591
vn -0.0022 -0.7616 0.6480
vn 0.2006 0.9400 0.2761
vn 0.0644 0.9707 -0.2315
vn -0.0331 0.9779 -0.2062
vn -0.0000 0.1519 0.9884
vn -0.0044 -0.9998 0.0195
vn -0.0000 0.0443 0.9990
vn -0.8760 -0.3123 0.3676
vn -0.9358 -0.0107 0.3524
vn -0.9759 -0.1863 -0.1137
vn -0.5421 0.1987 0.8165
vn -0.5932 0.5994 0.5375
vn -0.8827 0.4382 -0.1700
vn -0.4830 0.7390 0.4696
vn -0.3960 0.0666 0.9158
vn -0.6949 -0.1527 -0.7027
vn -0.9183 0.3308 -0.2177
vn -0.6348 0.0309 -0.7721
vn -0.4846 -0.1329 0.8646
vn -0.6234 0.5561 0.5497
vn -0.6018 0.5502 -0.5789
vn -0.4783 -0.7337 0.4826
vn -0.8221 -0.5526 0.1375
vn -0.2844 -0.9319 0.2253
vn -0.5634 0.8261 -0.0133
vn -0.7121 0.1098 0.6934
vn -0.9214 0.1271 0.3672
vn -0.8446 -0.0483 0.5333
vn -0.9441 0.3236 0.0634
vn -0.3812 -0.7702 0.5114
vn -0.2026 0.9389 0.2782
vn -0.0581 0.9676 -0.2456
vn 0.0333 0.9783 -0.2047
vn -0.0258 0.7348 0.6778
vn -0.0001 0.7351 0.6780
vn -0.0004 0.7351 0.6780
vn 0.0252 0.7348 0.6778
vn -0.7454 -0.0040 0.6666
vn -0.0013 -0.0305 0.9995
vn -0.0000 0.2239 0.9746
vn -0.0000 0.3423 0.9396
vn -0.6177 -0.1688 0.7681
vn -0.9920 0.0059 0.1262
vn 0.7408 0.0094 0.6717
vn 0.6099 -0.1468 0.7788
vn 0.9918 0.0083 0.1274
vn 0.7304 0.2176 -0.6474
vn -0.0000 0.2500 -0.9683
vn -0.0000 0.2577 -0.9662
vn 0.6335 0.2739 -0.7236
vn 0.9907 0.0839 -0.1069
vn -0.0000 0.1770 0.9842
vn 0.8205 0.1596 0.5489
vn -0.7304 0.2176 -0.6474
vn -0.6335 0.2739 -0.7236
vn -0.9907 0.0839 -0.1069
vn -0.8205 0.1596 0.5489
vn -0.7168 -0.5605 -0.4148
vn -0.9212 0.1258 -0.3681
vn -0.5705 -0.3338 -0.7504
vn -0.9957 -0.0430 -0.0815
vn -0.0408 -0.7945 0.6059
vn -0.0124 0.3045 0.9524
vn -0.3567 0.7286 0.5847
vn -0.6932 0.7169 -0.0741
vn 0.3548 -0.7929 -0.4954
vn -0.4342 -0.8940 0.1110
vn -0.0819 0.9023 -0.4233
vn 0.3226 -0.9452 -0.0499
vn -0.3808 -0.5079 0.7726
vn 0.3099 -0.9344 0.1759
vn -0.3792 -0.5285 0.7596
vn 0.0284 0.9771 0.2111
vn 0.5800 0.6173 -0.5316
vn -0.0112 0.9908 0.1347
vn 0.6535 0.6108 -0.4470
vn -0.8192 0.2017 0.5369
vn -0.7584 -0.2552 0.5998
vn -0.7789 0.5607 0.2810
vn -0.8063 -0.3598 0.4696
vn 0.8565 -0.2882 -0.4282
vn 0.8552 -0.2690 -0.4430
vn 0.2224 0.3051 -0.9260
vn -0.4063 0.4029 0.8201
vn -0.7956 0.5819 0.1686
vn 0.1300 -0.8315 -0.5401
vn -0.4036 0.3540 0.8437
vn -0.8378 0.4179 -0.3514
vn -0.6659 -0.7409 0.0880
vn -0.7483 -0.5572 -0.3600
vn -0.8872 0.2115 -0.4101
vn -0.6584 0.1972 -0.7264
vn 0.1533 -0.8172 0.5556
vn -0.1334 -0.9105 -0.3914
vn 0.5051 -0.8473 0.1639
vn 0.9372 -0.2272 0.2648
vn 0.1761 -0.7853 0.5935
vn 0.4466 0.8315 0.3304
vn 0.5773 -0.0293 0.8160
vn 0.6964 0.6288 -0.3459
vn -0.0619 0.8512 -0.5211
vn 0.7190 -0.1091 -0.6864
vn 0.6761 -0.5261 -0.5159
vn 0.9604 0.0368 -0.2763
vn -0.4387 -0.8769 -0.1963
vn -0.2172 0.9032 -0.3703
vn -0.1784 0.9774 -0.1134
vn 0.5169 -0.2439 0.8206
vn 0.5245 0.6749 0.5190
vn 0.1043 0.7315 -0.6738
vn 0.0301 -0.8851 0.4645
vn -0.9268 -0.2770 0.2537
vn -0.9065 0.4133 0.0861
vn 0.6092 0.4733 0.6363
vn 0.0543 0.9158 -0.3979
vn -0.6261 0.5959 -0.5029
vn -0.3249 -0.4768 0.8168
vn 0.1812 -0.0842 0.9798
vn 0.6005 -0.6244 0.4995
vn 0.0514 0.9646 0.2586
vn 0.1633 -0.1382 0.9768
vn 0.2033 0.5109 0.8353
vn 0.9647 -0.2489 -0.0861
vn 0.7132 -0.2183 -0.6660
vn 0.4611 0.4556 -0.7615
vn 0.6859 0.2066 -0.6978
vn 0.7790 0.6113 0.1394
vn 0.7146 0.3179 -0.6232
vn 0.7020 0.6740 0.2302
vn 0.2413 0.3609 0.9009
vn 0.7434 0.3437 -0.5738
vn -0.0503 -0.3902 0.9193
vn -0.5041 -0.8319 -0.2322
vn -0.5799 -0.3565 0.7325
vn 0.0232 -0.8950 0.4454
vn 0.2112 0.2793 0.9367
vn 0.3129 -0.3442 -0.8852
vn 0.2697 -0.2151 0.9386
vn -0.2369 0.4730 0.8486
vn 0.3655 -0.8632 0.3481
vn -0.8091 0.1254 -0.5741
vn -0.8605 0.4997 0.0992
vn -0.7694 0.0788 -0.6339
vn -0.5153 -0.2760 -0.8114
vn 0.0326 -0.7298 -0.6829
vn -0.6318 -0.6709 0.3883
vn 0.1474 -0.2806 0.9484
vn -0.8895 0.4526 0.0628
vn -0.2425 0.4801 0.8430
vn -0.0787 -0.7964 -0.5996
vn 0.3175 -0.2481 -0.9152
vn 0.6667 -0.6645 0.3375
vn 0.1068 -0.4413 0.8910
vn 0.8128 0.5736 0.1012
vn 0.2643 0.3737 0.8891
vn 0.8480 0.2516 -0.4665
vn 0.3961 -0.3544 -0.8470
vn 0.2275 0.0384 0.9730
vn 0.8276 0.2330 0.5107
vn 0.8320 -0.2391 0.5007
vn 0.6836 0.6228 -0.3806
vn 0.9931 -0.0905 0.0750
vn 0.0635 0.5001 -0.8636
vn 0.9460 0.0716 0.3162
vn 0.3628 -0.4968 0.7884
vn 0.4834 -0.7014 0.5238
vn -0.3670 -0.8501 0.3778
vn -0.4017 -0.7013 0.5889
vn -0.9906 -0.0837 -0.1086
vn -0.7061 0.6894 -0.1619
vn -0.7096 0.6677 0.2251
vn -0.7033 0.5463 -0.4550
vn 0.4639 0.4319 0.7735
vn -0.8041 0.2235 0.5510
vn -0.6070 -0.3285 0.7236
vn 0.0821 0.6574 -0.7490
vn -0.5820 -0.1511 -0.7991
vn 0.6667 0.5845 0.4625
vn -0.1434 0.0579 -0.9880
vn -0.3109 0.1943 -0.9304
vn -0.7023 -0.2015 0.6827
vn -0.5118 0.8591 -0.0085
vn -0.9511 0.2972 -0.0840
vn 0.1247 0.8870 0.4447
vn 0.8084 0.1885 -0.5576
vn -0.3465 -0.3985 0.8492
vn 0.8700 0.2813 0.4049
vn -0.4088 0.8071 -0.4260
vn -0.6121 -0.7880 0.0668
vn -0.0248 0.1533 0.9879
vn -0.8016 0.5974 0.0224
vn -0.6148 -0.5790 0.5355
vn -0.2813 0.8507 -0.4441
vn 0.1282 0.9582 -0.2556
vn 0.6801 0.5746 -0.4553
vn -0.7747 -0.3209 -0.5449
vn -0.4436 0.6744 -0.5903
vn 0.6123 0.4275 0.6651
vn 0.8372 0.4702 0.2793
vn 0.9371 -0.2162 0.2740
vn 0.6099 0.7560 -0.2376
vn 0.2795 0.9094 0.3079
vn 0.5785 -0.2866 0.7637
vn 0.1035 -0.9730 -0.2061
vn -0.3088 0.6506 -0.6938
vn 0.5730 -0.4251 -0.7007
vn -0.1742 -0.0788 -0.9816
vn 0.0214 -0.8266 0.5624
vn 0.5648 0.5060 0.6519
vn 0.3581 -0.5083 0.7832
vn 0.9631 -0.0606 -0.2623
vn -0.1893 0.9775 -0.0928
vn 0.7911 -0.2203 -0.5707
vn 0.4536 0.0447 -0.8901
vn 0.1237 0.9657 0.2283
vn 0.3181 0.4818 -0.8165
vn 0.5263 -0.0622 -0.8480
vn 0.5878 -0.8085 -0.0283
vn -0.0363 -0.5426 0.8392
vn 0.7814 -0.5687 -0.2569
vn -0.3679 0.5892 -0.7194
vn -0.7011 0.7036 0.1158
vn -0.4784 0.8587 0.1836
vn -0.0469 0.0688 -0.9965
vn -0.0556 -0.8586 -0.5097
vn -0.7169 0.4330 -0.5464
vn -0.4740 0.2155 0.8538
vn 0.4476 -0.0815 0.8905
vn -0.1589 0.3427 0.9259
vn 0.4004 -0.2308 -0.8868
vn 0.6950 -0.3071 0.6501
vn 0.8930 -0.2551 -0.3708
vn 0.1685 -0.3947 0.9032
vn -0.2386 0.9648 0.1109
vn -0.3325 -0.5166 -0.7890
vn 0.0773 0.9966 -0.0277
vn -0.1147 -0.5400 -0.8338
vn 0.8219 0.0780 -0.5642
vn -0.0000 -0.4207 -0.9072
vn -0.0000 -0.1159 -0.9933
vn -0.0000 0.4338 -0.9010
vn 0.0502 0.5736 -0.8176
vn 0.0959 0.6050 -0.7904
vn -0.0384 0.3083 -0.9505
vn -0.0525 0.5753 -0.8163
vn -0.0987 0.6069 -0.7887
vn 0.0384 0.3083 -0.9505
vn -0.0000 -0.3521 -0.9360
vn -0.0000 -0.2723 -0.9622
vn -0.3190 -0.8324 -0.4532
vn -0.3400 -0.2060 -0.9176
vn 0.8389 0.4118 0.3560
vn -0.3478 0.6056 0.7157
vn 0.1058 -0.8838 0.4558
vn -0.0580 0.5714 -0.8186
vn 0.9576 -0.2468 0.1490
vn 0.2832 0.6933 -0.6627
vn 0.9758 -0.0208 -0.2175
vn 0.8619 0.4673 0.1968
vn 0.6382 -0.7351 0.2286
vn 0.9299 -0.2757 0.2436
vn -0.6677 -0.7430 -0.0466
vn 0.1038 -0.8183 0.5653
vn 0.3020 -0.6333 -0.7125
vn -0.0442 -0.3947 0.9177
vn -0.1478 -0.3932 0.9075
vn -0.3002 -0.1571 0.9409
vn -0.3192 -0.2766 0.9064
vn -0.4190 -0.0538 0.9064
vn 0.1336 0.5588 0.8185
vn 0.1550 0.5730 0.8047
vn 0.1217 0.5507 0.8258
vn 0.1677 0.5814 0.7962
vn -0.2423 -0.1192 0.9629
vn -0.4640 -0.2778 0.8412
vn -0.7796 0.6242 0.0515
vn 0.5235 0.2908 0.8009
vn 0.4913 0.2795 0.8249
vn 0.5291 0.2927 0.7965
vn 0.4865 0.2777 0.8284
vn -0.1534 0.4166 0.8960
vn 0.5550 -0.8138 0.1723
vn 0.7099 -0.0661 0.7012
vn -0.0205 -0.9984 0.0532
vn -0.0106 0.8654 0.5010
vn -0.6956 -0.1079 0.7103
vn -0.4699 -0.8631 0.1852
vn -0.6849 0.7259 0.0636
vn -0.5280 -0.1590 -0.8342
vn 0.4903 -0.1356 -0.8609
vn -0.0228 0.6361 -0.7713
vn 0.6309 0.7699 0.0954
vn 0.5691 -0.4383 -0.6957
vn 0.3634 0.6373 -0.6795
vn 0.6043 0.6320 0.4852
vn 0.7775 -0.4526 0.4366
vn -0.3464 -0.6778 0.6485
vn -0.5531 -0.6800 -0.4813
vn -0.7396 0.5137 -0.4349
vn -0.5175 0.5207 0.6790
vn 0.8340 -0.3066 0.4587
vn -0.4227 -0.1231 0.8979
vn 0.3270 -0.8926 0.3103
vn 0.0824 0.9378 -0.3371
vn -0.8039 0.5937 0.0355
vn 0.3898 0.6755 0.6259
vn -0.8347 0.5456 0.0745
vn -0.8789 0.2377 -0.4135
vn 0.3639 0.4230 -0.8299
vn -0.8331 -0.4095 -0.3719
vn 0.8132 0.4034 0.4194
vn 0.4874 0.2903 0.8235
vn 0.4680 -0.2233 -0.8550
vn 0.2031 -0.9540 0.2206
vn -0.3479 0.0855 0.9336
vn 0.0841 0.9931 -0.0819
vn -0.3566 -0.9329 -0.0506
vn 0.5312 0.2739 0.8018
vn 0.3791 0.2913 0.8783
vn 0.3092 -0.4708 0.8263
vn 0.3005 -0.5690 0.7655
vn -0.0063 0.0569 0.9984
vn 0.6157 0.1032 0.7812
vn 0.5108 0.3507 0.7849
vn 0.6389 -0.2194 0.7373
vn 0.3643 -0.3813 0.8497
vn -0.0165 0.5989 0.8007
vn 0.4975 0.6211 0.6056
vn 0.4030 -0.5252 0.7495
vn 0.1485 -0.3572 0.9221
vn 0.6764 0.0091 0.7365
vn -0.0000 -0.2105 0.9776
vn 0.5505 -0.3229 0.7698
vn -0.5250 0.2638 0.8092
vn -0.3092 -0.4708 0.8263
vn -0.3771 0.2901 0.8796
vn -0.3005 -0.5690 0.7655
vn -0.6234 0.0885 0.7769
vn -0.5076 0.3491 0.7877
vn -0.3643 -0.3813 0.8497
vn -0.6410 -0.2381 0.7297
vn -0.5150 0.5991 0.6131
vn -0.4030 -0.5252 0.7495
vn -0.1485 -0.3572 0.9221
vn -0.6903 -0.0228 0.7232
vn -0.5505 -0.3229 0.7698
vt 0.094178 0.463712
vt 0.094178 0.367495
vt 0.136841 0.402788
vt 0.261964 0.360862
vt 0.200876 0.360862
vt 0.261964 0.325487
vt 0.326901 0.360862
vt 0.200467 0.302477
vt 0.199648 0.334085
vt 0.166893 0.299856
vt 0.323298 0.316315
vt 0.200876 0.467479
vt 0.143474 0.474439
vt 0.429505 0.367495
vt 0.384549 0.401314
vt 0.392983 0.340800
vt 0.207264 0.386820
vt 0.320923 0.467479
vt 0.344834 0.383545
vt 0.172216 0.420885
vt 0.365633 0.316315
vt 0.429505 0.308209
vt 0.169186 0.337442
vt 0.862034 0.652950
vt 0.861951 0.763732
vt 0.848832 0.761899
vt 0.345980 0.484266
vt 0.135694 0.341127
vt 0.117679 0.299856
vt 0.317893 0.386820
vt 0.861951 0.551164
vt 0.848832 0.551164
vt 0.394785 0.472064
vt 0.807810 0.652950
vt 0.848790 0.652950
vt 0.807810 0.761899
vt 0.120136 0.331710
vt 0.807810 0.544000
vt 0.429505 0.470263
vt 0.856551 0.805004
vt 0.911025 0.831409
vt 0.911942 0.805171
vt 0.805657 0.805171
vt 0.805657 0.831409
vt 0.856551 0.913454
vt 0.911025 0.913454
vt 0.856551 0.831492
vt 0.802076 0.913454
vt 0.094096 0.518167
vt 0.143637 0.508422
vt 0.377752 0.518003
vt 0.326491 0.610453
vt 0.325181 0.520132
vt 0.200385 0.517430
vt 0.205135 0.583840
vt 0.261964 0.467479
vt 0.261964 0.529877
vt 0.382583 0.611109
vt 0.382583 0.635101
vt 0.324362 0.635101
vt 0.141508 0.581793
vt 0.429505 0.518167
vt 0.261964 0.606031
vt 0.200058 0.635101
vt 0.261964 0.635101
vt 0.136104 0.635101
vt 0.094505 0.635101
vt 0.094096 0.587853
vt 0.429505 0.587853
vt 0.429505 0.635183
vt 0.429505 0.338916
vt 0.094178 0.347760
vt 0.706258 0.200419
vt 0.678900 0.200419
vt 0.677761 0.173456
vt 0.696798 0.009445
vt 0.772806 0.086987
vt 0.696658 0.086987
vt 0.772806 0.009352
vt 0.700099 0.146399
vt 0.709815 0.332539
vt 0.678900 0.276939
vt 0.706305 0.276939
vt 0.772806 0.332539
vt 0.696798 0.389998
vt 0.677761 0.116089
vt 0.772806 0.200419
vt 0.772806 0.276939
vt 0.772806 0.146399
vt 0.677761 0.360524
vt 0.772737 0.390184
vt 0.436898 0.568787
vt 0.435758 0.652397
vt 0.467822 0.624403
vt 0.454801 0.681880
vt 0.530762 0.682066
vt 0.530832 0.624403
vt 0.458103 0.438209
vt 0.530832 0.438209
vt 0.530832 0.378780
vt 0.464311 0.568787
vt 0.464264 0.492245
vt 0.530832 0.492245
vt 0.435758 0.465274
vt 0.436898 0.492245
vt 0.530832 0.568787
vt 0.435758 0.407890
vt 0.454661 0.378780
vt 0.530832 0.301122
vt 0.454801 0.301215
vt 0.877222 0.209834
vt 0.899725 0.391696
vt 0.877222 0.391696
vt 0.899759 0.203303
vt 0.873634 0.372793
vt 0.913454 0.227496
vt 0.913454 0.370999
vt 0.873634 0.230992
vt 0.866356 0.369251
vt 0.866356 0.233889
vt 0.873634 0.567885
vt 0.873634 0.426084
vt 0.866356 0.564343
vt 0.866356 0.428981
vt 0.877222 0.404926
vt 0.913454 0.566091
vt 0.913454 0.422588
vt 0.899725 0.586788
vt 0.899759 0.398395
vt 0.877222 0.586788
vt 0.237199 0.365753
vt 0.241283 0.441604
vt 0.211964 0.365753
vt 0.261753 0.426288
vt 0.250716 0.365753
vt 0.271915 0.365753
vt 0.107295 0.904380
vt 0.120588 0.826119
vt 0.133913 0.904380
vt 0.311542 0.441604
vt 0.292045 0.441604
vt 0.311542 0.365826
vt 0.160308 0.873267
vt 0.160308 0.904380
vt 0.072898 0.904380
vt 0.093747 0.873267
vt 0.291364 0.365753
vt 0.211964 0.441604
vt 0.661056 0.889257
vt 0.680553 0.813479
vt 0.660375 0.813406
vt 0.580975 0.813406
vt 0.580975 0.889257
vt 0.610295 0.889257
vt 0.217378 0.814020
vt 0.190536 0.861168
vt 0.204085 0.892281
vt 0.606210 0.813406
vt 0.619727 0.813406
vt 0.640927 0.813406
vt 0.169688 0.892281
vt 0.230703 0.892281
vt 0.257098 0.892281
vt 0.257098 0.861168
vt 0.630764 0.873941
vt 0.680553 0.889257
vt 0.678756 0.520245
vt 0.702022 0.500514
vt 0.678756 0.390514
vt 0.352285 0.836103
vt 0.352352 0.828481
vt 0.402441 0.828481
vt 0.367952 0.867970
vt 0.432507 0.867970
vt 0.402396 0.867970
vt 0.432530 0.828481
vt 0.719874 0.485505
vt 0.697267 0.397808
vt 0.700735 0.395016
vt 0.341507 0.867970
vt 0.402418 0.919503
vt 0.432530 0.919503
vt 0.948541 0.246424
vt 0.948541 0.127037
vt 0.967898 0.246512
vt 0.893668 0.644895
vt 0.893668 0.713927
vt 0.913454 0.714016
vt 0.867848 0.713971
vt 0.867848 0.774319
vt 0.893668 0.774274
vt 0.893668 0.591896
vt 0.909635 0.613496
vt 0.964162 0.148169
vt 0.967898 0.148300
vt 0.913454 0.774319
vt 0.913454 0.613630
vt 0.923280 0.246468
vt 0.068055 0.500224
vt 0.047496 0.500224
vt 0.051449 0.401439
vt 0.068055 0.405575
vt 0.051632 0.090972
vt 0.047739 0.001920
vt 0.068055 0.001920
vt 0.068055 0.090486
vt 0.068055 0.714825
vt 0.068055 0.773706
vt 0.052179 0.743779
vt 0.145368 0.641725
vt 0.178596 0.641725
vt 0.179406 0.671479
vt 0.464289 0.818231
vt 0.453944 0.919503
vt 0.453944 0.818231
vt 0.464289 0.919503
vt 0.073008 0.641725
vt 0.145368 0.671479
vt 0.073008 0.671479
vt 0.218191 0.641725
vt 0.218191 0.671479
vt 0.385647 0.792173
vt 0.385647 0.822713
vt 0.351066 0.822713
vt 0.351066 0.792173
vt 0.310900 0.822713
vt 0.310900 0.792173
vt 0.378190 0.263525
vt 0.417248 0.270750
vt 0.402686 0.294906
vt 0.351889 0.294906
vt 0.233813 0.249640
vt 0.268017 0.252350
vt 0.259437 0.294906
vt 0.304365 0.294906
vt 0.304365 0.256978
vt 0.333263 0.269056
vt 0.224895 0.294906
vt 0.432375 0.294906
vt 0.459466 0.265218
vt 0.486897 0.294906
vt 0.115173 0.294906
vt 0.110883 0.252350
vt 0.142942 0.249641
vt 0.533856 0.294906
vt 0.501685 0.269056
vt 0.073180 0.294906
vt 0.073180 0.256752
vt 0.149941 0.294906
vt 0.533856 0.256978
vt 0.377852 0.201778
vt 0.342068 0.193086
vt 0.377852 0.121405
vt 0.459353 0.123098
vt 0.497621 0.194441
vt 0.459353 0.204036
vt 0.417248 0.064963
vt 0.264743 0.180669
vt 0.304365 0.182249
vt 0.233813 0.181459
vt 0.417248 0.216001
vt 0.114157 0.180669
vt 0.533856 0.186877
vt 0.073180 0.186539
vt 0.142942 0.181459
vt 0.096999 0.139466
vt 0.119462 0.002765
vt 0.099821 0.047241
vt 0.073745 0.002765
vt 0.136508 0.101086
vt 0.105126 0.097248
vt 0.138540 0.043516
vt 0.492654 0.002765
vt 0.482946 0.053562
vt 0.073180 0.153012
vt 0.515908 0.102892
vt 0.518391 0.047128
vt 0.533179 0.002765
vt 0.002239 0.834534
vt 0.002239 0.743779
vt 0.068055 0.995120
vt 0.057471 0.874925
vt 0.068055 0.871761
vt 0.047678 0.995120
vt 0.002239 0.001920
vt 0.002239 0.172239
vt 0.053700 0.171023
vt 0.002239 0.251072
vt 0.002239 0.906555
vt 0.002300 0.995120
vt 0.002239 0.093406
vt 0.068055 0.183918
vt 0.068055 0.311414
vt 0.072557 0.133086
vt 0.089228 0.067179
vt 0.089228 0.132826
vt 0.264078 0.822713
vt 0.277386 0.139353
vt 0.303236 0.002765
vt 0.277725 0.047241
vt 0.255148 0.002765
vt 0.273999 0.097248
vt 0.240360 0.101086
vt 0.239796 0.043516
vt 0.356517 0.053562
vt 0.345003 0.002765
vt 0.304365 0.153238
vt 0.318024 0.047128
vt 0.320846 0.102892
vt 0.002239 0.645238
vt 0.058445 0.618960
vt 0.068055 0.623096
vt 0.002300 0.500710
vt 0.053518 0.326255
vt 0.002239 0.318956
vt 0.002239 0.585869
vt 0.002239 0.398762
vt 0.286499 0.671479
vt 0.328178 0.641725
vt 0.328178 0.671479
vt 0.533856 0.153238
vt 0.264197 0.792173
vt 0.278857 0.641725
vt 0.072557 0.008537
vt 0.223679 0.017568
vt 0.223826 0.039321
vt 0.172698 0.039321
vt 0.133765 0.705488
vt 0.086354 0.677364
vt 0.167366 0.679758
vt 0.108080 0.713359
vt 0.248378 0.677364
vt 0.201014 0.705488
vt 0.226699 0.713359
vt 0.167366 0.704061
vt 0.249713 0.739688
vt 0.167366 0.793036
vt 0.167366 0.741437
vt 0.201152 0.740517
vt 0.226514 0.735315
vt 0.167366 0.806385
vt 0.187113 0.848456
vt 0.147666 0.848456
vt 0.261635 0.677456
vt 0.133627 0.740517
vt 0.108264 0.735315
vt 0.072301 0.532344
vt 0.082530 0.430097
vt 0.083179 0.532344
vt 0.085066 0.739688
vt 0.073098 0.677318
vt 0.102879 0.814946
vt 0.073098 0.851448
vt 0.167366 0.834141
vt 0.102879 0.787973
vt 0.119220 0.808594
vt 0.231900 0.787973
vt 0.215559 0.808594
vt 0.261635 0.851448
vt 0.231900 0.814946
vt 0.689628 0.087716
vt 0.676893 0.002831
vt 0.689628 0.002831
vt 0.676893 0.087716
vt 0.746556 0.930669
vt 0.754545 0.924671
vt 0.746556 0.931863
vt 0.790528 0.924671
vt 0.798516 0.931863
vt 0.798516 0.929474
vt 0.782539 0.892296
vt 0.790528 0.900683
vt 0.766539 0.895881
vt 0.758551 0.895881
vt 0.758551 0.892296
vt 0.754545 0.900683
vt 0.746556 0.959460
vt 0.798516 0.959460
vt 0.098302 0.088789
vt 0.094479 0.117963
vt 0.094479 0.059615
vt 0.772536 0.961849
vt 0.097213 0.059615
vt 0.314667 0.739850
vt 0.349901 0.738701
vt 0.313637 0.784885
vt 0.290945 0.688439
vt 0.326915 0.688439
vt 0.313397 0.710754
vt 0.353316 0.779842
vt 0.285256 0.785002
vt 0.266992 0.785077
vt 0.275552 0.770044
vt 0.384742 0.738557
vt 0.354793 0.784716
vt 0.384861 0.784592
vt 0.406736 0.738467
vt 0.406820 0.784502
vt 0.283325 0.756485
vt 0.267049 0.770079
vt 0.300971 0.784937
vt 0.449896 0.813639
vt 0.403819 0.813639
vt 0.412335 0.781492
vt 0.286841 0.721522
vt 0.319526 0.719701
vt 0.284059 0.738003
vt 0.395051 0.710754
vt 0.361372 0.710754
vt 0.361556 0.688439
vt 0.520516 0.798493
vt 0.508016 0.798493
vt 0.490650 0.789065
vt 0.459020 0.782526
vt 0.493661 0.768962
vt 0.267035 0.756911
vt 0.334109 0.710754
vt 0.526295 0.786328
vt 0.267018 0.740657
vt 0.283272 0.740590
vt 0.267016 0.738073
vt 0.267000 0.723003
vt 0.508016 0.810659
vt 0.490620 0.813639
vt 0.301260 0.786300
vt 0.272699 0.786417
vt 0.287051 0.786358
vt 0.395234 0.688439
vt 0.288975 0.710754
vt 0.266992 0.715397
vt 0.452190 0.710754
vt 0.452190 0.688439
vt 0.448710 0.768688
vt 0.265881 0.710800
vt 0.265881 0.682070
vt 0.457446 0.762220
vt 0.419879 0.730068
vt 0.411362 0.762220
vt 0.528077 0.747071
vt 0.498206 0.737642
vt 0.515575 0.747071
vt 0.466571 0.731102
vt 0.501218 0.717535
vt 0.533856 0.734904
vt 0.515575 0.759239
vt 0.498176 0.762220
vt 0.456259 0.717262
vt 0.080154 0.632159
vt 0.080154 0.573303
vt 0.073143 0.580942
vt 0.937540 0.465236
vt 0.946663 0.411218
vt 0.936054 0.414230
vt 0.928776 0.416297
vt 0.949750 0.454704
vt 0.948924 0.491769
vt 0.934791 0.526854
vt 0.936511 0.551075
vt 0.922587 0.555029
vt 0.920874 0.530906
vt 0.919325 0.509081
vt 0.918029 0.419382
vt 0.918029 0.490833
vt 0.615608 0.105112
vt 0.630453 0.181802
vt 0.628689 0.104446
vt 0.618104 0.176076
vt 0.613910 0.442626
vt 0.630420 0.368200
vt 0.613444 0.376189
vt 0.616540 0.278729
vt 0.605988 0.017504
vt 0.607186 0.105112
vt 0.600995 0.373260
vt 0.564381 0.107775
vt 0.574400 0.171949
vt 0.575199 0.105112
vt 0.564381 0.172482
vt 0.564381 0.369798
vt 0.574833 0.462465
vt 0.574666 0.365271
vt 0.564414 0.461133
vt 0.631418 0.278463
vt 0.629488 0.278596
vt 0.608351 0.278729
vt 0.608118 0.176076
vt 0.575898 0.541418
vt 0.564481 0.541418
vt 0.601761 0.445023
vt 0.570872 0.269010
vt 0.644067 0.277664
vt 0.575632 0.017504
vt 0.606021 0.541151
vt 0.614842 0.541018
vt 0.614875 0.017504
vt 0.564381 0.017504
vt 0.564381 0.270208
vt 0.801541 0.589266
vt 0.757820 0.610861
vt 0.756491 0.589266
vt 0.801541 0.611725
vt 0.588184 0.663884
vt 0.589381 0.688137
vt 0.540277 0.689998
vt 0.757820 0.674715
vt 0.722404 0.676576
vt 0.724464 0.609266
vt 0.627985 0.609798
vt 0.676025 0.602223
vt 0.671175 0.677041
vt 0.623999 0.662356
vt 0.622537 0.687207
vt 0.757820 0.691526
vt 0.722404 0.696509
vt 0.801541 0.690064
vt 0.801541 0.672323
vt 0.540211 0.672390
vt 0.579480 0.610130
vt 0.540078 0.612256
vt 0.580144 0.589333
vt 0.540078 0.589466
vt 0.675427 0.589266
vt 0.625726 0.589266
vt 0.671175 0.693386
vt 0.724198 0.589266
vt 0.740079 0.547539
vt 0.761341 0.547539
vt 0.625128 0.547539
vt 0.578483 0.547671
vt 0.540144 0.547539
vt 0.801541 0.547539
vt 0.729049 0.547539
vt 0.674497 0.547539
vt 0.702205 0.536176
vt 0.543478 0.140660
vt 0.537786 0.216552
vt 0.543478 0.162762
vt 0.543478 0.272072
vt 0.543478 0.098055
vt 0.543478 0.370996
vt 0.543478 0.017504
vt 0.543478 0.541285
vt 0.543544 0.464462
vt 0.720278 0.806078
vt 0.671972 0.777174
vt 0.719613 0.781028
vt 0.671706 0.748337
vt 0.622072 0.780231
vt 0.719547 0.746742
vt 0.588118 0.780231
vt 0.540676 0.740762
vt 0.588649 0.744549
vt 0.540942 0.780231
vt 0.624596 0.746011
vt 0.756557 0.745014
vt 0.660044 0.445156
vt 0.660044 0.377121
vt 0.660044 0.539687
vt 0.660443 0.181668
vt 0.658513 0.277131
vt 0.672992 0.180337
vt 0.672992 0.114698
vt 0.672992 0.088735
vt 0.667366 0.017504
vt 0.672992 0.017504
vt 0.672992 0.451414
vt 0.672992 0.277664
vt 0.672992 0.378452
vt 0.672992 0.540219
vt 0.765992 0.806078
vt 0.753035 0.806078
vt 0.801541 0.749001
vt 0.801541 0.794848
vt 0.540676 0.806078
vt 0.584995 0.806078
vt 0.801541 0.806078
vt 0.671706 0.806078
vt 0.621407 0.806078
vt 0.719547 0.721160
vt 0.758152 0.717639
vt 0.626523 0.721094
vt 0.671308 0.723088
vt 0.671241 0.719233
vt 0.164614 0.905869
vt 0.178720 0.958824
vt 0.163628 0.958615
vt 0.179257 0.897412
vt 0.187655 0.899295
vt 0.195006 0.958824
vt 0.219810 0.958824
vt 0.214282 0.898548
vt 0.225339 0.897412
vt 0.917643 0.072094
vt 0.927671 0.103947
vt 0.922263 0.119789
vt 0.300449 0.131574
vt 0.293601 0.040639
vt 0.300431 0.040713
vt 0.286146 0.131574
vt 0.286017 0.040713
vt 0.970101 0.115908
vt 0.979997 0.119827
vt 0.979997 0.132820
vt 0.961101 0.115908
vt 0.965529 0.124570
vt 0.961101 0.133086
vt 0.917643 0.036068
vt 0.931142 0.002256
vt 0.414334 0.051420
vt 0.414334 0.032328
vt 0.406415 0.049440
vt 0.968432 0.063600
vt 0.961101 0.099286
vt 0.959480 0.066019
vt 0.970101 0.099286
vt 0.937402 0.084103
vt 0.305493 0.131574
vt 0.305493 0.040639
vt 0.247192 0.979997
vt 0.236807 0.960176
vt 0.247192 0.960176
vt 0.258610 0.940996
vt 0.247192 0.940996
vt 0.979997 0.062317
vt 0.414334 0.001875
vt 0.406415 0.014697
vt 0.414381 0.014839
vt 0.945280 0.007110
vt 0.952434 0.021418
vt 0.948516 0.075756
vt 0.293638 0.131574
vt 0.979997 0.099286
vt 0.294319 0.028269
vt 0.953988 0.119828
vt 0.953988 0.099286
vt 0.228599 0.937060
vt 0.236807 0.940996
vt 0.935975 0.158796
vt 0.953988 0.073761
vt 0.305493 0.028269
vt 0.941171 0.084103
vt 0.170053 0.900460
vt 0.935975 0.136141
vt 0.943087 0.110079
vt 0.970440 0.035341
vt 0.406415 0.001875
vt 0.228599 0.906267
vt 0.235048 0.907747
vt 0.228599 0.917406
vt 0.241050 0.914810
vt 0.258610 0.964698
vt 0.952775 0.065792
vt 0.252887 0.899092
vt 0.917643 0.002341
vt 0.917664 0.119789
vt 0.228599 0.964698
vt 0.256349 0.913833
vt 0.341692 0.665385
vt 0.387159 0.665312
vt 0.387159 0.651690
vt 0.341729 0.651727
vt 0.335507 0.663949
vt 0.971511 0.709131
vt 0.983348 0.693414
vt 0.986810 0.708154
vt 0.959060 0.759020
vt 0.967268 0.754497
vt 0.959060 0.731382
vt 0.959060 0.711728
vt 0.965509 0.702068
vt 0.323798 0.910387
vt 0.323798 0.901188
vt 0.299950 0.910429
vt 0.977653 0.735318
vt 0.967268 0.735318
vt 0.331974 0.873764
vt 0.305955 0.870911
vt 0.315877 0.890372
vt 0.265031 0.883431
vt 0.265074 0.910429
vt 0.281937 0.910429
vt 0.305955 0.863373
vt 0.267459 0.855155
vt 0.989071 0.735318
vt 0.587459 0.897436
vt 0.596126 0.955799
vt 0.596664 0.894388
vt 0.296799 0.840165
vt 0.274613 0.840846
vt 0.301782 0.848682
vt 0.612413 0.955799
vt 0.955051 0.531815
vt 0.953430 0.498547
vt 0.947938 0.506289
vt 0.947938 0.531815
vt 0.955051 0.548437
vt 0.989071 0.759020
vt 0.977653 0.754497
vt 0.959060 0.700589
vt 0.341729 0.680553
vt 0.605061 0.896270
vt 0.631688 0.895523
vt 0.973948 0.531815
vt 0.964052 0.531815
vt 0.973948 0.552357
vt 0.792062 0.812490
vt 0.799981 0.812490
vt 0.792062 0.825312
vt 0.962382 0.496127
vt 0.973948 0.494845
vt 0.964390 0.467867
vt 0.318943 0.859541
vt 0.964052 0.548437
vt 0.582020 0.902845
vt 0.335507 0.641602
vt 0.341692 0.641602
vt 0.343301 0.873764
vt 0.973948 0.565349
vt 0.959479 0.557099
vt 0.947938 0.552357
vt 0.955051 0.565616
vt 0.800028 0.825454
vt 0.792062 0.860054
vt 0.387159 0.680296
vt 0.799981 0.842943
vt 0.977653 0.774319
vt 0.387159 0.641602
vt 0.637216 0.955799
vt 0.799981 0.862034
vt 0.642745 0.894388
vt 0.581034 0.955590
vt 0.084962 0.998145
vt 0.097322 0.912032
vt 0.084962 0.912032
vt 0.097322 0.998145
vt 0.468708 0.912413
vt 0.485461 0.970923
vt 0.485461 0.912413
vt 0.468708 0.970923
vt 0.506634 0.970923
vt 0.489991 0.912798
vt 0.506634 0.912798
vt 0.489991 0.970923
vt 0.107401 0.912032
vt 0.107401 0.998145
vt 0.111913 0.953943
vt 0.076551 0.998145
vt 0.071967 0.912032
vt 0.071968 0.998145
vt 0.076551 0.912032
vt 0.964874 0.405307
vt 0.964874 0.310402
vt 0.939580 0.256658
vt 0.970923 0.578609
vt 0.917605 0.645489
vt 0.917605 0.561518
vt 0.911130 0.405307
vt 0.970923 0.695677
vt 0.948973 0.695677
vt 0.462776 0.952004
vt 0.437894 0.973948
vt 0.437894 0.899719
vt 0.130513 0.016636
vt 0.211728 0.016636
vt 0.211728 0.002162
vt 0.964874 0.256658
vt 0.686609 0.935309
vt 0.748609 0.892732
vt 0.737947 0.949369
vt 0.387159 0.925299
vt 0.387159 0.906678
vt 0.338169 0.925299
vt 0.338169 0.906678
vt 0.684574 0.949750
vt 0.073827 0.423455
vt 0.087152 0.332625
vt 0.087152 0.385462
vt 0.073827 0.303323
vt 0.329131 0.998145
vt 0.329131 0.902926
vt 0.338169 0.998145
vt 0.087152 0.423455
vt 0.952748 0.763489
vt 0.941236 0.706769
vt 0.936511 0.763605
vt 0.952775 0.706687
vt 0.336856 0.979388
vt 0.378497 0.992211
vt 0.229180 0.003283
vt 0.232901 0.039321
vt 0.232901 0.003283
vt 0.229180 0.039321
vt 0.514715 0.967898
vt 0.510490 0.967898
vt 0.514715 0.914249
vt 0.529319 0.914249
vt 0.432530 0.028521
vt 0.420515 0.003306
vt 0.420515 0.051420
vt 0.529319 0.967898
vt 0.510490 0.914249
vt 0.446227 0.361449
vt 0.450678 0.299526
vt 0.450678 0.361449
vt 0.446227 0.299526
vt 0.918610 0.656299
vt 0.917055 0.781055
vt 0.979997 0.937651
vt 0.979997 0.781055
vt 0.679041 0.995120
vt 0.645974 0.903784
vt 0.645974 0.995120
vt 0.679041 0.903784
vt 0.369203 0.979388
vt 0.387159 0.998145
vt 0.917055 0.937651
vt 0.684472 0.892732
vt 0.918610 0.763732
vt 0.532344 0.018810
vt 0.528033 0.059495
vt 0.532344 0.120987
vt 0.387125 0.979388
vt 0.718971 0.463336
vt 0.728948 0.395951
vt 0.728948 0.464289
vt 0.089228 0.303323
vt 0.733980 0.538393
vt 0.782645 0.538393
vt 0.733980 0.455390
vt 0.859010 0.456502
vt 0.788605 0.394867
vt 0.733980 0.394867
vt 0.859010 0.394867
vt 0.818717 0.026921
vt 0.818559 0.003061
vt 0.859010 0.003061
vt 0.818539 0.326666
vt 0.778109 0.326666
vt 0.818283 0.288506
vt 0.853953 0.163915
vt 0.858950 0.326666
vt 0.778109 0.003061
vt 0.787905 0.162019
vt 0.859010 0.538393
vt 0.859010 0.162809
vt 0.869096 0.052515
vt 0.909298 0.052515
vt 0.909298 0.198117
vt 0.869096 0.198117
vt 0.863539 0.198117
vt 0.863539 0.052515
vt 0.869096 0.002600
vt 0.909298 0.002600
vt 0.135001 0.910057
vt 0.135001 0.976972
vt 0.155771 0.976972
vt 0.155771 0.910057
vt 0.913454 0.052515
vt 0.913454 0.198117
vt 0.780151 0.333536
vt 0.855917 0.333536
vt 0.855985 0.388672
vt 0.780219 0.388672
vt 0.786417 0.878669
vt 0.737548 0.882814
vt 0.774200 0.886232
vt 0.524362 0.812181
vt 0.534978 0.808957
vt 0.513770 0.808957
vt 0.716944 0.812104
vt 0.687128 0.853386
vt 0.574690 0.873795
vt 0.524684 0.887636
vt 0.574690 0.899666
vt 0.786417 0.853386
vt 0.756626 0.812104
vt 0.524064 0.904155
vt 0.473092 0.899666
vt 0.485990 0.907405
vt 0.083537 0.569091
vt 0.087716 0.617035
vt 0.087716 0.529656
vt 0.436917 0.300671
vt 0.441604 0.342200
vt 0.436916 0.394721
vt 0.473092 0.873795
vt 0.687128 0.878669
vt 0.699733 0.886232
vt 0.524362 0.850330
vt 0.544205 0.831553
vt 0.737233 0.830454
vt 0.503601 0.831553
vt 0.562188 0.907405
vt 0.872152 0.642226
vt 0.871929 0.611824
vt 0.874588 0.633778
vt 0.875919 0.654941
vt 0.875634 0.663749
vt 0.874231 0.601190
vt 0.867937 0.613924
vt 0.875413 0.594154
vt 0.874748 0.611925
vt 0.870616 0.663602
vt 0.868763 0.650401
vt 0.876835 0.613505
vt 0.877859 0.652606
vt 0.868077 0.596121
vt 0.880182 0.663918
vt 0.880182 0.610129
s 1
usemtl GRUSoilder
f 1/1/1 2/2/2 3/3/3
f 4/4/4 5/5/5 6/6/6
f 7/7/7 4/4/4 6/6/6
f 8/8/8 9/9/9 10/10/10
f 11/11/11 7/7/7 6/6/6
f 3/3/3 12/12/12 13/13/13
f 2/14/2 14/15/14 15/16/15
f 12/12/12 5/5/5 16/17/16
f 17/18/17 7/7/7 18/19/18
f 19/20/19 5/5/5 12/12/12
f 20/21/20 21/22/21 15/16/15
f 9/9/9 8/8/8 6/6/6
f 22/23/22 5/5/5 19/20/19
f 4/24/4 7/25/7 23/26/23
f 18/19/18 14/15/14 24/27/24
f 10/10/10 22/23/22 25/28/25
f 9/9/9 5/5/5 22/23/22
f 12/12/12 3/3/3 19/20/19
f 25/28/25 26/29/26 10/10/10
f 7/7/7 17/18/17 23/30/23
f 5/31/5 4/24/4 16/32/16
f 24/27/24 17/18/17 18/19/18
f 7/7/7 11/11/11 20/21/20
f 13/13/13 1/1/1 3/3/3
f 14/15/14 2/14/2 27/33/27
f 20/21/20 18/19/18 7/7/7
f 28/34/28 29/35/29 17/36/17
f 25/28/25 30/37/30 26/29/26
f 15/16/15 14/15/14 18/19/18
f 12/38/12 29/35/29 28/34/28
f 5/5/5 9/9/9 6/6/6
f 14/15/14 27/33/27 24/27/24
f 3/3/3 22/23/22 19/20/19
f 27/33/27 2/14/2 1/39/1
f 22/23/22 3/3/3 25/28/25
f 20/21/20 15/16/15 18/19/18
f 9/9/9 22/23/22 10/10/10
f 23/26/23 17/36/17 29/35/29
f 12/38/12 16/32/16 29/35/29
f 29/35/29 4/24/4 23/26/23
f 16/32/16 4/24/4 29/35/29
f 31/4/31 32/6/32 33/5/33
f 34/7/34 32/6/32 31/4/31
f 35/8/35 36/10/36 37/9/37
f 38/11/38 32/6/32 34/7/34
f 39/3/39 40/13/40 41/12/41
f 42/14/42 43/16/43 44/15/44
f 41/12/41 45/17/45 33/5/33
f 46/18/46 47/19/47 34/7/34
f 48/20/48 41/12/41 33/5/33
f 49/1/49 39/3/39 42/2/42
f 37/9/37 32/6/32 35/8/35
f 50/23/50 48/20/48 33/5/33
f 31/40/31 51/41/51 34/42/34
f 47/19/47 52/27/52 44/15/44
f 36/10/36 53/28/53 50/23/50
f 37/9/37 50/23/50 33/5/33
f 41/12/41 48/20/48 39/3/39
f 53/28/53 36/10/36 26/29/26
f 34/7/34 51/30/51 46/18/46
f 33/43/33 45/44/45 31/40/31
f 52/27/52 47/19/47 46/18/46
f 34/7/34 54/21/54 38/11/38
f 40/13/40 39/3/39 49/1/49
f 44/15/44 55/33/55 42/14/42
f 54/21/54 34/7/34 47/19/47
f 56/45/56 46/46/46 57/47/57
f 53/28/53 26/29/26 30/37/30
f 43/16/43 47/19/47 44/15/44
f 41/48/41 56/45/56 57/47/57
f 33/5/33 32/6/32 37/9/37
f 44/15/44 52/27/52 55/33/55
f 39/3/39 48/20/48 50/23/50
f 55/33/55 49/39/49 42/14/42
f 50/23/50 53/28/53 39/3/39
f 54/21/54 47/19/47 43/16/43
f 37/9/37 36/10/36 50/23/50
f 51/41/51 57/47/57 46/46/46
f 41/48/41 57/47/57 45/44/45
f 57/47/57 51/41/51 31/40/31
f 45/44/45 57/47/57 31/40/31
f 54/21/54 43/16/43 21/22/21
f 58/49/58 1/1/1 59/50/59
f 60/51/60 61/52/61 62/53/62
f 59/50/59 63/54/63 64/55/64
f 28/56/28 65/57/65 12/12/12
f 66/58/66 67/59/67 68/60/68
f 27/33/27 1/39/1 60/51/60
f 12/12/12 63/54/63 13/13/13
f 69/61/69 58/49/58 59/50/59
f 66/58/66 60/51/60 58/62/58
f 61/52/61 70/63/70 62/53/62
f 71/64/71 64/55/64 72/65/72
f 62/53/62 24/27/24 27/33/27
f 65/57/65 28/56/28 17/18/17
f 73/66/73 69/61/69 71/64/71
f 64/55/64 70/63/70 72/65/72
f 61/52/61 68/60/68 72/65/72
f 73/66/73 74/67/74 75/68/75
f 64/55/64 69/61/69 59/50/59
f 65/57/65 63/54/63 12/12/12
f 63/54/63 59/50/59 13/13/13
f 58/49/58 69/61/69 75/68/75
f 75/69/75 74/70/74 67/59/67
f 64/55/64 63/54/63 70/63/70
f 58/62/58 75/69/75 66/58/66
f 62/53/62 70/63/70 65/57/65
f 65/57/65 17/18/17 24/27/24
f 60/51/60 62/53/62 27/33/27
f 69/61/69 64/55/64 71/64/71
f 62/53/62 65/57/65 24/27/24
f 13/13/13 59/50/59 1/1/1
f 75/68/75 69/61/69 73/66/73
f 1/39/1 58/62/58 60/51/60
f 66/58/66 75/69/75 67/59/67
f 68/60/68 61/52/61 66/58/66
f 70/63/70 61/52/61 72/65/72
f 63/54/63 65/57/65 70/63/70
f 66/58/66 61/52/61 60/51/60
f 76/51/76 77/53/77 78/52/78
f 79/50/79 80/55/80 81/54/81
f 56/56/56 41/12/41 82/57/82
f 83/58/83 84/60/84 85/59/85
f 55/33/55 76/51/76 49/39/49
f 41/12/41 40/13/40 81/54/81
f 86/61/86 79/50/79 87/49/87
f 83/58/83 87/62/87 76/51/76
f 78/52/78 77/53/77 88/63/88
f 89/64/89 90/65/90 80/55/80
f 77/53/77 55/33/55 52/27/52
f 82/57/82 46/18/46 56/56/56
f 91/66/91 89/64/89 86/61/86
f 80/55/80 90/65/90 88/63/88
f 78/52/78 90/65/90 84/60/84
f 91/66/91 92/68/92 93/67/93
f 80/55/80 79/50/79 86/61/86
f 82/57/82 41/12/41 81/54/81
f 81/54/81 40/13/40 79/50/79
f 87/49/87 92/68/92 86/61/86
f 92/69/92 85/59/85 93/70/93
f 80/55/80 88/63/88 81/54/81
f 87/62/87 83/58/83 92/69/92
f 87/49/87 79/50/79 49/1/49
f 77/53/77 82/57/82 88/63/88
f 82/57/82 52/27/52 46/18/46
f 76/51/76 55/33/55 77/53/77
f 86/61/86 89/64/89 80/55/80
f 77/53/77 52/27/52 82/57/82
f 40/13/40 49/1/49 79/50/79
f 92/68/92 91/66/91 86/61/86
f 49/39/49 76/51/76 87/62/87
f 83/58/83 85/59/85 92/69/92
f 84/60/84 83/58/83 78/52/78
f 88/63/88 90/65/90 78/52/78
f 81/54/81 88/63/88 82/57/82
f 83/58/83 76/51/76 78/52/78
f 15/16/15 94/71/94 2/14/2
f 3/3/3 2/2/2 94/72/94
f 21/22/21 43/16/43 94/71/94
f 30/37/30 25/28/25 94/72/94
f 94/72/94 25/28/25 3/3/3
f 94/71/94 15/16/15 21/22/21
f 43/16/43 42/14/42 94/71/94
f 39/3/39 94/72/94 42/2/42
f 30/37/30 94/72/94 53/28/53
f 94/72/94 39/3/39 53/28/53
f 95/73/95 96/74/96 97/75/97
f 98/76/98 99/77/99 100/78/100
f 98/76/98 101/79/101 99/77/99
f 100/78/100 99/77/99 102/80/102
f 103/81/103 104/82/104 105/83/105
f 106/84/106 98/85/98 103/81/103
f 102/80/102 107/86/107 100/78/100
f 105/83/105 108/87/108 109/88/109
f 105/83/105 95/73/95 108/87/108
f 105/83/105 109/88/109 103/81/103
f 107/86/107 102/80/102 97/75/97
f 109/88/109 106/84/106 103/81/103
f 104/82/104 96/74/96 95/73/95
f 102/80/102 95/73/95 97/75/97
f 102/80/102 108/87/108 95/73/95
f 102/80/102 110/89/110 108/87/108
f 98/85/98 111/90/111 103/81/103
f 95/73/95 105/83/105 104/82/104
f 99/77/99 110/89/110 102/80/102
f 106/84/106 101/91/101 98/85/98
f 103/81/103 111/90/111 104/82/104
f 112/92/112 113/93/113 114/94/114
f 115/95/115 116/96/116 117/97/117
f 118/98/118 119/99/119 120/100/120
f 112/92/112 121/101/121 122/102/122
f 114/94/114 113/93/113 115/95/115
f 122/102/122 123/103/123 119/99/119
f 122/102/122 119/99/119 118/98/118
f 124/104/124 122/102/122 118/98/118
f 122/102/122 125/105/125 112/92/112
f 114/94/114 117/97/117 126/106/126
f 124/104/124 118/98/118 127/107/127
f 114/94/114 126/106/126 121/101/121
f 126/106/126 123/103/123 122/102/122
f 126/106/126 122/102/122 121/101/121
f 128/108/128 127/107/127 118/98/118
f 114/94/114 115/95/115 117/97/117
f 121/101/121 112/92/112 114/94/114
f 118/98/118 120/100/120 128/108/128
f 128/108/128 120/100/120 116/109/116
f 128/108/128 116/109/116 115/110/115
f 124/104/124 125/105/125 122/102/122
f 129/111/129 130/112/130 131/113/131
f 129/111/129 132/114/132 130/112/130
f 133/115/133 129/111/129 131/113/131
f 134/116/134 130/112/130 132/114/132
f 130/112/130 134/116/134 135/117/135
f 129/111/129 133/115/133 136/118/136
f 136/118/136 137/119/137 138/120/138
f 137/119/137 136/118/136 133/115/133
f 139/121/139 140/122/140 141/123/141
f 142/124/142 141/123/141 140/122/140
f 140/122/140 139/121/139 143/125/143
f 144/126/144 145/127/145 146/128/146
f 147/129/147 146/128/146 145/127/145
f 148/130/148 143/125/143 139/121/139
f 148/130/148 146/128/146 147/129/147
f 148/130/148 147/129/147 143/125/143
f 149/131/149 150/132/150 151/133/151
f 152/134/152 153/135/153 154/136/154
f 155/137/155 152/138/152 156/139/156
f 152/134/152 150/132/150 153/135/153
f 157/140/157 158/141/158 159/142/159
f 158/141/158 152/134/152 154/136/154
f 152/138/152 158/143/158 156/139/156
f 158/143/158 157/144/157 156/139/156
f 155/137/155 160/145/160 150/146/150
f 154/136/154 161/147/161 158/141/158
f 153/135/153 150/132/150 149/131/149
f 155/137/155 150/146/150 152/138/152
f 150/132/150 160/148/160 151/133/151
f 161/147/161 159/142/159 158/141/158
f 162/149/162 163/150/163 164/151/164
f 165/152/165 166/153/166 167/154/167
f 168/155/168 167/156/167 169/157/169
f 170/158/170 167/154/167 171/159/171
f 162/149/162 164/151/164 172/160/172
f 167/156/167 166/161/166 169/157/169
f 173/162/173 174/163/174 162/164/162
f 173/162/173 162/164/162 168/155/168
f 172/160/172 168/165/168 162/149/162
f 163/150/163 162/149/162 174/166/174
f 171/159/171 167/154/167 168/165/168
f 173/162/173 168/155/168 169/157/169
f 172/160/172 171/159/171 168/165/168
f 165/152/165 167/154/167 170/158/170
f 175/167/175 176/168/176 177/169/177
f 178/170/178 179/171/179 180/172/180
f 178/170/178 180/172/180 181/173/181
f 180/172/180 176/174/176 182/175/182
f 180/172/180 183/176/183 176/174/176
f 183/177/183 184/178/184 177/169/177
f 185/179/185 184/178/184 183/177/183
f 178/170/178 181/173/181 186/180/186
f 181/173/181 182/175/182 187/181/187
f 176/174/176 175/182/175 182/175/182
f 175/182/175 187/181/187 182/175/182
f 180/172/180 182/175/182 181/173/181
f 183/177/183 177/169/177 176/168/176
f 188/183/188 189/184/189 190/185/190
f 191/186/191 192/187/192 193/188/193
f 192/187/192 194/189/194 195/190/195
f 192/187/192 195/190/195 188/191/188
f 194/189/194 192/187/192 191/186/191
f 196/192/196 191/186/191 197/193/197
f 190/185/190 198/194/198 199/195/199
f 189/184/189 198/194/198 190/185/190
f 192/187/192 188/191/188 190/196/190
f 192/187/192 190/196/190 193/188/193
f 191/186/191 193/188/193 197/193/197
f 193/188/193 200/197/200 197/193/197
f 189/184/189 188/183/188 195/198/195
f 201/199/201 202/200/202 203/201/203
f 204/202/204 201/199/201 203/201/203
f 205/203/205 206/204/206 207/205/207
f 205/203/205 207/205/207 208/206/208
f 209/207/209 210/208/210 211/209/211
f 212/210/212 213/211/213 204/212/204
f 214/213/214 210/214/210 209/215/209
f 214/213/214 215/216/215 210/214/210
f 216/217/216 217/218/217 218/219/218
f 216/217/216 212/210/212 217/218/217
f 213/211/213 219/220/219 201/221/201
f 204/212/204 217/218/217 212/210/212
f 216/222/216 218/223/218 208/224/208
f 220/225/220 208/224/208 207/226/207
f 201/221/201 204/212/204 213/211/213
f 207/226/207 221/227/221 220/225/220
f 208/224/208 220/225/220 216/222/216
f 222/228/222 223/229/223 214/230/214
f 224/231/224 222/228/222 214/230/214
f 225/232/225 226/233/226 213/234/213
f 219/235/219 227/236/227 228/237/228
f 226/233/226 227/236/227 219/235/219
f 213/234/213 212/238/212 225/232/225
f 228/237/228 224/231/224 219/235/219
f 219/235/219 213/234/213 226/233/226
f 222/228/222 224/231/224 228/237/228
f 215/239/215 223/229/223 229/240/229
f 215/239/215 229/240/229 230/241/230
f 220/242/220 231/243/231 232/244/232
f 223/229/223 215/239/215 214/230/214
f 221/245/221 230/241/230 233/246/233
f 221/247/221 234/248/234 231/243/231
f 212/238/212 232/244/232 225/232/225
f 212/238/212 216/249/216 232/244/232
f 232/244/232 216/249/216 220/242/220
f 233/246/233 234/250/234 221/245/221
f 231/243/231 220/242/220 221/247/221
f 233/246/233 230/241/230 229/240/229
f 235/251/235 236/252/236 237/253/237
f 238/254/238 239/255/239 240/256/240
f 241/257/241 238/254/238 237/253/237
f 227/236/227 226/233/226 242/258/242
f 235/251/235 222/228/222 236/252/236
f 227/236/227 243/259/243 228/237/228
f 236/252/236 228/237/228 243/259/243
f 222/228/222 235/251/235 223/229/223
f 242/258/242 243/259/243 227/236/227
f 228/237/228 236/252/236 222/228/222
f 226/233/226 225/232/225 244/260/244
f 244/260/244 242/258/242 226/233/226
f 235/251/235 237/253/237 245/261/245
f 245/261/245 223/229/223 235/251/235
f 246/262/246 231/243/231 234/248/234
f 239/255/239 229/240/229 240/256/240
f 233/246/233 247/263/247 234/250/234
f 247/263/247 233/246/233 239/255/239
f 223/229/223 240/256/240 229/240/229
f 234/248/234 247/264/247 246/262/246
f 229/240/229 239/255/239 233/246/233
f 248/265/248 232/244/232 231/243/231
f 238/254/238 245/261/245 237/253/237
f 231/243/231 246/262/246 248/265/248
f 232/244/232 244/260/244 225/232/225
f 232/244/232 248/265/248 244/260/244
f 245/261/245 238/254/238 240/256/240
f 240/256/240 223/229/223 245/261/245
f 247/264/247 249/266/249 246/262/246
f 250/267/250 251/268/251 252/269/252
f 253/270/253 246/262/246 254/271/254
f 253/270/253 254/271/254 255/272/255
f 250/273/250 256/274/256 241/257/241
f 251/268/251 250/267/250 255/272/255
f 257/275/257 249/266/249 247/264/247
f 258/276/258 256/274/256 259/277/259
f 255/272/255 254/271/254 251/268/251
f 259/277/259 256/274/256 250/273/250
f 250/273/250 252/278/252 259/277/259
f 246/262/246 253/270/253 248/265/248
f 249/266/249 254/271/254 246/262/246
f 244/260/244 248/265/248 253/270/253
f 211/209/211 260/279/260 261/280/261
f 207/281/207 262/282/262 263/283/263
f 206/284/206 262/282/262 207/281/207
f 206/204/206 205/203/205 264/285/264
f 265/286/265 266/287/266 267/288/267
f 268/289/268 206/284/206 264/290/264
f 265/286/265 205/203/205 266/287/266
f 263/283/263 262/282/262 210/208/210
f 269/291/269 205/203/205 265/286/265
f 260/279/260 211/209/211 262/282/262
f 260/279/260 262/282/262 268/289/268
f 208/206/208 266/287/266 205/203/205
f 210/208/210 262/282/262 211/209/211
f 266/287/266 218/292/218 217/293/217
f 218/292/218 266/287/266 208/206/208
f 264/285/264 205/203/205 269/291/269
f 262/282/262 206/284/206 268/289/268
f 215/294/215 263/295/263 210/296/210
f 221/227/221 207/226/207 263/297/263
f 242/258/242 270/298/270 243/259/243
f 271/299/271 272/300/272 273/301/273
f 274/302/274 242/258/242 275/303/275
f 276/304/276 274/302/274 275/303/275
f 241/257/241 277/305/277 273/306/273
f 276/304/276 273/301/273 272/300/272
f 243/259/243 270/298/270 278/307/278
f 279/308/279 277/305/277 280/309/280
f 272/300/272 274/302/274 276/304/276
f 273/306/273 277/305/277 279/308/279
f 279/308/279 271/299/271 273/306/273
f 244/260/244 275/303/275 242/258/242
f 242/258/242 274/302/274 270/298/270
f 211/209/211 281/310/281 282/311/282
f 283/312/283 282/311/282 201/199/201
f 201/199/201 282/311/282 202/200/202
f 284/313/284 203/201/203 202/200/202
f 267/288/267 285/314/285 286/315/286
f 284/313/284 202/200/202 287/316/287
f 285/314/285 203/201/203 286/315/286
f 209/207/209 282/311/282 283/312/283
f 286/315/286 203/201/203 288/317/288
f 287/316/287 282/311/282 281/310/281
f 203/201/203 285/314/285 204/202/204
f 211/209/211 282/311/282 209/207/209
f 204/202/204 285/314/285 217/293/217
f 288/317/288 203/201/203 284/313/284
f 287/316/287 202/200/202 282/311/282
f 211/209/211 261/280/261 281/310/281
f 283/318/283 214/319/214 209/320/209
f 283/318/283 201/221/201 219/220/219
f 236/252/236 278/307/278 280/309/280
f 257/321/257 247/263/247 239/255/239
f 237/253/237 236/252/236 280/309/280
f 255/272/255 275/303/275 253/270/253
f 255/272/255 276/304/276 275/303/275
f 237/253/237 280/309/280 277/305/277
f 241/257/241 237/253/237 277/305/277
f 236/252/236 243/259/243 278/307/278
f 258/276/258 239/255/239 238/254/238
f 256/274/256 258/276/258 238/254/238
f 244/260/244 253/270/253 275/303/275
f 256/274/256 238/254/238 241/257/241
f 257/321/257 239/255/239 258/276/258
f 263/297/263 230/322/230 221/227/221
f 219/220/219 224/323/224 283/318/283
f 283/318/283 224/323/224 214/319/214
f 215/294/215 230/324/230 263/295/263
f 266/287/266 217/293/217 285/314/285
f 267/288/267 266/287/266 285/314/285
f 289/325/289 290/326/290 291/327/291
f 292/328/292 293/329/293 294/330/294
f 293/329/293 292/328/292 295/331/295
f 296/332/296 297/333/297 294/330/294
f 296/332/296 298/334/298 297/333/297
f 294/330/294 299/335/299 292/328/292
f 298/334/298 296/332/296 289/336/289
f 299/335/299 294/330/294 297/333/297
f 300/337/300 301/338/301 302/339/302
f 297/333/297 298/334/298 303/340/303
f 302/339/302 301/338/301 299/335/299
f 304/341/304 305/342/305 306/343/306
f 299/335/299 297/333/297 302/339/302
f 289/336/289 296/332/296 291/344/291
f 302/339/302 297/333/297 303/340/303
f 303/340/303 298/334/298 289/336/289
f 300/337/300 307/345/307 301/338/301
f 292/328/292 308/346/308 295/331/295
f 307/345/307 299/335/299 301/338/301
f 309/347/309 291/348/291 310/349/310
f 309/350/309 293/329/293 295/331/295
f 299/335/299 307/345/307 292/328/292
f 291/351/291 293/329/293 309/350/309
f 307/345/307 308/346/308 292/328/292
f 308/346/308 309/350/309 295/331/295
f 309/350/309 311/352/311 291/353/291
f 306/343/306 305/342/305 312/354/312
f 308/346/308 313/355/313 309/350/309
f 314/356/314 313/355/313 307/345/307
f 314/356/314 300/337/300 304/341/304
f 314/356/314 307/345/307 300/337/300
f 308/346/308 307/345/307 313/355/313
f 314/356/314 306/343/306 312/354/312
f 313/355/313 314/356/314 311/352/311
f 314/356/314 304/341/304 306/343/306
f 309/350/309 313/355/313 311/352/311
f 303/340/303 289/336/289 315/357/315
f 316/358/316 302/339/302 315/357/315
f 300/337/300 302/339/302 316/358/316
f 300/337/300 316/358/316 304/341/304
f 303/340/303 315/357/315 302/339/302
f 289/336/289 291/359/291 317/360/317
f 315/357/315 317/360/317 316/358/316
f 316/358/316 305/342/305 304/341/304
f 289/336/289 317/360/317 315/357/315
f 316/358/316 312/354/312 305/342/305
f 318/361/318 319/362/319 320/363/320
f 321/364/321 319/362/319 318/361/318
f 322/365/322 323/366/323 324/367/324
f 323/366/323 325/368/325 326/369/326
f 324/367/324 323/366/323 326/369/326
f 327/370/327 326/369/326 325/368/325
f 328/371/328 329/372/329 330/373/330
f 331/374/331 332/375/332 330/373/330
f 330/373/330 332/375/332 328/371/328
f 333/376/333 330/373/330 329/372/329
f 333/376/333 329/372/329 325/368/325
f 323/366/323 333/376/333 325/368/325
f 326/369/326 334/377/334 324/367/324
f 335/378/335 334/377/334 326/369/326
f 336/379/336 337/380/337 338/381/338
f 335/378/335 339/382/339 334/377/334
f 336/379/336 338/381/338 340/383/340
f 341/384/341 342/385/342 343/386/343
f 344/387/344 345/388/345 346/389/346
f 343/386/343 342/385/342 347/390/347
f 348/391/348 349/392/349 350/393/350
f 351/394/351 352/395/352 347/390/347
f 351/394/351 353/396/353 352/395/352
f 353/396/353 354/397/354 355/398/355
f 356/399/356 350/393/350 357/400/357
f 341/384/341 358/401/358 356/399/356
f 358/401/358 348/391/348 356/399/356
f 352/402/352 353/403/353 359/404/359
f 360/405/360 361/406/361 341/384/341
f 360/405/360 341/384/341 362/407/362
f 341/384/341 361/406/361 342/385/342
f 363/408/363 364/409/364 365/410/365
f 351/394/351 347/390/347 342/385/342
f 366/411/366 367/412/367 368/413/368
f 369/414/369 345/415/345 368/413/368
f 370/416/370 356/399/356 357/400/357
f 371/417/371 346/389/346 345/388/345
f 345/415/345 344/418/344 368/413/368
f 356/399/356 372/419/372 373/420/373
f 356/399/356 370/416/370 372/419/372
f 362/407/362 374/421/374 375/422/375
f 376/423/376 343/424/343 367/412/367
f 362/407/362 373/420/373 372/419/372
f 376/425/376 358/401/358 343/386/343
f 377/426/377 348/391/348 378/427/378
f 368/413/368 343/424/343 352/402/352
f 341/384/341 343/386/343 358/401/358
f 365/410/365 359/428/359 363/408/363
f 371/417/371 345/388/345 365/410/365
f 344/387/344 346/389/346 379/429/379
f 341/384/341 373/420/373 362/407/362
f 368/413/368 367/412/367 343/424/343
f 376/425/376 378/427/378 358/401/358
f 360/405/360 375/422/375 380/430/380
f 356/399/356 373/420/373 341/384/341
f 344/418/344 366/411/366 368/413/368
f 362/407/362 372/419/372 374/421/374
f 355/431/355 363/408/363 359/428/359
f 352/402/352 359/404/359 369/414/369
f 359/428/359 353/432/353 355/431/355
f 348/391/348 377/426/377 349/392/349
f 349/392/349 357/400/357 350/393/350
f 353/396/353 351/394/351 354/397/354
f 369/414/369 368/413/368 352/402/352
f 356/399/356 348/391/348 350/393/350
f 369/414/369 359/404/359 365/433/365
f 348/391/348 358/401/358 378/427/378
f 364/409/364 371/417/371 365/410/365
f 352/395/352 343/386/343 347/390/347
f 365/433/365 345/415/345 369/414/369
f 375/422/375 360/405/360 362/407/362
f 344/387/344 381/434/381 366/435/366
f 344/387/344 379/429/379 381/434/381
f 360/405/360 380/430/380 361/406/361
f 382/384/382 383/386/383 384/385/384
f 385/387/385 346/389/346 386/388/386
f 383/386/383 387/390/387 384/385/384
f 388/391/388 389/393/389 349/392/349
f 390/394/390 387/390/387 391/395/391
f 390/394/390 391/395/391 392/396/392
f 392/396/392 355/398/355 354/397/354
f 393/399/393 357/400/357 389/393/389
f 382/384/382 393/399/393 394/401/394
f 394/401/394 393/399/393 388/391/388
f 391/436/391 395/437/395 392/438/392
f 396/405/396 382/384/382 397/406/397
f 396/405/396 398/407/398 382/384/382
f 382/384/382 384/385/384 397/406/397
f 363/408/363 399/410/399 364/409/364
f 390/394/390 384/385/384 387/390/387
f 400/439/400 401/440/401 402/441/402
f 403/442/403 401/440/401 386/443/386
f 370/416/370 357/400/357 393/399/393
f 371/417/371 386/388/386 346/389/346
f 386/443/386 401/440/401 385/444/385
f 393/399/393 372/419/372 370/416/370
f 393/399/393 404/420/404 372/419/372
f 398/407/398 375/422/375 374/421/374
f 405/445/405 402/441/402 383/446/383
f 398/407/398 372/419/372 404/420/404
f 405/425/405 383/386/383 394/401/394
f 406/426/406 407/427/407 388/391/388
f 401/440/401 391/436/391 383/446/383
f 382/384/382 394/401/394 383/386/383
f 399/410/399 363/408/363 395/428/395
f 371/417/371 399/410/399 386/388/386
f 385/387/385 379/429/379 346/389/346
f 382/384/382 398/407/398 404/420/404
f 401/440/401 383/446/383 402/441/402
f 405/425/405 394/401/394 407/427/407
f 396/405/396 380/430/380 375/422/375
f 393/399/393 382/384/382 404/420/404
f 385/444/385 401/440/401 400/439/400
f 398/407/398 374/421/374 372/419/372
f 355/431/355 395/428/395 363/408/363
f 391/436/391 403/442/403 395/437/395
f 395/428/395 355/431/355 392/432/392
f 388/391/388 349/392/349 406/426/406
f 349/392/349 389/393/389 357/400/357
f 392/396/392 354/397/354 390/394/390
f 403/442/403 391/436/391 401/440/401
f 393/399/393 389/393/389 388/391/388
f 403/442/403 399/447/399 395/437/395
f 388/391/388 407/427/407 394/401/394
f 364/409/364 399/410/399 371/417/371
f 391/395/391 387/390/387 383/386/383
f 399/447/399 403/442/403 386/443/386
f 375/422/375 398/407/398 396/405/396
f 385/387/385 381/434/381 379/429/379
f 385/387/385 400/435/400 381/434/381
f 396/405/396 397/406/397 380/430/380
f 408/448/408 409/449/409 410/450/410
f 411/448/411 410/450/410 409/449/409
f 412/451/412 413/452/413 414/453/414
f 415/454/415 412/451/412 414/453/414
f 416/455/416 412/451/412 417/456/417
f 413/452/413 412/451/412 416/455/416
f 418/451/418 414/453/414 413/452/413
f 415/454/415 414/453/414 418/451/418
f 419/455/419 420/456/420 418/451/418
f 413/452/413 419/455/419 418/451/418
f 421/457/421 422/458/422 423/459/423
f 424/460/424 425/461/425 421/457/421
f 421/457/421 425/461/425 420/456/420
f 421/457/421 423/459/423 424/460/424
f 426/462/426 418/451/418 427/463/427
f 427/463/427 418/451/418 420/456/420
f 425/461/425 427/463/427 420/456/420
f 415/454/415 418/451/418 426/462/426
f 428/457/428 423/459/423 422/458/422
f 429/460/429 428/457/428 430/461/430
f 428/457/428 417/456/417 430/461/430
f 428/457/428 429/460/429 423/459/423
f 426/462/426 431/463/431 412/451/412
f 431/463/431 417/456/417 412/451/412
f 430/461/430 417/456/417 431/463/431
f 415/454/415 426/462/426 412/451/412
f 432/464/432 433/465/433 434/466/434
f 432/464/432 435/467/435 433/465/433
f 436/468/436 437/469/437 438/470/438
f 437/469/437 439/471/439 438/470/438
f 432/464/432 440/472/440 441/473/441
f 439/471/439 442/474/442 438/470/438
f 443/475/443 444/476/444 445/477/445
f 443/475/443 446/478/446 444/476/444
f 447/479/447 448/480/448 449/481/449
f 447/479/447 450/482/450 448/480/448
f 437/469/437 451/483/451 452/484/452
f 453/485/453 449/481/449 442/474/442
f 454/486/454 432/464/432 441/473/441
f 450/482/450 455/487/455 448/480/448
f 450/482/450 456/488/456 455/487/455
f 457/489/457 449/481/449 448/480/448
f 442/474/442 449/481/449 457/489/457
f 454/486/454 453/485/453 435/467/435
f 458/490/458 454/486/454 444/476/444
f 459/491/459 433/465/433 451/483/451
f 440/472/440 445/477/445 441/473/441
f 440/472/440 455/492/455 445/477/445
f 433/465/433 439/471/439 452/484/452
f 440/493/440 460/494/460 457/489/457
f 440/493/440 448/480/448 455/487/455
f 440/493/440 457/489/457 448/480/448
f 460/495/460 440/472/440 432/464/432
f 458/490/458 453/485/453 454/486/454
f 432/464/432 454/486/454 435/467/435
f 444/476/444 441/473/441 445/477/445
f 457/489/457 438/470/438 442/474/442
f 449/481/449 453/485/453 458/490/458
f 452/484/452 439/471/439 437/469/437
f 452/484/452 451/483/451 433/465/433
f 457/489/457 460/494/460 436/468/436
f 456/496/456 445/477/445 455/492/455
f 456/496/456 443/475/443 445/477/445
f 451/483/451 437/469/437 459/491/459
f 441/473/441 444/476/444 454/486/454
f 438/470/438 457/489/457 436/468/436
f 435/467/435 453/485/453 439/471/439
f 432/464/432 434/466/434 460/495/460
f 442/474/442 439/471/439 453/485/453
f 446/478/446 458/490/458 444/476/444
f 446/478/446 461/497/461 458/490/458
f 439/471/439 433/465/433 435/467/435
f 449/481/449 461/497/461 447/479/447
f 449/481/449 458/490/458 461/497/461
f 462/498/462 463/499/463 464/500/464
f 462/498/462 465/501/465 463/499/463
f 466/502/466 467/503/467 468/504/468
f 469/505/469 470/506/470 471/507/471
f 472/508/472 473/509/473 474/510/474
f 466/502/466 475/511/475 476/512/476
f 471/507/471 463/499/463 469/505/469
f 477/513/477 478/514/478 470/506/470
f 473/509/473 470/506/470 474/510/474
f 468/515/468 477/513/477 479/516/479
f 479/517/479 480/518/480 466/502/466
f 479/517/479 465/519/465 480/518/480
f 479/517/479 466/502/466 468/504/468
f 476/512/476 467/503/467 466/502/466
f 479/516/479 463/499/463 465/501/465
f 479/516/479 469/505/469 463/499/463
f 473/509/473 471/507/471 470/506/470
f 470/506/470 478/514/478 474/510/474
f 475/511/475 466/502/466 472/508/472
f 466/502/466 480/518/480 472/508/472
f 481/520/481 465/519/465 462/521/462
f 481/520/481 480/518/480 465/519/465
f 472/508/472 482/522/482 473/509/473
f 472/508/472 483/523/483 482/522/482
f 470/506/470 469/505/469 477/513/477
f 474/510/474 475/511/475 472/508/472
f 478/514/478 484/524/484 474/510/474
f 483/523/483 480/518/480 481/520/481
f 483/523/483 472/508/472 480/518/480
f 464/500/464 471/507/471 485/525/485
f 464/500/464 463/499/463 471/507/471
f 484/524/484 476/512/476 475/511/475
f 477/513/477 469/505/469 479/516/479
f 475/511/475 474/510/474 484/524/484
f 485/525/485 473/509/473 482/522/482
f 485/525/485 471/507/471 473/509/473
f 486/526/486 487/527/487 464/500/464
f 481/520/481 488/528/488 483/523/483
f 481/520/481 489/529/489 488/528/488
f 490/530/490 489/529/489 462/521/462
f 487/527/487 490/531/490 462/498/462
f 482/522/482 491/532/491 485/525/485
f 482/522/482 492/533/492 491/532/491
f 487/527/487 486/526/486 488/534/488
f 489/529/489 481/520/481 462/521/462
f 483/523/483 492/533/492 482/522/482
f 483/523/483 488/528/488 492/533/492
f 462/498/462 464/500/464 487/527/487
f 464/500/464 485/525/485 486/526/486
f 485/525/485 491/532/491 486/526/486
f 491/532/491 492/533/492 488/534/488
f 486/526/486 491/532/491 488/534/488
f 493/535/493 494/536/494 495/537/495
f 495/537/495 494/536/494 496/538/496
f 446/478/446 493/535/493 495/537/495
f 443/475/443 493/535/493 446/478/446
f 456/496/456 497/539/497 443/475/443
f 447/479/447 496/538/496 494/540/494
f 447/479/447 461/497/461 496/538/496
f 497/539/497 494/536/494 493/535/493
f 461/497/461 495/537/495 496/538/496
f 461/497/461 446/478/446 495/537/495
f 497/539/497 456/496/456 498/541/498
f 498/542/498 456/488/456 499/543/499
f 450/482/450 494/540/494 499/543/499
f 450/482/450 447/479/447 494/540/494
f 493/535/493 443/475/443 497/539/497
f 499/543/499 456/488/456 450/482/450
f 500/544/500 501/545/501 502/546/502
f 503/547/503 501/545/501 504/548/504
f 502/546/502 501/545/501 503/547/503
f 502/546/502 503/547/503 505/549/505
f 506/550/506 507/551/507 508/552/508
f 506/550/506 509/553/509 507/551/507
f 504/548/504 508/552/508 510/554/510
f 504/548/504 506/550/506 508/552/508
f 504/548/504 510/554/510 503/547/503
f 502/546/502 505/549/505 511/555/511
f 512/556/512 437/469/437 436/468/436
f 459/491/459 437/469/437 513/557/513
f 460/494/460 514/558/514 436/468/436
f 515/559/515 433/465/433 459/491/459
f 436/468/436 514/558/514 512/556/512
f 512/556/512 513/557/513 437/469/437
f 515/559/515 459/491/459 516/560/516
f 459/491/459 513/557/513 516/560/516
f 517/561/517 515/559/515 516/560/516
f 518/562/518 433/465/433 515/559/515
f 518/562/518 515/559/515 517/561/517
f 519/563/519 460/495/460 434/466/434
f 514/564/514 460/495/460 519/563/519
f 514/564/514 519/563/519 520/565/520
f 512/556/512 521/566/521 513/557/513
f 522/567/522 513/557/513 523/568/523
f 520/569/520 512/556/512 514/558/514
f 516/560/516 522/567/522 517/561/517
f 513/557/513 522/567/522 516/560/516
f 518/562/518 434/466/434 433/465/433
f 513/557/513 521/566/521 523/568/523
f 520/569/520 521/566/521 512/556/512
f 518/562/518 519/563/519 434/466/434
f 524/570/524 525/571/525 511/555/511
f 524/570/524 511/555/511 507/572/507
f 525/571/525 500/544/500 502/546/502
f 502/546/502 511/555/511 525/571/525
f 509/573/509 524/570/524 507/572/507
f 526/574/526 506/550/506 527/575/527
f 509/573/509 526/576/526 524/570/524
f 506/550/506 504/548/504 527/575/527
f 528/577/528 529/578/529 504/548/504
f 504/548/504 529/578/529 527/575/527
f 526/574/526 509/553/509 506/550/506
f 501/545/501 500/544/500 528/577/528
f 504/548/504 501/545/501 528/577/528
f 530/579/530 511/555/511 505/549/505
f 530/579/530 531/580/531 511/555/511
f 531/580/531 507/572/507 511/555/511
f 530/579/530 505/549/505 503/547/503
f 532/581/532 510/554/510 508/552/508
f 503/547/503 510/554/510 532/581/532
f 533/582/533 503/547/503 532/581/532
f 534/583/534 530/579/530 533/582/533
f 503/547/503 533/582/533 530/579/530
f 532/581/532 534/583/534 533/582/533
f 477/513/477 531/580/531 530/579/530
f 477/513/477 530/579/530 478/514/478
f 467/503/467 476/512/476 532/581/532
f 532/581/532 476/512/476 484/524/484
f 530/579/530 534/583/534 484/524/484
f 534/583/534 532/581/532 484/524/484
f 477/513/477 468/515/468 531/580/531
f 484/524/484 478/514/478 530/579/530
f 532/581/532 508/552/508 467/503/467
f 468/504/468 467/503/467 508/552/508
f 468/504/468 508/552/508 507/551/507
f 531/580/531 468/515/468 507/572/507
f 535/584/535 536/585/536 537/586/537
f 538/587/538 539/588/539 540/589/540
f 541/590/541 542/591/542 543/592/543
f 544/593/544 545/594/545 546/595/546
f 547/596/547 548/597/548 549/598/549
f 550/599/550 551/600/551 548/597/548
f 552/601/552 553/602/553 554/603/554
f 555/604/555 556/605/556 554/606/554
f 544/593/544 557/607/557 543/608/543
f 550/609/550 558/610/558 559/611/559
f 538/612/538 560/613/560 539/614/539
f 538/612/538 561/615/561 560/613/560
f 542/591/542 541/590/541 540/589/540
f 545/594/545 544/593/544 562/616/562
f 547/596/547 549/598/549 539/617/539
f 549/598/549 542/618/542 539/617/539
f 563/619/563 564/620/564 565/621/565
f 566/622/566 565/621/565 567/623/567
f 552/601/552 560/613/560 561/615/561
f 561/615/561 538/612/538 568/624/568
f 539/625/539 569/626/569 547/627/547
f 547/627/547 559/611/559 558/610/558
f 570/628/570 551/629/551 559/630/559
f 562/616/562 543/608/543 570/628/570
f 550/599/550 548/597/548 558/631/558
f 561/615/561 568/624/568 571/632/571
f 559/611/559 547/627/547 569/626/569
f 549/598/549 570/633/570 542/618/542
f 552/601/552 556/605/556 555/604/555
f 553/634/553 555/604/555 554/606/554
f 555/604/555 553/634/553 571/635/571
f 556/605/556 552/601/552 554/603/554
f 564/620/564 566/636/566 572/637/572
f 572/637/572 567/623/567 565/621/565
f 566/638/566 546/595/546 545/594/545
f 560/613/560 571/635/571 562/639/562
f 542/618/542 570/633/570 543/640/543
f 559/630/559 569/641/569 570/628/570
f 560/613/560 552/601/552 555/604/555
f 573/642/573 536/585/536 535/584/535
f 572/637/572 565/621/565 564/620/564
f 561/615/561 553/602/553 552/601/552
f 568/643/568 562/616/562 571/644/571
f 573/645/573 568/624/568 538/612/538
f 569/626/569 539/625/539 562/646/562
f 553/602/553 561/615/561 571/632/571
f 544/593/544 543/608/543 562/616/562
f 542/591/542 540/589/540 539/588/539
f 548/597/548 551/600/551 570/633/570
f 568/647/568 573/648/573 545/649/545
f 535/650/535 572/637/572 573/648/573
f 565/621/565 566/622/566 563/651/563
f 555/604/555 571/635/571 560/613/560
f 562/639/562 539/614/539 560/613/560
f 538/587/538 540/589/540 536/585/536
f 559/630/559 551/629/551 550/652/550
f 538/587/538 536/585/536 573/642/573
f 567/623/567 546/653/546 566/622/566
f 566/636/566 573/648/573 572/637/572
f 570/628/570 569/641/569 562/616/562
f 557/607/557 541/654/541 543/608/543
f 545/594/545 562/616/562 568/643/568
f 567/623/567 572/637/572 535/650/535
f 546/653/546 567/623/567 535/650/535
f 544/593/544 546/595/546 537/655/537
f 573/648/573 566/636/566 545/649/545
f 566/636/566 564/620/564 563/656/563
f 537/657/537 546/653/546 535/650/535
f 570/633/570 549/598/549 548/597/548
f 547/596/547 558/631/558 548/597/548
f 574/658/574 575/659/575 576/660/576
f 574/658/574 577/661/577 578/662/578
f 579/663/579 580/664/580 581/665/581
f 582/666/582 583/667/583 584/668/584
f 585/669/585 584/668/584 586/670/586
f 581/671/581 580/672/580 587/673/587
f 579/663/579 588/674/588 580/664/580
f 579/663/579 589/675/589 588/674/588
f 590/676/590 591/677/591 585/678/585
f 592/679/592 593/680/593 594/681/594
f 591/677/591 595/682/595 578/683/578
f 589/675/589 586/670/586 584/668/584
f 584/684/584 580/664/580 588/674/588
f 586/685/586 596/686/596 597/687/597
f 598/688/598 599/689/599 600/690/600
f 596/686/596 601/691/601 597/687/597
f 602/692/602 603/693/603 591/694/591
f 602/692/602 604/695/604 605/696/605
f 582/697/582 584/684/584 606/698/606
f 586/670/586 589/675/589 579/663/579
f 585/669/585 586/670/586 590/699/590
f 578/662/578 599/700/599 574/658/574
f 603/701/603 601/691/601 607/702/607
f 591/677/591 592/679/592 587/673/587
f 604/703/604 608/704/608 609/705/609
f 591/706/591 603/707/603 595/708/595
f 597/709/597 590/710/590 586/711/586
f 604/712/604 591/677/591 590/676/590
f 610/713/610 609/705/609 608/704/608
f 583/667/583 606/698/606 589/675/589
f 579/714/579 596/686/596 586/685/586
f 605/696/605 610/713/610 602/692/602
f 578/683/578 595/682/595 600/690/600
f 592/715/592 578/662/578 607/716/607
f 591/694/591 604/695/604 602/692/602
f 585/678/585 580/672/580 584/717/584
f 606/698/606 588/674/588 589/675/589
f 589/675/589 584/668/584 583/667/583
f 611/718/611 610/713/610 612/719/612
f 604/695/604 609/720/609 605/696/605
f 611/721/611 605/696/605 609/720/609
f 605/696/605 612/719/612 610/713/610
f 607/716/607 578/662/578 577/661/577
f 595/708/595 576/722/576 600/723/600
f 604/703/604 590/710/590 608/704/608
f 575/659/575 574/658/574 598/724/598
f 578/683/578 592/679/592 591/677/591
f 600/690/600 599/689/599 578/683/578
f 575/725/575 600/723/600 576/722/576
f 576/722/576 595/708/595 603/707/603
f 590/710/590 597/709/597 608/704/608
f 608/704/608 602/692/602 610/713/610
f 588/674/588 606/698/606 584/684/584
f 606/698/606 583/667/583 582/726/582
f 603/727/603 607/716/607 577/661/577
f 603/727/603 577/661/577 576/660/576
f 591/677/591 587/673/587 585/678/585
f 601/691/601 593/728/593 607/702/607
f 603/693/603 602/692/602 608/704/608
f 603/693/603 608/704/608 597/709/597
f 600/723/600 575/725/575 598/729/598
f 592/679/592 594/681/594 587/673/587
f 611/721/611 612/719/612 605/696/605
f 611/718/611 609/705/609 610/713/610
f 574/658/574 599/700/599 598/724/598
f 577/661/577 574/658/574 576/660/576
f 580/672/580 585/678/585 587/673/587
f 592/730/592 607/702/607 593/728/593
f 601/691/601 603/701/603 597/687/597
f 581/731/581 596/686/596 579/714/579
f 613/732/613 614/733/614 615/734/613
f 613/732/613 616/735/614 614/733/614
f 617/736/615 618/737/616 619/738/617
f 617/736/615 620/739/618 618/737/616
f 621/740/619 617/741/615 622/742/620
f 621/740/619 623/743/621 617/741/615
f 623/744/621 616/735/614 620/745/618
f 623/744/621 614/733/614 616/735/614
f 623/744/621 620/745/618 617/746/615
f 624/747/622 625/748/623 626/749/623
f 624/747/622 627/750/622 625/748/623
f 624/747/622 613/732/613 615/734/613
f 624/747/622 615/734/613 627/750/622
f 628/751/624 629/752/625 630/753/626
f 631/754/627 628/755/624 632/756/628
f 628/751/624 630/753/626 632/757/628
f 633/758/629 629/759/625 631/754/627
f 630/760/626 631/761/627 632/762/628
f 633/763/629 631/764/627 630/765/626
f 630/753/626 629/752/625 633/766/629
f 629/759/625 628/755/624 631/754/627
f 634/767/630 635/768/631 636/769/632
f 636/770/632 637/771/633 638/772/634
f 638/772/634 637/771/633 639/773/635
f 638/774/634 634/767/630 636/769/632
f 640/775/636 638/776/634 641/777/637
f 640/775/636 642/778/638 638/776/634
f 639/773/635 641/779/637 638/780/634
f 639/773/635 643/781/639 641/779/637
f 640/775/636 641/777/637 644/782/640
f 641/783/637 645/784/641 644/785/640
f 641/783/637 646/786/642 645/784/641
f 641/787/637 643/781/639 647/788/643
f 648/789/644 649/790/645 650/791/646
f 651/792/647 649/790/645 648/789/644
f 652/793/648 645/794/641 647/795/643
f 647/795/643 653/796/649 652/793/648
f 645/797/641 652/798/648 654/799/650
f 654/800/650 652/793/648 653/796/649
f 646/801/642 647/795/643 645/794/641
f 655/802/651 656/803/652 657/804/653
f 655/802/651 658/805/654 656/803/652
f 644/785/640 645/784/641 654/806/650
f 635/807/631 640/808/636 654/809/650
f 635/810/631 659/811/655 637/812/633
f 635/810/631 654/813/650 659/811/655
f 647/788/643 646/814/642 641/787/637
f 639/773/635 659/815/655 643/781/639
f 639/773/635 637/771/633 659/815/655
f 642/816/638 640/808/636 635/807/631
f 642/817/638 635/768/631 634/767/630
f 640/818/636 644/785/640 654/806/650
f 654/819/650 653/820/649 659/821/655
f 653/822/649 647/788/643 659/815/655
f 659/815/655 647/788/643 643/781/639
f 636/823/632 635/824/631 637/825/633
f 638/776/634 642/778/638 634/826/630
f 660/827/656 661/828/657 662/829/658
f 661/828/657 663/830/659 664/831/660
f 665/832/661 662/829/658 664/831/660
f 666/833/662 664/831/660 663/830/659
f 667/834/663 664/835/660 666/836/662
f 662/829/658 661/828/657 664/831/660
f 661/837/657 660/838/656 668/839/664
f 669/840/665 670/841/666 668/839/664
f 665/842/661 664/835/660 667/834/663
f 665/842/661 667/834/663 662/843/658
f 666/836/662 669/840/665 667/834/663
f 670/844/666 663/830/659 661/828/657
f 668/839/664 667/834/663 669/840/665
f 669/840/665 663/845/659 670/841/666
f 660/838/656 662/843/658 668/839/664
f 670/841/666 661/837/657 668/839/664
f 669/840/665 666/836/662 663/845/659
f 662/843/658 667/834/663 668/839/664
f 671/846/667 672/847/668 673/848/669
f 671/846/667 673/848/669 674/849/670
f 671/846/667 674/849/670 675/850/671
f 671/846/667 675/850/671 676/851/672
f 671/846/667 676/852/672 677/853/673
f 671/846/667 677/853/673 672/847/668
f 674/854/670 673/855/669 678/856/674
f 674/854/670 678/856/674 675/857/671
f 672/847/668 677/858/673 678/859/674
f 672/847/668 678/859/674 673/848/669
f 676/860/672 675/861/671 678/862/674
f 676/860/672 678/862/674 677/863/673
f 679/864/675 680/865/676 681/866/677
f 682/867/678 683/868/679 684/869/680
f 680/865/676 685/870/681 686/871/682
f 686/872/682 687/873/683 688/874/684
f 689/875/685 690/876/686 680/865/676
f 691/877/687 679/878/675 681/879/677
f 690/880/686 692/881/688 693/882/689
f 693/883/689 685/884/681 694/885/690
f 679/878/675 687/873/683 689/886/685
f 680/865/676 686/871/682 688/887/684
f 689/875/685 680/865/676 679/864/675
f 691/877/687 688/874/684 687/873/683
f 681/866/677 680/865/676 695/888/691
f 693/889/689 683/868/679 685/890/681
f 693/891/689 685/870/681 680/865/676
f 680/865/676 690/876/686 693/891/689
f 695/888/691 680/865/676 688/887/684
f 690/892/686 684/869/680 693/889/689
f 693/889/689 684/869/680 683/868/679
f 684/869/680 690/892/686 682/867/678
f 686/872/682 682/867/678 687/873/683
f 682/867/678 690/892/686 689/886/685
f 683/868/679 682/867/678 685/890/681
f 687/873/683 682/867/678 689/886/685
f 686/872/682 685/890/681 682/867/678
f 681/879/677 695/893/691 691/877/687
f 695/893/691 688/874/684 691/877/687
f 687/873/683 679/878/675 691/877/687
f 696/894/692 697/895/693 698/896/694
f 699/897/695 700/898/696 696/894/692
f 701/899/697 697/895/693 702/900/698
f 701/899/697 703/901/699 704/902/700
f 700/898/696 705/903/701 706/904/702
f 707/905/703 708/906/704 699/897/695
f 697/895/693 701/899/697 704/902/700
f 701/899/697 702/900/698 709/907/705
f 706/904/702 702/900/698 697/895/693
f 699/897/695 708/906/704 710/908/706
f 700/898/696 699/897/695 710/908/706
f 697/895/693 704/902/700 698/896/694
f 703/901/699 701/899/697 709/907/705
f 698/896/694 699/897/695 696/894/692
f 698/896/694 704/902/700 707/905/703
f 698/896/694 707/905/703 699/897/695
f 707/905/703 703/901/699 711/909/707
f 703/901/699 707/905/703 704/902/700
f 710/908/706 708/906/704 711/909/707
f 707/905/703 711/909/707 708/906/704
f 706/904/702 697/895/693 696/894/692
f 696/894/692 700/898/696 706/904/702
f 712/894/708 713/896/709 714/895/710
f 715/897/711 712/894/708 700/898/696
f 716/899/712 717/900/713 714/895/710
f 716/899/712 718/902/714 719/901/715
f 700/898/696 720/904/716 705/903/701
f 721/905/717 715/897/711 722/906/718
f 714/895/710 718/902/714 716/899/712
f 716/899/712 723/907/719 717/900/713
f 720/904/716 714/895/710 717/900/713
f 715/897/711 710/908/706 722/906/718
f 700/898/696 710/908/706 715/897/711
f 714/895/710 713/896/709 718/902/714
f 719/901/715 723/907/719 716/899/712
f 713/896/709 712/894/708 715/897/711
f 713/896/709 721/905/717 718/902/714
f 713/896/709 715/897/711 721/905/717
f 721/905/717 724/909/720 719/901/715
f 719/901/715 718/902/714 721/905/717
f 710/908/706 724/909/720 722/906/718
f 721/905/717 722/906/718 724/909/720
f 720/904/716 712/894/708 714/895/710
f 712/894/708 720/904/716 700/898/696
