# Blender 4.1.0
# www.blender.org
mtllib Rafter.mtl
o Rafter
v 49.371956 37.390251 -148.516479
v 49.371956 37.390251 56.656498
v 49.371956 39.786888 -148.516479
v 49.371956 39.786888 56.656498
v 55.309853 37.390251 -148.516479
v 55.309853 37.390251 56.656498
v 55.309853 39.786888 -148.516479
v 55.309853 39.786888 56.656498
vn -1.0000 -0.0000 -0.0000
vn -0.0000 1.0000 -0.0000
vn 1.0000 -0.0000 -0.0000
vn -0.0000 -1.0000 -0.0000
vn -0.0000 -0.0000 -1.0000
vn -0.0000 -0.0000 1.0000
vt 0.051109 0.988586
vt 0.039695 0.011414
vt 0.051109 0.011414
vt 0.039695 0.988586
vt 0.011414 0.011414
vt 0.000000 0.988586
vt -0.000000 0.011414
vt 0.079389 0.988586
vt 0.079389 0.011414
vt 0.039695 0.000000
vt 0.011415 1.000000
vt 0.011415 0.988586
vt 0.011414 0.000000
vt 0.039695 1.000000
s 0
usemtl Material.013
f 2/1/1 3/2/1 1/3/1
f 4/4/2 7/5/2 3/2/2
f 7/5/3 6/6/3 5/7/3
f 6/8/4 1/3/4 5/9/4
f 7/5/5 1/10/5 3/2/5
f 4/4/6 6/11/6 8/12/6
f 2/1/1 4/4/1 3/2/1
f 4/4/2 8/12/2 7/5/2
f 7/5/3 8/12/3 6/6/3
f 6/8/4 2/1/4 1/3/4
f 7/5/5 5/13/5 1/10/5
f 4/4/6 2/14/6 6/11/6
