# Blender 4.1.0
# www.blender.org
mtllib SecondFloorOne.mtl
o Second_Floor_Left
v -16.183479 17.126839 -40.885555
v -16.183479 19.425323 -40.885555
v -16.183479 17.126839 -107.140350
v -16.183479 19.425323 -107.140350
v -1.514627 17.126839 -40.885555
v -1.514627 19.425323 -40.885555
v -1.514627 17.126839 -107.140350
v -1.514627 19.425323 -107.140350
vn -1.0000 -0.0000 -0.0000
vn -0.0000 -0.0000 -1.0000
vn 1.0000 -0.0000 -0.0000
vn -0.0000 -0.0000 1.0000
vn -0.0000 -1.0000 -0.0000
vn -0.0000 1.0000 -0.0000
vt 0.099032 0.053685
vt 0.053685 0.500000
vt 0.053685 0.053685
vt 0.099032 0.500000
vt 0.053685 0.553685
vt 0.099032 0.553685
vt 0.053685 1.000000
vt 0.099032 -0.000000
vt 0.053685 -0.000000
vt 0.000000 0.500000
vt 0.152717 0.053685
vt 0.152717 0.500000
vt 0.099032 1.000000
vt 0.000000 0.053685
s 0
usemtl Material.011
f 2/1/1 3/2/1 1/3/1
f 4/4/2 7/5/2 3/2/2
f 8/6/3 5/7/3 7/5/3
f 6/8/4 1/3/4 5/9/4
f 7/10/5 1/3/5 3/2/5
f 4/4/6 6/11/6 8/12/6
f 2/1/1 4/4/1 3/2/1
f 4/4/2 8/6/2 7/5/2
f 8/6/3 6/13/3 5/7/3
f 6/8/4 2/1/4 1/3/4
f 7/10/5 5/14/5 1/3/5
f 4/4/6 2/1/6 6/11/6
