# Blender 4.1.0
# www.blender.org
mtllib SecondFloorRailing.mtl
o Railing_Left
v -15.921519 25.109457 -41.058186
v -15.921519 25.790775 -41.058186
v -15.921519 25.109457 -41.394695
v -15.921519 25.790775 -41.394695
v -1.821076 25.109457 -41.058186
v -1.821076 25.790775 -41.058186
v -1.821076 25.109457 -41.394695
v -1.821076 25.790775 -41.394695
v -2.152326 25.109457 -41.394695
v -2.152326 25.790775 -41.394695
v -2.152326 25.109457 -41.058186
v -2.152326 25.790775 -41.058186
v -2.152326 25.790775 -93.095360
v -1.821076 25.790775 -93.095360
v -1.821076 25.109457 -93.095360
v -2.152326 25.109457 -93.095360
v -1.821076 25.790775 -92.789513
v -2.152326 25.790775 -92.789513
v -2.152326 25.109457 -92.789513
v -1.821076 25.109457 -92.789513
v 40.145802 25.790775 -93.095360
v 40.145802 25.109457 -93.095360
v 40.145802 25.790775 -92.789513
v 40.145802 25.109457 -92.789513
v 39.827888 25.790775 -92.789513
v 39.827888 25.790775 -93.095360
v 39.827888 25.109457 -93.095360
v 39.827888 25.109457 -92.789513
v 40.145802 25.109457 -90.245941
v 40.145802 25.790775 -90.245941
v 39.827888 25.790775 -90.245941
v 39.827888 25.109457 -90.245941
v 39.827888 25.790775 -90.586037
v 40.145802 25.790775 -90.586037
v 40.145802 25.109457 -90.586037
v 39.827888 25.109457 -90.586037
v 42.853313 25.109457 -90.245941
v 42.853313 25.790775 -90.245941
v 42.853313 25.109457 -90.586037
v 42.853313 25.790775 -90.586037
v -2.708842 25.109457 -41.394695
v -2.708842 25.790775 -41.058186
v -2.708842 25.790775 -41.394695
v -2.708842 25.109457 -41.058186
v -3.153436 25.109457 -41.394695
v -3.153436 25.790775 -41.058186
v -3.153436 25.790775 -41.394695
v -3.153436 25.109457 -41.058186
v -3.153436 19.289024 -41.058186
v -2.708842 19.289024 -41.058186
v -2.708842 19.289024 -41.394695
v -3.153436 19.289024 -41.394695
v -4.644105 25.109457 -41.394695
v -4.644105 25.790775 -41.058186
v -4.644105 25.790775 -41.394695
v -4.644105 25.109457 -41.058186
v -5.107865 25.109457 -41.394695
v -5.107865 25.790775 -41.058186
v -5.107865 25.790775 -41.394695
v -5.107865 25.109457 -41.058186
v -5.107865 19.347088 -41.058186
v -4.644105 19.347088 -41.058186
v -4.644105 19.347088 -41.394695
v -5.107865 19.347088 -41.394695
v -2.152326 25.790775 -42.491730
v -1.821076 25.109457 -42.491730
v -1.821076 25.790775 -42.491730
v -2.152326 25.109457 -42.491730
v -1.821076 25.790775 -42.932930
v -2.152326 25.109457 -42.932930
v -2.152326 25.790775 -42.932930
v -1.821076 25.109457 -42.932930
v -1.821076 19.393270 -42.932930
v -1.821076 19.393270 -42.491730
v -2.152326 19.393270 -42.491730
v -2.152326 19.393270 -42.932930
v -1.821076 25.790775 -45.209431
v -2.152326 25.109457 -45.209431
v -2.152326 25.790775 -45.209431
v -1.821076 25.109457 -45.209431
v -1.821076 25.790775 -45.652058
v -2.152326 25.109457 -45.652058
v -2.152326 25.790775 -45.652058
v -1.821076 25.109457 -45.652058
v -1.821076 25.790775 -48.100430
v -2.152326 25.109457 -48.100430
v -2.152326 25.790775 -48.100430
v -1.821076 25.109457 -48.100430
v -1.821076 25.790775 -48.553398
v -2.152326 25.109457 -48.553398
v -2.152326 25.790775 -48.553398
v -1.821076 25.109457 -48.553398
v -1.821076 25.790775 -51.235420
v -2.152326 25.109457 -51.235420
v -2.152326 25.790775 -51.235420
v -1.821076 25.109457 -51.235420
v -1.821076 25.790775 -51.729515
v -2.152326 25.109457 -51.729515
v -2.152326 25.790775 -51.729515
v -1.821076 25.109457 -51.729515
v -1.821076 25.790775 -54.531509
v -2.152326 25.109457 -54.531509
v -2.152326 25.790775 -54.531509
v -1.821076 25.109457 -54.531509
v -1.821076 25.790775 -55.082985
v -2.152326 25.109457 -55.082985
v -2.152326 25.790775 -55.082985
v -1.821076 25.109457 -55.082985
v -1.821076 25.790775 -58.203442
v -2.152326 25.109457 -58.203442
v -2.152326 25.790775 -58.203442
v -1.821076 25.109457 -58.203442
v -1.821076 25.790775 -58.788071
v -2.152326 25.109457 -58.788071
v -2.152326 25.790775 -58.788071
v -1.821076 25.109457 -58.788071
v -1.821076 25.790775 -62.102272
v -2.152326 25.109457 -62.102272
v -2.152326 25.790775 -62.102272
v -1.821076 25.109457 -62.102272
v -1.821076 25.790775 -62.713421
v -2.152326 25.109457 -62.713421
v -2.152326 25.790775 -62.713421
v -1.821076 25.109457 -62.713421
v -1.821076 25.790775 -66.227020
v -2.152326 25.109457 -66.227020
v -2.152326 25.790775 -66.227020
v -1.821076 25.109457 -66.227020
v -1.821076 25.790775 -66.890190
v -2.152326 25.109457 -66.890190
v -2.152326 25.790775 -66.890190
v -1.821076 25.109457 -66.890190
v -1.821076 25.790775 -70.203445
v -2.152326 25.109457 -70.203445
v -2.152326 25.790775 -70.203445
v -1.821076 25.109457 -70.203445
v -1.821076 25.790775 -70.919472
v -2.152326 25.109457 -70.919472
v -2.152326 25.790775 -70.919472
v -1.821076 25.109457 -70.919472
v -1.821076 25.790775 -74.675201
v -2.152326 25.109457 -74.675201
v -2.152326 25.790775 -74.675201
v -1.821076 25.109457 -74.675201
v -1.821076 25.790775 -75.302399
v -2.152326 25.109457 -75.302399
v -2.152326 25.790775 -75.302399
v -1.821076 25.109457 -75.302399
v -1.821076 25.790775 -78.837517
v -2.152326 25.109457 -78.837517
v -2.152326 25.790775 -78.837517
v -1.821076 25.109457 -78.837517
v -1.821076 25.790775 -79.525726
v -2.152326 25.109457 -79.525726
v -2.152326 25.790775 -79.525726
v -1.821076 25.109457 -79.525726
v -1.821076 25.790775 -83.269821
v -2.152326 25.109457 -83.269821
v -2.152326 25.790775 -83.269821
v -1.821076 25.109457 -83.269821
v -1.821076 25.790775 -83.890213
v -2.152326 25.109457 -83.890213
v -2.152326 25.790775 -83.890213
v -1.821076 25.109457 -83.890213
v -1.821076 25.790775 -87.701508
v -2.152326 25.109457 -87.701508
v -2.152326 25.790775 -87.701508
v -1.821076 25.109457 -87.701508
v -1.821076 25.790775 -88.306091
v -2.152326 25.109457 -88.306091
v -2.152326 25.790775 -88.306091
v -1.821076 25.109457 -88.306091
v -0.418462 25.790775 -93.095360
v -0.418462 25.109457 -92.789513
v -0.418462 25.790775 -92.789513
v -0.418462 25.109457 -93.095360
v 0.115752 25.790775 -92.789513
v 0.115752 25.109457 -93.095360
v 0.115752 25.790775 -93.095360
v 0.115752 25.109457 -92.789513
v 2.920936 25.790775 -92.789513
v 2.920936 25.109457 -93.095360
v 2.920936 25.790775 -93.095360
v 2.920936 25.109457 -92.789513
v 3.397311 25.790775 -92.789513
v 3.397311 25.109457 -93.095360
v 3.397311 25.790775 -93.095360
v 3.397311 25.109457 -92.789513
v 6.223910 25.790775 -92.789513
v 6.223910 25.109457 -93.095360
v 6.223910 25.790775 -93.095360
v 6.223910 25.109457 -92.789513
v 6.740247 25.790775 -92.789513
v 6.740247 25.109457 -93.095360
v 6.740247 25.790775 -93.095360
v 6.740247 25.109457 -92.789513
v 9.893529 25.790775 -92.789513
v 9.893529 25.109457 -93.095360
v 9.893529 25.790775 -93.095360
v 9.893529 25.109457 -92.789513
v 10.389405 25.790775 -92.789513
v 10.389405 25.109457 -93.095360
v 10.389405 25.790775 -93.095360
v 10.389405 25.109457 -92.789513
v 13.560670 25.790775 -92.789513
v 13.560670 25.109457 -93.095360
v 13.560670 25.790775 -93.095360
v 13.560670 25.109457 -92.789513
v 14.067826 25.790775 -92.789513
v 14.067826 25.109457 -93.095360
v 14.067826 25.790775 -93.095360
v 14.067826 25.109457 -92.789513
v 17.440224 25.790775 -92.789513
v 17.440224 25.109457 -93.095360
v 17.440224 25.790775 -93.095360
v 17.440224 25.109457 -92.789513
v 17.971561 25.790775 -92.789513
v 17.971561 25.109457 -93.095360
v 17.971561 25.790775 -93.095360
v 17.971561 25.109457 -92.789513
v 21.148350 25.790775 -92.789513
v 21.148350 25.109457 -93.095360
v 21.148350 25.790775 -93.095360
v 21.148350 25.109457 -92.789513
v 21.640583 25.790775 -92.789513
v 21.640583 25.109457 -93.095360
v 21.640583 25.790775 -93.095360
v 21.640583 25.109457 -92.789513
v 25.246941 25.790775 -92.789513
v 25.246941 25.109457 -93.095360
v 25.246941 25.790775 -93.095360
v 25.246941 25.109457 -92.789513
v 25.704639 25.790775 -92.789513
v 25.704639 25.109457 -93.095360
v 25.704639 25.790775 -93.095360
v 25.704639 25.109457 -92.789513
v 29.391907 25.790775 -92.789513
v 29.391907 25.109457 -93.095360
v 29.391907 25.790775 -93.095360
v 29.391907 25.109457 -92.789513
v 29.861320 25.790775 -92.789513
v 29.861320 25.109457 -93.095360
v 29.861320 25.790775 -93.095360
v 29.861320 25.109457 -92.789513
v 33.597084 25.790775 -92.789513
v 33.597084 25.109457 -93.095360
v 33.597084 25.790775 -93.095360
v 33.597084 25.109457 -92.789513
v 34.052792 25.790775 -92.789513
v 34.052792 25.109457 -93.095360
v 34.052792 25.790775 -93.095360
v 34.052792 25.109457 -92.789513
v 37.548695 25.790775 -92.789513
v 37.548695 25.109457 -93.095360
v 37.548695 25.790775 -93.095360
v 37.548695 25.109457 -92.789513
v 38.016876 25.790775 -92.789513
v 38.016876 25.109457 -93.095360
v 38.016876 25.790775 -93.095360
v 38.016876 25.109457 -92.789513
v 40.145802 25.790775 -91.880325
v 39.827888 25.109457 -91.880325
v 39.827888 25.790775 -91.880325
v 40.145802 25.109457 -91.880325
v 39.827888 25.790775 -91.470871
v 40.145802 25.109457 -91.470871
v 40.145802 25.790775 -91.470871
v 39.827888 25.109457 -91.470871
v 41.160110 25.109457 -90.586037
v 41.160110 25.109457 -90.245941
v 41.160110 25.790775 -90.586037
v 41.160110 25.790775 -90.245941
v 41.547913 25.109457 -90.586037
v 41.547913 25.790775 -90.586037
v 41.547913 25.109457 -90.245941
v 41.547913 25.790775 -90.245941
v 42.472458 25.109457 -90.586037
v 42.472458 25.790775 -90.586037
v 42.472458 25.109457 -90.245941
v 42.472458 25.790775 -90.245941
v 40.145802 18.939236 -93.095360
v 40.145802 18.939236 -92.789513
v 39.827888 18.939236 -93.095360
v 39.827888 18.939236 -92.789513
v 42.853313 18.939236 -90.586037
v 42.853313 18.939236 -90.245941
v 42.472458 18.939236 -90.586037
v -1.821076 18.939236 -45.652058
v -1.821076 18.939236 -45.209431
v -2.152326 18.939236 -45.209431
v -2.152326 18.939236 -45.652058
v -1.821076 18.939236 -48.553398
v -1.821076 18.939236 -48.100430
v -2.152326 18.939236 -48.100430
v -2.152326 18.939236 -48.553398
v -1.821076 18.939236 -51.729515
v -1.821076 18.939236 -51.235420
v -2.152326 18.939236 -51.235420
v -2.152326 18.939236 -51.729515
v -1.821076 18.939236 -55.082985
v -1.821076 18.939236 -54.531509
v -2.152326 18.939236 -54.531509
v -2.152326 18.939236 -55.082985
v -1.821076 18.939236 -58.788071
v -1.821076 18.939236 -58.203442
v -2.152326 18.939236 -58.203442
v -2.152326 18.939236 -58.788071
v -1.821076 18.939236 -62.713421
v -1.821076 18.939236 -62.102272
v -2.152326 18.939236 -62.102272
v -2.152326 18.939236 -62.713421
v -1.821076 18.939236 -66.890190
v -1.821076 18.939236 -66.227020
v -2.152326 18.939236 -66.227020
v -2.152326 18.939236 -66.890190
v -1.821076 18.939236 -70.919472
v -1.821076 18.939236 -70.203445
v -2.152326 18.939236 -70.203445
v -2.152326 18.939236 -70.919472
v -1.821076 18.939236 -75.302399
v -1.821076 18.939236 -74.675201
v -2.152326 18.939236 -74.675201
v -2.152326 18.939236 -75.302399
v -1.821076 18.939236 -79.525726
v -1.821076 18.939236 -78.837517
v -2.152326 18.939236 -78.837517
v -2.152326 18.939236 -79.525726
v -1.821076 18.939236 -83.890213
v -1.821076 18.939236 -83.269821
v -2.152326 18.939236 -83.269821
v -2.152326 18.939236 -83.890213
v -1.821076 18.939236 -88.306091
v -1.821076 18.939236 -87.701508
v -2.152326 18.939236 -87.701508
v -2.152326 18.939236 -88.306091
v 0.115752 18.939236 -92.789513
v -0.418462 18.939236 -92.789513
v -0.418462 18.939236 -93.095360
v 0.115752 18.939236 -93.095360
v 3.397311 18.939236 -92.789513
v 2.920936 18.939236 -92.789513
v 2.920936 18.939236 -93.095360
v 3.397311 18.939236 -93.095360
v 6.740247 18.939236 -92.789513
v 6.223910 18.939236 -92.789513
v 6.223910 18.939236 -93.095360
v 6.740247 18.939236 -93.095360
v 10.389405 18.939236 -92.789513
v 9.893529 18.939236 -92.789513
v 9.893529 18.939236 -93.095360
v 10.389405 18.939236 -93.095360
v 14.067826 18.939236 -92.789513
v 13.560670 18.939236 -92.789513
v 13.560670 18.939236 -93.095360
v 14.067826 18.939236 -93.095360
v 17.971561 18.939236 -92.789513
v 17.440224 18.939236 -92.789513
v 17.440224 18.939236 -93.095360
v 17.971561 18.939236 -93.095360
v 21.640583 18.939236 -92.789513
v 21.148350 18.939236 -92.789513
v 21.148350 18.939236 -93.095360
v 21.640583 18.939236 -93.095360
v 25.704639 18.939236 -92.789513
v 25.246941 18.939236 -92.789513
v 25.246941 18.939236 -93.095360
v 25.704639 18.939236 -93.095360
v 29.861320 18.939236 -92.789513
v 29.391907 18.939236 -92.789513
v 29.391907 18.939236 -93.095360
v 29.861320 18.939236 -93.095360
v 34.052792 18.939236 -92.789513
v 33.597084 18.939236 -92.789513
v 33.597084 18.939236 -93.095360
v 34.052792 18.939236 -93.095360
v 38.016876 18.939236 -92.789513
v 37.548695 18.939236 -92.789513
v 37.548695 18.939236 -93.095360
v 38.016876 18.939236 -93.095360
v 39.827888 18.939236 -91.470871
v 39.827888 18.939236 -91.880325
v 40.145802 18.939236 -91.880325
v 40.145802 18.939236 -91.470871
v 41.547913 18.939236 -90.245941
v 41.160110 18.939236 -90.245941
v 41.160110 18.939236 -90.586037
v 41.547913 18.939236 -90.586037
v 42.472458 18.939236 -90.245941
vn -1.0000 -0.0000 -0.0000
vn -0.0000 1.0000 -0.0000
vn 1.0000 -0.0000 -0.0000
vn -0.0000 -0.0000 1.0000
vn -0.0000 -1.0000 -0.0000
vn -0.0000 -0.0000 -1.0000
vt 0.322750 0.812237
vt 0.325394 0.817591
vt 0.322750 0.817591
vt 0.016582 0.727299
vt 0.013040 0.727328
vt 0.014655 0.725549
vt 0.289902 0.354513
vt 0.295256 0.351868
vt 0.295256 0.354513
vt 0.397586 0.769243
vt 0.402940 0.684265
vt 0.402940 0.769243
vt 0.353370 0.814640
vt 0.355973 0.811996
vt 0.355973 0.814640
vt 0.206098 0.353826
vt 0.270782 0.409002
vt 0.269004 0.410959
vt 0.286197 0.426575
vt 0.289902 0.426367
vt 0.288124 0.428325
vt 0.360346 0.811996
vt 0.360346 0.814640
vt 0.397586 0.795072
vt 0.402940 0.792469
vt 0.402940 0.795072
vt 0.448679 0.688638
vt 0.454034 0.684265
vt 0.454034 0.688638
vt 0.397586 0.684265
vt 0.402940 0.681661
vt 0.343235 0.793627
vt 0.340632 0.796031
vt 0.340632 0.793627
vt 0.343744 0.354272
vt 0.349098 0.351868
vt 0.349098 0.354272
vt 0.258863 0.947349
vt 0.259097 0.950808
vt 0.257247 0.949128
vt 0.295256 0.723162
vt 0.289902 0.758394
vt 0.289902 0.723162
vt 0.343744 0.389504
vt 0.349098 0.389504
vt 0.343235 0.758394
vt 0.340632 0.758394
vt 0.040270 0.701218
vt 0.038343 0.699468
vt 0.312293 0.763749
vt 0.309890 0.758395
vt 0.312293 0.758395
vt 0.402940 0.614383
vt 0.451428 0.618441
vt 0.402940 0.618441
vt 0.397586 0.354367
vt 0.402940 0.351868
vt 0.402940 0.354367
vt 0.270505 0.934531
vt 0.274151 0.934232
vt 0.272354 0.936211
vt 0.456782 0.664931
vt 0.451428 0.679163
vt 0.451428 0.664931
vt 0.397586 0.368598
vt 0.402940 0.368598
vt 0.312331 0.812237
vt 0.309928 0.826468
vt 0.309928 0.812237
vt 0.248328 0.937781
vt 0.246712 0.939560
vt 0.367519 0.763508
vt 0.365021 0.758154
vt 0.367519 0.758154
vt 0.346416 0.814494
vt 0.343744 0.811996
vt 0.346416 0.811996
vt 0.453955 0.792468
vt 0.451352 0.840957
vt 0.451352 0.792468
vt 0.292574 0.763749
vt 0.289902 0.758394
vt 0.292574 0.758394
vt 0.299528 0.763749
vt 0.299528 0.758394
vt 0.322656 0.758395
vt 0.329609 0.763749
vt 0.322656 0.763749
vt 0.353370 0.814494
vt 0.353370 0.811996
vt 0.265830 0.939678
vt 0.267680 0.941358
vt 0.388796 0.758154
vt 0.391468 0.763508
vt 0.388796 0.763508
vt 0.385803 0.758154
vt 0.388796 0.763508
vt 0.385803 0.763508
vt 0.346737 0.763508
vt 0.343744 0.758154
vt 0.346737 0.758154
vt 0.287686 0.946525
vt 0.288105 0.950515
vt 0.285889 0.948503
vt 0.448679 0.692132
vt 0.454034 0.692132
vt 0.418138 0.795072
vt 0.415493 0.840811
vt 0.415493 0.795072
vt 0.282959 0.423634
vt 0.287975 0.424617
vt 0.397586 0.792469
vt 0.402940 0.788095
vt 0.314976 0.823951
vt 0.312331 0.812237
vt 0.314976 0.812237
vt 0.448679 0.703846
vt 0.454034 0.703846
vt 0.280373 0.421285
vt 0.284737 0.421677
vt 0.397586 0.788095
vt 0.402940 0.784601
vt 0.484553 0.682657
vt 0.481908 0.679163
vt 0.484553 0.679163
vt 0.448679 0.788095
vt 0.420782 0.795072
vt 0.418138 0.840811
vt 0.499773 0.692132
vt 0.448679 0.707490
vt 0.454034 0.707490
vt 0.423427 0.795072
vt 0.420782 0.840355
vt 0.420782 0.795072
vt 0.271701 0.413410
vt 0.282151 0.419328
vt 0.397586 0.784601
vt 0.402940 0.772887
vt 0.502417 0.769243
vt 0.499773 0.684265
vt 0.502417 0.684265
vt 0.448679 0.792469
vt 0.454034 0.792469
vt 0.273479 0.411452
vt 0.397586 0.772887
vt 0.479505 0.682808
vt 0.476860 0.679163
vt 0.479505 0.679163
vt 0.448223 0.772887
vt 0.426071 0.795072
vt 0.423427 0.840355
vt 0.499317 0.707490
vt 0.280401 0.432956
vt 0.353370 0.823261
vt 0.343744 0.758153
vt 0.349098 0.749533
vt 0.349098 0.758153
vt 0.289902 0.363134
vt 0.282328 0.434707
vt 0.278069 0.435523
vt 0.295256 0.363134
vt 0.340176 0.366601
vt 0.295256 0.366601
vt 0.343744 0.749533
vt 0.349098 0.746065
vt 0.289902 0.366601
vt 0.322750 0.821732
vt 0.320147 0.825199
vt 0.320147 0.821732
vt 0.431277 0.795072
vt 0.428674 0.839992
vt 0.428674 0.795072
vt 0.394018 0.749533
vt 0.426071 0.839992
vt 0.426071 0.795072
vt 0.279996 0.437273
vt 0.266042 0.448766
vt 0.309928 0.812237
vt 0.307325 0.830126
vt 0.307325 0.812237
vt 0.343744 0.746065
vt 0.349098 0.728176
vt 0.289902 0.384491
vt 0.267969 0.450516
vt 0.263703 0.451341
vt 0.385803 0.811996
vt 0.343744 0.728176
vt 0.349098 0.724697
vt 0.295256 0.384491
vt 0.289902 0.387969
vt 0.265630 0.453091
vt 0.250767 0.465583
vt 0.307325 0.812237
vt 0.304722 0.831477
vt 0.304722 0.812237
vt 0.343744 0.724697
vt 0.349098 0.705457
vt 0.295256 0.387969
vt 0.289902 0.407209
vt 0.252694 0.467333
vt 0.248374 0.468218
vt 0.456558 0.792468
vt 0.453955 0.840957
vt 0.343744 0.705457
vt 0.349098 0.701898
vt 0.295256 0.407209
vt 0.289902 0.410769
vt 0.250301 0.469968
vt 0.234204 0.483820
vt 0.299915 0.812237
vt 0.297312 0.833313
vt 0.297312 0.812237
vt 0.343744 0.701898
vt 0.349098 0.680821
vt 0.295256 0.410769
vt 0.289902 0.431845
vt 0.236131 0.485570
vt 0.231593 0.486694
vt 0.357050 0.763508
vt 0.354002 0.811996
vt 0.354002 0.763508
vt 0.343744 0.680821
vt 0.349098 0.676938
vt 0.295256 0.431845
vt 0.289902 0.435728
vt 0.233520 0.488445
vt 0.216789 0.502994
vt 0.294708 0.834256
vt 0.294708 0.812237
vt 0.343744 0.676938
vt 0.349098 0.654919
vt 0.295256 0.435728
vt 0.289902 0.457747
vt 0.218716 0.504744
vt 0.213875 0.506202
vt 0.397586 0.705457
vt 0.343744 0.654919
vt 0.349098 0.650585
vt 0.295256 0.457747
vt 0.289902 0.462081
vt 0.215802 0.507952
vt 0.197389 0.524355
vt 0.385579 0.811996
vt 0.382975 0.836518
vt 0.382975 0.811996
vt 0.343744 0.650585
vt 0.349098 0.626063
vt 0.295256 0.462081
vt 0.289902 0.486603
vt 0.199316 0.526105
vt 0.194300 0.527756
vt 0.295256 0.718411
vt 0.343744 0.723162
vt 0.343744 0.626063
vt 0.349098 0.621469
vt 0.295256 0.486603
vt 0.289902 0.491197
vt 0.196227 0.529506
vt 0.176790 0.547035
vt 0.377969 0.811996
vt 0.375366 0.838040
vt 0.375366 0.811996
vt 0.343744 0.621469
vt 0.349098 0.595425
vt 0.295256 0.491197
vt 0.289902 0.517242
vt 0.178716 0.548785
vt 0.173561 0.550590
vt 0.433681 0.795072
vt 0.431277 0.843560
vt 0.343744 0.595425
vt 0.349098 0.590622
vt 0.295256 0.517242
vt 0.289902 0.522044
vt 0.175487 0.552340
vt 0.154997 0.571030
vt 0.368155 0.811996
vt 0.365552 0.839607
vt 0.365552 0.811996
vt 0.343744 0.590622
vt 0.349098 0.563011
vt 0.295256 0.522044
vt 0.289902 0.549655
vt 0.156924 0.572780
vt 0.151493 0.574887
vt 0.402940 0.526123
vt 0.451428 0.530298
vt 0.402940 0.530298
vt 0.343744 0.563011
vt 0.349098 0.557799
vt 0.295256 0.549655
vt 0.289902 0.554867
vt 0.153420 0.576638
vt 0.133988 0.594161
vt 0.380572 0.811996
vt 0.377969 0.838033
vt 0.343744 0.557799
vt 0.349098 0.531763
vt 0.295256 0.554867
vt 0.289902 0.580904
vt 0.135914 0.595911
vt 0.130204 0.598327
vt 0.388796 0.811996
vt 0.343744 0.531763
vt 0.349098 0.526136
vt 0.295256 0.580904
vt 0.289902 0.586531
vt 0.132131 0.600077
vt 0.110361 0.620174
vt 0.396674 0.806642
vt 0.394071 0.836156
vt 0.394071 0.806642
vt 0.343744 0.526136
vt 0.349098 0.496622
vt 0.295256 0.586531
vt 0.289902 0.616045
vt 0.112288 0.621925
vt 0.107047 0.623823
vt 0.436084 0.795072
vt 0.433681 0.843560
vt 0.343744 0.496622
vt 0.349098 0.491693
vt 0.295256 0.616045
vt 0.289902 0.620974
vt 0.108974 0.625573
vt 0.088370 0.644387
vt 0.365552 0.811996
vt 0.362949 0.839776
vt 0.362949 0.811996
vt 0.343744 0.491693
vt 0.349098 0.463912
vt 0.295256 0.620974
vt 0.289902 0.648754
vt 0.090297 0.646138
vt 0.084734 0.648391
vt 0.459161 0.792468
vt 0.456558 0.840957
vt 0.456558 0.792468
vt 0.343744 0.463912
vt 0.349098 0.458504
vt 0.295256 0.648754
vt 0.289902 0.654162
vt 0.086661 0.650141
vt 0.064952 0.670171
vt 0.360346 0.841418
vt 0.360346 0.811996
vt 0.343744 0.458504
vt 0.349098 0.429082
vt 0.295256 0.654162
vt 0.289902 0.683585
vt 0.066879 0.671921
vt 0.061674 0.673780
vt 0.397586 0.626063
vt 0.343744 0.429082
vt 0.349098 0.424206
vt 0.295256 0.683585
vt 0.289902 0.688460
vt 0.063601 0.675530
vt 0.041538 0.695951
vt 0.394071 0.806642
vt 0.391468 0.836592
vt 0.391468 0.806642
vt 0.343744 0.424206
vt 0.349098 0.394256
vt 0.295256 0.688460
vt 0.289902 0.718411
vt 0.043465 0.697701
vt 0.456782 0.415089
vt 0.505270 0.419147
vt 0.456782 0.419147
vt 0.343744 0.394256
vt 0.023126 0.736489
vt 0.014966 0.729078
vt 0.329609 0.793627
vt 0.397586 0.681661
vt 0.402940 0.670639
vt 0.456782 0.351868
vt 0.451428 0.362891
vt 0.451428 0.351868
vt 0.024742 0.734710
vt 0.026233 0.739312
vt 0.410497 0.795072
vt 0.407998 0.843560
vt 0.407998 0.795072
vt 0.397586 0.670639
vt 0.402940 0.666441
vt 0.456782 0.362891
vt 0.451428 0.367089
vt 0.027849 0.737532
vt 0.042552 0.754133
vt 0.302318 0.834281
vt 0.302318 0.812237
vt 0.397586 0.666441
vt 0.402940 0.644397
vt 0.456782 0.367089
vt 0.451428 0.389133
vt 0.044168 0.752353
vt 0.045323 0.756649
vt 0.461764 0.792468
vt 0.459161 0.840957
vt 0.397586 0.644397
vt 0.402940 0.640653
vt 0.456782 0.389133
vt 0.451428 0.392877
vt 0.046939 0.754870
vt 0.061766 0.771584
vt 0.302318 0.812237
vt 0.299915 0.834449
vt 0.299915 0.812237
vt 0.397586 0.640653
vt 0.456782 0.392877
vt 0.451428 0.415089
vt 0.063382 0.769804
vt 0.064770 0.774312
vt 0.402940 0.432688
vt 0.451428 0.436377
vt 0.402940 0.436377
vt 0.397586 0.618441
vt 0.451428 0.419147
vt 0.066385 0.772533
vt 0.083113 0.790972
vt 0.292305 0.837016
vt 0.292305 0.812237
vt 0.397586 0.614383
vt 0.402940 0.589603
vt 0.451428 0.443927
vt 0.084729 0.789193
vt 0.085997 0.793592
vt 0.438488 0.795072
vt 0.436084 0.843560
vt 0.397586 0.589603
vt 0.402940 0.585706
vt 0.456782 0.443927
vt 0.451428 0.447823
vt 0.087613 0.791813
vt 0.104445 0.810347
vt 0.289902 0.837158
vt 0.289902 0.812237
vt 0.397586 0.585706
vt 0.402940 0.560785
vt 0.456782 0.447823
vt 0.451428 0.472745
vt 0.106061 0.808568
vt 0.107396 0.813026
vt 0.343744 0.410769
vt 0.397586 0.560785
vt 0.402940 0.556800
vt 0.456782 0.472745
vt 0.451428 0.476730
vt 0.109012 0.811247
vt 0.127014 0.830844
vt 0.387982 0.811996
vt 0.385579 0.838497
vt 0.397586 0.556800
vt 0.456782 0.476730
vt 0.451428 0.503232
vt 0.128629 0.829065
vt 0.130104 0.833652
vt 0.464367 0.792468
vt 0.461764 0.840957
vt 0.397586 0.530298
vt 0.456782 0.503232
vt 0.451428 0.507407
vt 0.131720 0.831872
vt 0.148584 0.850436
vt 0.390386 0.811996
vt 0.387982 0.836960
vt 0.387982 0.811996
vt 0.397586 0.526123
vt 0.402940 0.501158
vt 0.456782 0.507407
vt 0.451428 0.532372
vt 0.150200 0.848657
vt 0.151448 0.853037
vt 0.397586 0.531763
vt 0.397586 0.501158
vt 0.402940 0.497290
vt 0.456782 0.532372
vt 0.451428 0.536240
vt 0.153064 0.851257
vt 0.172427 0.872091
vt 0.372962 0.840336
vt 0.372962 0.811996
vt 0.397586 0.497290
vt 0.402940 0.468950
vt 0.456782 0.536240
vt 0.451428 0.564580
vt 0.174043 0.870311
vt 0.175089 0.874509
vt 0.505270 0.507407
vt 0.397586 0.468950
vt 0.402940 0.465353
vt 0.456782 0.564580
vt 0.451428 0.568177
vt 0.176705 0.872730
vt 0.196539 0.893990
vt 0.370559 0.840972
vt 0.370559 0.811996
vt 0.397586 0.465353
vt 0.456782 0.568177
vt 0.451428 0.597153
vt 0.198155 0.892211
vt 0.199270 0.896470
vt 0.466971 0.792468
vt 0.464367 0.840957
vt 0.464367 0.792468
vt 0.397586 0.436377
vt 0.456782 0.597153
vt 0.451428 0.600842
vt 0.200886 0.894691
vt 0.221001 0.916208
vt 0.368155 0.841353
vt 0.397586 0.432688
vt 0.402940 0.403331
vt 0.456782 0.600842
vt 0.451428 0.630199
vt 0.222617 0.914429
vt 0.223652 0.918616
vt 0.319438 0.812237
vt 0.319438 0.763749
vt 0.397586 0.403331
vt 0.402940 0.399750
vt 0.456782 0.630199
vt 0.451428 0.633780
vt 0.225268 0.916837
vt 0.243989 0.937086
vt 0.380572 0.839468
vt 0.397586 0.399750
vt 0.402940 0.372278
vt 0.456782 0.633780
vt 0.451428 0.661252
vt 0.245605 0.935307
vt 0.440891 0.795072
vt 0.438488 0.843560
vt 0.397586 0.372278
vt 0.456782 0.661252
vt 0.265516 0.943740
vt 0.260713 0.949029
vt 0.317648 0.819381
vt 0.320147 0.812237
vt 0.320147 0.819381
vt 0.309890 0.763749
vt 0.302745 0.758394
vt 0.309890 0.758394
vt 0.263667 0.942060
vt 0.343744 0.491197
vt 0.319438 0.758395
vt 0.302745 0.763749
vt 0.278255 0.941570
vt 0.365021 0.763508
vt 0.357050 0.758154
vt 0.375490 0.763508
vt 0.343744 0.822465
vt 0.343744 0.814494
vt 0.280052 0.939591
vt 0.280511 0.943618
vt 0.354002 0.758154
vt 0.375490 0.758154
vt 0.378537 0.763508
vt 0.443295 0.795072
vt 0.440891 0.843560
vt 0.282308 0.941640
vt 0.378537 0.758154
vt 0.317648 0.812237
vt 0.314976 0.819502
vt 0.314976 0.812237
vt 0.353358 0.822465
vt 0.350954 0.824963
vt 0.350954 0.822465
vt 0.356042 0.823261
vt 0.353370 0.826254
vt 0.353370 0.823261
vt 0.327997 0.821542
vt 0.325394 0.825020
vt 0.325394 0.821542
vt 0.317579 0.819502
vt 0.314976 0.823062
vt 0.469650 0.679163
vt 0.467047 0.683046
vt 0.467047 0.679163
vt 0.464444 0.683497
vt 0.464444 0.679163
vt 0.461841 0.683757
vt 0.461841 0.679163
vt 0.459237 0.679163
vt 0.456634 0.683966
vt 0.456634 0.679163
vt 0.325353 0.817591
vt 0.322750 0.822802
vt 0.322750 0.817591
vt 0.322750 0.812237
vt 0.320147 0.817864
vt 0.320147 0.812237
vt 0.454031 0.679163
vt 0.451428 0.684092
vt 0.327997 0.812237
vt 0.325394 0.817645
vt 0.325394 0.812237
vt 0.454031 0.684038
vt 0.454031 0.679163
vt 0.461841 0.679163
vt 0.459237 0.683914
vt 0.472053 0.679163
vt 0.469650 0.683361
vt 0.469650 0.679163
vt 0.320052 0.819381
vt 0.317648 0.823125
vt 0.317648 0.819381
vt 0.474457 0.683221
vt 0.474457 0.679163
vt 0.327798 0.817645
vt 0.325394 0.821542
vt 0.325394 0.817645
vt 0.479505 0.683149
vt 0.472053 0.683339
vt 0.322550 0.817864
vt 0.320147 0.821732
vt 0.320147 0.817864
vt 0.348551 0.822465
vt 0.346147 0.826062
vt 0.346147 0.822465
vt 0.486956 0.679163
vt 0.484553 0.682852
vt 0.350954 0.822465
vt 0.348551 0.826046
vt 0.348551 0.822465
vt 0.346147 0.822465
vt 0.343744 0.826144
vt 0.343744 0.822465
vt 0.322750 0.826020
vt 0.325248 0.822802
vt 0.325248 0.826020
vt 0.317648 0.823062
vt 0.314976 0.826109
vt 0.314976 0.823062
vt 0.445698 0.795072
vt 0.443295 0.843560
vt 0.343744 0.620974
vt 0.469574 0.792468
vt 0.466971 0.840957
vt 0.472177 0.792468
vt 0.469574 0.840957
vt 0.505270 0.633780
vt 0.397586 0.394256
vt 0.394141 0.758153
vt 0.391468 0.758153
vt 0.448102 0.795072
vt 0.445698 0.843560
vt 0.343744 0.522044
vt 0.375490 0.811996
vt 0.504821 0.684265
vt 0.502417 0.732753
vt 0.474780 0.792468
vt 0.472177 0.840957
vt 0.472177 0.792468
vt 0.505270 0.536240
vt 0.397586 0.496622
vt 0.477383 0.792468
vt 0.474780 0.840957
vt 0.343744 0.435728
vt 0.504821 0.732753
vt 0.502417 0.781241
vt 0.502417 0.732753
vt 0.451428 0.403331
vt 0.479986 0.792468
vt 0.477383 0.840957
vt 0.477383 0.792468
vt 0.505270 0.447823
vt 0.397586 0.595425
vt 0.482589 0.792468
vt 0.479986 0.840957
vt 0.479986 0.792468
vt 0.505270 0.367089
vt 0.396813 0.758153
vt 0.394141 0.806642
vt 0.394141 0.758153
vt 0.332013 0.796031
vt 0.329609 0.844519
vt 0.329609 0.796031
vt 0.451428 0.501158
vt 0.334416 0.796031
vt 0.332013 0.844519
vt 0.332013 0.796031
vt 0.397586 0.680821
vt 0.485192 0.792468
vt 0.482589 0.840957
vt 0.343744 0.811996
vt 0.343744 0.763508
vt 0.336820 0.796031
vt 0.334416 0.844519
vt 0.334416 0.796031
vt 0.451428 0.589603
vt 0.339223 0.796031
vt 0.336820 0.844519
vt 0.336820 0.796031
vt 0.309890 0.812237
vt 0.343744 0.654162
vt 0.487795 0.792468
vt 0.485192 0.840957
vt 0.490398 0.792468
vt 0.487795 0.840957
vt 0.487795 0.792468
vt 0.505270 0.664931
vt 0.451428 0.670639
vt 0.451352 0.792468
vt 0.448679 0.840957
vt 0.448679 0.792468
vt 0.341627 0.796031
vt 0.339223 0.844519
vt 0.343744 0.554867
vt 0.451428 0.354367
vt 0.505817 0.792468
vt 0.503414 0.840957
vt 0.503414 0.792468
vt 0.493001 0.792468
vt 0.490398 0.840957
vt 0.505270 0.568177
vt 0.397586 0.463912
vt 0.507224 0.684265
vt 0.504821 0.732753
vt 0.504821 0.684265
vt 0.343744 0.462081
vt 0.507224 0.732753
vt 0.504821 0.781241
vt 0.451428 0.372278
vt 0.495605 0.792468
vt 0.493001 0.840957
vt 0.412995 0.795072
vt 0.410497 0.843560
vt 0.505270 0.476730
vt 0.397586 0.563011
vt 0.498208 0.792468
vt 0.495605 0.840957
vt 0.343744 0.387969
vt 0.507674 0.351868
vt 0.505270 0.400357
vt 0.505270 0.351868
vt 0.451428 0.468950
vt 0.507674 0.400357
vt 0.505270 0.448845
vt 0.500811 0.792468
vt 0.498208 0.840957
vt 0.507674 0.448845
vt 0.505270 0.497333
vt 0.505270 0.448845
vt 0.505270 0.392877
vt 0.397586 0.654919
vt 0.500811 0.840957
vt 0.500811 0.792468
vt 0.507674 0.497333
vt 0.505270 0.545821
vt 0.505270 0.497333
vt 0.451428 0.560785
vt 0.507674 0.545821
vt 0.505270 0.594309
vt 0.505270 0.545821
vt 0.343744 0.688460
vt 0.397586 0.728176
vt 0.299528 0.812237
vt 0.400189 0.795072
vt 0.397586 0.843560
vt 0.397586 0.795072
vt 0.402792 0.795072
vt 0.400189 0.843560
vt 0.451428 0.644397
vt 0.507674 0.594309
vt 0.505270 0.642797
vt 0.343744 0.586531
vt 0.405395 0.795072
vt 0.402792 0.843560
vt 0.415493 0.795072
vt 0.412995 0.843560
vt 0.412995 0.795072
vt 0.405395 0.843560
vt 0.505270 0.600842
vt 0.397586 0.429082
vt 0.325394 0.812237
vt 0.289902 0.351868
vt 0.207876 0.351868
vt 0.448679 0.684265
vt 0.343235 0.796031
vt 0.343744 0.351868
vt 0.295256 0.758394
vt 0.451428 0.614383
vt 0.397586 0.351868
vt 0.272302 0.932552
vt 0.456782 0.679163
vt 0.312331 0.826468
vt 0.289902 0.763749
vt 0.329609 0.758395
vt 0.391468 0.758154
vt 0.388796 0.758154
vt 0.289901 0.948537
vt 0.312331 0.823951
vt 0.481908 0.682657
vt 0.448679 0.784601
vt 0.420782 0.840811
vt 0.499773 0.688638
vt 0.499773 0.769243
vt 0.476860 0.682808
vt 0.448223 0.769243
vt 0.426071 0.840355
vt 0.499317 0.703846
vt 0.355973 0.823261
vt 0.340176 0.363134
vt 0.322750 0.825199
vt 0.431277 0.839992
vt 0.394018 0.746065
vt 0.309928 0.830126
vt 0.388796 0.811996
vt 0.307325 0.831477
vt 0.299915 0.833313
vt 0.357050 0.811996
vt 0.297312 0.834256
vt 0.397586 0.701898
vt 0.385579 0.836518
vt 0.343744 0.718411
vt 0.377969 0.838040
vt 0.433681 0.843560
vt 0.368155 0.839607
vt 0.451428 0.526123
vt 0.380572 0.838033
vt 0.391468 0.811996
vt 0.396674 0.836156
vt 0.365552 0.839776
vt 0.362949 0.841418
vt 0.397586 0.621469
vt 0.394071 0.836592
vt 0.505270 0.415089
vt 0.329609 0.796031
vt 0.304722 0.834281
vt 0.302318 0.834449
vt 0.451428 0.432688
vt 0.294708 0.837016
vt 0.292305 0.837158
vt 0.343744 0.407209
vt 0.387982 0.838497
vt 0.464367 0.840957
vt 0.390386 0.836960
vt 0.397586 0.526136
vt 0.375366 0.840336
vt 0.505270 0.503232
vt 0.372962 0.840972
vt 0.370559 0.841353
vt 0.322656 0.812237
vt 0.382975 0.839468
vt 0.440891 0.843560
vt 0.317648 0.812237
vt 0.343744 0.486603
vt 0.346416 0.822465
vt 0.317648 0.819502
vt 0.353358 0.824963
vt 0.356042 0.826254
vt 0.327997 0.825020
vt 0.317579 0.823062
vt 0.469650 0.683046
vt 0.467047 0.683497
vt 0.464444 0.683757
vt 0.459237 0.683966
vt 0.325353 0.822802
vt 0.322750 0.817864
vt 0.454031 0.684092
vt 0.327997 0.817645
vt 0.456634 0.684038
vt 0.461841 0.683914
vt 0.472053 0.683361
vt 0.320052 0.823125
vt 0.476860 0.683221
vt 0.327798 0.821542
vt 0.481908 0.683149
vt 0.474457 0.683339
vt 0.322550 0.821732
vt 0.348551 0.826062
vt 0.486956 0.682852
vt 0.350954 0.826046
vt 0.346147 0.826144
vt 0.322750 0.822802
vt 0.317648 0.826109
vt 0.343744 0.616045
vt 0.472177 0.840957
vt 0.505270 0.630199
vt 0.397586 0.389504
vt 0.394141 0.806642
vt 0.448102 0.843560
vt 0.343744 0.517242
vt 0.378537 0.811996
vt 0.504821 0.732753
vt 0.474780 0.840957
vt 0.505270 0.532372
vt 0.397586 0.491693
vt 0.477383 0.840957
vt 0.343744 0.431845
vt 0.451428 0.399750
vt 0.479986 0.840957
vt 0.505270 0.443927
vt 0.397586 0.590622
vt 0.505270 0.362891
vt 0.396813 0.806642
vt 0.332013 0.844519
vt 0.451428 0.497290
vt 0.334416 0.844519
vt 0.397586 0.676938
vt 0.346737 0.811996
vt 0.336820 0.844519
vt 0.451428 0.585706
vt 0.312293 0.812237
vt 0.343744 0.648754
vt 0.487795 0.840957
vt 0.505270 0.661252
vt 0.451428 0.666441
vt 0.451352 0.840957
vt 0.341627 0.844519
vt 0.343744 0.549655
vt 0.505817 0.840957
vt 0.505270 0.564580
vt 0.397586 0.458504
vt 0.343744 0.457747
vt 0.507224 0.781241
vt 0.451428 0.368598
vt 0.495605 0.840957
vt 0.412995 0.843560
vt 0.505270 0.472745
vt 0.397586 0.557799
vt 0.498208 0.840957
vt 0.343744 0.384491
vt 0.451428 0.465353
vt 0.500811 0.840957
vt 0.507674 0.497333
vt 0.505270 0.389133
vt 0.397586 0.650585
vt 0.507674 0.545821
vt 0.451428 0.556800
vt 0.343744 0.683585
vt 0.397586 0.724697
vt 0.302745 0.812237
vt 0.451428 0.640653
vt 0.507674 0.642797
vt 0.343744 0.580904
vt 0.415493 0.843560
vt 0.505270 0.597153
vt 0.397586 0.424206
s 0
usemtl Material.003
f 2/1/1 3/2/1 1/3/1
f 17/4/2 13/5/2 18/6/2
f 8/7/3 5/8/3 7/9/3
f 58/10/4 1/11/4 60/12/4
f 7/13/5 11/14/5 9/15/5
f 4/16/2 58/17/2 59/18/2
f 10/19/2 6/20/2 8/21/2
f 9/15/5 44/22/5 41/23/5
f 6/24/4 11/25/4 5/26/4
f 43/27/6 9/28/6 41/29/6
f 13/30/6 15/31/6 16/11/6
f 19/32/5 15/33/5 20/34/5
f 18/35/1 16/36/1 19/37/1
f 25/38/2 21/39/2 26/40/2
f 172/41/3 17/42/3 169/43/3
f 171/44/1 19/37/1 170/45/1
f 170/46/5 20/34/5 172/47/5
f 169/48/2 18/6/2 171/49/2
f 24/50/3 21/51/3 23/52/3
f 194/53/6 346/54/6 190/55/6
f 26/56/6 22/57/6 27/58/6
f 33/59/2 30/60/2 34/61/2
f 260/62/4 25/63/4 257/64/4
f 259/65/6 27/58/6 258/66/6
f 258/67/5 28/68/5 260/69/5
f 257/70/2 26/40/2 259/71/2
f 32/72/4 30/73/4 31/74/4
f 35/75/5 32/76/5 36/77/5
f 166/78/4 333/79/4 168/80/4
f 36/81/1 31/82/1 33/83/1
f 268/84/1 33/83/1 265/85/1
f 267/86/3 35/87/3 266/88/3
f 266/89/5 36/77/5 268/90/5
f 265/91/2 34/61/2 267/92/2
f 40/93/3 37/94/3 39/95/3
f 278/96/6 39/97/6 277/98/6
f 279/99/4 38/100/4 280/101/4
f 280/102/2 40/103/2 278/104/2
f 47/105/6 41/29/6 45/106/6
f 44/107/3 51/108/3 41/109/3
f 43/110/2 12/111/2 10/19/2
f 12/112/4 44/113/4 11/25/4
f 45/114/5 56/115/5 53/116/5
f 55/117/6 45/106/6 53/118/6
f 47/119/2 42/120/2 43/110/2
f 42/121/4 48/122/4 44/113/4
f 51/123/5 49/124/5 52/125/5
f 48/122/4 50/126/4 44/113/4
f 45/127/1 49/128/1 48/107/1
f 41/29/6 52/129/6 45/106/6
f 59/130/6 53/118/6 57/131/6
f 56/132/3 63/133/3 53/134/3
f 55/135/2 46/136/2 47/119/2
f 46/137/4 56/138/4 48/122/4
f 57/139/5 1/140/5 3/141/5
f 4/142/6 57/131/6 3/143/6
f 59/18/2 54/144/2 55/135/2
f 54/145/4 60/12/4 56/138/4
f 63/146/5 61/147/5 64/148/5
f 60/12/4 62/149/4 56/138/4
f 57/150/1 61/151/1 60/132/1
f 53/118/6 64/152/6 57/131/6
f 8/21/2 65/153/2 10/19/2
f 9/15/5 66/154/5 7/13/5
f 10/155/1 68/156/1 9/157/1
f 7/9/3 67/158/3 8/7/3
f 67/159/2 71/160/2 65/153/2
f 66/161/3 73/162/3 72/163/3
f 65/164/1 70/165/1 68/156/1
f 66/161/3 69/166/3 67/158/3
f 75/167/5 73/168/5 74/169/5
f 72/170/6 76/171/6 70/172/6
f 70/165/1 75/173/1 68/156/1
f 68/172/4 74/174/4 66/175/4
f 69/176/2 79/177/2 71/160/2
f 70/178/5 80/179/5 72/180/5
f 71/181/1 78/182/1 70/165/1
f 72/163/3 77/183/3 69/166/3
f 77/184/2 83/185/2 79/177/2
f 39/97/6 287/186/6 277/98/6
f 79/187/1 82/188/1 78/182/1
f 80/189/3 81/190/3 77/183/3
f 81/191/2 87/192/2 83/185/2
f 82/193/5 88/194/5 84/195/5
f 83/196/1 86/197/1 82/188/1
f 84/198/3 85/199/3 81/190/3
f 85/200/2 91/201/2 87/192/2
f 116/202/6 307/203/6 114/78/6
f 87/204/1 90/205/1 86/197/1
f 88/206/3 89/207/3 85/199/3
f 89/208/2 95/209/2 91/201/2
f 90/210/5 96/211/5 92/212/5
f 91/213/1 94/214/1 90/205/1
f 92/215/3 93/216/3 89/207/3
f 93/217/2 99/218/2 95/209/2
f 270/219/4 384/220/4 275/221/4
f 95/222/1 98/223/1 94/214/1
f 96/224/3 97/225/3 93/216/3
f 97/226/2 103/227/2 99/218/2
f 98/212/5 104/228/5 100/229/5
f 99/230/1 102/231/1 98/223/1
f 100/232/3 101/233/3 97/225/3
f 101/234/2 107/235/2 103/227/2
f 90/205/1 294/236/1 86/197/1
f 103/237/1 106/238/1 102/231/1
f 104/239/3 105/240/3 101/233/3
f 105/241/2 111/242/2 107/235/2
f 106/243/5 112/244/5 108/245/5
f 107/246/1 110/247/1 106/238/1
f 108/248/3 109/249/3 105/240/3
f 109/250/2 115/251/2 111/242/2
f 168/252/3 332/253/3 172/41/3
f 111/254/1 114/255/1 110/247/1
f 112/256/3 113/257/3 109/249/3
f 113/258/2 119/259/2 115/251/2
f 114/260/5 120/261/5 116/262/5
f 115/263/1 118/264/1 114/255/1
f 116/265/3 117/266/3 113/257/3
f 117/267/2 123/268/2 119/259/2
f 244/269/3 371/270/3 242/170/3
f 119/271/1 122/272/1 118/264/1
f 120/273/3 121/274/3 117/266/3
f 121/275/2 127/276/2 123/268/2
f 122/277/5 128/278/5 124/279/5
f 123/280/1 126/281/1 122/272/1
f 124/282/3 125/283/3 121/274/3
f 125/284/2 131/285/2 127/276/2
f 218/286/6 358/287/6 214/288/6
f 127/289/1 130/290/1 126/281/1
f 128/291/3 129/292/3 125/283/3
f 129/293/2 135/294/2 131/285/2
f 130/295/5 136/296/5 132/260/5
f 131/297/1 134/298/1 130/290/1
f 132/299/3 133/300/3 129/292/3
f 133/301/2 139/302/2 135/294/2
f 37/94/3 285/303/3 39/95/3
f 135/304/1 138/305/1 134/298/1
f 136/306/3 137/307/3 133/300/3
f 137/308/2 143/309/2 139/302/2
f 138/310/5 144/311/5 140/312/5
f 139/313/1 142/314/1 138/305/1
f 140/315/3 141/316/3 137/307/3
f 141/317/2 147/318/2 143/309/2
f 190/319/1 345/320/1 192/269/1
f 143/321/1 146/322/1 142/314/1
f 144/323/3 145/324/3 141/316/3
f 145/325/2 151/326/2 147/318/2
f 146/327/5 152/328/5 148/329/5
f 147/330/1 150/331/1 146/322/1
f 148/332/3 149/333/3 145/324/3
f 149/334/2 155/335/2 151/326/2
f 140/336/6 319/337/6 138/338/6
f 151/339/1 154/340/1 150/331/1
f 152/341/3 153/342/3 149/333/3
f 153/343/2 159/344/2 155/335/2
f 154/329/5 160/345/5 156/346/5
f 155/347/1 158/348/1 154/340/1
f 156/349/3 157/350/3 153/342/3
f 157/351/2 163/352/2 159/344/2
f 114/255/1 306/353/1 110/247/1
f 159/354/1 162/355/1 158/348/1
f 160/356/3 161/357/3 157/350/3
f 161/358/2 167/359/2 163/352/2
f 162/360/5 168/361/5 164/362/5
f 163/363/1 166/364/1 162/355/1
f 164/365/3 165/366/3 161/357/3
f 165/367/2 171/49/2 167/359/2
f 192/368/4 344/369/4 196/370/4
f 167/371/1 170/45/1 166/364/1
f 168/252/3 169/43/3 165/366/3
f 17/4/2 173/372/2 14/373/2
f 15/33/5 174/374/5 20/34/5
f 14/375/6 176/376/6 15/31/6
f 20/377/4 175/378/4 17/379/4
f 175/380/2 179/381/2 173/372/2
f 268/382/4 383/383/4 266/384/4
f 173/385/6 178/386/6 176/376/6
f 174/387/4 177/388/4 175/378/4
f 177/389/2 183/390/2 179/381/2
f 178/195/5 184/391/5 180/392/5
f 179/393/6 182/394/6 178/386/6
f 180/395/4 181/396/4 177/388/4
f 181/397/2 187/398/2 183/390/2
f 86/399/4 293/400/4 88/336/4
f 183/401/6 186/402/6 182/394/6
f 184/403/4 185/404/4 181/396/4
f 185/405/2 191/406/2 187/398/2
f 186/407/5 192/408/5 188/409/5
f 187/410/6 190/55/6 186/402/6
f 188/411/4 189/412/4 185/404/4
f 189/413/2 195/414/2 191/406/2
f 242/415/6 370/416/6 238/417/6
f 191/418/6 194/53/6 190/55/6
f 192/368/4 193/419/4 189/412/4
f 193/420/2 199/421/2 195/414/2
f 194/229/5 200/422/5 196/423/5
f 195/424/6 198/425/6 194/53/6
f 196/370/4 197/426/4 193/419/4
f 197/427/2 203/428/2 199/421/2
f 214/429/1 357/430/1 216/319/1
f 199/431/6 202/432/6 198/425/6
f 200/433/4 201/434/4 197/426/4
f 201/435/2 207/436/2 203/428/2
f 202/423/5 208/437/5 204/438/5
f 203/439/6 206/440/6 202/432/6
f 204/441/4 205/442/4 201/434/4
f 205/443/2 211/444/2 207/436/2
f 88/206/3 292/445/3 92/215/3
f 207/446/6 210/447/6 206/440/6
f 208/448/4 209/449/4 205/442/4
f 209/450/2 215/451/2 211/444/2
f 210/452/5 216/453/5 212/243/5
f 211/454/6 214/288/6 210/447/6
f 212/455/4 213/456/4 209/449/4
f 213/457/2 219/458/2 215/451/2
f 164/459/6 331/460/6 162/399/6
f 215/461/6 218/286/6 214/288/6
f 216/462/4 217/463/4 213/456/4
f 217/464/2 223/465/2 219/458/2
f 218/466/5 224/467/5 220/468/5
f 219/469/6 222/470/6 218/286/6
f 220/471/4 221/472/4 217/463/4
f 221/473/2 227/474/2 223/465/2
f 138/305/1 318/475/1 134/298/1
f 223/476/6 226/477/6 222/470/6
f 224/478/4 225/479/4 221/472/4
f 225/480/2 231/481/2 227/474/2
f 226/262/5 232/482/5 228/483/5
f 227/484/6 230/485/6 226/477/6
f 228/486/4 229/487/4 225/479/4
f 229/488/2 235/489/2 231/481/2
f 216/462/4 356/490/4 220/471/4
f 231/491/6 234/492/6 230/485/6
f 232/493/4 233/494/4 229/487/4
f 233/495/2 239/496/2 235/489/2
f 234/483/5 240/497/5 236/498/5
f 235/499/6 238/417/6 234/492/6
f 236/500/4 237/501/4 233/494/4
f 237/502/2 243/503/2 239/496/2
f 110/504/4 305/505/4 112/506/4
f 239/507/6 242/415/6 238/417/6
f 240/508/4 241/509/4 237/501/4
f 241/510/2 247/511/2 243/503/2
f 242/498/5 248/512/5 244/277/5
f 243/513/6 246/514/6 242/415/6
f 244/515/4 245/516/4 241/509/4
f 245/517/2 251/518/2 247/511/2
f 266/88/3 382/519/3 264/520/3
f 247/521/6 250/522/6 246/514/6
f 248/523/4 249/524/4 245/516/4
f 249/525/2 255/526/2 251/518/2
f 250/245/5 256/527/5 252/295/5
f 251/528/6 254/529/6 250/522/6
f 252/530/4 253/531/4 249/524/4
f 253/532/2 259/71/2 255/526/2
f 238/533/1 369/534/1 240/429/1
f 255/535/6 258/66/6 254/529/6
f 256/536/4 257/64/4 253/531/4
f 25/38/2 261/537/2 23/538/2
f 24/539/5 262/540/5 28/541/5
f 23/52/3 264/520/3 24/50/3
f 28/542/1 263/543/1 25/544/1
f 263/545/2 267/92/2 261/537/2
f 112/256/3 304/546/3 116/265/3
f 261/547/3 266/88/3 264/520/3
f 262/548/1 265/85/1 263/543/1
f 30/60/2 271/549/2 34/61/2
f 29/550/4 272/551/4 30/73/4
f 34/74/6 269/552/6 35/72/6
f 35/75/5 270/553/5 29/554/5
f 272/555/2 274/556/2 271/549/2
f 270/219/4 276/557/4 272/551/4
f 271/558/6 273/559/6 269/552/6
f 188/560/3 343/561/3 186/533/3
f 276/562/2 278/104/2 274/556/2
f 275/221/4 280/101/4 276/557/4
f 274/563/6 277/98/6 273/559/6
f 273/564/5 279/565/5 275/566/5
f 283/567/5 282/568/5 284/569/5
f 287/570/5 286/571/5 388/572/5
f 290/573/5 288/574/5 289/575/5
f 294/576/5 292/577/5 293/565/5
f 298/578/5 296/579/5 297/580/5
f 302/580/5 300/581/5 301/582/5
f 306/582/5 304/583/5 305/584/5
f 310/585/5 308/586/5 309/587/5
f 314/588/5 312/589/5 313/590/5
f 318/591/5 316/592/5 317/593/5
f 322/594/5 320/595/5 321/63/5
f 326/596/5 324/597/5 325/598/5
f 330/587/5 328/599/5 329/600/5
f 334/601/5 332/602/5 333/585/5
f 338/603/5 336/604/5 337/605/5
f 342/606/5 340/607/5 341/608/5
f 346/147/5 344/609/5 345/610/5
f 350/611/5 348/612/5 349/613/5
f 354/124/5 352/614/5 353/148/5
f 358/610/5 356/615/5 357/603/5
f 362/616/5 360/617/5 361/618/5
f 366/619/5 364/620/5 365/621/5
f 370/622/5 368/623/5 369/125/5
f 374/624/5 372/625/5 373/626/5
f 378/627/5 376/628/5 377/629/5
f 382/630/5 380/631/5 381/632/5
f 386/633/5 384/634/5 385/635/5
f 220/636/3 359/637/3 218/560/3
f 144/323/3 320/638/3 148/332/3
f 92/639/6 295/640/6 90/504/6
f 142/641/4 321/642/4 144/639/4
f 248/523/4 372/643/4 252/530/4
f 170/45/1 334/644/1 166/364/1
f 269/645/1 385/362/1 270/646/1
f 196/647/3 347/648/3 194/636/3
f 120/273/3 308/649/3 124/282/3
f 273/559/6 386/650/6 269/552/6
f 246/651/1 373/652/1 248/141/1
f 118/653/4 309/654/4 120/655/4
f 224/478/4 360/656/4 228/486/4
f 146/322/1 322/657/1 142/314/1
f 172/658/6 335/659/6 170/653/6
f 96/224/3 296/660/3 100/232/3
f 222/661/1 361/662/1 224/663/1
f 250/522/6 374/664/6 246/514/6
f 94/665/4 297/666/4 96/667/4
f 200/433/4 348/668/4 204/441/4
f 122/272/1 310/669/1 118/264/1
f 148/670/6 323/671/6 146/672/6
f 174/387/4 336/673/4 180/395/4
f 275/674/3 387/675/3 273/676/3
f 198/677/1 349/678/1 200/679/1
f 226/477/6 362/680/6 222/470/6
f 252/681/3 375/682/3 250/683/3
f 98/223/1 298/684/1 94/214/1
f 124/685/6 311/686/6 122/670/6
f 279/99/4 286/687/4 37/688/4
f 176/689/1 337/690/1 174/691/1
f 202/432/6 350/692/6 198/425/6
f 228/693/3 363/694/3 226/695/3
f 24/50/3 281/696/3 22/542/3
f 152/341/3 324/697/3 156/349/3
f 100/698/6 299/699/6 98/685/6
f 150/700/4 325/701/4 152/702/4
f 256/536/4 376/703/4 260/62/4
f 178/386/6 338/704/6 176/376/6
f 277/705/1 388/706/1 279/707/1
f 204/708/3 351/709/3 202/693/3
f 128/291/3 312/710/3 132/299/3
f 22/57/6 283/711/6 27/58/6
f 254/712/1 377/713/1 256/714/1
f 126/715/4 313/716/4 128/700/4
f 232/493/4 364/717/4 236/500/4
f 154/340/1 326/718/1 150/331/1
f 180/719/3 339/720/3 178/721/3
f 104/239/3 300/722/3 108/248/3
f 230/723/1 365/724/1 232/661/1
f 258/66/6 378/725/6 254/529/6
f 102/726/4 301/727/4 104/715/4
f 28/728/4 282/729/4 24/382/4
f 208/448/4 352/730/4 212/455/4
f 130/290/1 314/731/1 126/281/1
f 156/732/6 327/733/6 154/726/6
f 80/189/3 288/734/3 84/198/3
f 206/735/1 353/736/1 208/737/1
f 234/492/6 366/738/6 230/485/6
f 27/739/1 284/740/1 28/736/1
f 78/741/4 289/742/4 80/732/4
f 260/743/3 379/744/3 258/745/3
f 184/403/4 340/746/4 188/411/4
f 106/238/1 302/747/1 102/231/1
f 132/714/6 315/748/6 130/749/6
f 182/750/1 341/751/1 184/752/1
f 210/447/6 354/753/6 206/440/6
f 236/754/3 367/755/3 234/756/3
f 160/356/3 328/757/3 164/365/3
f 82/188/1 290/758/1 78/182/1
f 262/548/1 380/759/1 268/84/1
f 108/760/6 303/761/6 106/762/6
f 158/763/4 329/764/4 160/760/4
f 186/402/6 342/765/6 182/394/6
f 212/766/3 355/767/3 210/755/3
f 136/306/3 316/768/3 140/315/3
f 84/769/6 291/770/6 82/763/6
f 264/771/6 381/772/6 262/773/6
f 134/384/4 317/774/4 136/769/4
f 240/508/4 368/775/4 244/515/4
f 162/355/1 330/776/1 158/348/1
f 2/1/1 4/777/1 3/2/1
f 17/4/2 14/373/2 13/5/2
f 8/7/3 6/778/3 5/8/3
f 58/10/4 2/30/4 1/11/4
f 7/13/5 5/90/5 11/14/5
f 4/16/2 2/779/2 58/17/2
f 10/19/2 12/111/2 6/20/2
f 9/15/5 11/14/5 44/22/5
f 6/24/4 12/112/4 11/25/4
f 43/27/6 10/780/6 9/28/6
f 13/30/6 14/375/6 15/31/6
f 19/32/5 16/781/5 15/33/5
f 18/35/1 13/782/1 16/36/1
f 25/38/2 23/538/2 21/39/2
f 172/41/3 20/783/3 17/42/3
f 171/44/1 18/35/1 19/37/1
f 170/46/5 19/32/5 20/34/5
f 169/48/2 17/4/2 18/6/2
f 24/50/3 22/542/3 21/51/3
f 194/53/6 347/784/6 346/54/6
f 26/56/6 21/785/6 22/57/6
f 33/59/2 31/786/2 30/60/2
f 260/62/4 28/787/4 25/63/4
f 259/65/6 26/56/6 27/58/6
f 258/67/5 27/788/5 28/68/5
f 257/70/2 25/38/2 26/40/2
f 32/72/4 29/550/4 30/73/4
f 35/75/5 29/554/5 32/76/5
f 166/78/4 334/203/4 333/79/4
f 36/81/1 32/789/1 31/82/1
f 268/84/1 36/81/1 33/83/1
f 267/86/3 34/790/3 35/87/3
f 266/89/5 35/75/5 36/77/5
f 265/91/2 33/59/2 34/61/2
f 40/93/3 38/791/3 37/94/3
f 278/96/6 40/792/6 39/97/6
f 279/99/4 37/688/4 38/100/4
f 280/102/2 38/793/2 40/103/2
f 47/105/6 43/27/6 41/29/6
f 44/107/3 50/128/3 51/108/3
f 43/110/2 42/120/2 12/111/2
f 12/112/4 42/121/4 44/113/4
f 45/114/5 48/794/5 56/115/5
f 55/117/6 47/105/6 45/106/6
f 47/119/2 46/136/2 42/120/2
f 42/121/4 46/137/4 48/122/4
f 51/123/5 50/795/5 49/124/5
f 48/122/4 49/796/4 50/126/4
f 45/127/1 52/797/1 49/128/1
f 41/29/6 51/798/6 52/129/6
f 59/130/6 55/117/6 53/118/6
f 56/132/3 62/151/3 63/133/3
f 55/135/2 54/144/2 46/136/2
f 46/137/4 54/145/4 56/138/4
f 57/139/5 60/799/5 1/140/5
f 4/142/6 59/130/6 57/131/6
f 59/18/2 58/17/2 54/144/2
f 54/145/4 58/10/4 60/12/4
f 63/146/5 62/800/5 61/147/5
f 60/12/4 61/801/4 62/149/4
f 57/150/1 64/802/1 61/151/1
f 53/118/6 63/803/6 64/152/6
f 8/21/2 67/159/2 65/153/2
f 9/15/5 68/804/5 66/154/5
f 10/155/1 65/164/1 68/156/1
f 7/9/3 66/161/3 67/158/3
f 67/159/2 69/176/2 71/160/2
f 66/161/3 74/805/3 73/162/3
f 65/164/1 71/181/1 70/165/1
f 66/161/3 72/163/3 69/166/3
f 75/167/5 76/806/5 73/168/5
f 72/170/6 73/807/6 76/171/6
f 70/165/1 76/808/1 75/173/1
f 68/172/4 75/171/4 74/174/4
f 69/176/2 77/184/2 79/177/2
f 70/178/5 78/809/5 80/179/5
f 71/181/1 79/187/1 78/182/1
f 72/163/3 80/189/3 77/183/3
f 77/184/2 81/191/2 83/185/2
f 39/97/6 285/810/6 287/186/6
f 79/187/1 83/196/1 82/188/1
f 80/189/3 84/198/3 81/190/3
f 81/191/2 85/200/2 87/192/2
f 82/193/5 86/811/5 88/194/5
f 83/196/1 87/204/1 86/197/1
f 84/198/3 88/206/3 85/199/3
f 85/200/2 89/208/2 91/201/2
f 116/202/6 304/337/6 307/203/6
f 87/204/1 91/213/1 90/205/1
f 88/206/3 92/215/3 89/207/3
f 89/208/2 93/217/2 95/209/2
f 90/210/5 94/812/5 96/211/5
f 91/213/1 95/222/1 94/214/1
f 92/215/3 96/224/3 93/216/3
f 93/217/2 97/226/2 99/218/2
f 270/219/4 385/813/4 384/220/4
f 95/222/1 99/230/1 98/223/1
f 96/224/3 100/232/3 97/225/3
f 97/226/2 101/234/2 103/227/2
f 98/212/5 102/814/5 104/228/5
f 99/230/1 103/237/1 102/231/1
f 100/232/3 104/239/3 101/233/3
f 101/234/2 105/241/2 107/235/2
f 90/205/1 295/815/1 294/236/1
f 103/237/1 107/246/1 106/238/1
f 104/239/3 108/248/3 105/240/3
f 105/241/2 109/250/2 111/242/2
f 106/243/5 110/816/5 112/244/5
f 107/246/1 111/254/1 110/247/1
f 108/248/3 112/256/3 109/249/3
f 109/250/2 113/258/2 115/251/2
f 168/252/3 333/817/3 332/253/3
f 111/254/1 115/263/1 114/255/1
f 112/256/3 116/265/3 113/257/3
f 113/258/2 117/267/2 119/259/2
f 114/260/5 118/818/5 120/261/5
f 115/263/1 119/271/1 118/264/1
f 116/265/3 120/273/3 117/266/3
f 117/267/2 121/275/2 123/268/2
f 244/269/3 368/819/3 371/270/3
f 119/271/1 123/280/1 122/272/1
f 120/273/3 124/282/3 121/274/3
f 121/275/2 125/284/2 127/276/2
f 122/277/5 126/820/5 128/278/5
f 123/280/1 127/289/1 126/281/1
f 124/282/3 128/291/3 125/283/3
f 125/284/2 129/293/2 131/285/2
f 218/286/6 359/821/6 358/287/6
f 127/289/1 131/297/1 130/290/1
f 128/291/3 132/299/3 129/292/3
f 129/293/2 133/301/2 135/294/2
f 130/295/5 134/822/5 136/296/5
f 131/297/1 135/304/1 134/298/1
f 132/299/3 136/306/3 133/300/3
f 133/301/2 137/308/2 139/302/2
f 37/94/3 286/823/3 285/303/3
f 135/304/1 139/313/1 138/305/1
f 136/306/3 140/315/3 137/307/3
f 137/308/2 141/317/2 143/309/2
f 138/310/5 142/824/5 144/311/5
f 139/313/1 143/321/1 142/314/1
f 140/315/3 144/323/3 141/316/3
f 141/317/2 145/325/2 147/318/2
f 190/319/1 346/430/1 345/320/1
f 143/321/1 147/330/1 146/322/1
f 144/323/3 148/332/3 145/324/3
f 145/325/2 149/334/2 151/326/2
f 146/327/5 150/825/5 152/328/5
f 147/330/1 151/339/1 150/331/1
f 148/332/3 152/341/3 149/333/3
f 149/334/2 153/343/2 155/335/2
f 140/336/6 316/400/6 319/337/6
f 151/339/1 155/347/1 154/340/1
f 152/341/3 156/349/3 153/342/3
f 153/343/2 157/351/2 159/344/2
f 154/329/5 158/826/5 160/345/5
f 155/347/1 159/354/1 158/348/1
f 156/349/3 160/356/3 157/350/3
f 157/351/2 161/358/2 163/352/2
f 114/255/1 307/827/1 306/353/1
f 159/354/1 163/363/1 162/355/1
f 160/356/3 164/365/3 161/357/3
f 161/358/2 165/367/2 167/359/2
f 162/360/5 166/828/5 168/361/5
f 163/363/1 167/371/1 166/364/1
f 164/365/3 168/252/3 165/366/3
f 165/367/2 169/48/2 171/49/2
f 192/368/4 345/829/4 344/369/4
f 167/371/1 171/44/1 170/45/1
f 168/252/3 172/41/3 169/43/3
f 17/4/2 175/380/2 173/372/2
f 15/33/5 176/830/5 174/374/5
f 14/375/6 173/385/6 176/376/6
f 20/377/4 174/387/4 175/378/4
f 175/380/2 177/389/2 179/381/2
f 268/382/4 380/729/4 383/383/4
f 173/385/6 179/393/6 178/386/6
f 174/387/4 180/395/4 177/388/4
f 177/389/2 181/397/2 183/390/2
f 178/195/5 182/831/5 184/391/5
f 179/393/6 183/401/6 182/394/6
f 180/395/4 184/403/4 181/396/4
f 181/397/2 185/405/2 187/398/2
f 86/399/4 294/460/4 293/400/4
f 183/401/6 187/410/6 186/402/6
f 184/403/4 188/411/4 185/404/4
f 185/405/2 189/413/2 191/406/2
f 186/407/5 190/832/5 192/408/5
f 187/410/6 191/418/6 190/55/6
f 188/411/4 192/368/4 189/412/4
f 189/413/2 193/420/2 195/414/2
f 242/415/6 371/833/6 370/416/6
f 191/418/6 195/424/6 194/53/6
f 192/368/4 196/370/4 193/419/4
f 193/420/2 197/427/2 199/421/2
f 194/229/5 198/834/5 200/422/5
f 195/424/6 199/431/6 198/425/6
f 196/370/4 200/433/4 197/426/4
f 197/427/2 201/435/2 203/428/2
f 214/429/1 358/534/1 357/430/1
f 199/431/6 203/439/6 202/432/6
f 200/433/4 204/441/4 201/434/4
f 201/435/2 205/443/2 207/436/2
f 202/423/5 206/835/5 208/437/5
f 203/439/6 207/446/6 206/440/6
f 204/441/4 208/448/4 205/442/4
f 205/443/2 209/450/2 211/444/2
f 88/206/3 293/836/3 292/445/3
f 207/446/6 211/454/6 210/447/6
f 208/448/4 212/455/4 209/449/4
f 209/450/2 213/457/2 215/451/2
f 210/452/5 214/837/5 216/453/5
f 211/454/6 215/461/6 214/288/6
f 212/455/4 216/462/4 213/456/4
f 213/457/2 217/464/2 219/458/2
f 164/459/6 328/838/6 331/460/6
f 215/461/6 219/469/6 218/286/6
f 216/462/4 220/471/4 217/463/4
f 217/464/2 221/473/2 223/465/2
f 218/466/5 222/839/5 224/467/5
f 219/469/6 223/476/6 222/470/6
f 220/471/4 224/478/4 221/472/4
f 221/473/2 225/480/2 227/474/2
f 138/305/1 319/840/1 318/475/1
f 223/476/6 227/484/6 226/477/6
f 224/478/4 228/486/4 225/479/4
f 225/480/2 229/488/2 231/481/2
f 226/262/5 230/841/5 232/482/5
f 227/484/6 231/491/6 230/485/6
f 228/486/4 232/493/4 229/487/4
f 229/488/2 233/495/2 235/489/2
f 216/462/4 357/842/4 356/490/4
f 231/491/6 235/499/6 234/492/6
f 232/493/4 236/500/4 233/494/4
f 233/495/2 237/502/2 239/496/2
f 234/483/5 238/843/5 240/497/5
f 235/499/6 239/507/6 238/417/6
f 236/500/4 240/508/4 237/501/4
f 237/502/2 241/510/2 243/503/2
f 110/504/4 306/640/4 305/505/4
f 239/507/6 243/513/6 242/415/6
f 240/508/4 244/515/4 241/509/4
f 241/510/2 245/517/2 247/511/2
f 242/498/5 246/844/5 248/512/5
f 243/513/6 247/521/6 246/514/6
f 244/515/4 248/523/4 245/516/4
f 245/517/2 249/525/2 251/518/2
f 266/88/3 383/845/3 382/519/3
f 247/521/6 251/528/6 250/522/6
f 248/523/4 252/530/4 249/524/4
f 249/525/2 253/532/2 255/526/2
f 250/245/5 254/846/5 256/527/5
f 251/528/6 255/535/6 254/529/6
f 252/530/4 256/536/4 253/531/4
f 253/532/2 257/70/2 259/71/2
f 238/533/1 370/847/1 369/534/1
f 255/535/6 259/65/6 258/66/6
f 256/536/4 260/62/4 257/64/4
f 25/38/2 263/545/2 261/537/2
f 24/539/5 264/848/5 262/540/5
f 23/52/3 261/547/3 264/520/3
f 28/542/1 262/548/1 263/543/1
f 263/545/2 265/91/2 267/92/2
f 112/256/3 305/849/3 304/546/3
f 261/547/3 267/86/3 266/88/3
f 262/548/1 268/84/1 265/85/1
f 30/60/2 272/555/2 271/549/2
f 29/550/4 270/219/4 272/551/4
f 34/74/6 271/558/6 269/552/6
f 35/75/5 269/850/5 270/553/5
f 272/555/2 276/562/2 274/556/2
f 270/219/4 275/221/4 276/557/4
f 271/558/6 274/563/6 273/559/6
f 188/560/3 340/637/3 343/561/3
f 276/562/2 280/102/2 278/104/2
f 275/221/4 279/99/4 280/101/4
f 274/563/6 278/96/6 277/98/6
f 273/564/5 277/851/5 279/565/5
f 283/567/5 281/852/5 282/568/5
f 287/570/5 285/853/5 286/571/5
f 290/573/5 291/854/5 288/574/5
f 294/576/5 295/855/5 292/577/5
f 298/578/5 299/856/5 296/579/5
f 302/580/5 303/857/5 300/581/5
f 306/582/5 307/858/5 304/583/5
f 310/585/5 311/859/5 308/586/5
f 314/588/5 315/860/5 312/589/5
f 318/591/5 319/861/5 316/592/5
f 322/594/5 323/862/5 320/595/5
f 326/596/5 327/863/5 324/597/5
f 330/587/5 331/864/5 328/599/5
f 334/601/5 335/865/5 332/602/5
f 338/603/5 339/866/5 336/604/5
f 342/606/5 343/867/5 340/607/5
f 346/147/5 347/868/5 344/609/5
f 350/611/5 351/869/5 348/612/5
f 354/124/5 355/870/5 352/614/5
f 358/610/5 359/871/5 356/615/5
f 362/616/5 363/872/5 360/617/5
f 366/619/5 367/873/5 364/620/5
f 370/622/5 371/874/5 368/623/5
f 374/624/5 375/875/5 372/625/5
f 378/627/5 379/876/5 376/628/5
f 382/630/5 383/877/5 380/631/5
f 386/633/5 387/878/5 384/634/5
f 220/636/3 356/648/3 359/637/3
f 144/323/3 321/879/3 320/638/3
f 92/639/6 292/642/6 295/640/6
f 142/641/4 322/880/4 321/642/4
f 248/523/4 373/881/4 372/643/4
f 170/45/1 335/882/1 334/644/1
f 269/645/1 386/883/1 385/362/1
f 196/647/3 344/884/3 347/648/3
f 120/273/3 309/885/3 308/649/3
f 273/559/6 387/886/6 386/650/6
f 246/651/1 374/887/1 373/652/1
f 118/653/4 310/888/4 309/654/4
f 224/478/4 361/889/4 360/656/4
f 146/322/1 323/890/1 322/657/1
f 172/658/6 332/891/6 335/659/6
f 96/224/3 297/892/3 296/660/3
f 222/661/1 362/724/1 361/662/1
f 250/522/6 375/893/6 374/664/6
f 94/665/4 298/894/4 297/666/4
f 200/433/4 349/895/4 348/668/4
f 122/272/1 311/896/1 310/669/1
f 148/670/6 320/686/6 323/671/6
f 174/387/4 337/897/4 336/673/4
f 275/674/3 384/898/3 387/675/3
f 198/677/1 350/899/1 349/678/1
f 226/477/6 363/900/6 362/680/6
f 252/681/3 372/901/3 375/682/3
f 98/223/1 299/902/1 298/684/1
f 124/685/6 308/699/6 311/686/6
f 279/99/4 388/903/4 286/687/4
f 176/689/1 338/904/1 337/690/1
f 202/432/6 351/905/6 350/692/6
f 228/693/3 360/709/3 363/694/3
f 24/50/3 282/906/3 281/696/3
f 152/341/3 325/907/3 324/697/3
f 100/698/6 296/908/6 299/699/6
f 150/700/4 326/716/4 325/701/4
f 256/536/4 377/909/4 376/703/4
f 178/386/6 339/910/6 338/704/6
f 277/705/1 287/911/1 388/706/1
f 204/708/3 348/912/3 351/709/3
f 128/291/3 313/913/3 312/710/3
f 22/57/6 281/379/6 283/711/6
f 254/712/1 378/914/1 377/713/1
f 126/715/4 314/727/4 313/716/4
f 232/493/4 365/915/4 364/717/4
f 154/340/1 327/916/1 326/718/1
f 180/719/3 336/723/3 339/720/3
f 104/239/3 301/917/3 300/722/3
f 230/723/1 366/918/1 365/724/1
f 258/66/6 379/919/6 378/725/6
f 102/726/4 302/920/4 301/727/4
f 28/728/4 284/921/4 282/729/4
f 208/448/4 353/922/4 352/730/4
f 130/290/1 315/923/1 314/731/1
f 156/732/6 324/924/6 327/733/6
f 80/189/3 289/925/3 288/734/3
f 206/735/1 354/739/1 353/736/1
f 234/492/6 367/926/6 366/738/6
f 27/739/1 283/743/1 284/740/1
f 78/741/4 290/927/4 289/742/4
f 260/743/3 376/928/3 379/744/3
f 184/403/4 341/929/4 340/746/4
f 106/238/1 303/930/1 302/747/1
f 132/714/6 312/713/6 315/748/6
f 182/750/1 342/931/1 341/751/1
f 210/447/6 355/932/6 354/753/6
f 236/754/3 364/766/3 367/755/3
f 160/356/3 329/933/3 328/757/3
f 82/188/1 291/934/1 290/758/1
f 262/548/1 381/935/1 380/759/1
f 108/760/6 300/764/6 303/761/6
f 158/763/4 330/770/4 329/764/4
f 186/402/6 343/936/6 342/765/6
f 212/766/3 352/937/3 355/767/3
f 136/306/3 317/938/3 316/768/3
f 84/769/6 288/774/6 291/770/6
f 264/771/6 382/939/6 381/772/6
f 134/384/4 318/383/4 317/774/4
f 240/508/4 369/940/4 368/775/4
f 162/355/1 331/941/1 330/776/1
