# Blender 4.1.0
# www.blender.org
mtllib SecondFloorRailingTwo.mtl
o Railing_Right
v 110.260101 25.109457 -41.058186
v 110.260101 25.790775 -41.058186
v 110.260101 25.109457 -41.394695
v 110.260101 25.790775 -41.394695
v 96.159660 25.109457 -41.058186
v 96.159660 25.790775 -41.058186
v 96.159660 25.109457 -41.394695
v 96.159660 25.790775 -41.394695
v 96.490906 25.109457 -41.394695
v 96.490906 25.790775 -41.394695
v 96.490906 25.109457 -41.058186
v 96.490906 25.790775 -41.058186
v 96.490906 25.790775 -93.095360
v 96.159660 25.790775 -93.095360
v 96.159660 25.109457 -93.095360
v 96.490906 25.109457 -93.095360
v 96.159660 25.790775 -92.789513
v 96.490906 25.790775 -92.789513
v 96.490906 25.109457 -92.789513
v 96.159660 25.109457 -92.789513
v 54.192780 25.790775 -93.095360
v 54.192780 25.109457 -93.095360
v 54.192780 25.790775 -92.789513
v 54.192780 25.109457 -92.789513
v 54.510693 25.790775 -92.789513
v 54.510693 25.790775 -93.095360
v 54.510693 25.109457 -93.095360
v 54.510693 25.109457 -92.789513
v 54.192780 25.109457 -90.245941
v 54.192780 25.790775 -90.245941
v 54.510693 25.790775 -90.245941
v 54.510693 25.109457 -90.245941
v 54.510693 25.790775 -90.586037
v 54.192780 25.790775 -90.586037
v 54.192780 25.109457 -90.586037
v 54.510693 25.109457 -90.586037
v 51.485268 25.109457 -90.245941
v 51.485268 25.790775 -90.245941
v 51.485268 25.109457 -90.586037
v 51.485268 25.790775 -90.586037
v 97.047424 25.109457 -41.394695
v 97.047424 25.790775 -41.058186
v 97.047424 25.790775 -41.394695
v 97.047424 25.109457 -41.058186
v 97.492020 25.109457 -41.394695
v 97.492020 25.790775 -41.058186
v 97.492020 25.790775 -41.394695
v 97.492020 25.109457 -41.058186
v 97.492020 19.289024 -41.058186
v 97.047424 19.289024 -41.058186
v 97.047424 19.289024 -41.394695
v 97.492020 19.289024 -41.394695
v 98.982689 25.109457 -41.394695
v 98.982689 25.790775 -41.058186
v 98.982689 25.790775 -41.394695
v 98.982689 25.109457 -41.058186
v 99.446449 25.109457 -41.394695
v 99.446449 25.790775 -41.058186
v 99.446449 25.790775 -41.394695
v 99.446449 25.109457 -41.058186
v 99.446449 19.347088 -41.058186
v 98.982689 19.347088 -41.058186
v 98.982689 19.347088 -41.394695
v 99.446449 19.347088 -41.394695
v 96.490906 25.790775 -42.491730
v 96.159660 25.109457 -42.491730
v 96.159660 25.790775 -42.491730
v 96.490906 25.109457 -42.491730
v 96.159660 25.790775 -42.932930
v 96.490906 25.109457 -42.932930
v 96.490906 25.790775 -42.932930
v 96.159660 25.109457 -42.932930
v 96.159660 19.393270 -42.932930
v 96.159660 19.393270 -42.491730
v 96.490906 19.393270 -42.491730
v 96.490906 19.393270 -42.932930
v 96.159660 25.790775 -45.209431
v 96.490906 25.109457 -45.209431
v 96.490906 25.790775 -45.209431
v 96.159660 25.109457 -45.209431
v 96.159660 25.790775 -45.652058
v 96.490906 25.109457 -45.652058
v 96.490906 25.790775 -45.652058
v 96.159660 25.109457 -45.652058
v 96.159660 25.790775 -48.100430
v 96.490906 25.109457 -48.100430
v 96.490906 25.790775 -48.100430
v 96.159660 25.109457 -48.100430
v 96.159660 25.790775 -48.553398
v 96.490906 25.109457 -48.553398
v 96.490906 25.790775 -48.553398
v 96.159660 25.109457 -48.553398
v 96.159660 25.790775 -51.235420
v 96.490906 25.109457 -51.235420
v 96.490906 25.790775 -51.235420
v 96.159660 25.109457 -51.235420
v 96.159660 25.790775 -51.729515
v 96.490906 25.109457 -51.729515
v 96.490906 25.790775 -51.729515
v 96.159660 25.109457 -51.729515
v 96.159660 25.790775 -54.531509
v 96.490906 25.109457 -54.531509
v 96.490906 25.790775 -54.531509
v 96.159660 25.109457 -54.531509
v 96.159660 25.790775 -55.082985
v 96.490906 25.109457 -55.082985
v 96.490906 25.790775 -55.082985
v 96.159660 25.109457 -55.082985
v 96.159660 25.790775 -58.203442
v 96.490906 25.109457 -58.203442
v 96.490906 25.790775 -58.203442
v 96.159660 25.109457 -58.203442
v 96.159660 25.790775 -58.788071
v 96.490906 25.109457 -58.788071
v 96.490906 25.790775 -58.788071
v 96.159660 25.109457 -58.788071
v 96.159660 25.790775 -62.102272
v 96.490906 25.109457 -62.102272
v 96.490906 25.790775 -62.102272
v 96.159660 25.109457 -62.102272
v 96.159660 25.790775 -62.713421
v 96.490906 25.109457 -62.713421
v 96.490906 25.790775 -62.713421
v 96.159660 25.109457 -62.713421
v 96.159660 25.790775 -66.227020
v 96.490906 25.109457 -66.227020
v 96.490906 25.790775 -66.227020
v 96.159660 25.109457 -66.227020
v 96.159660 25.790775 -66.890190
v 96.490906 25.109457 -66.890190
v 96.490906 25.790775 -66.890190
v 96.159660 25.109457 -66.890190
v 96.159660 25.790775 -70.203445
v 96.490906 25.109457 -70.203445
v 96.490906 25.790775 -70.203445
v 96.159660 25.109457 -70.203445
v 96.159660 25.790775 -70.919472
v 96.490906 25.109457 -70.919472
v 96.490906 25.790775 -70.919472
v 96.159660 25.109457 -70.919472
v 96.159660 25.790775 -74.675201
v 96.490906 25.109457 -74.675201
v 96.490906 25.790775 -74.675201
v 96.159660 25.109457 -74.675201
v 96.159660 25.790775 -75.302399
v 96.490906 25.109457 -75.302399
v 96.490906 25.790775 -75.302399
v 96.159660 25.109457 -75.302399
v 96.159660 25.790775 -78.837517
v 96.490906 25.109457 -78.837517
v 96.490906 25.790775 -78.837517
v 96.159660 25.109457 -78.837517
v 96.159660 25.790775 -79.525726
v 96.490906 25.109457 -79.525726
v 96.490906 25.790775 -79.525726
v 96.159660 25.109457 -79.525726
v 96.159660 25.790775 -83.269821
v 96.490906 25.109457 -83.269821
v 96.490906 25.790775 -83.269821
v 96.159660 25.109457 -83.269821
v 96.159660 25.790775 -83.890213
v 96.490906 25.109457 -83.890213
v 96.490906 25.790775 -83.890213
v 96.159660 25.109457 -83.890213
v 96.159660 25.790775 -87.701508
v 96.490906 25.109457 -87.701508
v 96.490906 25.790775 -87.701508
v 96.159660 25.109457 -87.701508
v 96.159660 25.790775 -88.306091
v 96.490906 25.109457 -88.306091
v 96.490906 25.790775 -88.306091
v 96.159660 25.109457 -88.306091
v 94.757042 25.790775 -93.095360
v 94.757042 25.109457 -92.789513
v 94.757042 25.790775 -92.789513
v 94.757042 25.109457 -93.095360
v 94.222832 25.790775 -92.789513
v 94.222832 25.109457 -93.095360
v 94.222832 25.790775 -93.095360
v 94.222832 25.109457 -92.789513
v 91.417648 25.790775 -92.789513
v 91.417648 25.109457 -93.095360
v 91.417648 25.790775 -93.095360
v 91.417648 25.109457 -92.789513
v 90.941269 25.790775 -92.789513
v 90.941269 25.109457 -93.095360
v 90.941269 25.790775 -93.095360
v 90.941269 25.109457 -92.789513
v 88.114670 25.790775 -92.789513
v 88.114670 25.109457 -93.095360
v 88.114670 25.790775 -93.095360
v 88.114670 25.109457 -92.789513
v 87.598335 25.790775 -92.789513
v 87.598335 25.109457 -93.095360
v 87.598335 25.790775 -93.095360
v 87.598335 25.109457 -92.789513
v 84.445053 25.790775 -92.789513
v 84.445053 25.109457 -93.095360
v 84.445053 25.790775 -93.095360
v 84.445053 25.109457 -92.789513
v 83.949173 25.790775 -92.789513
v 83.949173 25.109457 -93.095360
v 83.949173 25.790775 -93.095360
v 83.949173 25.109457 -92.789513
v 80.777908 25.790775 -92.789513
v 80.777908 25.109457 -93.095360
v 80.777908 25.790775 -93.095360
v 80.777908 25.109457 -92.789513
v 80.270752 25.790775 -92.789513
v 80.270752 25.109457 -93.095360
v 80.270752 25.790775 -93.095360
v 80.270752 25.109457 -92.789513
v 76.898361 25.790775 -92.789513
v 76.898361 25.109457 -93.095360
v 76.898361 25.790775 -93.095360
v 76.898361 25.109457 -92.789513
v 76.367020 25.790775 -92.789513
v 76.367020 25.109457 -93.095360
v 76.367020 25.790775 -93.095360
v 76.367020 25.109457 -92.789513
v 73.190231 25.790775 -92.789513
v 73.190231 25.109457 -93.095360
v 73.190231 25.790775 -93.095360
v 73.190231 25.109457 -92.789513
v 72.697998 25.790775 -92.789513
v 72.697998 25.109457 -93.095360
v 72.697998 25.790775 -93.095360
v 72.697998 25.109457 -92.789513
v 69.091644 25.790775 -92.789513
v 69.091644 25.109457 -93.095360
v 69.091644 25.790775 -93.095360
v 69.091644 25.109457 -92.789513
v 68.633942 25.790775 -92.789513
v 68.633942 25.109457 -93.095360
v 68.633942 25.790775 -93.095360
v 68.633942 25.109457 -92.789513
v 64.946671 25.790775 -92.789513
v 64.946671 25.109457 -93.095360
v 64.946671 25.790775 -93.095360
v 64.946671 25.109457 -92.789513
v 64.477264 25.790775 -92.789513
v 64.477264 25.109457 -93.095360
v 64.477264 25.790775 -93.095360
v 64.477264 25.109457 -92.789513
v 60.741497 25.790775 -92.789513
v 60.741497 25.109457 -93.095360
v 60.741497 25.790775 -93.095360
v 60.741497 25.109457 -92.789513
v 60.285789 25.790775 -92.789513
v 60.285789 25.109457 -93.095360
v 60.285789 25.790775 -93.095360
v 60.285789 25.109457 -92.789513
v 56.789886 25.790775 -92.789513
v 56.789886 25.109457 -93.095360
v 56.789886 25.790775 -93.095360
v 56.789886 25.109457 -92.789513
v 56.321705 25.790775 -92.789513
v 56.321705 25.109457 -93.095360
v 56.321705 25.790775 -93.095360
v 56.321705 25.109457 -92.789513
v 54.192780 25.790775 -91.880325
v 54.510693 25.109457 -91.880325
v 54.510693 25.790775 -91.880325
v 54.192780 25.109457 -91.880325
v 54.510693 25.790775 -91.470871
v 54.192780 25.109457 -91.470871
v 54.192780 25.790775 -91.470871
v 54.510693 25.109457 -91.470871
v 53.178471 25.109457 -90.586037
v 53.178471 25.109457 -90.245941
v 53.178471 25.790775 -90.586037
v 53.178471 25.790775 -90.245941
v 52.790668 25.109457 -90.586037
v 52.790668 25.790775 -90.586037
v 52.790668 25.109457 -90.245941
v 52.790668 25.790775 -90.245941
v 51.866123 25.109457 -90.586037
v 51.866123 25.790775 -90.586037
v 51.866123 25.109457 -90.245941
v 51.866123 25.790775 -90.245941
v 54.192780 18.939236 -93.095360
v 54.192780 18.939236 -92.789513
v 54.510693 18.939236 -93.095360
v 54.510693 18.939236 -92.789513
v 51.485268 18.939236 -90.586037
v 51.485268 18.939236 -90.245941
v 51.866123 18.939236 -90.586037
v 96.159660 18.939236 -45.652058
v 96.159660 18.939236 -45.209431
v 96.490906 18.939236 -45.209431
v 96.490906 18.939236 -45.652058
v 96.159660 18.939236 -48.553398
v 96.159660 18.939236 -48.100430
v 96.490906 18.939236 -48.100430
v 96.490906 18.939236 -48.553398
v 96.159660 18.939236 -51.729515
v 96.159660 18.939236 -51.235420
v 96.490906 18.939236 -51.235420
v 96.490906 18.939236 -51.729515
v 96.159660 18.939236 -55.082985
v 96.159660 18.939236 -54.531509
v 96.490906 18.939236 -54.531509
v 96.490906 18.939236 -55.082985
v 96.159660 18.939236 -58.788071
v 96.159660 18.939236 -58.203442
v 96.490906 18.939236 -58.203442
v 96.490906 18.939236 -58.788071
v 96.159660 18.939236 -62.713421
v 96.159660 18.939236 -62.102272
v 96.490906 18.939236 -62.102272
v 96.490906 18.939236 -62.713421
v 96.159660 18.939236 -66.890190
v 96.159660 18.939236 -66.227020
v 96.490906 18.939236 -66.227020
v 96.490906 18.939236 -66.890190
v 96.159660 18.939236 -70.919472
v 96.159660 18.939236 -70.203445
v 96.490906 18.939236 -70.203445
v 96.490906 18.939236 -70.919472
v 96.159660 18.939236 -75.302399
v 96.159660 18.939236 -74.675201
v 96.490906 18.939236 -74.675201
v 96.490906 18.939236 -75.302399
v 96.159660 18.939236 -79.525726
v 96.159660 18.939236 -78.837517
v 96.490906 18.939236 -78.837517
v 96.490906 18.939236 -79.525726
v 96.159660 18.939236 -83.890213
v 96.159660 18.939236 -83.269821
v 96.490906 18.939236 -83.269821
v 96.490906 18.939236 -83.890213
v 96.159660 18.939236 -88.306091
v 96.159660 18.939236 -87.701508
v 96.490906 18.939236 -87.701508
v 96.490906 18.939236 -88.306091
v 94.222832 18.939236 -92.789513
v 94.757042 18.939236 -92.789513
v 94.757042 18.939236 -93.095360
v 94.222832 18.939236 -93.095360
v 90.941269 18.939236 -92.789513
v 91.417648 18.939236 -92.789513
v 91.417648 18.939236 -93.095360
v 90.941269 18.939236 -93.095360
v 87.598335 18.939236 -92.789513
v 88.114670 18.939236 -92.789513
v 88.114670 18.939236 -93.095360
v 87.598335 18.939236 -93.095360
v 83.949173 18.939236 -92.789513
v 84.445053 18.939236 -92.789513
v 84.445053 18.939236 -93.095360
v 83.949173 18.939236 -93.095360
v 80.270752 18.939236 -92.789513
v 80.777908 18.939236 -92.789513
v 80.777908 18.939236 -93.095360
v 80.270752 18.939236 -93.095360
v 76.367020 18.939236 -92.789513
v 76.898361 18.939236 -92.789513
v 76.898361 18.939236 -93.095360
v 76.367020 18.939236 -93.095360
v 72.697998 18.939236 -92.789513
v 73.190231 18.939236 -92.789513
v 73.190231 18.939236 -93.095360
v 72.697998 18.939236 -93.095360
v 68.633942 18.939236 -92.789513
v 69.091644 18.939236 -92.789513
v 69.091644 18.939236 -93.095360
v 68.633942 18.939236 -93.095360
v 64.477264 18.939236 -92.789513
v 64.946671 18.939236 -92.789513
v 64.946671 18.939236 -93.095360
v 64.477264 18.939236 -93.095360
v 60.285789 18.939236 -92.789513
v 60.741497 18.939236 -92.789513
v 60.741497 18.939236 -93.095360
v 60.285789 18.939236 -93.095360
v 56.321705 18.939236 -92.789513
v 56.789886 18.939236 -92.789513
v 56.789886 18.939236 -93.095360
v 56.321705 18.939236 -93.095360
v 54.510693 18.939236 -91.470871
v 54.510693 18.939236 -91.880325
v 54.192780 18.939236 -91.880325
v 54.192780 18.939236 -91.470871
v 52.790668 18.939236 -90.245941
v 53.178471 18.939236 -90.245941
v 53.178471 18.939236 -90.586037
v 52.790668 18.939236 -90.586037
v 51.866123 18.939236 -90.245941
vn -1.0000 -0.0000 -0.0000
vn -0.0000 -1.0000 -0.0000
vn 1.0000 -0.0000 -0.0000
vn -0.0000 -0.0000 -1.0000
vn -0.0000 1.0000 -0.0000
vn -0.0000 -0.0000 1.0000
vt 0.322750 0.817591
vt 0.322750 0.812237
vt 0.325394 0.812237
vt 0.325394 0.817591
vt 0.014655 0.725549
vt 0.016582 0.727299
vt 0.014966 0.729078
vt 0.013040 0.727328
vt 0.295256 0.354513
vt 0.289902 0.354513
vt 0.289902 0.351868
vt 0.295256 0.351868
vt 0.402940 0.769243
vt 0.397586 0.769243
vt 0.397586 0.684265
vt 0.402940 0.684265
vt 0.355973 0.814640
vt 0.353370 0.814640
vt 0.353370 0.811996
vt 0.355973 0.811996
vt 0.269004 0.410959
vt 0.206098 0.353826
vt 0.207876 0.351868
vt 0.270782 0.409002
vt 0.288124 0.428325
vt 0.286197 0.426575
vt 0.287975 0.424617
vt 0.289902 0.426367
vt 0.360346 0.814640
vt 0.360346 0.811996
vt 0.402940 0.795072
vt 0.397586 0.795072
vt 0.397586 0.792469
vt 0.402940 0.792469
vt 0.454034 0.688638
vt 0.448679 0.688638
vt 0.448679 0.684265
vt 0.454034 0.684265
vt 0.397586 0.681661
vt 0.402940 0.681661
vt 0.340632 0.793627
vt 0.343235 0.793627
vt 0.343235 0.796031
vt 0.340632 0.796031
vt 0.349098 0.354272
vt 0.343744 0.354272
vt 0.343744 0.351868
vt 0.349098 0.351868
vt 0.257247 0.949128
vt 0.258863 0.947349
vt 0.260713 0.949029
vt 0.259097 0.950808
vt 0.289902 0.723162
vt 0.295256 0.723162
vt 0.295256 0.758394
vt 0.289902 0.758394
vt 0.349098 0.389504
vt 0.343744 0.389504
vt 0.340632 0.758394
vt 0.343235 0.758394
vt 0.038343 0.699468
vt 0.040270 0.701218
vt 0.312293 0.758395
vt 0.312293 0.763749
vt 0.309890 0.763749
vt 0.309890 0.758395
vt 0.402940 0.618441
vt 0.402940 0.614383
vt 0.451428 0.614383
vt 0.451428 0.618441
vt 0.402940 0.354367
vt 0.397586 0.354367
vt 0.397586 0.351868
vt 0.402940 0.351868
vt 0.272354 0.936211
vt 0.270505 0.934531
vt 0.272302 0.932552
vt 0.274151 0.934232
vt 0.451428 0.664931
vt 0.456782 0.664931
vt 0.456782 0.679163
vt 0.451428 0.679163
vt 0.402940 0.368598
vt 0.397586 0.368598
vt 0.309928 0.812237
vt 0.312331 0.812237
vt 0.312331 0.826468
vt 0.309928 0.826468
vt 0.246712 0.939560
vt 0.248328 0.937781
vt 0.367519 0.758154
vt 0.367519 0.763508
vt 0.365021 0.763508
vt 0.365021 0.758154
vt 0.346416 0.811996
vt 0.346416 0.814494
vt 0.343744 0.814494
vt 0.343744 0.811996
vt 0.451352 0.792468
vt 0.453955 0.792468
vt 0.453955 0.840957
vt 0.451352 0.840957
vt 0.292574 0.758394
vt 0.292574 0.763749
vt 0.289902 0.763749
vt 0.289902 0.758394
vt 0.299528 0.758394
vt 0.299528 0.763749
vt 0.322656 0.763749
vt 0.322656 0.758395
vt 0.329609 0.758395
vt 0.329609 0.763749
vt 0.353370 0.814494
vt 0.267680 0.941358
vt 0.265830 0.939678
vt 0.388796 0.763508
vt 0.388796 0.758154
vt 0.391468 0.758154
vt 0.391468 0.763508
vt 0.385803 0.763508
vt 0.385803 0.758154
vt 0.388796 0.758154
vt 0.388796 0.763508
vt 0.346737 0.758154
vt 0.346737 0.763508
vt 0.343744 0.763508
vt 0.343744 0.758154
vt 0.285889 0.948503
vt 0.287686 0.946525
vt 0.289901 0.948537
vt 0.288105 0.950515
vt 0.454034 0.692132
vt 0.448679 0.692132
vt 0.415493 0.795072
vt 0.418138 0.795072
vt 0.418138 0.840811
vt 0.415493 0.840811
vt 0.282959 0.423634
vt 0.284737 0.421677
vt 0.397586 0.788095
vt 0.402940 0.788095
vt 0.314976 0.812237
vt 0.314976 0.823951
vt 0.312331 0.823951
vt 0.312331 0.812237
vt 0.454034 0.703846
vt 0.448679 0.703846
vt 0.280373 0.421285
vt 0.282151 0.419328
vt 0.397586 0.784601
vt 0.402940 0.784601
vt 0.484553 0.679163
vt 0.484553 0.682657
vt 0.481908 0.682657
vt 0.481908 0.679163
vt 0.448679 0.784601
vt 0.448679 0.788095
vt 0.420782 0.795072
vt 0.420782 0.840811
vt 0.499773 0.688638
vt 0.499773 0.692132
vt 0.454034 0.707490
vt 0.448679 0.707490
vt 0.420782 0.795072
vt 0.423427 0.795072
vt 0.423427 0.840355
vt 0.420782 0.840355
vt 0.271701 0.413410
vt 0.273479 0.411452
vt 0.397586 0.772887
vt 0.402940 0.772887
vt 0.502417 0.684265
vt 0.502417 0.769243
vt 0.499773 0.769243
vt 0.499773 0.684265
vt 0.454034 0.792469
vt 0.448679 0.792469
vt 0.479505 0.679163
vt 0.479505 0.682808
vt 0.476860 0.682808
vt 0.476860 0.679163
vt 0.448223 0.769243
vt 0.448223 0.772887
vt 0.426071 0.795072
vt 0.426071 0.840355
vt 0.499317 0.703846
vt 0.499317 0.707490
vt 0.282328 0.434707
vt 0.280401 0.432956
vt 0.355973 0.823261
vt 0.353370 0.823261
vt 0.349098 0.758153
vt 0.343744 0.758153
vt 0.343744 0.749533
vt 0.349098 0.749533
vt 0.295256 0.363134
vt 0.289902 0.363134
vt 0.279996 0.437273
vt 0.278069 0.435523
vt 0.295256 0.366601
vt 0.340176 0.363134
vt 0.340176 0.366601
vt 0.343744 0.746065
vt 0.349098 0.746065
vt 0.289902 0.366601
vt 0.320147 0.821732
vt 0.322750 0.821732
vt 0.322750 0.825199
vt 0.320147 0.825199
vt 0.428674 0.795072
vt 0.431277 0.795072
vt 0.431277 0.839992
vt 0.428674 0.839992
vt 0.394018 0.746065
vt 0.394018 0.749533
vt 0.426071 0.795072
vt 0.426071 0.839992
vt 0.267969 0.450516
vt 0.266042 0.448766
vt 0.307325 0.812237
vt 0.309928 0.812237
vt 0.309928 0.830126
vt 0.307325 0.830126
vt 0.343744 0.728176
vt 0.349098 0.728176
vt 0.295256 0.384491
vt 0.289902 0.384491
vt 0.265630 0.453091
vt 0.263703 0.451341
vt 0.388796 0.811996
vt 0.385803 0.811996
vt 0.343744 0.724697
vt 0.349098 0.724697
vt 0.295256 0.387969
vt 0.289902 0.387969
vt 0.252694 0.467333
vt 0.250767 0.465583
vt 0.304722 0.812237
vt 0.307325 0.812237
vt 0.307325 0.831477
vt 0.304722 0.831477
vt 0.343744 0.705457
vt 0.349098 0.705457
vt 0.295256 0.407209
vt 0.289902 0.407209
vt 0.250301 0.469968
vt 0.248374 0.468218
vt 0.456558 0.792468
vt 0.456558 0.840957
vt 0.343744 0.701898
vt 0.349098 0.701898
vt 0.295256 0.410769
vt 0.289902 0.410769
vt 0.236131 0.485570
vt 0.234204 0.483820
vt 0.297312 0.812237
vt 0.299915 0.812237
vt 0.299915 0.833313
vt 0.297312 0.833313
vt 0.343744 0.680821
vt 0.349098 0.680821
vt 0.295256 0.431845
vt 0.289902 0.431845
vt 0.233520 0.488445
vt 0.231593 0.486694
vt 0.354002 0.763508
vt 0.357050 0.763508
vt 0.357050 0.811996
vt 0.354002 0.811996
vt 0.343744 0.676938
vt 0.349098 0.676938
vt 0.295256 0.435728
vt 0.289902 0.435728
vt 0.218716 0.504744
vt 0.216789 0.502994
vt 0.294708 0.812237
vt 0.297312 0.834256
vt 0.294708 0.834256
vt 0.343744 0.654919
vt 0.349098 0.654919
vt 0.295256 0.457747
vt 0.289902 0.457747
vt 0.215802 0.507952
vt 0.213875 0.506202
vt 0.397586 0.701898
vt 0.397586 0.705457
vt 0.343744 0.650585
vt 0.349098 0.650585
vt 0.295256 0.462081
vt 0.289902 0.462081
vt 0.199316 0.526105
vt 0.197389 0.524355
vt 0.382975 0.811996
vt 0.385579 0.811996
vt 0.385579 0.836518
vt 0.382975 0.836518
vt 0.343744 0.626063
vt 0.349098 0.626063
vt 0.295256 0.486603
vt 0.289902 0.486603
vt 0.196227 0.529506
vt 0.194300 0.527756
vt 0.295256 0.718411
vt 0.343744 0.718411
vt 0.343744 0.723162
vt 0.343744 0.621469
vt 0.349098 0.621469
vt 0.295256 0.491197
vt 0.289902 0.491197
vt 0.178716 0.548785
vt 0.176790 0.547035
vt 0.375366 0.811996
vt 0.377969 0.811996
vt 0.377969 0.838040
vt 0.375366 0.838040
vt 0.343744 0.595425
vt 0.349098 0.595425
vt 0.295256 0.517242
vt 0.289902 0.517242
vt 0.175487 0.552340
vt 0.173561 0.550590
vt 0.433681 0.795072
vt 0.433681 0.843560
vt 0.431277 0.843560
vt 0.343744 0.590622
vt 0.349098 0.590622
vt 0.295256 0.522044
vt 0.289902 0.522044
vt 0.156924 0.572780
vt 0.154997 0.571030
vt 0.365552 0.811996
vt 0.368155 0.811996
vt 0.368155 0.839607
vt 0.365552 0.839607
vt 0.343744 0.563011
vt 0.349098 0.563011
vt 0.295256 0.549655
vt 0.289902 0.549655
vt 0.153420 0.576638
vt 0.151493 0.574887
vt 0.402940 0.530298
vt 0.402940 0.526123
vt 0.451428 0.526123
vt 0.451428 0.530298
vt 0.343744 0.557799
vt 0.349098 0.557799
vt 0.295256 0.554867
vt 0.289902 0.554867
vt 0.135914 0.595911
vt 0.133988 0.594161
vt 0.380572 0.811996
vt 0.380572 0.838033
vt 0.377969 0.838033
vt 0.343744 0.531763
vt 0.349098 0.531763
vt 0.295256 0.580904
vt 0.289902 0.580904
vt 0.132131 0.600077
vt 0.130204 0.598327
vt 0.391468 0.811996
vt 0.388796 0.811996
vt 0.343744 0.526136
vt 0.349098 0.526136
vt 0.295256 0.586531
vt 0.289902 0.586531
vt 0.112288 0.621925
vt 0.110361 0.620174
vt 0.394071 0.806642
vt 0.396674 0.806642
vt 0.396674 0.836156
vt 0.394071 0.836156
vt 0.343744 0.496622
vt 0.349098 0.496622
vt 0.295256 0.616045
vt 0.289902 0.616045
vt 0.108974 0.625573
vt 0.107047 0.623823
vt 0.436084 0.795072
vt 0.436084 0.843560
vt 0.433681 0.843560
vt 0.343744 0.491693
vt 0.349098 0.491693
vt 0.295256 0.620974
vt 0.289902 0.620974
vt 0.090297 0.646138
vt 0.088370 0.644387
vt 0.362949 0.811996
vt 0.365552 0.811996
vt 0.365552 0.839776
vt 0.362949 0.839776
vt 0.343744 0.463912
vt 0.349098 0.463912
vt 0.295256 0.648754
vt 0.289902 0.648754
vt 0.086661 0.650141
vt 0.084734 0.648391
vt 0.456558 0.792468
vt 0.459161 0.792468
vt 0.459161 0.840957
vt 0.343744 0.458504
vt 0.349098 0.458504
vt 0.295256 0.654162
vt 0.289902 0.654162
vt 0.066879 0.671921
vt 0.064952 0.670171
vt 0.360346 0.811996
vt 0.362949 0.841418
vt 0.360346 0.841418
vt 0.343744 0.429082
vt 0.349098 0.429082
vt 0.295256 0.683585
vt 0.289902 0.683585
vt 0.063601 0.675530
vt 0.061674 0.673780
vt 0.397586 0.621469
vt 0.397586 0.626063
vt 0.343744 0.424206
vt 0.349098 0.424206
vt 0.295256 0.688460
vt 0.289902 0.688460
vt 0.043465 0.697701
vt 0.041538 0.695951
vt 0.391468 0.806642
vt 0.394071 0.806642
vt 0.394071 0.836592
vt 0.391468 0.836592
vt 0.343744 0.394256
vt 0.349098 0.394256
vt 0.289902 0.718411
vt 0.456782 0.419147
vt 0.456782 0.415089
vt 0.505270 0.415089
vt 0.505270 0.419147
vt 0.024742 0.734710
vt 0.023126 0.736489
vt 0.329609 0.796031
vt 0.329609 0.793627
vt 0.397586 0.670639
vt 0.402940 0.670639
vt 0.451428 0.351868
vt 0.456782 0.351868
vt 0.456782 0.362891
vt 0.451428 0.362891
vt 0.027849 0.737532
vt 0.026233 0.739312
vt 0.407998 0.795072
vt 0.410497 0.795072
vt 0.410497 0.843560
vt 0.407998 0.843560
vt 0.397586 0.666441
vt 0.402940 0.666441
vt 0.456782 0.367089
vt 0.451428 0.367089
vt 0.044168 0.752353
vt 0.042552 0.754133
vt 0.302318 0.812237
vt 0.304722 0.834281
vt 0.302318 0.834281
vt 0.397586 0.644397
vt 0.402940 0.644397
vt 0.456782 0.389133
vt 0.451428 0.389133
vt 0.046939 0.754870
vt 0.045323 0.756649
vt 0.461764 0.792468
vt 0.461764 0.840957
vt 0.397586 0.640653
vt 0.402940 0.640653
vt 0.456782 0.392877
vt 0.451428 0.392877
vt 0.063382 0.769804
vt 0.061766 0.771584
vt 0.299915 0.812237
vt 0.302318 0.812237
vt 0.302318 0.834449
vt 0.299915 0.834449
vt 0.397586 0.618441
vt 0.451428 0.415089
vt 0.066385 0.772533
vt 0.064770 0.774312
vt 0.402940 0.436377
vt 0.402940 0.432688
vt 0.451428 0.432688
vt 0.451428 0.436377
vt 0.397586 0.614383
vt 0.451428 0.419147
vt 0.084729 0.789193
vt 0.083113 0.790972
vt 0.292305 0.812237
vt 0.294708 0.837016
vt 0.292305 0.837016
vt 0.397586 0.589603
vt 0.402940 0.589603
vt 0.456782 0.443927
vt 0.451428 0.443927
vt 0.087613 0.791813
vt 0.085997 0.793592
vt 0.438488 0.795072
vt 0.438488 0.843560
vt 0.397586 0.585706
vt 0.402940 0.585706
vt 0.456782 0.447823
vt 0.451428 0.447823
vt 0.106061 0.808568
vt 0.104445 0.810347
vt 0.289902 0.812237
vt 0.292305 0.837158
vt 0.289902 0.837158
vt 0.397586 0.560785
vt 0.402940 0.560785
vt 0.456782 0.472745
vt 0.451428 0.472745
vt 0.109012 0.811247
vt 0.107396 0.813026
vt 0.343744 0.407209
vt 0.343744 0.410769
vt 0.397586 0.556800
vt 0.402940 0.556800
vt 0.456782 0.476730
vt 0.451428 0.476730
vt 0.128629 0.829065
vt 0.127014 0.830844
vt 0.387982 0.811996
vt 0.387982 0.838497
vt 0.385579 0.838497
vt 0.397586 0.530298
vt 0.456782 0.503232
vt 0.451428 0.503232
vt 0.131720 0.831872
vt 0.130104 0.833652
vt 0.464367 0.792468
vt 0.464367 0.840957
vt 0.397586 0.526123
vt 0.456782 0.507407
vt 0.451428 0.507407
vt 0.150200 0.848657
vt 0.148584 0.850436
vt 0.387982 0.811996
vt 0.390386 0.811996
vt 0.390386 0.836960
vt 0.387982 0.836960
vt 0.397586 0.501158
vt 0.402940 0.501158
vt 0.456782 0.532372
vt 0.451428 0.532372
vt 0.153064 0.851257
vt 0.151448 0.853037
vt 0.397586 0.526136
vt 0.397586 0.531763
vt 0.397586 0.497290
vt 0.402940 0.497290
vt 0.456782 0.536240
vt 0.451428 0.536240
vt 0.174043 0.870311
vt 0.172427 0.872091
vt 0.372962 0.811996
vt 0.375366 0.840336
vt 0.372962 0.840336
vt 0.397586 0.468950
vt 0.402940 0.468950
vt 0.456782 0.564580
vt 0.451428 0.564580
vt 0.176705 0.872730
vt 0.175089 0.874509
vt 0.505270 0.503232
vt 0.505270 0.507407
vt 0.397586 0.465353
vt 0.402940 0.465353
vt 0.456782 0.568177
vt 0.451428 0.568177
vt 0.198155 0.892211
vt 0.196539 0.893990
vt 0.370559 0.811996
vt 0.372962 0.840972
vt 0.370559 0.840972
vt 0.397586 0.436377
vt 0.456782 0.597153
vt 0.451428 0.597153
vt 0.200886 0.894691
vt 0.199270 0.896470
vt 0.464367 0.792468
vt 0.466971 0.792468
vt 0.466971 0.840957
vt 0.464367 0.840957
vt 0.397586 0.432688
vt 0.456782 0.600842
vt 0.451428 0.600842
vt 0.222617 0.914429
vt 0.221001 0.916208
vt 0.370559 0.841353
vt 0.368155 0.841353
vt 0.397586 0.403331
vt 0.402940 0.403331
vt 0.456782 0.630199
vt 0.451428 0.630199
vt 0.225268 0.916837
vt 0.223652 0.918616
vt 0.319438 0.763749
vt 0.322656 0.812237
vt 0.319438 0.812237
vt 0.397586 0.399750
vt 0.402940 0.399750
vt 0.456782 0.633780
vt 0.451428 0.633780
vt 0.245605 0.935307
vt 0.243989 0.937086
vt 0.382975 0.839468
vt 0.380572 0.839468
vt 0.397586 0.372278
vt 0.402940 0.372278
vt 0.456782 0.661252
vt 0.451428 0.661252
vt 0.440891 0.795072
vt 0.440891 0.843560
vt 0.263667 0.942060
vt 0.265516 0.943740
vt 0.320147 0.819381
vt 0.317648 0.819381
vt 0.317648 0.812237
vt 0.320147 0.812237
vt 0.319438 0.758395
vt 0.309890 0.758394
vt 0.302745 0.763749
vt 0.302745 0.758394
vt 0.343744 0.486603
vt 0.343744 0.491197
vt 0.280052 0.939591
vt 0.278255 0.941570
vt 0.357050 0.758154
vt 0.375490 0.758154
vt 0.375490 0.763508
vt 0.346416 0.822465
vt 0.343744 0.822465
vt 0.282308 0.941640
vt 0.280511 0.943618
vt 0.354002 0.758154
vt 0.378537 0.758154
vt 0.378537 0.763508
vt 0.443295 0.795072
vt 0.443295 0.843560
vt 0.440891 0.843560
vt 0.314976 0.812237
vt 0.317648 0.812237
vt 0.317648 0.819502
vt 0.314976 0.819502
vt 0.350954 0.822465
vt 0.353358 0.822465
vt 0.353358 0.824963
vt 0.350954 0.824963
vt 0.353370 0.823261
vt 0.356042 0.823261
vt 0.356042 0.826254
vt 0.353370 0.826254
vt 0.325394 0.821542
vt 0.327997 0.821542
vt 0.327997 0.825020
vt 0.325394 0.825020
vt 0.317579 0.819502
vt 0.317579 0.823062
vt 0.314976 0.823062
vt 0.467047 0.679163
vt 0.469650 0.679163
vt 0.469650 0.683046
vt 0.467047 0.683046
vt 0.464444 0.679163
vt 0.467047 0.683497
vt 0.464444 0.683497
vt 0.461841 0.679163
vt 0.464444 0.683757
vt 0.461841 0.683757
vt 0.456634 0.679163
vt 0.459237 0.679163
vt 0.459237 0.683966
vt 0.456634 0.683966
vt 0.322750 0.817591
vt 0.325353 0.817591
vt 0.325353 0.822802
vt 0.322750 0.822802
vt 0.320147 0.812237
vt 0.322750 0.812237
vt 0.322750 0.817864
vt 0.320147 0.817864
vt 0.454031 0.679163
vt 0.454031 0.684092
vt 0.451428 0.684092
vt 0.325394 0.812237
vt 0.327997 0.812237
vt 0.327997 0.817645
vt 0.325394 0.817645
vt 0.454031 0.679163
vt 0.456634 0.684038
vt 0.454031 0.684038
vt 0.461841 0.679163
vt 0.461841 0.683914
vt 0.459237 0.683914
vt 0.469650 0.679163
vt 0.472053 0.679163
vt 0.472053 0.683361
vt 0.469650 0.683361
vt 0.317648 0.819381
vt 0.320052 0.819381
vt 0.320052 0.823125
vt 0.317648 0.823125
vt 0.474457 0.679163
vt 0.476860 0.683221
vt 0.474457 0.683221
vt 0.325394 0.817645
vt 0.327798 0.817645
vt 0.327798 0.821542
vt 0.325394 0.821542
vt 0.481908 0.683149
vt 0.479505 0.683149
vt 0.474457 0.683339
vt 0.472053 0.683339
vt 0.320147 0.817864
vt 0.322550 0.817864
vt 0.322550 0.821732
vt 0.320147 0.821732
vt 0.346147 0.822465
vt 0.348551 0.822465
vt 0.348551 0.826062
vt 0.346147 0.826062
vt 0.486956 0.679163
vt 0.486956 0.682852
vt 0.484553 0.682852
vt 0.348551 0.822465
vt 0.350954 0.822465
vt 0.350954 0.826046
vt 0.348551 0.826046
vt 0.343744 0.822465
vt 0.346147 0.822465
vt 0.346147 0.826144
vt 0.343744 0.826144
vt 0.325248 0.826020
vt 0.322750 0.826020
vt 0.322750 0.822802
vt 0.325248 0.822802
vt 0.314976 0.823062
vt 0.317648 0.823062
vt 0.317648 0.826109
vt 0.314976 0.826109
vt 0.445698 0.795072
vt 0.445698 0.843560
vt 0.343744 0.616045
vt 0.343744 0.620974
vt 0.469574 0.792468
vt 0.469574 0.840957
vt 0.472177 0.792468
vt 0.472177 0.840957
vt 0.505270 0.630199
vt 0.505270 0.633780
vt 0.397586 0.389504
vt 0.397586 0.394256
vt 0.391468 0.758153
vt 0.394141 0.758153
vt 0.394141 0.806642
vt 0.448102 0.795072
vt 0.448102 0.843560
vt 0.343744 0.517242
vt 0.343744 0.522044
vt 0.378537 0.811996
vt 0.375490 0.811996
vt 0.504821 0.684265
vt 0.504821 0.732753
vt 0.502417 0.732753
vt 0.472177 0.792468
vt 0.474780 0.792468
vt 0.474780 0.840957
vt 0.472177 0.840957
vt 0.505270 0.532372
vt 0.505270 0.536240
vt 0.397586 0.491693
vt 0.397586 0.496622
vt 0.477383 0.792468
vt 0.477383 0.840957
vt 0.474780 0.840957
vt 0.343744 0.431845
vt 0.343744 0.435728
vt 0.502417 0.732753
vt 0.504821 0.732753
vt 0.504821 0.781241
vt 0.502417 0.781241
vt 0.451428 0.399750
vt 0.451428 0.403331
vt 0.477383 0.792468
vt 0.479986 0.792468
vt 0.479986 0.840957
vt 0.477383 0.840957
vt 0.505270 0.443927
vt 0.505270 0.447823
vt 0.397586 0.590622
vt 0.397586 0.595425
vt 0.479986 0.792468
vt 0.482589 0.792468
vt 0.482589 0.840957
vt 0.479986 0.840957
vt 0.505270 0.362891
vt 0.505270 0.367089
vt 0.394141 0.758153
vt 0.396813 0.758153
vt 0.396813 0.806642
vt 0.394141 0.806642
vt 0.329609 0.796031
vt 0.332013 0.796031
vt 0.332013 0.844519
vt 0.329609 0.844519
vt 0.451428 0.497290
vt 0.451428 0.501158
vt 0.332013 0.796031
vt 0.334416 0.796031
vt 0.334416 0.844519
vt 0.332013 0.844519
vt 0.397586 0.676938
vt 0.397586 0.680821
vt 0.485192 0.792468
vt 0.485192 0.840957
vt 0.346737 0.811996
vt 0.343744 0.811996
vt 0.334416 0.796031
vt 0.336820 0.796031
vt 0.336820 0.844519
vt 0.334416 0.844519
vt 0.451428 0.585706
vt 0.451428 0.589603
vt 0.336820 0.796031
vt 0.339223 0.796031
vt 0.339223 0.844519
vt 0.336820 0.844519
vt 0.312293 0.812237
vt 0.309890 0.812237
vt 0.343744 0.648754
vt 0.343744 0.654162
vt 0.487795 0.792468
vt 0.487795 0.840957
vt 0.487795 0.792468
vt 0.490398 0.792468
vt 0.490398 0.840957
vt 0.487795 0.840957
vt 0.505270 0.661252
vt 0.505270 0.664931
vt 0.451428 0.666441
vt 0.451428 0.670639
vt 0.448679 0.792468
vt 0.451352 0.792468
vt 0.451352 0.840957
vt 0.448679 0.840957
vt 0.341627 0.796031
vt 0.341627 0.844519
vt 0.343744 0.549655
vt 0.343744 0.554867
vt 0.451428 0.354367
vt 0.503414 0.792468
vt 0.505817 0.792468
vt 0.505817 0.840957
vt 0.503414 0.840957
vt 0.493001 0.792468
vt 0.493001 0.840957
vt 0.505270 0.564580
vt 0.505270 0.568177
vt 0.397586 0.458504
vt 0.397586 0.463912
vt 0.504821 0.684265
vt 0.507224 0.684265
vt 0.507224 0.732753
vt 0.504821 0.732753
vt 0.343744 0.457747
vt 0.343744 0.462081
vt 0.507224 0.781241
vt 0.451428 0.368598
vt 0.451428 0.372278
vt 0.495605 0.792468
vt 0.495605 0.840957
vt 0.412995 0.795072
vt 0.412995 0.843560
vt 0.505270 0.472745
vt 0.505270 0.476730
vt 0.397586 0.557799
vt 0.397586 0.563011
vt 0.498208 0.792468
vt 0.498208 0.840957
vt 0.495605 0.840957
vt 0.343744 0.384491
vt 0.343744 0.387969
vt 0.505270 0.351868
vt 0.507674 0.351868
vt 0.507674 0.400357
vt 0.505270 0.400357
vt 0.451428 0.465353
vt 0.451428 0.468950
vt 0.507674 0.448845
vt 0.505270 0.448845
vt 0.500811 0.792468
vt 0.500811 0.840957
vt 0.498208 0.840957
vt 0.505270 0.448845
vt 0.507674 0.497333
vt 0.505270 0.497333
vt 0.505270 0.389133
vt 0.505270 0.392877
vt 0.397586 0.650585
vt 0.397586 0.654919
vt 0.500811 0.792468
vt 0.500811 0.840957
vt 0.505270 0.497333
vt 0.507674 0.497333
vt 0.507674 0.545821
vt 0.505270 0.545821
vt 0.451428 0.556800
vt 0.451428 0.560785
vt 0.505270 0.545821
vt 0.507674 0.545821
vt 0.507674 0.594309
vt 0.505270 0.594309
vt 0.343744 0.683585
vt 0.343744 0.688460
vt 0.397586 0.724697
vt 0.397586 0.728176
vt 0.302745 0.812237
vt 0.299528 0.812237
vt 0.397586 0.795072
vt 0.400189 0.795072
vt 0.400189 0.843560
vt 0.397586 0.843560
vt 0.402792 0.795072
vt 0.402792 0.843560
vt 0.451428 0.640653
vt 0.451428 0.644397
vt 0.507674 0.642797
vt 0.505270 0.642797
vt 0.343744 0.580904
vt 0.343744 0.586531
vt 0.405395 0.795072
vt 0.405395 0.843560
vt 0.412995 0.795072
vt 0.415493 0.795072
vt 0.415493 0.843560
vt 0.412995 0.843560
vt 0.505270 0.597153
vt 0.505270 0.600842
vt 0.397586 0.424206
vt 0.397586 0.429082
s 0
usemtl Material.012
f 1/1/1 2/2/1 4/3/1 3/4/1
f 18/5/2 17/6/2 14/7/2 13/8/2
f 7/9/3 8/10/3 6/11/3 5/12/3
f 60/13/4 58/14/4 2/15/4 1/16/4
f 9/17/5 7/18/5 5/19/5 11/20/5
f 59/21/2 4/22/2 2/23/2 58/24/2
f 8/25/2 10/26/2 12/27/2 6/28/2
f 41/29/5 9/17/5 11/20/5 44/30/5
f 5/31/4 6/32/4 12/33/4 11/34/4
f 41/35/6 43/36/6 10/37/6 9/38/6
f 16/16/6 13/15/6 14/39/6 15/40/6
f 20/41/5 19/42/5 16/43/5 15/44/5
f 19/45/1 18/46/1 13/47/1 16/48/1
f 26/49/2 25/50/2 23/51/2 21/52/2
f 169/53/3 172/54/3 20/55/3 17/56/3
f 170/57/1 171/58/1 18/46/1 19/45/1
f 172/59/5 170/60/5 19/42/5 20/41/5
f 171/61/2 169/62/2 17/6/2 18/5/2
f 23/63/3 24/64/3 22/65/3 21/66/3
f 190/67/6 194/68/6 347/69/6 346/70/6
f 27/71/6 26/72/6 21/73/6 22/74/6
f 34/75/2 33/76/2 31/77/2 30/78/2
f 257/79/4 260/80/4 28/81/4 25/82/4
f 258/83/6 259/84/6 26/72/6 27/71/6
f 260/85/5 258/86/5 27/87/5 28/88/5
f 259/89/2 257/90/2 25/50/2 26/49/2
f 31/91/4 32/92/4 29/93/4 30/94/4
f 36/95/5 35/96/5 29/97/5 32/98/5
f 168/99/4 166/100/4 334/101/4 333/102/4
f 33/103/1 36/104/1 32/105/1 31/106/1
f 265/107/1 268/108/1 36/104/1 33/103/1
f 266/109/3 267/110/3 34/111/3 35/112/3
f 268/19/5 266/113/5 35/96/5 36/95/5
f 267/114/2 265/115/2 33/76/2 34/75/2
f 39/116/3 40/117/3 38/118/3 37/119/3
f 277/120/6 278/121/6 40/122/6 39/123/6
f 280/124/4 279/125/4 37/126/4 38/127/4
f 278/128/2 280/129/2 38/130/2 40/131/2
f 45/132/6 47/133/6 43/36/6 41/35/6
f 41/134/3 44/135/3 50/136/3 51/137/3
f 10/26/2 43/138/2 42/139/2 12/27/2
f 11/34/4 12/33/4 42/140/4 44/141/4
f 53/142/5 45/143/5 48/144/5 56/145/5
f 53/146/6 55/147/6 47/133/6 45/132/6
f 43/138/2 47/148/2 46/149/2 42/139/2
f 44/141/4 42/140/4 46/150/4 48/151/4
f 52/152/5 51/153/5 50/154/5 49/155/5
f 44/141/4 48/151/4 49/156/4 50/157/4
f 48/135/1 45/158/1 52/159/1 49/136/1
f 45/132/6 41/35/6 51/160/6 52/161/6
f 57/162/6 59/163/6 55/147/6 53/146/6
f 53/164/3 56/165/3 62/166/3 63/167/3
f 47/148/2 55/168/2 54/169/2 46/149/2
f 48/151/4 46/150/4 54/170/4 56/171/4
f 3/172/5 57/173/5 60/174/5 1/175/5
f 3/176/6 4/177/6 59/163/6 57/162/6
f 55/168/2 59/21/2 58/24/2 54/169/2
f 56/171/4 54/170/4 58/14/4 60/13/4
f 64/178/5 63/179/5 62/180/5 61/181/5
f 56/171/4 60/13/4 61/182/4 62/183/4
f 60/165/1 57/184/1 64/185/1 61/166/1
f 57/162/6 53/146/6 63/186/6 64/187/6
f 10/26/2 8/25/2 67/188/2 65/189/2
f 7/18/5 9/17/5 68/190/5 66/191/5
f 9/192/1 10/193/1 65/194/1 68/195/1
f 8/10/3 7/9/3 66/196/3 67/197/3
f 65/189/2 67/188/2 69/198/2 71/199/2
f 72/200/3 66/196/3 74/201/3 73/202/3
f 68/195/1 65/194/1 71/203/1 70/204/1
f 67/197/3 66/196/3 72/200/3 69/205/3
f 74/206/5 75/207/5 76/208/5 73/209/5
f 70/210/6 72/211/6 73/212/6 76/213/6
f 68/195/1 70/204/1 76/214/1 75/215/1
f 66/216/4 68/210/4 75/213/4 74/217/4
f 71/199/2 69/198/2 77/218/2 79/219/2
f 72/220/5 70/221/5 78/222/5 80/223/5
f 70/204/1 71/203/1 79/224/1 78/225/1
f 69/205/3 72/200/3 80/226/3 77/227/3
f 79/219/2 77/218/2 81/228/2 83/229/2
f 277/120/6 39/123/6 285/230/6 287/231/6
f 78/225/1 79/224/1 83/232/1 82/233/1
f 77/227/3 80/226/3 84/234/3 81/235/3
f 83/229/2 81/228/2 85/236/2 87/237/2
f 84/238/5 82/239/5 86/240/5 88/241/5
f 82/233/1 83/232/1 87/242/1 86/243/1
f 81/235/3 84/234/3 88/244/3 85/245/3
f 87/237/2 85/236/2 89/246/2 91/247/2
f 114/100/6 116/248/6 304/249/6 307/101/6
f 86/243/1 87/242/1 91/250/1 90/251/1
f 85/245/3 88/244/3 92/252/3 89/253/3
f 91/247/2 89/246/2 93/254/2 95/255/2
f 92/256/5 90/257/5 94/258/5 96/259/5
f 90/251/1 91/250/1 95/260/1 94/261/1
f 89/253/3 92/252/3 96/262/3 93/263/3
f 95/255/2 93/254/2 97/264/2 99/265/2
f 275/266/4 270/267/4 385/268/4 384/269/4
f 94/261/1 95/260/1 99/270/1 98/271/1
f 93/263/3 96/262/3 100/272/3 97/273/3
f 99/265/2 97/264/2 101/274/2 103/275/2
f 100/276/5 98/256/5 102/277/5 104/278/5
f 98/271/1 99/270/1 103/279/1 102/280/1
f 97/273/3 100/272/3 104/281/3 101/282/3
f 103/275/2 101/274/2 105/283/2 107/284/2
f 86/243/1 90/251/1 295/285/1 294/286/1
f 102/280/1 103/279/1 107/287/1 106/288/1
f 101/282/3 104/281/3 108/289/3 105/290/3
f 107/284/2 105/283/2 109/291/2 111/292/2
f 108/293/5 106/294/5 110/295/5 112/296/5
f 106/288/1 107/287/1 111/297/1 110/298/1
f 105/290/3 108/289/3 112/299/3 109/300/3
f 111/292/2 109/291/2 113/301/2 115/302/2
f 172/54/3 168/303/3 333/304/3 332/305/3
f 110/298/1 111/297/1 115/306/1 114/307/1
f 109/300/3 112/299/3 116/308/3 113/309/3
f 115/302/2 113/301/2 117/310/2 119/311/2
f 116/312/5 114/313/5 118/314/5 120/315/5
f 114/307/1 115/306/1 119/316/1 118/317/1
f 113/309/3 116/308/3 120/318/3 117/319/3
f 119/311/2 117/310/2 121/320/2 123/321/2
f 242/211/3 244/322/3 368/323/3 371/324/3
f 118/317/1 119/316/1 123/325/1 122/326/1
f 117/319/3 120/318/3 124/327/3 121/328/3
f 123/321/2 121/320/2 125/329/2 127/330/2
f 124/331/5 122/332/5 126/333/5 128/334/5
f 122/326/1 123/325/1 127/335/1 126/336/1
f 121/328/3 124/327/3 128/337/3 125/338/3
f 127/330/2 125/329/2 129/339/2 131/340/2
f 214/341/6 218/342/6 359/343/6 358/344/6
f 126/336/1 127/335/1 131/345/1 130/346/1
f 125/338/3 128/337/3 132/347/3 129/348/3
f 131/340/2 129/339/2 133/349/2 135/350/2
f 132/313/5 130/351/5 134/352/5 136/353/5
f 130/346/1 131/345/1 135/354/1 134/355/1
f 129/348/3 132/347/3 136/356/3 133/357/3
f 135/350/2 133/349/2 137/358/2 139/359/2
f 39/116/3 37/119/3 286/360/3 285/361/3
f 134/355/1 135/354/1 139/362/1 138/363/1
f 133/357/3 136/356/3 140/364/3 137/365/3
f 139/359/2 137/358/2 141/366/2 143/367/2
f 140/368/5 138/369/5 142/370/5 144/371/5
f 138/363/1 139/362/1 143/372/1 142/373/1
f 137/365/3 140/364/3 144/374/3 141/375/3
f 143/367/2 141/366/2 145/376/2 147/377/2
f 192/322/1 190/378/1 346/379/1 345/380/1
f 142/373/1 143/372/1 147/381/1 146/382/1
f 141/375/3 144/374/3 148/383/3 145/384/3
f 147/377/2 145/376/2 149/385/2 151/386/2
f 148/387/5 146/388/5 150/389/5 152/390/5
f 146/382/1 147/381/1 151/391/1 150/392/1
f 145/384/3 148/383/3 152/393/3 149/394/3
f 151/386/2 149/385/2 153/395/2 155/396/2
f 138/397/6 140/398/6 316/399/6 319/249/6
f 150/392/1 151/391/1 155/400/1 154/401/1
f 149/394/3 152/393/3 156/402/3 153/403/3
f 155/396/2 153/395/2 157/404/2 159/405/2
f 156/406/5 154/387/5 158/407/5 160/408/5
f 154/401/1 155/400/1 159/409/1 158/410/1
f 153/403/3 156/402/3 160/411/3 157/412/3
f 159/405/2 157/404/2 161/413/2 163/414/2
f 110/298/1 114/307/1 307/415/1 306/416/1
f 158/410/1 159/409/1 163/417/1 162/418/1
f 157/412/3 160/411/3 164/419/3 161/420/3
f 163/414/2 161/413/2 165/421/2 167/422/2
f 164/423/5 162/424/5 166/425/5 168/426/5
f 162/418/1 163/417/1 167/427/1 166/428/1
f 161/420/3 164/419/3 168/303/3 165/429/3
f 167/422/2 165/421/2 169/62/2 171/61/2
f 196/430/4 192/431/4 345/432/4 344/433/4
f 166/428/1 167/427/1 171/58/1 170/57/1
f 165/429/3 168/303/3 172/54/3 169/53/3
f 14/7/2 17/6/2 175/434/2 173/435/2
f 20/41/5 15/44/5 176/436/5 174/437/5
f 15/40/6 14/39/6 173/438/6 176/439/6
f 17/440/4 20/441/4 174/442/4 175/443/4
f 173/435/2 175/434/2 177/444/2 179/445/2
f 266/446/4 268/447/4 380/448/4 383/449/4
f 176/439/6 173/438/6 179/450/6 178/451/6
f 175/443/4 174/442/4 180/452/4 177/453/4
f 179/445/2 177/444/2 181/454/2 183/455/2
f 180/456/5 178/238/5 182/457/5 184/458/5
f 178/451/6 179/450/6 183/459/6 182/460/6
f 177/453/4 180/452/4 184/461/4 181/462/4
f 183/455/2 181/454/2 185/463/2 187/464/2
f 88/398/4 86/465/4 294/466/4 293/399/4
f 182/460/6 183/459/6 187/467/6 186/468/6
f 181/462/4 184/461/4 188/469/4 185/470/4
f 187/464/2 185/463/2 189/471/2 191/472/2
f 188/473/5 186/474/5 190/475/5 192/476/5
f 186/468/6 187/467/6 191/477/6 190/67/6
f 185/470/4 188/469/4 192/431/4 189/478/4
f 191/472/2 189/471/2 193/479/2 195/480/2
f 238/481/6 242/482/6 371/483/6 370/484/6
f 190/67/6 191/477/6 195/485/6 194/68/6
f 189/478/4 192/431/4 196/430/4 193/486/4
f 195/480/2 193/479/2 197/487/2 199/488/2
f 196/489/5 194/276/5 198/490/5 200/491/5
f 194/68/6 195/485/6 199/492/6 198/493/6
f 193/486/4 196/430/4 200/494/4 197/495/4
f 199/488/2 197/487/2 201/496/2 203/497/2
f 216/378/1 214/498/1 358/499/1 357/379/1
f 198/493/6 199/492/6 203/500/6 202/501/6
f 197/495/4 200/494/4 204/502/4 201/503/4
f 203/497/2 201/496/2 205/504/2 207/505/2
f 204/506/5 202/489/5 206/507/5 208/508/5
f 202/501/6 203/500/6 207/509/6 206/510/6
f 201/503/4 204/502/4 208/511/4 205/512/4
f 207/505/2 205/504/2 209/513/2 211/514/2
f 92/252/3 88/244/3 293/515/3 292/516/3
f 206/510/6 207/509/6 211/517/6 210/518/6
f 205/512/4 208/511/4 212/519/4 209/520/4
f 211/514/2 209/513/2 213/521/2 215/522/2
f 212/294/5 210/523/5 214/524/5 216/525/5
f 210/518/6 211/517/6 215/526/6 214/341/6
f 209/520/4 212/519/4 216/527/4 213/528/4
f 215/522/2 213/521/2 217/529/2 219/530/2
f 162/465/6 164/531/6 328/532/6 331/466/6
f 214/341/6 215/526/6 219/533/6 218/342/6
f 213/528/4 216/527/4 220/534/4 217/535/4
f 219/530/2 217/529/2 221/536/2 223/537/2
f 220/538/5 218/539/5 222/540/5 224/541/5
f 218/342/6 219/533/6 223/542/6 222/543/6
f 217/535/4 220/534/4 224/544/4 221/545/4
f 223/537/2 221/536/2 225/546/2 227/547/2
f 134/355/1 138/363/1 319/548/1 318/549/1
f 222/543/6 223/542/6 227/550/6 226/551/6
f 221/545/4 224/544/4 228/552/4 225/553/4
f 227/547/2 225/546/2 229/554/2 231/555/2
f 228/556/5 226/312/5 230/557/5 232/558/5
f 226/551/6 227/550/6 231/559/6 230/560/6
f 225/553/4 228/552/4 232/561/4 229/562/4
f 231/555/2 229/554/2 233/563/2 235/564/2
f 220/534/4 216/527/4 357/565/4 356/566/4
f 230/560/6 231/559/6 235/567/6 234/568/6
f 229/562/4 232/561/4 236/569/4 233/570/4
f 235/564/2 233/563/2 237/571/2 239/572/2
f 236/573/5 234/556/5 238/574/5 240/575/5
f 234/568/6 235/567/6 239/576/6 238/481/6
f 233/570/4 236/569/4 240/577/4 237/578/4
f 239/572/2 237/571/2 241/579/2 243/580/2
f 112/581/4 110/582/4 306/583/4 305/584/4
f 238/481/6 239/576/6 243/585/6 242/482/6
f 237/578/4 240/577/4 244/586/4 241/587/4
f 243/580/2 241/579/2 245/588/2 247/589/2
f 244/332/5 242/573/5 246/590/5 248/591/5
f 242/482/6 243/585/6 247/592/6 246/593/6
f 241/587/4 244/586/4 248/594/4 245/595/4
f 247/589/2 245/588/2 249/596/2 251/597/2
f 264/598/3 266/109/3 383/599/3 382/600/3
f 246/593/6 247/592/6 251/601/6 250/602/6
f 245/595/4 248/594/4 252/603/4 249/604/4
f 251/597/2 249/596/2 253/605/2 255/606/2
f 252/351/5 250/293/5 254/607/5 256/608/5
f 250/602/6 251/601/6 255/609/6 254/610/6
f 249/604/4 252/603/4 256/611/4 253/612/4
f 255/606/2 253/605/2 257/90/2 259/89/2
f 240/498/1 238/613/1 370/614/1 369/499/1
f 254/610/6 255/609/6 259/84/6 258/83/6
f 253/612/4 256/611/4 260/80/4 257/79/4
f 23/51/2 25/50/2 263/615/2 261/616/2
f 28/617/5 24/618/5 264/619/5 262/620/5
f 24/64/3 23/63/3 261/621/3 264/598/3
f 25/622/1 28/65/1 262/623/1 263/624/1
f 261/616/2 263/615/2 265/115/2 267/114/2
f 116/308/3 112/299/3 305/625/3 304/626/3
f 264/598/3 261/621/3 267/110/3 266/109/3
f 263/624/1 262/623/1 268/108/1 265/107/1
f 34/75/2 30/78/2 272/627/2 271/628/2
f 30/94/4 29/93/4 270/267/4 272/629/4
f 35/92/6 34/91/6 271/630/6 269/631/6
f 29/97/5 35/96/5 269/632/5 270/633/5
f 271/628/2 272/627/2 276/634/2 274/635/2
f 272/629/4 270/267/4 275/266/4 276/636/4
f 269/631/6 271/630/6 274/637/6 273/638/6
f 186/613/3 188/639/3 340/640/3 343/641/3
f 274/635/2 276/634/2 280/129/2 278/128/2
f 276/636/4 275/266/4 279/125/4 280/124/4
f 273/638/6 274/637/6 278/121/6 277/120/6
f 275/642/5 273/643/5 277/644/5 279/645/5
f 284/646/5 283/647/5 281/648/5 282/649/5
f 388/650/5 287/651/5 285/652/5 286/653/5
f 289/654/5 290/655/5 291/656/5 288/657/5
f 293/645/5 294/658/5 295/659/5 292/660/5
f 297/661/5 298/662/5 299/663/5 296/664/5
f 301/665/5 302/661/5 303/666/5 300/667/5
f 305/668/5 306/665/5 307/669/5 304/670/5
f 309/671/5 310/672/5 311/673/5 308/674/5
f 313/675/5 314/676/5 315/677/5 312/678/5
f 317/679/5 318/680/5 319/681/5 316/682/5
f 321/82/5 322/683/5 323/684/5 320/685/5
f 325/686/5 326/687/5 327/688/5 324/689/5
f 329/690/5 330/671/5 331/691/5 328/692/5
f 333/672/5 334/693/5 335/694/5 332/695/5
f 337/696/5 338/697/5 339/698/5 336/699/5
f 341/700/5 342/701/5 343/702/5 340/703/5
f 345/704/5 346/181/5 347/705/5 344/706/5
f 349/707/5 350/708/5 351/709/5 348/710/5
f 353/178/5 354/155/5 355/711/5 352/712/5
f 357/697/5 358/704/5 359/713/5 356/714/5
f 361/715/5 362/716/5 363/717/5 360/718/5
f 365/719/5 366/720/5 367/721/5 364/722/5
f 369/152/5 370/723/5 371/724/5 368/725/5
f 373/726/5 374/727/5 375/728/5 372/729/5
f 377/730/5 378/731/5 379/732/5 376/733/5
f 381/734/5 382/735/5 383/736/5 380/737/5
f 385/738/5 386/739/5 387/740/5 384/741/5
f 218/639/3 220/742/3 356/743/3 359/640/3
f 148/383/3 144/374/3 321/744/3 320/745/3
f 90/582/6 92/746/6 292/747/6 295/583/6
f 144/746/4 142/748/4 322/749/4 321/747/4
f 252/603/4 248/594/4 373/750/4 372/751/4
f 166/428/1 170/57/1 335/752/1 334/753/1
f 270/754/1 269/755/1 386/756/1 385/423/1
f 194/742/3 196/757/3 344/758/3 347/743/3
f 124/327/3 120/318/3 309/759/3 308/760/3
f 269/631/6 273/638/6 387/761/6 386/762/6
f 248/172/1 246/763/1 374/764/1 373/765/1
f 120/766/4 118/767/4 310/768/4 309/769/4
f 228/552/4 224/544/4 361/770/4 360/771/4
f 142/373/1 146/382/1 323/772/1 322/773/1
f 170/767/6 172/774/6 332/775/6 335/776/6
f 100/272/3 96/262/3 297/777/3 296/778/3
f 224/779/1 222/780/1 362/781/1 361/782/1
f 246/593/6 250/602/6 375/783/6 374/784/6
f 96/785/4 94/786/4 298/787/4 297/788/4
f 204/502/4 200/494/4 349/789/4 348/790/4
f 118/317/1 122/326/1 311/791/1 310/792/1
f 146/793/6 148/794/6 320/795/6 323/796/6
f 180/452/4 174/442/4 337/797/4 336/798/4
f 273/799/3 275/800/3 384/801/3 387/802/3
f 200/803/1 198/804/1 350/805/1 349/806/1
f 222/543/6 226/551/6 363/807/6 362/808/6
f 250/809/3 252/810/3 372/811/3 375/812/3
f 94/261/1 98/271/1 299/813/1 298/814/1
f 122/794/6 124/815/6 308/816/6 311/795/6
f 37/126/4 279/125/4 388/817/4 286/818/4
f 174/819/1 176/820/1 338/821/1 337/822/1
f 198/493/6 202/501/6 351/823/6 350/824/6
f 226/825/3 228/826/3 360/827/3 363/828/3
f 22/65/3 24/64/3 282/829/3 281/830/3
f 156/402/3 152/393/3 325/831/3 324/832/3
f 98/815/6 100/833/6 296/834/6 299/816/6
f 152/835/4 150/836/4 326/837/4 325/838/4
f 260/80/4 256/611/4 377/839/4 376/840/4
f 176/439/6 178/451/6 339/841/6 338/842/6
f 279/843/1 277/844/1 287/845/1 388/846/1
f 202/826/3 204/847/3 348/848/3 351/827/3
f 132/347/3 128/337/3 313/849/3 312/850/3
f 27/71/6 22/74/6 281/440/6 283/851/6
f 256/852/1 254/853/1 378/854/1 377/855/1
f 128/836/4 126/856/4 314/857/4 313/837/4
f 236/569/4 232/561/4 365/858/4 364/859/4
f 150/392/1 154/401/1 327/860/1 326/861/1
f 178/862/3 180/863/3 336/864/3 339/865/3
f 108/289/3 104/281/3 301/866/3 300/867/3
f 232/780/1 230/864/1 366/868/1 365/781/1
f 254/610/6 258/83/6 379/869/6 378/870/6
f 104/856/4 102/871/4 302/872/4 301/857/4
f 24/447/4 28/873/4 284/874/4 282/448/4
f 212/519/4 208/511/4 353/875/4 352/876/4
f 126/336/1 130/346/1 315/877/1 314/878/1
f 154/871/6 156/879/6 324/880/6 327/881/6
f 84/234/3 80/226/3 289/882/3 288/883/3
f 208/884/1 206/885/1 354/886/1 353/887/1
f 230/560/6 234/568/6 367/888/6 366/889/6
f 28/887/1 27/886/1 283/890/1 284/891/1
f 80/879/4 78/892/4 290/893/4 289/894/4
f 258/895/3 260/890/3 376/896/3 379/897/3
f 188/469/4 184/461/4 341/898/4 340/899/4
f 102/280/1 106/288/1 303/900/1 302/901/1
f 130/902/6 132/852/6 312/855/6 315/903/6
f 184/904/1 182/905/1 342/906/1 341/907/1
f 206/510/6 210/518/6 355/908/6 354/909/6
f 234/910/3 236/911/3 364/912/3 367/913/3
f 164/419/3 160/411/3 329/914/3 328/915/3
f 78/225/1 82/233/1 291/916/1 290/917/1
f 268/108/1 262/623/1 381/918/1 380/919/1
f 106/920/6 108/921/6 300/922/6 303/923/6
f 160/921/4 158/924/4 330/925/4 329/922/4
f 182/460/6 186/468/6 343/926/6 342/927/6
f 210/913/3 212/912/3 352/928/3 355/929/3
f 140/364/3 136/356/3 317/930/3 316/931/3
f 82/924/6 84/932/6 288/933/6 291/925/6
f 262/934/6 264/935/6 382/936/6 381/937/6
f 136/932/4 134/446/4 318/449/4 317/933/4
f 244/586/4 240/577/4 369/938/4 368/939/4
f 158/410/1 162/418/1 331/940/1 330/941/1
