# Blender 4.1.0
# www.blender.org
mtllib WallOne.mtl
o Left_Wall_One
v -32.268188 -0.752020 35.423397
v -32.268188 37.464294 35.423397
v -32.268188 -0.752020 18.898193
v -32.268188 37.464294 18.898193
v -8.055944 -0.752020 35.423397
v -8.055944 37.464294 35.423397
v -8.055944 -0.752020 18.898193
v -8.055944 37.464294 18.898193
v -16.188463 -0.752020 18.898193
v -16.188463 37.464294 18.898193
v -16.188463 -0.752020 35.423397
v -16.188463 37.464294 35.423397
v -24.228325 -0.752020 18.898193
v -24.228325 37.464294 35.423397
v -24.228325 37.464294 18.898193
v -24.228325 -0.752020 35.423397
v -24.228325 -0.752020 79.787453
v -16.188463 -0.752020 79.787453
v -16.188463 37.464294 79.787453
v -24.228325 37.464294 79.787453
vn -1.0000 -0.0000 -0.0000
vn -0.0000 -0.0000 -1.0000
vn 1.0000 -0.0000 -0.0000
vn -0.0000 -0.0000 1.0000
vn -0.0000 -1.0000 -0.0000
vn -0.0000 1.0000 -0.0000
vt 0.582970 0.805876
vt 0.360298 0.902162
vt 0.360298 0.805876
vt 0.582970 0.004148
vt 0.360298 0.051533
vt 0.360298 0.004148
vt 0.582970 0.051533
vt 0.360298 0.147818
vt 0.582970 0.759031
vt 0.360298 0.759031
vt 0.005521 0.406310
vt 0.101807 0.453695
vt 0.005521 0.453695
vt 0.937747 0.547385
vt 0.841461 0.500540
vt 0.937747 0.500540
vt 0.937747 0.453695
vt 0.841461 0.406310
vt 0.937747 0.406310
vt 0.101807 0.500540
vt 0.005521 0.500540
vt 0.582970 0.147818
vt 0.360298 0.195203
vt 0.582970 0.949007
vt 0.360298 0.995852
vt 0.360298 0.949007
vt 0.582970 0.902162
vt 0.101807 0.547385
vt 0.005521 0.547385
vt 0.841461 0.453695
vt 0.582970 0.500540
vt 0.582969 0.453695
vt 0.360298 0.500540
vt 0.360298 0.453695
vt 0.582970 0.195203
vt 0.101807 0.406310
vt 0.841461 0.547385
vt 0.582970 0.995852
s 0
usemtl Material.001
f 2/1/1 3/2/1 1/3/1
f 10/4/2 7/5/2 9/6/2
f 8/7/3 5/8/3 7/5/3
f 14/9/4 1/3/4 16/10/4
f 7/11/5 11/12/5 9/13/5
f 4/14/6 14/15/6 15/16/6
f 10/17/6 6/18/6 8/19/6
f 9/13/5 16/20/5 13/21/5
f 6/22/4 11/23/4 5/8/4
f 15/24/2 9/25/2 13/26/2
f 4/27/2 13/26/2 3/2/2
f 13/21/5 1/28/5 3/29/5
f 15/16/6 12/30/6 10/17/6
f 16/10/1 20/31/1 14/9/1
f 19/32/4 17/33/4 18/34/4
f 11/12/5 17/33/5 16/20/5
f 14/15/6 19/32/6 12/30/6
f 12/35/3 18/34/3 11/23/3
f 2/1/1 4/27/1 3/2/1
f 10/4/2 8/7/2 7/5/2
f 8/7/3 6/22/3 5/8/3
f 14/9/4 2/1/4 1/3/4
f 7/11/5 5/36/5 11/12/5
f 4/14/6 2/37/6 14/15/6
f 10/17/6 12/30/6 6/18/6
f 9/13/5 11/12/5 16/20/5
f 6/22/4 12/35/4 11/23/4
f 15/24/2 10/38/2 9/25/2
f 4/27/2 15/24/2 13/26/2
f 13/21/5 16/20/5 1/28/5
f 15/16/6 14/15/6 12/30/6
f 16/10/1 17/33/1 20/31/1
f 19/32/4 20/31/4 17/33/4
f 11/12/5 18/34/5 17/33/5
f 14/15/6 20/31/6 19/32/6
f 12/35/3 19/32/3 18/34/3
